<!DOCTYPE svg PUBLIC "-//W3C//DTD SVG 20010904//EN" "http://www.w3.org/TR/2001/REC-SVG-20010904/DTD/svg10.dtd">
<svg version="1.0" xmlns="http://www.w3.org/2000/svg" width="1245px" height="1282px" viewBox="0 0 12450 12820" preserveAspectRatio="xMidYMid meet">
<g id="layer101" fill="#000000" stroke="none">
 <path d="M6460 12415 c-47 -13 -112 -24 -145 -25 -99 -2 -186 -23 -237 -58 -40 -27 -61 -33 -169 -48 -68 -9 -161 -25 -206 -35 -45 -10 -108 -19 -140 -19 -72 -1 -275 -25 -324 -40 -24 -7 -45 -23 -64 -49 -27 -40 -27 -40 -20 -163 6 -100 12 -132 31 -170 18 -36 24 -64 24 -116 0 -38 9 -111 19 -163 22 -105 25 -175 22 -494 -2 -177 -6 -240 -23 -320 -18 -89 -20 -120 -14 -275 16 -391 51 -635 118 -823 105 -295 121 -353 148 -552 18 -125 5 -588 -21 -795 -22 -177 -30 -221 -69 -380 -16 -63 -36 -153 -45 -200 -20 -108 -75 -271 -95 -281 -8 -4 -73 -24 -145 -44 -227 -63 -322 -135 -476 -355 -88 -126 -149 -261 -149 -328 0 -11 -5 -22 -10 -24 -7 -2 -13 -55 -15 -131 -2 -71 -8 -134 -13 -140 -5 -7 -10 -48 -11 -92 -1 -44 -4 -94 -7 -111 -3 -16 2 -68 10 -113 9 -46 16 -111 16 -145 0 -33 4 -88 9 -121 5 -33 12 -99 16 -147 l7 -87 -39 -25 c-21 -14 -82 -75 -137 -136 -54 -60 -158 -163 -232 -227 -73 -64 -159 -149 -191 -188 -32 -38 -90 -107 -130 -152 -85 -95 -131 -187 -168 -333 l-24 -97 19 -112 c15 -87 26 -124 49 -160 16 -25 59 -129 94 -231 35 -102 84 -234 109 -295 25 -60 58 -148 73 -195 62 -188 179 -427 272 -558 46 -65 93 -152 93 -173 0 -17 88 -148 152 -227 45 -54 75 -80 119 -102 32 -17 63 -39 69 -50 12 -22 146 -90 179 -90 17 0 21 -6 21 -29 0 -16 4 -31 9 -33 10 -3 66 -130 88 -198 8 -25 39 -144 69 -265 74 -296 147 -532 199 -635 23 -47 79 -145 124 -219 45 -74 84 -146 88 -160 12 -54 46 -103 146 -218 191 -217 177 -206 297 -232 80 -17 127 -22 200 -19 100 4 295 34 320 49 8 5 25 13 37 19 66 28 174 116 242 195 l73 87 -1 59 c0 38 6 75 19 105 12 27 20 68 20 102 0 31 11 98 24 148 25 94 26 148 5 212 -6 19 -12 100 -14 180 -2 119 -6 157 -23 202 -38 102 -61 145 -102 190 -58 63 -114 147 -134 200 -18 49 -25 55 -127 110 -124 66 -197 190 -192 325 4 83 18 99 102 110 20 3 66 9 102 13 50 7 86 20 144 53 92 52 116 74 178 166 42 61 50 83 78 208 55 245 56 257 45 415 -8 121 -6 163 8 255 9 61 30 200 47 310 17 110 33 221 36 247 6 51 24 70 77 80 51 10 184 -42 243 -95 21 -18 54 -43 73 -55 19 -11 51 -37 69 -56 20 -20 45 -36 57 -36 21 0 23 -5 27 -92 3 -60 13 -124 30 -178 14 -47 32 -116 41 -155 14 -61 69 -191 87 -205 10 -8 59 -128 59 -145 0 -19 21 -15 37 6 9 12 20 132 13 149 -2 3 -4 14 -6 25 -2 11 -13 58 -24 104 -11 47 -19 90 -18 97 5 19 137 -64 185 -115 22 -25 76 -84 120 -131 43 -47 98 -113 123 -148 48 -66 81 -85 107 -60 29 30 60 140 62 228 2 47 6 87 10 90 4 3 7 34 8 70 1 43 -1 56 -6 40 -6 -20 -8 -14 -13 31 -6 58 -67 259 -94 311 -8 16 -52 54 -97 84 -45 31 -111 76 -147 100 -36 24 -77 54 -91 66 -15 13 -52 41 -83 63 -32 23 -56 47 -56 57 0 10 -4 18 -9 18 -5 0 -31 32 -56 70 -36 54 -58 76 -90 91 -24 11 -46 27 -49 35 -3 7 -38 35 -78 60 -40 26 -104 76 -143 112 -38 35 -88 76 -110 90 -22 14 -62 47 -90 73 -28 27 -68 55 -87 64 -20 8 -58 27 -85 43 -47 27 -148 52 -213 52 -48 0 -138 -29 -159 -51 -18 -20 -19 -19 -26 38 -4 32 -9 114 -10 183 -1 69 -5 134 -9 146 -3 12 1 51 9 88 11 47 16 118 16 234 0 253 -1 241 20 247 10 4 23 3 29 0 5 -3 10 -2 10 3 0 11 77 35 89 27 5 -3 11 -1 13 4 1 5 35 18 73 29 39 11 133 38 210 61 77 22 217 63 310 91 94 27 188 56 210 64 22 8 53 15 69 16 15 0 67 13 115 29 47 15 111 34 141 41 168 39 275 80 375 147 182 120 203 143 232 248 8 33 11 77 7 130 -3 44 -1 112 4 150 10 73 2 166 -23 290 -19 90 -107 427 -150 575 -19 63 -59 250 -90 415 l-56 300 1 210 0 210 -47 25 c-28 15 -47 31 -46 40 1 8 7 35 12 60 6 25 10 91 11 146 0 61 8 143 20 204 12 56 20 109 19 118 -14 98 80 395 150 474 17 19 65 100 107 179 72 137 155 259 192 284 9 6 45 22 78 34 46 17 76 37 120 81 60 61 134 171 134 200 0 26 -51 67 -99 80 -24 6 -60 25 -80 40 -45 36 -119 54 -191 45 -30 -4 -90 -7 -132 -7 -73 1 -80 -1 -125 -33 -26 -19 -76 -48 -110 -64 -35 -16 -84 -45 -109 -63 -46 -33 -212 -197 -276 -273 -48 -57 -184 -185 -318 -300 -144 -123 -170 -160 -170 -237 0 -115 32 -202 135 -362 l36 -57 -2 -172 c-2 -194 -17 -329 -47 -432 -12 -38 -26 -122 -33 -185 -6 -63 -16 -124 -22 -135 -6 -11 -14 -112 -18 -225 -5 -113 -13 -248 -18 -300 -5 -52 -8 -176 -6 -275 3 -144 8 -193 24 -245 31 -100 82 -292 79 -296 -4 -4 -582 83 -640 97 -42 10 -47 14 -54 47 -4 20 -8 66 -9 102 -3 88 -14 205 -25 263 -6 26 -10 67 -10 91 0 24 -7 65 -15 92 -8 27 -15 60 -15 74 0 15 -4 30 -9 35 -4 6 -13 42 -20 82 -6 40 -22 107 -35 150 -57 187 -75 278 -81 408 -9 189 -15 271 -25 302 -34 113 -105 295 -139 356 -22 39 -49 97 -61 127 -11 30 -25 64 -29 75 -5 11 -14 61 -21 110 -6 50 -20 120 -31 157 -19 64 -55 232 -84 392 -16 87 -21 107 -40 151 -90 214 -95 228 -120 379 -9 54 -24 117 -32 140 -8 23 -18 79 -23 126 -5 47 -13 121 -19 165 -5 44 -13 165 -16 269 l-7 188 68 64 c102 96 283 179 500 229 97 22 175 68 245 143 86 92 119 147 119 202 0 49 -26 102 -60 120 -41 22 -141 20 -230 -5z m-1810 -7464 c-15 -47 -8 -106 16 -132 20 -22 35 -195 22 -244 -4 -16 -8 -45 -8 -64 0 -19 -7 -42 -15 -51 -9 -10 -18 -30 -21 -45 -3 -15 -15 -53 -28 -84 -36 -85 -46 -126 -56 -240 -9 -102 -24 -142 -48 -127 -24 15 -127 175 -169 263 -49 105 -57 144 -57 280 0 89 1 92 35 135 20 23 54 70 76 104 23 33 57 74 76 91 20 17 42 45 51 61 9 17 31 39 49 51 18 11 42 30 52 41 28 31 41 10 25 -39z"/>
 </g>
<g id="layer102" fill="#ff4466" stroke="none">
 <path d="M4437 6383 c-3 -5 -5 -44 -6 -88 -1 -44 -4 -94 -7 -111 -3 -16 2 -68 10 -113 9 -46 16 -111 16 -145 0 -33 4 -88 9 -121 5 -33 12 -99 16 -147 l7 -87 -39 -25 c-21 -14 -82 -75 -137 -136 -54 -60 -158 -163 -232 -227 -73 -64 -159 -149 -191 -188 -32 -38 -90 -107 -130 -152 -85 -95 -131 -187 -168 -333 l-24 -97 19 -112 c15 -87 26 -124 49 -160 16 -25 59 -129 94 -231 35 -102 84 -234 109 -295 25 -60 58 -148 73 -195 62 -188 179 -427 272 -558 46 -65 93 -152 93 -173 0 -17 88 -148 152 -227 45 -54 75 -80 119 -102 32 -17 63 -39 69 -49 17 -32 128 -82 200 -91 36 -4 100 -15 144 -24 61 -13 87 -14 118 -5 27 7 49 7 67 1 14 -6 49 -16 76 -23 101 -25 167 -70 222 -149 13 -19 34 -49 47 -67 28 -38 38 -111 37 -263 -1 -124 -9 -196 -26 -230 -7 -14 -15 -42 -19 -64 -4 -21 -18 -59 -31 -85 -49 -96 -65 -143 -65 -185 0 -47 24 -116 40 -116 6 0 10 -7 10 -15 0 -20 77 -20 140 -1 25 7 73 17 107 21 l62 7 50 -158 c28 -87 51 -176 51 -198 0 -42 21 -158 30 -166 3 -3 10 -13 15 -23 6 -10 39 -29 75 -41 36 -13 83 -31 105 -39 30 -12 79 -16 204 -17 151 0 166 2 200 22 42 25 71 53 71 68 0 5 5 10 11 10 36 0 139 121 139 163 0 8 11 40 25 71 17 39 25 75 25 114 0 31 11 98 24 148 25 94 26 148 5 212 -6 19 -12 100 -14 180 -2 119 -6 157 -23 202 -38 102 -61 145 -102 190 -58 63 -114 147 -134 200 -18 49 -25 55 -127 110 -124 66 -197 190 -192 325 4 83 18 99 102 110 20 3 66 9 102 13 50 7 86 20 144 53 92 52 116 74 178 166 42 61 50 83 78 208 55 245 56 257 45 415 -8 121 -6 163 8 255 9 61 30 200 47 310 17 110 33 221 36 247 6 51 24 70 77 80 51 10 184 -42 243 -95 21 -18 54 -43 73 -55 19 -11 51 -37 69 -56 20 -20 45 -36 57 -36 21 0 23 -5 27 -92 3 -60 13 -124 30 -178 14 -47 32 -116 41 -155 14 -61 69 -191 87 -205 10 -8 59 -128 59 -145 0 -19 21 -15 37 6 9 12 20 132 13 149 -2 3 -4 14 -6 25 -2 11 -13 58 -24 104 -11 47 -19 90 -18 97 5 19 137 -64 185 -115 22 -25 76 -84 120 -131 43 -47 98 -113 123 -148 48 -66 81 -85 107 -60 29 30 60 140 62 228 2 47 6 87 10 90 4 3 7 34 8 70 1 43 -1 56 -6 40 -6 -20 -8 -14 -13 31 -6 58 -67 259 -94 311 -8 16 -52 54 -97 84 -45 31 -111 76 -147 100 -36 24 -77 54 -91 66 -15 13 -52 41 -83 63 -32 23 -56 47 -56 57 0 10 -4 18 -9 18 -5 0 -31 32 -56 70 -36 54 -58 76 -90 91 -24 11 -46 27 -49 35 -3 7 -38 35 -78 60 -40 26 -104 76 -143 112 -38 35 -88 76 -110 90 -22 14 -62 47 -90 73 -28 27 -68 55 -87 64 -20 8 -58 27 -85 43 -47 27 -148 52 -213 52 -48 0 -138 -29 -159 -51 -18 -19 -18 -19 -26 33 -4 29 -8 114 -10 190 -1 75 -6 141 -9 147 -4 6 0 46 10 88 13 59 16 105 12 204 -3 70 -2 149 3 175 11 56 3 94 -20 94 -9 0 -38 -9 -66 -19 -51 -19 -311 -75 -399 -85 -27 -3 -54 -10 -60 -15 -16 -13 -218 -53 -247 -49 -16 2 -25 10 -27 27 -4 24 -19 40 -106 106 -28 21 -56 43 -64 49 -8 6 -39 34 -70 63 -30 28 -83 66 -118 84 -61 31 -67 32 -146 26 -48 -4 -85 -12 -89 -19 -6 -9 -10 -7 -15 7 -13 32 -55 66 -124 98 -36 17 -83 45 -104 63 -21 19 -62 41 -90 50 -52 17 -157 64 -166 75 -24 30 -160 54 -173 32z m213 -1432 c-15 -47 -8 -106 16 -132 20 -22 35 -195 22 -244 -4 -16 -8 -45 -8 -64 0 -19 -7 -42 -15 -51 -9 -10 -18 -30 -21 -45 -3 -15 -15 -53 -28 -84 -36 -85 -46 -126 -56 -240 -9 -102 -24 -142 -48 -127 -24 15 -127 175 -169 263 -49 105 -57 144 -57 280 0 89 1 92 35 135 20 23 54 70 76 104 23 33 57 74 76 91 20 17 42 45 51 61 9 17 31 39 49 51 18 11 42 30 52 41 28 31 41 10 25 -39z"/>
 </g>
<g id="layer103" fill="#b69581" stroke="none">
 <path d="M5145 6073 c-16 -3 -32 -8 -35 -12 -3 -4 -37 -26 -76 -49 -39 -22 -76 -48 -84 -56 -7 -9 -36 -29 -64 -46 -60 -34 -106 -81 -106 -109 0 -10 -19 -35 -41 -56 l-41 -37 6 -62 c9 -74 61 -177 112 -220 19 -15 46 -51 60 -78 20 -39 34 -54 65 -66 21 -8 39 -19 39 -23 0 -16 115 -42 175 -41 59 2 176 23 244 44 39 12 181 104 181 117 0 18 -52 41 -93 41 -23 0 -69 -7 -100 -15 -76 -20 -101 -20 -93 1 3 9 6 21 6 29 0 14 108 69 159 80 54 12 158 61 201 96 39 32 40 34 40 96 0 71 4 66 -104 148 -28 21 -56 43 -64 49 -8 6 -39 34 -69 62 -80 75 -161 114 -232 113 -31 -1 -69 -4 -86 -6z"/>
 <path d="M7670 4261 c-70 -25 -113 -56 -150 -108 -19 -26 -38 -51 -44 -55 -5 -4 -10 -64 -10 -140 0 -116 3 -144 26 -218 14 -47 33 -116 42 -155 14 -61 69 -191 87 -205 10 -8 59 -128 59 -145 0 -19 21 -15 37 6 9 12 20 132 13 149 -2 3 -4 14 -6 25 -2 11 -13 58 -24 104 -11 47 -19 90 -18 97 5 19 137 -64 185 -115 22 -25 76 -84 120 -131 43 -47 98 -113 123 -148 48 -66 81 -85 107 -60 29 30 60 140 62 228 2 47 6 87 10 90 4 3 7 34 8 70 1 43 -1 56 -6 40 -6 -20 -8 -14 -13 31 -6 58 -67 259 -94 311 -8 16 -52 54 -97 84 -45 31 -111 76 -147 100 -36 24 -76 53 -90 64 -41 35 -104 81 -120 90 -8 4 -35 0 -60 -9z"/>
 <path d="M5905 2621 c-11 -5 -42 -10 -68 -10 -50 -1 -117 -23 -117 -39 0 -6 -16 -13 -35 -16 -48 -9 -137 -50 -198 -91 -28 -19 -55 -35 -59 -35 -12 0 -209 -133 -261 -175 -9 -8 -22 -15 -27 -15 -6 0 -10 -11 -10 -25 0 -19 7 -26 28 -31 150 -34 216 -73 279 -164 13 -19 34 -49 47 -67 28 -38 38 -111 37 -263 -1 -124 -9 -196 -26 -230 -7 -14 -15 -42 -19 -64 -4 -21 -18 -59 -31 -85 -49 -96 -65 -143 -65 -185 0 -47 24 -116 40 -116 6 0 10 -7 10 -15 0 -20 77 -20 140 -1 25 7 73 17 107 21 l62 7 50 -158 c28 -87 51 -176 51 -198 0 -42 21 -158 30 -166 3 -3 10 -13 15 -23 6 -10 39 -29 75 -41 36 -13 83 -31 105 -39 30 -12 79 -16 204 -17 151 0 166 2 200 22 42 25 71 53 71 68 0 5 5 10 11 10 36 0 139 121 139 163 0 8 11 40 25 71 17 39 25 75 25 114 0 31 11 98 24 148 25 94 26 148 5 212 -6 19 -12 100 -14 180 -2 119 -6 157 -23 202 -38 102 -61 145 -102 190 -58 63 -114 147 -134 200 -18 49 -25 55 -127 110 -126 67 -199 193 -191 330 5 83 1 113 -19 159 -14 33 -28 51 -43 55 -45 11 -191 16 -211 7z"/>
 </g>

</svg>