<!DOCTYPE svg PUBLIC "-//W3C//DTD SVG 20010904//EN" "http://www.w3.org/TR/2001/REC-SVG-20010904/DTD/svg10.dtd">
<svg version="1.0" xmlns="http://www.w3.org/2000/svg" width="1262px" height="1363px" viewBox="0 0 12620 13630" preserveAspectRatio="xMidYMid meet">
<g id="layer101" fill="#000000" stroke="none">
 <path d="M6101 13209 c-86 -8 -182 -46 -228 -89 -11 -9 -24 -19 -30 -21 -37 -14 -131 -103 -288 -273 -44 -48 -99 -100 -122 -116 -39 -28 -42 -33 -48 -92 -5 -48 -1 -94 18 -193 31 -156 42 -335 28 -426 -6 -37 -25 -111 -42 -165 -16 -55 -34 -121 -40 -148 -5 -27 -16 -63 -25 -80 -8 -17 -17 -53 -20 -81 -3 -27 -12 -59 -19 -70 -8 -11 -22 -30 -31 -43 -12 -16 -19 -59 -25 -150 -5 -70 -14 -185 -20 -257 -17 -199 -23 -624 -10 -771 7 -86 22 -174 46 -264 57 -219 62 -242 75 -316 15 -82 3 -194 -31 -292 -11 -31 -28 -102 -39 -157 -10 -55 -35 -163 -55 -240 -20 -77 -63 -248 -96 -380 -33 -132 -68 -253 -78 -270 -9 -16 -25 -52 -36 -80 -10 -27 -43 -97 -73 -155 -79 -150 -182 -369 -182 -388 0 -4 -20 -70 -45 -147 -51 -156 -78 -298 -95 -485 -11 -125 -8 -363 6 -410 4 -14 3 -21 -2 -17 -5 5 -18 -19 -29 -53 -16 -48 -20 -83 -19 -168 1 -59 7 -127 13 -152 16 -70 14 -138 -7 -168 -22 -31 -36 -63 -33 -75 1 -4 -4 -7 -11 -5 -30 7 -106 -53 -159 -124 -87 -116 -95 -128 -164 -230 -36 -54 -71 -98 -76 -98 -6 0 -8 -4 -5 -9 3 -5 -1 -12 -10 -15 -9 -4 -14 -9 -11 -13 8 -7 -20 -48 -33 -48 -6 0 -10 -4 -11 -10 0 -14 -40 -55 -53 -55 -19 -1 -182 -221 -171 -231 1 -2 -28 -49 -65 -104 -138 -202 -184 -331 -170 -483 8 -91 49 -251 82 -315 10 -21 16 -42 13 -47 -3 -6 -2 -10 3 -10 14 0 29 -45 51 -153 21 -102 47 -171 61 -162 16 10 117 -251 113 -292 0 -7 3 -11 7 -8 5 3 22 -30 40 -72 146 -357 390 -799 490 -888 13 -11 53 -56 90 -100 52 -62 83 -89 138 -119 39 -21 69 -42 67 -46 -9 -15 43 -27 125 -29 89 -2 127 -11 47 -11 -26 0 -47 -3 -47 -6 0 -17 24 -45 57 -65 41 -23 103 -84 103 -99 0 -5 28 -42 63 -82 151 -177 144 -165 181 -310 42 -161 114 -397 151 -493 15 -38 36 -103 46 -143 16 -60 32 -90 84 -159 76 -99 81 -107 89 -153 4 -19 21 -84 39 -145 l32 -110 140 -142 c97 -98 154 -148 185 -162 52 -23 148 -39 310 -52 172 -14 277 3 372 59 44 26 198 166 198 181 0 3 31 41 70 84 38 42 73 90 77 105 3 15 15 47 26 71 14 31 17 56 13 90 -6 44 -6 208 -2 359 1 40 -1 75 -6 78 -5 3 -6 10 -3 15 4 5 2 9 -4 9 -16 0 -29 89 -31 210 -2 138 -5 166 -20 185 -7 8 -9 15 -4 15 5 0 5 4 -1 8 -5 4 -19 24 -29 44 -11 21 -23 38 -28 38 -5 0 -6 5 -3 10 3 6 1 10 -5 10 -6 0 -8 5 -5 10 3 6 2 10 -4 10 -5 0 -15 16 -21 36 -7 20 -30 52 -51 72 -21 21 -39 41 -39 46 0 11 -97 116 -127 136 -117 81 -183 133 -183 145 0 8 -5 15 -11 15 -6 0 -9 9 -6 20 3 11 1 20 -3 20 -5 0 -9 8 -9 18 0 9 -3 44 -6 77 -6 67 -3 73 40 95 16 9 36 27 43 40 13 23 13 24 9 3 -6 -26 0 -27 58 -12 22 6 74 19 115 29 157 39 211 64 268 127 99 108 118 144 183 359 43 143 64 232 74 314 21 172 24 391 5 415 -32 43 -6 488 35 600 21 56 26 60 59 66 30 5 41 1 64 -20 15 -14 62 -53 106 -86 160 -122 177 -137 182 -150 3 -8 11 -12 17 -10 21 7 57 -52 68 -112 15 -80 50 -182 99 -288 23 -49 49 -108 58 -129 9 -22 45 -96 79 -166 76 -159 112 -189 161 -137 23 24 30 81 12 92 -5 3 -6 13 -3 22 5 12 3 14 -7 8 -10 -6 -12 -4 -7 8 4 10 2 17 -4 17 -6 0 -9 7 -5 15 3 8 1 15 -5 15 -6 0 -7 5 -4 10 3 5 1 10 -5 10 -6 0 -8 4 -5 10 3 5 1 10 -4 10 -6 0 -10 3 -9 8 6 15 -34 102 -44 96 -6 -4 -8 2 -3 16 5 15 4 20 -4 16 -7 -4 -11 1 -11 13 0 24 2 25 55 10 68 -18 222 -190 286 -319 53 -106 99 -131 99 -55 0 20 6 35 15 39 8 3 15 18 15 34 0 16 8 53 17 83 13 41 17 95 17 229 l1 175 -32 49 c-18 27 -33 57 -33 65 0 9 -7 25 -15 35 -8 10 -12 23 -8 29 3 6 2 7 -4 4 -5 -3 -17 7 -27 23 -22 38 -124 117 -174 134 -22 8 -61 31 -87 51 -26 20 -60 42 -75 50 -25 13 -56 65 -75 123 -4 13 -9 21 -12 18 -3 -3 -19 14 -35 37 -48 67 -267 275 -333 314 -103 63 -288 213 -261 213 14 0 -17 31 -46 46 -40 21 -35 10 8 -16 19 -12 33 -24 31 -27 -3 -2 -26 9 -53 25 -286 170 -326 185 -411 148 -27 -12 -63 -31 -80 -43 -17 -13 -38 -23 -46 -23 -17 0 -28 43 -20 81 3 15 0 30 -6 33 -13 9 -15 135 -2 168 5 13 24 102 41 198 38 204 57 249 136 313 l54 45 -158 138 c-181 159 -285 254 -277 254 4 0 30 -22 58 -49 29 -26 115 -103 192 -171 77 -67 154 -135 172 -151 37 -33 54 -30 128 20 49 33 143 66 235 81 36 6 106 24 155 40 50 16 146 43 215 60 71 18 196 61 290 100 91 38 244 99 340 135 289 111 450 203 503 286 11 16 24 26 30 22 7 -3 9 -3 5 2 -10 10 22 64 45 76 12 7 16 17 12 30 -4 10 -3 19 2 19 4 0 8 10 9 23 0 12 9 53 20 90 l18 68 -22 107 c-13 59 -36 168 -53 242 -76 344 -90 422 -102 567 -1 12 -4 19 -6 17 -8 -8 -32 59 -71 201 -22 77 -51 174 -65 215 -14 41 -37 118 -49 170 -13 52 -36 141 -50 198 -15 56 -24 107 -21 112 3 6 2 10 -2 10 -5 0 -9 15 -10 34 -1 19 -5 41 -9 48 -5 7 -9 27 -10 43 -2 108 -2 107 -33 100 -27 -6 -29 -4 -35 38 -4 24 -22 86 -40 138 -23 64 -35 121 -40 179 -3 47 -15 139 -26 205 -11 66 -23 183 -26 260 -3 77 -9 159 -14 183 -4 26 -4 42 2 42 6 0 8 7 5 14 -3 8 3 64 14 123 11 59 26 146 35 193 8 47 31 135 51 195 40 121 85 189 191 287 31 28 48 46 37 39 -11 -7 -2 4 20 24 22 21 31 32 21 24 -16 -12 -16 -8 4 19 23 31 39 45 24 20 -4 -7 -3 -8 5 -4 6 4 9 12 5 17 -3 6 1 18 9 27 20 23 29 219 10 226 -7 3 -13 14 -13 25 0 35 -51 53 -123 45 -85 -9 -175 -56 -297 -156 -165 -135 -194 -157 -201 -153 -3 3 -13 -3 -22 -13 -17 -18 -65 -121 -71 -150 -1 -9 -18 -47 -35 -84 -18 -37 -34 -73 -35 -80 -5 -38 -53 -137 -79 -165 -24 -25 -41 -33 -83 -39 -44 -5 -64 -15 -121 -61 -106 -86 -154 -135 -170 -171 -23 -55 -27 -185 -7 -240 21 -58 112 -206 176 -288 33 -43 51 -78 60 -115 12 -53 17 -771 9 -1159 -4 -183 4 -239 64 -435 18 -60 41 -139 50 -175 8 -36 32 -105 52 -154 20 -50 36 -96 36 -103 0 -7 3 -13 7 -13 4 0 13 -18 20 -41 11 -32 11 -45 2 -60 -7 -10 -12 -32 -12 -49 l0 -30 -187 0 c-170 1 -201 4 -328 31 -77 16 -147 34 -156 38 -8 5 -50 15 -93 21 -76 13 -179 10 -355 -8 -41 -5 -97 -5 -125 -1 -28 4 -131 3 -229 -3 -117 -7 -182 -7 -188 -1 -7 7 -6 32 0 74 14 82 14 251 0 309 -22 94 -40 309 -53 650 -1 41 -5 82 -8 90 -4 8 -13 123 -22 255 -38 569 -65 758 -147 1042 -37 130 -142 674 -174 908 -14 99 -30 213 -36 254 -6 40 -8 103 -4 140 3 36 8 179 10 316 3 177 8 263 18 295 8 25 12 51 10 58 -3 6 1 12 7 12 7 0 10 7 6 17 -4 9 -3 19 2 22 5 3 16 26 25 51 17 47 65 178 90 245 8 21 20 41 26 43 6 2 9 8 5 13 -3 5 2 12 10 15 9 3 16 11 16 18 0 13 87 104 232 243 58 55 111 110 117 122 7 11 46 47 88 78 57 43 85 73 108 113 60 108 65 169 15 208 -45 35 -362 52 -579 31z m-1168 -6546 c-18 -2 -48 -2 -65 0 -18 2 -4 4 32 4 36 0 50 -2 33 -4z m-140 -10 c-18 -2 -48 -2 -65 0 -18 2 -4 4 32 4 36 0 50 -2 33 -4z m570 -40 c-18 -2 -48 -2 -65 0 -18 2 -4 4 32 4 36 0 50 -2 33 -4z m164 -10 c-20 -2 -52 -2 -70 0 -17 2 0 4 38 4 39 0 53 -2 32 -4z m231 -30 c-10 -2 -26 -2 -35 0 -10 3 -2 5 17 5 19 0 27 -2 18 -5z m155 -10 c-23 -2 -64 -2 -90 0 -26 2 -7 3 42 3 50 0 71 -1 48 -3z m285 -50 c-10 -2 -28 -2 -40 0 -13 2 -5 4 17 4 22 1 32 -1 23 -4z m127 -23 c13 -5 14 -9 5 -9 -8 0 -24 4 -35 9 -13 5 -14 9 -5 9 8 0 24 -4 35 -9z m70 -20 c13 -5 14 -9 5 -9 -8 0 -24 4 -35 9 -13 5 -14 9 -5 9 8 0 24 -4 35 -9z m145 -50 c22 -11 40 -23 40 -25 0 -5 -79 32 -89 41 -11 10 14 2 49 -16z m-1427 -907 c-23 -2 -64 -2 -90 0 -26 2 -7 3 42 3 50 0 71 -1 48 -3z m-329 -58 c22 -23 77 -142 82 -180 2 -11 8 -47 14 -80 12 -63 10 -110 -14 -340 -10 -93 -23 -165 -40 -213 -29 -82 -54 -199 -87 -410 -17 -103 -29 -148 -42 -163 -10 -11 -29 -38 -41 -59 l-22 -40 -41 43 c-57 60 -98 124 -129 203 -15 38 -47 95 -71 127 -25 32 -60 94 -79 137 -35 79 -35 81 -25 156 6 41 11 106 11 144 0 65 3 75 78 221 42 84 91 168 108 186 17 18 29 33 26 33 -3 0 1 6 9 13 9 6 36 41 62 77 61 86 98 127 133 145 36 19 49 19 68 0z m1752 -2807 l29 -33 -32 29 c-31 28 -38 36 -30 36 2 0 16 -15 33 -32z m-1488 -315 c-16 -2 -40 -2 -55 0 -16 2 -3 4 27 4 30 0 43 -2 28 -4z m157 -3 c-3 -5 -34 -9 -68 -8 l-62 1 60 7 c33 4 64 7 68 8 5 1 5 -2 2 -8z m425 -157 c0 -6 -71 37 -90 55 -8 7 9 0 38 -18 28 -17 52 -34 52 -37z m147 -460 c-2 -16 -4 -5 -4 22 0 28 2 40 4 28 2 -13 2 -35 0 -50z m3 -153 l-11 -25 6 25 c2 14 6 48 7 75 l2 50 3 -50 c2 -28 -1 -62 -7 -75z m-26 -82 c-15 -31 -124 -154 -124 -141 0 4 24 31 54 62 29 31 59 74 67 94 7 21 15 34 17 28 2 -5 -4 -25 -14 -43z m-134 -205 c-7 -21 -16 -42 -21 -47 -4 -5 -1 14 8 42 9 29 19 50 21 47 2 -2 -1 -21 -8 -42z m-7 -138 c3 -36 2 -52 -3 -40 -8 19 -14 113 -6 104 2 -2 6 -31 9 -64z m49 -115 c13 -5 17 -9 9 -9 -20 -1 -51 29 -50 48 0 10 4 8 9 -7 5 -12 20 -27 32 -32z m178 43 c-19 -3 -48 -14 -65 -25 l-30 -20 30 26 c21 18 40 25 65 24 l35 -1 -35 -4z m140 -18 c7 -9 10 -18 6 -22 -3 -3 -6 -1 -6 6 0 6 -10 16 -22 21 -16 6 -18 9 -7 9 9 1 22 -6 29 -14z m17 -107 c-2 -13 -4 -5 -4 17 -1 22 1 32 4 23 2 -10 2 -28 0 -40z m1054 -169 c-17 -35 -30 -60 -31 -55 0 12 52 127 57 123 2 -2 -10 -33 -26 -68z m-950 -90 c16 -20 38 -61 50 -91 15 -39 33 -64 62 -86 22 -18 36 -32 31 -32 -25 1 -85 70 -104 119 -12 30 -32 68 -46 84 -26 30 -64 100 -64 114 1 4 10 -10 22 -32 11 -22 34 -56 49 -76z m889 -34 c-18 -26 -59 -66 -91 -90 -55 -40 -153 -86 -182 -84 -7 0 16 10 50 23 98 36 181 99 223 166 13 21 26 37 28 35 2 -2 -10 -25 -28 -50z m-670 -185 c20 -6 21 -8 5 -8 -11 0 -31 4 -45 8 -20 6 -21 8 -5 8 11 0 31 -4 45 -8z m298 -7 c-15 -2 -42 -2 -60 0 -18 2 -6 4 27 4 33 0 48 -2 33 -4z"/>
 </g>
<g id="layer102" fill="#ff4466" stroke="none">
 <path d="M4800 6655 c-233 -18 -212 -11 -235 -78 -16 -46 -20 -80 -19 -165 1 -59 7 -127 13 -152 16 -70 14 -138 -7 -168 -22 -31 -36 -63 -33 -75 1 -4 -4 -7 -11 -5 -30 7 -106 -53 -159 -124 -87 -116 -95 -128 -164 -230 -36 -54 -71 -98 -76 -98 -6 0 -8 -4 -5 -9 3 -5 -1 -12 -10 -15 -9 -4 -14 -9 -11 -13 8 -7 -20 -48 -33 -48 -6 0 -9 -3 -7 -7 3 -9 -44 -58 -57 -58 -19 -1 -182 -221 -171 -231 1 -2 -28 -49 -65 -104 -138 -202 -184 -331 -170 -483 8 -91 49 -251 82 -315 10 -21 16 -42 13 -47 -3 -6 -2 -10 3 -10 14 0 29 -45 51 -153 21 -102 47 -171 61 -162 16 10 117 -251 113 -292 0 -7 3 -11 7 -8 5 3 22 -30 40 -72 146 -357 390 -799 490 -888 13 -11 53 -56 90 -100 52 -62 83 -89 138 -119 39 -21 69 -42 67 -46 -8 -13 40 -27 100 -29 33 -1 116 -6 184 -12 69 -6 142 -8 164 -5 29 5 71 -3 165 -30 314 -89 395 -198 433 -581 17 -170 -1 -235 -92 -328 -65 -68 -91 -146 -79 -243 12 -91 24 -120 57 -133 34 -13 67 -5 108 27 31 23 38 24 114 18 44 -4 85 -12 90 -18 6 -7 15 -51 21 -98 15 -121 42 -194 101 -269 16 -20 38 -61 49 -91 47 -122 159 -155 441 -128 112 11 195 34 263 74 56 33 127 104 148 146 56 115 79 180 84 229 9 106 10 332 2 337 -5 3 -6 10 -3 15 4 5 2 9 -4 9 -16 0 -29 89 -31 210 -2 138 -5 166 -20 185 -7 8 -9 15 -4 15 5 0 5 4 -1 8 -5 4 -19 24 -29 44 -11 21 -23 38 -28 38 -5 0 -6 5 -3 10 3 6 1 10 -5 10 -6 0 -8 5 -5 10 3 6 2 10 -4 10 -5 0 -15 16 -21 36 -7 20 -30 52 -51 72 -21 21 -39 41 -39 46 0 11 -97 116 -127 136 -117 81 -183 133 -183 145 0 8 -5 15 -11 15 -6 0 -9 9 -6 20 3 11 1 20 -3 20 -5 0 -9 8 -9 18 0 9 -3 44 -6 77 -6 67 -3 73 40 95 16 9 36 27 43 40 13 23 13 24 9 3 -6 -26 0 -27 58 -12 22 6 74 19 115 29 157 39 211 64 268 127 99 108 118 144 183 359 43 143 64 232 74 314 21 172 24 391 5 415 -32 43 -6 488 35 600 21 56 26 60 59 66 30 5 41 1 64 -20 15 -14 62 -53 106 -86 160 -122 177 -137 182 -150 3 -8 11 -12 17 -10 21 7 57 -52 68 -112 15 -80 50 -182 99 -288 23 -49 49 -108 58 -129 9 -22 45 -96 79 -166 76 -159 112 -189 161 -137 23 24 30 81 12 92 -5 3 -6 13 -3 22 5 12 3 14 -7 8 -10 -6 -12 -4 -7 8 4 10 2 17 -4 17 -6 0 -9 7 -5 15 3 8 1 15 -5 15 -6 0 -7 5 -4 10 3 6 1 10 -5 10 -6 0 -8 4 -5 10 3 5 1 10 -4 10 -6 0 -10 3 -9 8 6 15 -34 102 -44 96 -6 -4 -8 2 -3 16 5 15 4 20 -4 16 -7 -4 -11 1 -11 13 0 24 2 25 55 10 68 -18 222 -190 286 -319 53 -106 99 -131 99 -55 0 20 6 35 15 39 8 3 15 18 15 34 0 16 8 53 17 83 13 41 17 95 17 229 l1 175 -32 49 c-18 27 -33 57 -33 65 0 9 -7 25 -15 35 -8 10 -12 23 -8 29 3 6 2 7 -4 4 -5 -3 -17 7 -27 23 -22 38 -124 117 -174 134 -22 8 -61 31 -87 51 -26 20 -60 42 -75 50 -25 13 -56 65 -75 123 -4 13 -9 21 -12 18 -3 -3 -19 14 -35 37 -48 67 -267 275 -333 314 -103 63 -288 213 -261 213 14 0 -17 31 -46 46 -40 21 -35 10 8 -16 19 -12 33 -24 31 -27 -3 -2 -26 9 -53 25 -286 170 -326 185 -411 148 -27 -12 -63 -31 -80 -43 -17 -13 -38 -23 -46 -23 -17 0 -28 43 -20 81 3 15 0 30 -6 33 -13 9 -15 135 -2 168 5 13 24 102 41 198 38 204 58 249 135 313 l54 45 -152 133 c-83 73 -179 158 -212 190 -34 31 -92 72 -130 91 -81 41 -256 92 -368 107 -44 6 -114 20 -157 31 -43 11 -111 20 -150 20 -39 0 -128 9 -198 19 -70 11 -185 22 -257 26 -71 4 -186 17 -255 30 -178 33 -188 33 -370 20z m313 -1142 c-23 -2 -64 -2 -90 0 -26 2 -7 3 42 3 50 0 71 -1 48 -3z m-329 -58 c22 -23 77 -142 82 -180 2 -11 8 -47 14 -80 12 -63 10 -110 -14 -340 -10 -93 -23 -165 -40 -213 -29 -82 -54 -199 -87 -410 -17 -103 -29 -148 -42 -163 -10 -11 -29 -38 -41 -59 l-22 -40 -41 43 c-57 60 -98 124 -129 203 -15 38 -47 95 -71 127 -25 32 -60 94 -79 137 -35 79 -35 81 -25 156 6 41 11 106 11 144 0 65 3 75 78 221 42 84 91 168 108 186 17 18 29 33 26 33 -3 0 1 6 9 13 9 6 36 41 62 77 61 86 98 127 133 145 36 19 49 19 68 0z m1752 -2807 l29 -33 -32 29 c-31 28 -38 36 -30 36 2 0 16 -15 33 -32z"/>
 </g>
<g id="layer103" fill="#b69682" stroke="none">
 <path d="M5000 6385 c-41 -12 -100 -35 -130 -50 -58 -29 -176 -121 -247 -192 -24 -23 -43 -37 -43 -31 0 18 -25 -10 -49 -57 l-22 -40 31 35 c33 36 31 26 -2 -23 -16 -22 -18 -36 -13 -70 11 -64 53 -149 85 -175 17 -13 41 -42 55 -65 37 -64 110 -115 235 -167 96 -40 212 -42 352 -6 126 32 258 92 258 118 0 62 -43 75 -173 53 -53 -9 -115 -15 -139 -13 l-43 3 75 36 c106 50 259 144 298 183 l33 33 -15 88 c-9 49 -19 91 -23 95 -5 3 -35 29 -68 56 -92 77 -178 132 -275 175 -48 21 -92 39 -96 38 -5 -1 -43 -11 -84 -24z"/>
 <path d="M7370 5097 c0 -3 19 -17 43 -32 24 -16 36 -21 28 -11 -14 16 -71 51 -71 43z"/>
 <path d="M7915 4455 c-66 -34 -123 -91 -134 -135 -5 -19 -11 -61 -14 -93 -5 -50 -3 -61 19 -86 15 -18 29 -53 35 -88 15 -80 50 -182 99 -288 23 -49 49 -108 58 -129 9 -22 45 -96 79 -166 76 -159 112 -189 161 -137 23 24 30 81 12 92 -5 3 -6 13 -3 22 5 12 3 14 -7 8 -10 -6 -12 -4 -7 8 4 10 2 17 -4 17 -6 0 -9 7 -5 15 3 8 1 15 -5 15 -6 0 -7 5 -4 10 3 6 1 10 -5 10 -6 0 -8 5 -5 10 3 6 1 10 -4 10 -6 0 -10 3 -9 8 6 15 -34 102 -44 96 -6 -4 -8 2 -3 16 5 15 4 20 -4 16 -7 -4 -11 1 -11 13 0 24 2 25 55 10 68 -18 222 -190 286 -319 53 -106 99 -131 99 -55 0 20 6 35 15 39 8 3 15 18 15 34 0 16 8 53 17 83 13 41 17 95 17 229 l1 175 -32 49 c-18 27 -33 57 -33 65 0 9 -7 25 -15 35 -8 10 -12 23 -8 29 3 6 2 7 -4 4 -5 -3 -17 7 -27 23 -22 38 -124 117 -174 134 -22 8 -61 31 -87 51 -26 20 -60 42 -75 50 -26 13 -44 42 -69 108 -8 21 -17 27 -40 27 -15 0 -41 2 -57 5 -19 3 -46 -4 -79 -20z"/>
 <path d="M6100 2733 c-207 -21 -398 -79 -590 -180 -128 -67 -171 -96 -251 -169 l-46 -42 131 -37 c318 -89 399 -197 437 -582 17 -170 -1 -235 -92 -328 -65 -68 -91 -146 -79 -243 12 -91 24 -120 57 -133 34 -13 67 -5 108 27 31 23 38 24 114 18 44 -4 85 -12 90 -18 6 -7 15 -51 21 -98 15 -121 42 -194 101 -269 16 -20 38 -61 49 -91 47 -122 159 -155 441 -128 112 11 195 34 263 74 56 33 127 104 148 146 56 115 79 180 84 229 9 106 10 332 2 337 -5 3 -6 10 -3 15 4 5 2 9 -4 9 -16 0 -29 89 -31 210 -2 138 -5 166 -20 185 -7 8 -9 15 -4 15 5 0 5 4 -1 8 -5 4 -19 24 -29 45 -11 20 -23 37 -28 37 -5 0 -6 5 -3 10 3 6 1 10 -5 10 -6 0 -8 5 -5 10 3 6 2 10 -4 10 -5 0 -15 16 -21 36 -7 20 -30 52 -51 72 -21 21 -39 41 -39 46 0 11 -97 116 -127 136 -117 81 -183 133 -183 145 0 8 -5 15 -11 15 -6 0 -9 9 -6 20 3 10 1 20 -4 22 -11 4 -22 132 -14 158 4 11 13 20 20 20 8 0 26 10 41 23 23 20 26 28 20 60 -24 129 -213 197 -476 170z"/>
 <path d="M4750 2365 c14 -8 30 -14 35 -14 6 0 -1 6 -15 14 -14 8 -29 14 -35 14 -5 0 1 -6 15 -14z"/>
 </g>

</svg>