<!DOCTYPE svg PUBLIC "-//W3C//DTD SVG 20010904//EN" "http://www.w3.org/TR/2001/REC-SVG-20010904/DTD/svg10.dtd">
<svg version="1.0" xmlns="http://www.w3.org/2000/svg" width="1152px" height="1239px" viewBox="0 0 11520 12390" preserveAspectRatio="xMidYMid meet">
<g id="layer101" fill="#000000" stroke="none">
<path d="M2611 11949 c-77 -13 -111 -43 -145 -127 -53 -130 -23 -196 155 -350 49 -42 142 -139 205 -215 110 -133 116 -142 130 -207 8 -38 18 -80 23 -92 6 -13 24 -70 42 -128 17 -58 42 -126 56 -152 13 -27 41 -123 64 -215 67 -281 116 -474 142 -558 13 -44 29 -107 35 -139 7 -35 28 -86 51 -125 21 -36 42 -77 46 -91 14 -48 116 -250 127 -250 6 0 9 -3 5 -6 -3 -3 17 -43 44 -89 61 -104 180 -353 220 -460 52 -139 132 -306 198 -415 35 -58 91 -154 124 -215 108 -200 149 -268 261 -442 165 -257 173 -271 195 -332 11 -31 45 -123 76 -206 31 -82 71 -196 90 -252 18 -55 55 -138 80 -184 26 -45 50 -99 52 -119 5 -36 5 -36 -43 -47 -120 -28 -233 -53 -279 -60 -44 -7 -50 -11 -59 -41 -7 -24 -4 -55 12 -125 22 -92 35 -247 48 -563 5 -130 3 -176 -11 -244 -9 -45 -14 -96 -11 -112 3 -16 -1 -97 -9 -181 -8 -84 -15 -222 -15 -307 0 -85 -5 -171 -11 -190 -5 -19 -14 -62 -19 -95 -11 -73 -54 -203 -83 -253 -16 -27 -23 -60 -27 -137 -8 -111 -22 -144 -71 -165 -20 -9 -32 -27 -47 -68 -23 -66 -23 -73 -10 -167 14 -99 12 -147 -11 -260 -24 -118 -59 -418 -65 -560 -2 -55 -8 -134 -12 -177 -7 -76 -7 -76 36 -160 64 -124 195 -320 283 -423 19 -22 47 -60 62 -84 15 -24 116 -135 224 -245 187 -192 276 -290 310 -339 8 -12 34 -44 57 -72 81 -97 132 -202 219 -446 19 -53 49 -134 68 -180 18 -46 39 -106 47 -134 7 -27 24 -83 37 -124 17 -50 28 -117 35 -205 6 -72 12 -133 13 -134 7 -8 47 11 76 36 18 15 44 26 62 26 29 1 33 5 48 56 10 30 18 73 18 94 1 21 17 91 36 155 19 64 45 166 59 226 44 196 87 368 118 465 68 216 162 336 524 665 50 46 145 152 222 250 74 94 151 189 171 211 72 83 101 123 101 140 0 10 6 25 14 33 8 9 26 45 41 80 22 53 26 74 21 120 -3 31 -10 124 -15 206 -5 83 -16 184 -25 225 -8 41 -27 151 -41 244 -15 92 -32 187 -39 211 -14 45 -12 135 3 163 13 25 5 185 -9 213 -7 13 -33 44 -57 68 -23 24 -43 53 -43 63 0 22 -68 207 -82 225 -5 6 -16 40 -24 75 -8 35 -24 78 -35 96 -14 25 -20 57 -23 130 -4 105 -18 193 -46 287 -16 52 -18 90 -14 295 2 129 0 285 -4 345 -5 61 -5 151 0 200 4 50 8 158 9 240 1 122 5 158 21 194 15 37 17 50 7 80 -17 51 -24 58 -82 71 -69 16 -147 50 -148 64 -6 59 39 243 97 399 24 65 44 131 44 147 0 71 161 326 284 450 46 47 106 119 134 161 71 109 109 162 241 337 65 86 133 186 151 222 18 36 62 109 97 163 36 54 115 198 177 320 62 122 150 282 195 356 128 207 231 443 280 641 11 47 23 92 26 100 2 8 14 65 25 125 12 61 34 157 50 215 15 58 31 119 34 135 10 44 66 225 82 263 8 18 14 39 14 46 0 8 11 38 25 68 14 29 25 71 25 94 0 23 6 60 14 82 9 24 12 56 9 76 -5 31 -3 36 20 41 17 5 56 44 112 116 48 59 118 133 155 163 83 68 228 209 259 254 l23 33 -27 62 c-31 72 -44 88 -104 129 -62 41 -134 55 -196 38 -109 -30 -262 -184 -335 -334 -21 -44 -56 -99 -77 -122 -96 -103 -103 -113 -103 -159 0 -38 -5 -49 -45 -89 -54 -55 -73 -91 -96 -181 -11 -45 -33 -94 -61 -137 -46 -70 -52 -81 -118 -248 -23 -58 -57 -126 -76 -152 -56 -75 -179 -344 -208 -452 -30 -115 -61 -182 -115 -253 -22 -29 -48 -67 -57 -84 -9 -18 -38 -63 -65 -100 -27 -37 -49 -70 -49 -73 0 -9 -125 -181 -190 -261 -32 -38 -88 -92 -126 -119 -38 -27 -86 -71 -108 -98 -21 -27 -90 -92 -154 -146 -64 -53 -169 -149 -232 -213 -63 -64 -135 -131 -160 -149 -25 -17 -63 -48 -85 -69 -22 -20 -60 -51 -85 -68 -25 -17 -54 -41 -65 -53 -11 -12 -42 -33 -70 -47 -27 -14 -65 -36 -83 -50 -55 -41 -195 -83 -279 -83 -67 0 -79 3 -149 43 -98 54 -106 62 -309 302 -42 50 -138 151 -213 225 -156 155 -435 453 -441 472 -2 7 -29 42 -59 78 -61 71 -152 206 -152 224 0 28 -147 215 -255 326 -52 52 -124 200 -178 360 -88 260 -85 255 -255 527 -28 45 -66 119 -85 165 -70 169 -83 194 -119 241 -25 32 -41 67 -49 105 -14 71 -21 85 -75 143 -36 38 -46 57 -55 105 -10 56 -53 126 -153 250 -14 17 -39 60 -55 95 -32 72 -86 139 -140 175 -20 13 -58 40 -86 59 -54 38 -79 41 -184 24z m3471 -7915 c55 -28 79 -34 129 -34 59 0 62 -1 100 -42 21 -24 38 -52 39 -63 0 -12 4 -25 10 -31 5 -5 16 -43 24 -84 8 -41 29 -115 46 -165 17 -49 43 -135 56 -190 14 -55 40 -147 59 -205 46 -145 62 -249 46 -302 -17 -56 -73 -180 -171 -381 -63 -130 -93 -179 -132 -219 -54 -56 -154 -200 -195 -282 -14 -28 -44 -76 -67 -106 -23 -30 -52 -71 -64 -91 -24 -40 -73 -83 -168 -146 -50 -34 -66 -52 -95 -109 l-34 -68 -1 -241 c-2 -437 -4 -540 -13 -525 -13 22 -41 167 -41 210 0 22 -7 67 -15 102 -22 96 -55 325 -55 382 0 87 -20 133 -70 166 -61 40 -170 150 -222 223 -24 33 -68 92 -99 131 -31 39 -64 87 -74 106 -10 19 -44 76 -76 125 -32 50 -73 124 -92 165 -19 41 -50 95 -68 120 -36 48 -42 56 -105 146 -42 61 -114 245 -114 293 0 69 52 284 96 396 51 132 74 206 74 246 0 39 147 326 192 375 35 38 42 42 105 47 40 4 87 16 115 30 27 14 48 19 48 13 0 -6 7 -24 15 -40 14 -26 13 -38 -11 -140 -14 -61 -31 -140 -37 -175 -9 -51 -18 -70 -48 -101 -20 -21 -40 -47 -43 -58 -4 -11 -13 -23 -21 -26 -8 -3 -15 -16 -15 -28 0 -13 -9 -39 -20 -58 -83 -144 -92 -208 -49 -355 16 -55 39 -127 51 -160 11 -33 38 -109 59 -168 20 -59 44 -118 52 -130 8 -12 19 -38 26 -57 6 -19 22 -42 34 -51 12 -9 63 -45 112 -80 l90 -64 105 1 c128 2 197 19 333 83 108 50 170 104 183 158 4 16 20 57 35 93 15 36 35 94 44 130 9 36 20 81 25 100 6 19 21 49 36 65 74 84 74 85 74 188 0 102 -24 216 -61 289 -15 29 -28 40 -61 50 -82 24 -148 116 -213 295 -20 57 -25 89 -25 166 0 87 2 97 22 111 27 19 55 14 140 -30z"/>
</g>
<g id="layer102" fill="#9a00ee" stroke="none">
<path d="M5550 6816 c-112 -7 -184 -16 -200 -25 -23 -13 -116 -41 -200 -61 -51 -11 -185 -83 -226 -119 -19 -17 -34 -40 -34 -49 0 -13 -13 -21 -47 -29 -121 -29 -232 -53 -278 -60 -44 -7 -50 -11 -59 -41 -7 -24 -4 -55 12 -125 22 -92 35 -247 48 -563 5 -130 3 -176 -11 -244 -9 -45 -14 -96 -11 -112 3 -16 -1 -97 -9 -181 -8 -84 -15 -222 -15 -307 0 -85 -5 -171 -11 -190 -5 -19 -14 -62 -19 -95 -11 -73 -54 -203 -83 -253 -16 -27 -23 -60 -27 -137 -8 -111 -22 -144 -71 -165 -20 -9 -32 -27 -47 -68 -23 -66 -23 -73 -10 -167 14 -99 12 -147 -11 -260 -24 -118 -59 -418 -65 -560 -2 -55 -8 -134 -12 -177 -7 -76 -7 -76 36 -160 64 -124 195 -320 283 -423 19 -22 47 -60 62 -84 15 -24 116 -135 224 -245 187 -192 276 -290 310 -339 8 -12 34 -44 57 -72 81 -97 132 -202 219 -446 19 -53 49 -134 68 -180 18 -46 39 -106 47 -134 7 -27 24 -83 37 -124 17 -50 28 -117 35 -205 6 -72 12 -133 13 -134 7 -8 47 11 76 36 18 15 44 26 62 26 29 1 33 5 48 56 10 30 18 73 18 94 1 21 17 91 36 155 19 64 45 166 59 226 44 196 87 368 118 465 68 216 162 336 524 665 50 46 145 152 222 250 74 94 151 189 171 211 72 83 101 123 101 140 0 10 6 25 14 33 8 9 26 45 41 80 22 53 26 74 21 120 -3 31 -10 124 -15 206 -5 83 -16 184 -25 225 -8 41 -27 151 -41 244 -15 92 -32 187 -39 211 -14 45 -12 135 3 163 13 25 5 185 -9 213 -7 13 -33 44 -57 68 -23 24 -43 53 -43 63 0 22 -68 207 -82 225 -5 6 -16 40 -24 75 -8 35 -24 78 -35 96 -14 25 -20 57 -23 130 -4 105 -18 193 -46 287 -16 52 -18 90 -14 295 2 129 0 285 -4 345 -5 61 -5 151 0 200 4 50 8 158 9 240 1 121 5 158 20 194 16 37 17 49 7 82 -6 22 -16 43 -22 48 -15 12 -151 52 -199 58 -42 6 -102 59 -113 101 -3 12 -11 22 -18 22 -6 0 -49 23 -95 50 -46 28 -90 50 -98 50 -8 0 -67 20 -131 44 -143 53 -188 58 -422 42z m532 -2782 c55 -28 79 -34 129 -34 59 0 62 -1 100 -42 21 -24 38 -52 39 -63 0 -12 4 -25 10 -31 5 -5 16 -43 24 -84 8 -41 29 -115 46 -165 17 -49 43 -135 56 -190 14 -55 40 -147 59 -205 46 -145 62 -249 46 -302 -17 -56 -73 -180 -171 -381 -63 -130 -93 -179 -132 -219 -54 -56 -154 -200 -195 -282 -14 -28 -44 -76 -67 -106 -23 -30 -52 -71 -64 -91 -24 -40 -73 -83 -168 -146 -50 -34 -66 -52 -95 -109 l-34 -68 -1 -241 c-2 -437 -4 -540 -13 -525 -13 22 -41 167 -41 210 0 22 -7 67 -15 102 -22 96 -55 325 -55 382 0 87 -20 133 -70 166 -61 40 -170 150 -222 223 -24 33 -68 92 -99 131 -31 39 -64 87 -74 106 -10 19 -44 76 -76 125 -32 50 -73 124 -92 165 -19 41 -50 95 -68 120 -36 48 -42 56 -105 146 -42 61 -114 245 -114 293 0 69 52 284 96 396 51 132 74 206 74 246 0 39 147 326 192 375 35 38 42 42 105 47 40 4 87 16 115 30 27 14 48 19 48 13 0 -6 7 -24 15 -40 14 -26 13 -38 -11 -140 -14 -61 -31 -140 -37 -175 -9 -51 -18 -70 -48 -101 -20 -21 -40 -47 -43 -58 -4 -11 -13 -23 -21 -26 -8 -3 -15 -16 -15 -28 0 -13 -9 -39 -20 -58 -83 -144 -92 -208 -49 -355 16 -55 39 -127 51 -160 11 -33 38 -109 59 -168 20 -59 44 -118 52 -130 8 -12 19 -38 26 -57 6 -19 22 -42 34 -51 12 -9 63 -45 112 -80 l90 -64 105 1 c128 2 197 19 333 83 108 50 170 104 183 158 4 16 20 57 35 93 15 36 35 94 44 130 9 36 20 81 25 100 6 19 21 49 36 65 74 84 74 85 74 188 0 102 -24 216 -61 289 -15 29 -28 40 -61 50 -82 24 -148 116 -213 295 -20 57 -25 89 -25 166 0 87 2 97 22 111 27 19 55 14 140 -30z"/>
</g>
<g id="layer103" fill="#d0c200" stroke="none">
<path d="M5664 4190 c-98 -6 -142 -14 -284 -50 -20 -6 -52 -27 -73 -50 -22 -22 -43 -40 -48 -40 -14 0 -11 -31 6 -64 14 -26 13 -38 -11 -140 -14 -61 -31 -140 -37 -175 -9 -51 -18 -70 -48 -101 -20 -21 -40 -47 -43 -58 -4 -11 -13 -23 -21 -26 -8 -3 -15 -16 -15 -28 0 -13 -9 -39 -20 -58 -83 -144 -92 -208 -49 -355 16 -55 39 -127 51 -160 11 -33 38 -109 59 -168 20 -59 44 -118 52 -130 8 -12 19 -38 26 -57 6 -19 22 -42 34 -51 12 -9 63 -45 112 -80 l90 -64 105 1 c128 2 197 19 333 83 108 50 170 104 183 158 4 16 20 57 35 93 15 36 35 94 44 130 9 36 20 81 25 100 6 19 21 49 36 65 74 84 74 85 74 188 0 102 -24 216 -61 289 -15 29 -28 40 -61 50 -82 24 -148 116 -213 295 -30 85 -36 244 -10 273 12 13 13 24 2 65 -18 75 -38 80 -273 65z"/>
<path d="M6747 4028 c-129 -111 -206 -200 -246 -283 -11 -22 -33 -53 -49 -68 l-30 -29 24 -76 c13 -43 33 -115 44 -162 12 -47 36 -132 54 -190 47 -144 63 -248 47 -302 -17 -56 -73 -180 -171 -381 -63 -130 -93 -179 -132 -219 -54 -56 -154 -200 -195 -282 -14 -28 -44 -76 -67 -106 -23 -30 -52 -71 -64 -91 -24 -40 -73 -83 -168 -146 -50 -34 -66 -52 -95 -109 l-34 -68 -1 -241 c-2 -437 -4 -540 -13 -525 -13 22 -41 167 -41 210 0 22 -7 67 -15 102 -22 96 -55 325 -55 382 0 87 -20 133 -70 166 -61 40 -170 150 -222 223 -24 33 -68 92 -99 131 -31 39 -64 87 -74 106 -10 19 -44 76 -76 125 -32 50 -73 124 -92 165 -19 41 -50 95 -68 120 -36 48 -42 56 -105 146 -42 61 -114 245 -114 293 0 69 52 284 96 396 92 237 93 255 17 334 -102 104 -205 217 -215 234 -7 13 -23 17 -63 17 -51 0 -55 -2 -102 -52 -26 -28 -57 -61 -69 -72 -14 -15 -21 -36 -22 -68 -1 -26 -10 -92 -21 -145 -24 -116 -59 -417 -65 -558 -2 -55 -8 -134 -12 -177 -7 -76 -7 -76 36 -160 64 -124 195 -320 283 -423 19 -22 47 -60 62 -84 15 -24 116 -135 224 -245 187 -192 276 -290 310 -339 8 -12 34 -44 57 -72 81 -97 132 -202 219 -446 19 -53 49 -134 68 -180 18 -46 39 -106 47 -134 7 -27 24 -83 37 -124 17 -50 28 -117 35 -205 6 -72 12 -133 13 -134 7 -8 47 11 76 36 18 15 44 26 62 26 29 1 33 5 48 56 10 30 18 73 18 94 1 21 17 91 36 155 19 64 45 166 59 226 44 196 87 368 118 465 68 216 162 336 524 665 50 46 145 152 222 250 74 94 151 189 171 211 72 83 101 123 101 140 0 10 6 25 14 33 8 9 26 45 41 80 22 53 26 74 21 120 -3 31 -10 124 -15 206 -5 83 -16 184 -25 225 -8 41 -27 151 -41 244 -15 92 -33 188 -40 213 -8 25 -11 59 -8 74 4 21 2 29 -9 29 -12 0 -31 46 -53 128 -4 12 -11 22 -16 22 -5 0 -9 8 -9 18 0 21 -35 62 -53 62 -7 0 -30 -15 -50 -32z"/>
</g>
<g id="layer104" fill="#b69682" stroke="none">
<path d="M5550 6816 c-112 -7 -184 -16 -200 -25 -23 -13 -116 -41 -200 -61 -51 -11 -185 -83 -226 -119 -19 -17 -34 -40 -34 -51 0 -16 7 -20 38 -20 20 0 52 4 71 10 18 5 79 14 134 20 56 7 105 16 108 22 5 7 144 8 450 3 457 -8 469 -9 591 -54 32 -11 67 -21 79 -21 19 0 18 4 -15 40 -20 22 -36 47 -36 55 0 8 -6 15 -12 15 -7 0 -51 23 -97 50 -46 28 -90 50 -98 50 -8 0 -67 20 -131 44 -143 53 -188 58 -422 42z"/>
<path d="M5664 4190 c-98 -6 -142 -14 -284 -50 -20 -6 -52 -27 -73 -50 -22 -22 -43 -40 -48 -40 -14 0 -11 -31 6 -64 14 -26 13 -38 -10 -140 -14 -61 -31 -136 -36 -166 -6 -30 -17 -67 -25 -82 -8 -14 -14 -39 -14 -55 0 -34 -36 -73 -68 -73 -18 0 -22 -8 -28 -50 -4 -27 -10 -50 -13 -50 -19 0 -32 -74 -25 -140 6 -64 9 -70 29 -70 12 0 30 9 40 20 32 36 42 25 49 -57 9 -112 25 -190 52 -254 13 -31 24 -72 24 -92 0 -34 2 -36 58 -57 111 -43 316 -8 401 68 17 15 53 74 80 133 64 134 128 200 219 225 l59 17 7 66 c3 36 6 86 6 111 l1 45 27 -33 c15 -18 36 -32 49 -32 18 0 23 8 29 47 8 55 -13 126 -40 131 -54 11 -134 131 -191 289 -30 85 -36 244 -10 273 12 13 13 24 2 65 -18 75 -38 80 -273 65z"/>
<path d="M6747 4028 c-129 -111 -206 -200 -246 -283 -11 -22 -33 -53 -49 -68 l-30 -29 24 -76 c13 -43 33 -115 44 -162 12 -47 36 -132 54 -190 47 -144 63 -248 47 -302 -17 -56 -73 -180 -171 -381 -63 -130 -93 -179 -132 -219 -55 -56 -153 -200 -198 -288 -16 -31 -46 -78 -67 -106 -21 -27 -49 -65 -61 -85 -24 -40 -73 -83 -168 -146 -50 -34 -66 -52 -95 -109 l-34 -68 -1 -241 c-2 -437 -4 -540 -13 -525 -13 22 -41 167 -41 210 0 22 -7 67 -15 102 -22 96 -55 325 -55 382 0 87 -20 133 -70 166 -61 40 -170 150 -222 223 -24 33 -68 92 -99 131 -31 39 -64 87 -74 106 -10 19 -44 76 -76 125 -32 50 -73 124 -92 165 -19 41 -50 95 -68 120 -36 48 -42 56 -105 146 -42 61 -114 245 -114 293 0 69 52 284 96 396 92 237 93 255 17 334 -102 104 -205 217 -215 234 -7 13 -23 17 -63 17 -51 0 -55 -2 -102 -52 -26 -28 -57 -61 -69 -72 -14 -15 -21 -36 -22 -68 -1 -26 -10 -92 -21 -145 -24 -116 -59 -417 -65 -558 -2 -55 -8 -134 -12 -177 -7 -76 -7 -76 36 -160 64 -124 195 -320 283 -423 19 -22 47 -60 62 -85 15 -24 112 -130 216 -235 103 -104 202 -208 219 -230 17 -22 37 -44 43 -50 7 -5 26 -28 42 -50 16 -22 48 -62 71 -90 81 -98 133 -203 219 -446 19 -53 49 -134 68 -180 18 -46 39 -106 47 -134 7 -27 24 -83 37 -124 17 -50 28 -117 35 -205 6 -72 12 -133 13 -134 7 -8 47 11 76 36 18 15 44 26 62 26 29 1 33 5 48 56 10 30 18 73 18 94 1 21 17 91 36 155 19 64 45 166 59 226 44 196 87 368 118 465 68 216 162 336 524 665 50 46 145 152 222 250 74 94 151 189 171 211 71 82 101 123 101 139 0 9 8 29 18 43 43 62 64 132 58 191 -3 31 -10 124 -15 206 -5 83 -16 184 -25 225 -8 41 -27 152 -41 245 -15 94 -33 189 -41 211 -8 24 -11 55 -8 73 5 23 3 31 -8 31 -12 0 -31 46 -53 128 -4 12 -11 22 -16 22 -5 0 -9 8 -9 18 0 21 -35 62 -53 62 -7 0 -30 -15 -50 -32z"/>
</g>


</svg>