<!DOCTYPE svg PUBLIC "-//W3C//DTD SVG 20010904//EN" "http://www.w3.org/TR/2001/REC-SVG-20010904/DTD/svg10.dtd">
<svg version="1.0" xmlns="http://www.w3.org/2000/svg" width="1040px" height="1046px" viewBox="0 0 10400 10460" preserveAspectRatio="xMidYMid meet">
<g id="layer101" fill="#000000" stroke="none">
 <path d="M4420 10263 c-100 -6 -197 -26 -252 -54 -32 -16 -62 -29 -67 -29 -19 0 -116 -75 -201 -156 -47 -44 -113 -102 -147 -127 -113 -86 -127 -163 -63 -342 18 -50 36 -108 41 -130 11 -54 11 -186 -1 -265 -6 -36 -15 -117 -20 -180 -9 -98 -14 -120 -37 -152 l-26 -38 17 -158 c9 -86 17 -202 17 -257 1 -105 22 -334 40 -422 10 -50 85 -239 145 -368 18 -38 31 -86 35 -130 4 -38 15 -104 24 -145 14 -63 16 -102 9 -245 -4 -93 -8 -228 -9 -300 -1 -148 -9 -219 -36 -355 -10 -52 -17 -104 -15 -114 3 -21 -43 -187 -62 -223 -7 -12 -12 -34 -12 -50 0 -16 -9 -60 -21 -98 -60 -201 -59 -194 -55 -435 3 -124 9 -238 14 -255 5 -16 7 -36 5 -42 -3 -7 2 -34 10 -60 9 -27 19 -68 22 -93 4 -25 13 -56 21 -70 27 -51 32 -99 24 -227 -5 -71 -16 -177 -25 -238 -9 -60 -20 -155 -25 -210 -4 -55 -11 -111 -14 -125 -4 -14 -9 -160 -12 -325 -3 -165 -7 -367 -9 -448 -14 -510 -11 -661 15 -747 11 -36 20 -78 20 -95 0 -58 57 -152 182 -303 68 -81 131 -163 140 -182 13 -28 17 -68 18 -188 l1 -152 82 -123 c92 -137 113 -192 122 -327 9 -132 62 -385 97 -465 107 -244 154 -316 314 -481 74 -76 84 -83 159 -107 158 -52 247 -67 347 -61 104 8 135 19 193 74 22 21 52 44 67 51 46 24 168 223 198 324 34 118 56 314 40 370 -6 23 -12 64 -11 91 1 117 -21 216 -76 344 -30 68 -64 136 -77 150 -14 14 -30 45 -36 69 -6 24 -18 55 -27 67 -16 25 -144 94 -173 94 -18 0 -30 51 -30 125 0 36 26 65 57 65 11 0 42 11 69 25 27 14 55 25 63 25 7 0 70 35 140 77 170 104 195 135 223 262 31 139 41 289 39 562 -2 209 -5 268 -19 318 -17 58 -17 69 0 199 9 75 16 164 16 197 -1 34 4 76 10 95 5 19 13 94 16 165 3 72 12 171 20 220 9 50 20 167 26 260 13 219 25 321 49 420 23 96 47 208 55 253 4 23 2 32 -8 32 -45 0 -25 278 41 576 3 12 -3 37 -13 55 -9 19 -31 77 -48 129 l-31 95 -70 40 c-59 34 -79 40 -140 43 l-70 4 -28 -42 c-15 -23 -27 -48 -27 -56 0 -27 52 -93 80 -102 27 -10 28 -14 35 -94 3 -45 6 -94 5 -108 0 -14 0 -104 0 -200 0 -96 -3 -194 -6 -218 -4 -29 -2 -48 7 -59 12 -14 12 -16 -1 -8 -8 5 -29 8 -47 7 l-33 -3 0 65 c0 51 -4 67 -17 76 -17 11 -17 11 -1 6 25 -8 33 30 32 154 -1 122 -16 261 -39 352 -9 34 -36 161 -60 280 -24 119 -55 245 -69 280 -14 35 -30 86 -37 113 -7 28 -18 62 -25 77 -8 15 -20 53 -28 85 -8 32 -44 130 -80 218 -37 87 -69 177 -72 200 -10 65 -45 187 -65 227 -11 21 -19 53 -19 72 0 19 -18 72 -41 121 -39 86 -69 208 -84 351 -9 84 -15 111 -35 158 -10 22 -26 82 -35 131 -9 50 -23 108 -31 130 -7 22 -29 103 -48 180 -29 122 -35 164 -41 321 -4 100 -4 210 0 245 7 60 11 67 69 127 94 99 120 114 384 219 67 27 139 88 167 142 19 37 30 118 22 153 -8 32 -60 86 -90 93 -34 9 -153 -13 -222 -41 -34 -13 -67 -24 -74 -24 -19 0 -94 -40 -121 -65 -14 -13 -48 -35 -76 -49 -81 -41 -292 -108 -357 -114 -142 -12 -203 -126 -158 -293 24 -86 30 -297 17 -514 -8 -128 -9 -130 -38 -155 l-30 -25 1 -155 c1 -85 4 -164 7 -175 3 -12 0 -34 -7 -50 l-11 -30 -25 65 c-30 79 -46 140 -79 295 -14 66 -36 158 -49 205 -13 47 -31 128 -40 180 -9 52 -24 111 -33 130 -24 51 -23 369 2 494 30 153 52 183 311 426 55 51 126 113 159 136 64 47 135 136 136 171 1 67 -179 125 -360 116z m69 -3867 c-2 -27 -2 -28 -6 -6 -3 14 -10 31 -15 38 -8 9 -7 11 6 6 10 -4 16 -17 15 -38z m-279 -61 c-14 -8 -29 -14 -35 -14 -5 0 1 6 15 14 14 8 30 14 35 14 6 0 -1 -6 -15 -14z m262 -149 c7 4 8 2 4 -4 -14 -24 -26 -11 -24 26 1 37 1 37 5 4 3 -20 8 -30 15 -26z m105 -138 c-2 -29 -3 -8 -3 47 0 55 1 79 3 53 2 -26 2 -71 0 -100z m-600 80 c-2 -13 -4 -5 -4 17 -1 22 1 32 4 23 2 -10 2 -28 0 -40z m-20 -160 c-2 -18 -4 -4 -4 32 0 36 2 50 4 33 2 -18 2 -48 0 -65z m10 -310 c-2 -13 -4 -3 -4 22 0 25 2 35 4 23 2 -13 2 -33 0 -45z m476 -76 c-14 -34 -43 -82 -43 -72 0 3 11 27 24 55 14 27 22 53 20 57 -3 5 -17 8 -32 9 -24 0 -25 1 -7 9 13 5 26 3 37 -7 15 -13 15 -18 1 -51z m-486 -144 c-2 -35 -3 -7 -3 62 0 69 1 97 3 63 2 -35 2 -91 0 -125z m538 -72 c11 -2 -13 -4 -52 -5 -40 0 -73 2 -73 7 0 6 79 5 125 -2z m-550 -23 c-3 -16 -16 -39 -28 -51 -21 -23 -97 -68 -97 -57 0 2 15 12 33 21 47 24 75 53 82 85 4 16 9 29 12 29 3 0 2 -12 -2 -27z m703 10 c-10 -2 -28 -2 -40 0 -13 2 -5 4 17 4 22 1 32 -1 23 -4z m155 -10 c-23 -2 -64 -2 -90 0 -26 2 -7 3 42 3 50 0 71 -1 48 -3z m225 0 c-16 -2 -40 -2 -55 0 -16 2 -3 4 27 4 30 0 43 -2 28 -4z m310 -10 c-49 -2 -127 -2 -175 0 -49 1 -9 3 87 3 96 0 136 -2 88 -3z m255 -20 c-13 -2 -35 -2 -50 0 -16 2 -5 4 22 4 28 0 40 -2 28 -4z m-465 -2940 c-10 -2 -26 -2 -35 0 -10 3 -2 5 17 5 19 0 27 -2 18 -5z m-532 -575 c41 -60 46 -68 41 -68 -3 0 -22 25 -42 55 -21 30 -41 55 -45 55 -3 0 -15 7 -26 15 -17 15 -16 15 12 1 17 -8 44 -34 60 -58z m141 -390 c-2 -29 -3 -6 -3 52 0 58 1 81 3 53 2 -29 2 -77 0 -105z m-160 -415 c-2 -16 -4 -5 -4 22 0 28 2 40 4 28 2 -13 2 -35 0 -50z m228 -43 c17 -11 26 -20 22 -20 -4 0 -19 7 -32 16 -14 9 -32 14 -40 10 -9 -3 -13 -2 -10 4 9 15 27 12 60 -10z m113 -149 c16 -31 33 -67 36 -81 4 -14 -7 4 -24 39 -16 35 -46 87 -65 115 -31 44 -32 46 -6 17 16 -18 43 -59 59 -90z"/>
 </g>
<g id="layer102" fill="#ff4466" stroke="none">
 <path d="M4340 6386 c-161 -60 -167 -64 -268 -136 -100 -72 -92 -55 -108 -220 -5 -48 14 -224 32 -287 5 -16 2 -23 -8 -23 -18 0 -28 -77 -28 -224 0 -160 -20 -205 -111 -251 -25 -13 -51 -31 -59 -39 -7 -10 -20 -14 -31 -11 -23 8 -24 -8 -5 -61 7 -22 16 -61 21 -89 4 -27 13 -61 21 -75 27 -50 32 -99 24 -227 -5 -71 -16 -177 -25 -238 -9 -60 -20 -155 -25 -210 -4 -55 -11 -111 -14 -125 -4 -14 -9 -160 -12 -325 -3 -165 -7 -367 -9 -448 -14 -510 -11 -661 15 -747 11 -36 20 -78 20 -95 0 -58 57 -152 181 -300 67 -81 129 -161 138 -178 13 -27 23 -33 55 -35 21 -2 45 -9 52 -16 7 -7 32 -16 55 -20 34 -5 52 -17 88 -56 46 -50 93 -75 118 -65 8 3 11 10 7 17 -4 7 4 3 17 -8 13 -12 38 -29 55 -37 31 -16 97 -106 150 -206 16 -30 35 -63 42 -75 9 -15 12 -53 9 -136 -5 -137 -25 -192 -92 -256 -49 -47 -65 -90 -65 -175 0 -98 58 -127 138 -68 47 34 65 33 108 -9 62 -61 123 -179 174 -337 19 -59 67 -129 103 -150 52 -31 149 -61 192 -60 96 3 252 29 287 48 58 32 107 144 135 312 23 140 26 194 13 240 -6 23 -12 64 -11 91 1 117 -21 216 -76 344 -30 68 -64 136 -77 150 -14 14 -30 45 -36 69 -6 24 -18 55 -27 67 -16 25 -144 94 -173 94 -18 0 -30 51 -30 125 0 36 26 65 57 65 11 0 42 11 69 25 27 14 55 25 63 25 7 0 70 35 140 77 170 104 195 135 223 262 31 139 41 289 39 562 -2 209 -5 268 -19 318 -17 58 -17 69 0 199 9 75 16 164 16 197 -1 34 4 76 10 95 5 19 13 94 16 165 3 72 12 171 20 220 9 50 20 167 26 260 13 219 25 321 49 420 23 96 47 208 55 253 4 23 2 32 -8 32 -45 0 -25 278 41 576 3 12 -3 37 -13 55 -9 19 -31 77 -48 129 l-31 95 -70 40 c-59 34 -79 40 -140 43 l-70 4 -28 -42 c-15 -23 -27 -48 -27 -56 0 -27 52 -93 80 -102 27 -10 28 -14 35 -94 3 -45 6 -94 5 -108 0 -14 0 -104 0 -200 0 -96 -3 -194 -6 -218 -4 -29 -2 -48 7 -59 12 -14 12 -16 -1 -8 -8 5 -29 8 -47 7 l-33 -3 0 65 c0 80 -11 89 -120 92 -41 1 -199 8 -350 15 -151 6 -342 13 -425 14 -82 1 -216 5 -298 10 -128 7 -147 10 -143 24 3 9 10 44 17 78 6 34 22 84 34 110 27 54 25 63 -13 64 -17 1 -20 3 -10 6 10 2 27 25 38 51 12 26 38 74 60 107 48 75 68 162 71 310 3 127 -4 136 -73 90 -22 -15 -42 -24 -45 -21 -3 3 0 45 7 93 16 112 18 155 5 159 -5 1 -62 -17 -125 -40z m788 -4013 c-10 -2 -26 -2 -35 0 -10 3 -2 5 17 5 19 0 27 -2 18 -5z"/>
 </g>
<g id="layer103" fill="#b69682" stroke="none">
 <path d="M4340 6386 c-161 -60 -167 -64 -268 -136 -100 -72 -92 -55 -108 -220 -6 -55 17 -245 35 -293 9 -22 22 -28 103 -46 118 -27 255 -51 290 -51 23 0 30 8 48 48 12 26 38 74 60 107 48 75 68 162 71 310 3 127 -4 136 -73 90 -22 -15 -42 -24 -45 -21 -3 3 0 45 7 93 16 112 18 155 5 159 -5 1 -62 -17 -125 -40z"/>
 <path d="M5697 6000 c-15 -23 -27 -48 -27 -56 0 -27 52 -93 80 -102 27 -10 28 -14 35 -94 3 -45 6 -94 5 -108 0 -14 0 -101 0 -195 0 -93 -3 -193 -6 -221 l-6 -51 70 -47 c68 -45 72 -46 146 -46 44 0 76 4 76 10 0 6 -6 10 -14 10 -45 0 -25 277 41 576 3 12 -3 37 -13 55 -9 19 -31 77 -48 129 l-31 95 -70 40 c-59 34 -79 40 -140 43 l-70 4 -28 -42z"/>
 <path d="M4915 2299 c-150 -77 -207 -112 -271 -168 -22 -20 -54 -43 -70 -52 -17 -9 -52 -46 -78 -83 l-48 -67 23 -26 c13 -14 40 -33 60 -43 36 -19 99 -103 155 -209 16 -30 35 -63 42 -75 9 -15 12 -53 9 -136 -5 -137 -25 -192 -92 -256 -49 -47 -65 -90 -65 -175 0 -98 58 -127 138 -68 47 34 65 33 108 -9 62 -61 123 -179 174 -337 19 -59 67 -129 103 -150 52 -31 149 -61 192 -60 96 3 252 29 287 48 58 32 107 144 135 312 23 140 26 194 13 240 -6 23 -12 64 -11 91 1 117 -21 216 -76 344 -30 68 -64 136 -77 150 -14 14 -30 45 -36 69 -6 24 -18 55 -27 67 -16 25 -144 94 -173 94 -29 0 -42 147 -15 170 8 7 15 19 15 27 0 9 16 50 35 93 56 125 56 130 -6 190 -62 59 -145 90 -243 90 -57 0 -73 -6 -201 -71z"/>
 </g>

</svg>