<!DOCTYPE svg PUBLIC "-//W3C//DTD SVG 20010904//EN" "http://www.w3.org/TR/2001/REC-SVG-20010904/DTD/svg10.dtd">
<svg version="1.0" xmlns="http://www.w3.org/2000/svg" width="1032px" height="1080px" viewBox="0 0 10320 10800" preserveAspectRatio="xMidYMid meet">
<g id="layer101" fill="#000000" stroke="none">
 <path d="M5887 10090 c-27 -5 -58 -15 -71 -23 -12 -8 -38 -20 -57 -25 -106 -32 -230 -85 -275 -119 -17 -13 -34 -23 -37 -23 -3 0 -49 -27 -102 -60 -164 -102 -266 -146 -457 -195 -97 -25 -190 -65 -235 -102 -29 -24 -60 -106 -68 -179 -8 -68 14 -153 50 -194 60 -70 137 -239 214 -474 18 -54 43 -115 56 -135 18 -27 24 -50 24 -91 0 -62 13 -136 34 -195 8 -22 31 -101 52 -175 21 -74 51 -160 66 -191 16 -31 37 -80 49 -108 35 -89 167 -310 253 -423 32 -42 34 -64 7 -73 -11 -4 -31 -22 -44 -42 -48 -70 -214 -163 -351 -197 -158 -38 -237 -64 -655 -216 -41 -15 -103 -41 -137 -59 -34 -17 -69 -31 -78 -31 -8 0 -42 -9 -76 -21 -33 -12 -63 -18 -66 -15 -3 3 -12 49 -20 103 -8 54 -25 141 -39 193 -14 52 -47 201 -73 330 -53 251 -74 335 -126 500 -18 58 -36 121 -40 140 -4 19 -24 67 -45 106 -38 72 -140 331 -140 357 0 7 -17 38 -38 68 -21 30 -53 80 -71 111 -35 63 -107 140 -150 162 -56 29 -144 38 -223 22 -40 -9 -86 -18 -103 -20 -16 -3 -120 -28 -230 -56 -192 -48 -252 -70 -395 -149 -30 -17 -138 -71 -240 -120 -102 -50 -214 -106 -250 -125 -36 -20 -114 -52 -174 -72 -94 -32 -111 -41 -127 -69 -11 -18 -32 -38 -47 -43 -85 -33 -242 -82 -260 -82 -24 0 -57 43 -64 84 -9 46 8 78 61 116 122 87 150 114 150 146 1 21 -8 38 -26 56 -44 40 -179 97 -281 118 -129 26 -171 13 -289 -88 -77 -67 -82 -86 -99 -377 -7 -137 -18 -268 -23 -290 -18 -77 -23 -191 -11 -236 25 -94 95 -147 178 -135 24 3 94 21 155 40 62 20 155 46 207 60 52 14 122 32 155 41 62 17 196 38 344 55 212 25 401 52 454 65 31 8 139 55 240 105 156 77 270 119 324 120 7 0 14 -22 17 -52 11 -101 14 -473 5 -568 -21 -230 -29 -291 -53 -390 -14 -58 -32 -166 -41 -240 -9 -74 -25 -174 -36 -222 -22 -100 -36 -204 -43 -333 -3 -49 -10 -171 -15 -270 -10 -170 -10 -181 8 -195 10 -8 28 -46 39 -85 15 -50 41 -97 87 -162 36 -51 70 -93 75 -93 10 0 57 -70 103 -152 14 -25 38 -66 53 -90 56 -89 90 -181 113 -308 12 -69 28 -156 36 -195 8 -38 22 -173 30 -300 9 -126 24 -282 35 -345 14 -83 21 -178 24 -340 5 -254 20 -350 79 -510 49 -131 56 -164 52 -223 -2 -29 -8 -121 -14 -205 -13 -167 -4 -288 25 -344 9 -18 45 -74 80 -125 62 -91 64 -94 79 -198 9 -59 20 -118 26 -131 5 -14 9 -44 9 -67 0 -24 7 -67 15 -97 9 -30 19 -100 24 -155 12 -144 34 -206 99 -274 29 -31 65 -78 80 -106 32 -61 156 -186 207 -211 44 -20 72 -49 154 -155 57 -74 60 -76 127 -94 38 -10 92 -29 121 -42 28 -13 76 -26 105 -29 64 -5 307 19 316 32 4 5 26 22 50 37 86 56 299 229 255 208 -37 -19 -40 -11 -3 9 19 11 42 19 51 20 9 0 28 15 42 33 26 35 60 133 51 148 -3 5 -2 9 3 9 4 0 9 10 9 23 1 12 4 36 7 52 3 17 8 50 12 75 4 25 18 65 31 89 27 48 26 55 -13 145 -25 57 -25 60 -13 150 17 125 10 207 -24 284 -16 34 -33 62 -38 62 -5 0 -7 4 -4 9 4 5 2 11 -4 13 -6 2 -12 12 -14 24 -2 11 -20 51 -40 88 -24 44 -36 81 -36 107 0 21 -4 39 -9 39 -5 0 -11 10 -13 23 -2 17 -24 32 -93 66 -49 24 -112 49 -140 56 l-50 11 50 23 c61 29 108 38 250 51 115 10 127 12 345 59 74 16 151 32 171 35 19 3 82 24 140 47 309 120 337 124 799 121 403 -2 563 7 805 48 153 25 528 63 740 74 44 2 121 11 170 19 50 9 121 18 158 22 37 3 79 10 92 15 14 5 25 8 25 5 0 -2 26 5 58 16 138 49 268 69 515 79 131 5 241 11 245 14 6 3 119 11 299 21 23 1 48 7 56 13 8 7 17 9 20 5 11 -10 8 5 -7 41 -12 28 -21 35 -55 41 -22 4 -51 14 -63 24 -39 29 -100 41 -269 51 -90 5 -193 14 -229 20 -152 24 -250 39 -329 49 -46 6 -87 13 -90 17 -3 3 9 18 27 32 88 71 102 89 102 129 0 44 -31 83 -67 83 -23 0 -107 -54 -198 -127 -33 -26 -80 -61 -105 -77 -25 -16 -65 -45 -90 -65 -49 -40 -110 -60 -183 -61 -41 0 -52 4 -75 29 l-27 30 -80 -8 c-60 -6 -171 -1 -435 20 -195 16 -425 31 -510 34 -188 7 -303 15 -297 22 14 14 324 68 512 89 28 3 54 8 58 11 11 6 164 43 202 48 30 4 277 89 299 103 6 4 13 7 16 8 3 0 12 4 20 7 26 11 104 26 111 21 4 -2 10 0 14 6 4 6 10 8 15 5 4 -3 52 9 105 25 84 26 123 31 276 40 178 9 400 37 527 66 37 8 77 17 90 19 18 5 22 12 22 44 0 60 3 59 -240 106 -94 18 -144 32 -195 55 -53 24 -190 49 -240 44 -22 -2 -148 -7 -279 -10 -225 -6 -243 -8 -295 -31 -35 -16 -87 -28 -138 -33 -46 -4 -89 -13 -98 -20 -8 -7 -23 -14 -33 -15 -9 -1 -29 -6 -43 -12 -45 -19 -185 -24 -899 -34 -685 -9 -987 -23 -1060 -49 -42 -14 -350 -27 -350 -14 0 5 4 24 9 41 8 27 5 41 -17 82 -47 86 -133 203 -163 220 -16 9 -33 29 -39 44 -5 16 -18 31 -29 34 -21 5 -54 73 -70 144 -6 25 -19 65 -30 90 -11 24 -21 61 -21 81 0 65 -39 184 -79 245 -31 47 -40 70 -44 123 -7 71 -11 100 -32 204 l-15 69 36 58 c44 71 51 77 145 126 74 39 216 141 253 181 10 12 48 39 85 61 37 22 91 62 120 88 67 60 223 173 232 168 3 -3 24 11 45 31 22 19 32 33 24 29 -8 -3 23 29 69 72 46 43 177 171 290 284 113 114 238 234 278 269 40 34 90 85 111 114 62 84 153 242 162 282 5 21 5 79 1 130 -9 100 -41 184 -122 312 -22 34 -66 115 -98 180 -32 64 -72 139 -89 166 -18 28 -32 55 -32 62 0 7 -19 36 -42 66 -50 61 -129 179 -151 224 -9 17 -34 54 -57 83 -23 29 -46 67 -52 84 -6 18 -23 50 -38 72 -15 22 -40 65 -55 95 -15 30 -42 75 -59 100 -16 25 -35 65 -42 90 -11 43 -13 45 -50 48 -21 2 -46 10 -55 18 -9 8 -32 60 -53 117 -21 56 -52 134 -70 172 -65 137 -57 182 48 273 126 109 199 155 384 242 118 56 187 124 216 215 10 33 23 66 30 74 6 9 10 48 9 97 -1 68 -6 89 -23 114 -12 16 -27 29 -33 29 -7 -1 -34 -5 -60 -9z m-2454 -3797 c-13 -2 -33 -2 -45 0 -13 2 -3 4 22 4 25 0 35 -2 23 -4z m175 -10 c-10 -2 -26 -2 -35 0 -10 3 -2 5 17 5 19 0 27 -2 18 -5z m779 -228 c49 -33 81 -70 70 -82 -3 -2 -8 5 -12 17 -4 12 -34 39 -67 61 -34 21 -57 39 -52 39 5 0 33 -16 61 -35z m-1667 -18 c0 -2 -19 -21 -42 -42 l-43 -40 40 43 c36 39 45 47 45 39z m-106 -122 c-14 -19 -29 -35 -31 -35 -5 0 7 18 36 53 26 31 23 18 -5 -18z m1880 -12 c9 -18 14 -33 12 -33 -6 0 -36 55 -36 66 0 11 5 3 24 -33z m76 -126 c0 -12 0 -11 -24 28 l-17 30 20 -24 c12 -13 21 -28 21 -34z m-2026 -51 c-3 -21 -8 -35 -11 -32 -2 2 -1 20 3 40 3 21 8 35 11 32 2 -2 1 -20 -3 -40z m2070 -53 c9 -18 14 -33 12 -33 -6 0 -36 55 -36 66 0 11 5 3 24 -33z m-754 -3278 c30 -30 52 -55 49 -55 -2 0 -29 25 -59 55 -30 30 -52 55 -49 55 2 0 29 -25 59 -55z m157 -362 c-3 -10 -5 -2 -5 17 0 19 2 27 5 18 2 -10 2 -26 0 -35z m262 -466 c-2 -3 -15 10 -28 27 l-24 31 28 -27 c16 -15 27 -29 24 -31z m48 -289 c-2 -13 -4 -5 -4 17 -1 22 1 32 4 23 2 -10 2 -28 0 -40z m571 -375 c-10 -2 -28 -2 -40 0 -13 2 -5 4 17 4 22 1 32 -1 23 -4z"/>
 </g>
<g id="layer102" fill="#ff4466" stroke="none">
 <path d="M3159 6282 c-51 -12 -94 -29 -131 -54 -30 -20 -91 -54 -134 -76 -95 -48 -206 -140 -270 -224 -41 -53 -51 -75 -71 -161 l-24 -101 20 -65 c20 -65 140 -251 161 -251 10 0 57 -70 103 -152 14 -25 38 -66 53 -90 56 -89 90 -181 113 -308 12 -69 28 -156 36 -195 8 -38 22 -173 30 -300 9 -126 24 -282 35 -345 14 -83 21 -178 24 -340 5 -254 20 -350 79 -510 43 -117 46 -128 52 -176 3 -25 13 -46 28 -56 31 -25 34 -28 67 -74 20 -30 49 -52 98 -77 65 -32 202 -153 202 -177 0 -6 19 -23 42 -40 29 -21 53 -30 80 -30 23 0 38 -5 39 -12 0 -7 34 -42 74 -78 69 -62 74 -69 94 -140 12 -41 29 -95 38 -120 9 -25 18 -82 20 -128 l5 -83 -36 -34 c-19 -18 -45 -51 -56 -72 -25 -48 -50 -161 -43 -196 5 -24 38 -47 69 -47 25 0 97 49 136 93 l37 41 21 -27 c12 -15 38 -36 58 -46 21 -10 45 -28 55 -39 25 -28 59 -208 61 -327 2 -94 4 -103 37 -160 33 -57 39 -62 119 -97 98 -42 271 -87 370 -95 59 -5 75 -2 125 21 32 14 63 26 70 26 31 0 107 153 89 181 -3 5 -2 9 3 9 4 0 9 10 9 23 1 12 4 36 7 52 3 17 8 50 12 75 4 25 18 65 31 89 27 48 26 55 -13 145 -25 57 -25 60 -13 150 17 125 10 207 -24 283 -16 35 -33 63 -38 63 -5 0 -7 4 -4 9 4 5 2 11 -4 13 -6 2 -12 12 -14 24 -2 11 -20 51 -40 88 -24 44 -36 81 -36 107 0 21 -4 39 -9 39 -5 0 -11 10 -13 23 -2 17 -24 32 -93 66 -49 24 -112 49 -140 56 l-50 11 50 23 c61 29 108 38 250 51 115 10 127 12 345 59 74 16 151 32 171 35 19 3 82 24 140 47 309 120 337 124 799 121 403 -2 563 7 805 48 153 25 528 63 740 74 44 2 121 11 170 19 50 9 121 18 158 22 37 3 79 10 92 15 14 5 25 8 25 5 0 -2 26 5 58 16 138 49 268 69 515 79 131 5 241 11 245 14 6 3 119 11 299 21 23 1 48 7 56 13 8 7 17 9 20 5 11 -10 8 5 -7 41 -12 28 -21 35 -55 41 -22 4 -51 14 -63 24 -39 29 -100 41 -269 51 -90 5 -193 14 -229 20 -152 24 -250 39 -329 49 -46 6 -87 13 -90 17 -3 3 9 18 27 32 88 71 102 89 102 129 0 44 -31 83 -67 83 -23 0 -107 -54 -198 -127 -33 -26 -80 -61 -105 -77 -25 -16 -65 -45 -90 -65 -49 -40 -110 -60 -183 -61 -41 0 -52 4 -75 29 l-27 30 -80 -8 c-60 -6 -171 -1 -435 20 -195 16 -425 31 -510 34 -188 7 -303 15 -297 22 14 14 324 68 512 89 28 3 54 8 58 11 11 6 164 43 202 48 40 6 285 93 304 108 8 7 17 11 20 11 3 -1 11 0 16 2 29 10 100 22 106 18 4 -2 10 0 14 6 4 6 10 8 15 5 4 -3 52 9 105 25 84 26 123 31 276 40 178 9 400 37 527 66 37 8 77 17 90 19 18 5 22 12 22 44 0 60 3 59 -240 106 -94 18 -144 32 -195 55 -53 24 -190 49 -240 44 -22 -2 -148 -7 -279 -10 -225 -6 -243 -8 -295 -31 -35 -16 -87 -28 -138 -33 -46 -4 -89 -13 -98 -20 -8 -7 -23 -14 -33 -15 -9 -1 -29 -6 -43 -12 -45 -19 -185 -24 -899 -34 -685 -9 -987 -23 -1060 -49 -42 -14 -350 -27 -350 -14 0 5 4 24 9 41 8 27 5 41 -17 82 -47 86 -133 203 -163 220 -16 9 -33 29 -39 44 -5 16 -18 31 -29 34 -21 5 -54 73 -70 144 -6 25 -19 65 -30 90 -11 24 -21 61 -21 81 0 65 -39 184 -79 245 -31 47 -40 70 -44 123 -7 71 -11 100 -33 204 l-14 69 39 61 c21 34 53 72 72 84 20 14 33 30 31 40 -2 10 -7 45 -11 78 -5 37 -17 74 -30 93 -12 16 -35 62 -51 100 -16 39 -42 90 -58 113 -16 24 -43 72 -59 108 -34 76 -56 93 -216 168 -187 88 -356 134 -582 156 -244 24 -418 27 -506 8z"/>
 </g>
<g id="layer103" fill="#b69682" stroke="none">
 <path d="M8175 4110 c-33 -4 -144 -8 -246 -9 -178 -1 -189 -2 -245 -27 -38 -17 -88 -29 -141 -34 -46 -4 -89 -13 -98 -20 -8 -7 -23 -14 -33 -15 -26 -2 -76 -25 -84 -38 -17 -27 -8 -132 16 -183 13 -28 27 -65 30 -82 4 -16 20 -51 37 -76 16 -26 29 -51 29 -56 0 -10 276 84 297 102 7 6 13 7 13 3 0 -4 6 -3 13 3 12 9 95 29 157 37 16 2 66 15 110 29 66 21 114 28 260 36 179 9 401 37 528 66 37 8 77 17 90 19 18 5 22 12 22 44 0 60 1 59 -240 106 -86 16 -180 43 -196 56 -16 13 -134 38 -200 43 -32 2 -86 0 -119 -4z"/>
 <path d="M8584 3581 c-33 -22 -86 -61 -119 -88 -33 -26 -80 -61 -105 -77 -25 -16 -65 -45 -90 -65 -49 -40 -110 -60 -183 -61 -42 0 -53 4 -75 30 -29 33 -45 36 -79 17 -33 -19 -81 -99 -88 -151 -8 -54 22 -128 86 -214 l40 -53 57 5 c31 2 98 11 147 20 50 8 121 17 158 21 37 3 79 10 92 15 14 5 25 8 25 5 0 -2 26 5 58 16 138 49 268 69 515 79 131 5 241 11 245 14 6 3 119 11 299 21 23 1 48 7 56 13 8 7 17 9 20 5 11 -10 8 5 -7 41 -12 28 -21 35 -55 41 -22 4 -51 14 -63 24 -39 29 -100 41 -269 51 -90 5 -193 14 -229 20 -152 24 -250 39 -329 49 -46 6 -87 13 -90 17 -3 3 9 18 27 32 88 71 102 89 102 129 0 44 -31 83 -67 83 -11 0 -47 -18 -79 -39z"/>
 <path d="M4590 2954 c-14 -10 -47 -38 -75 -64 -45 -42 -57 -48 -119 -58 -50 -8 -88 -22 -140 -53 -122 -73 -237 -129 -264 -129 -72 0 -130 -37 -178 -112 -37 -58 -31 -75 51 -148 69 -62 74 -69 94 -140 12 -41 29 -95 38 -120 9 -25 18 -82 20 -128 l5 -83 -36 -34 c-19 -18 -45 -51 -56 -72 -25 -48 -50 -161 -43 -196 5 -24 38 -47 69 -47 25 0 97 49 136 93 l37 41 21 -27 c12 -15 38 -36 58 -46 21 -10 45 -28 55 -39 25 -28 59 -208 61 -327 2 -94 4 -103 37 -160 33 -57 39 -62 119 -97 98 -42 271 -87 370 -95 59 -5 75 -2 125 21 32 14 63 26 70 26 31 0 107 153 89 181 -3 5 -2 9 3 9 4 0 9 10 9 23 1 12 4 36 7 52 3 17 8 50 12 75 4 25 18 65 31 89 27 48 26 55 -13 145 -25 57 -25 60 -13 150 17 125 10 207 -24 284 -16 34 -33 62 -38 62 -5 0 -7 4 -4 9 4 5 2 11 -4 13 -6 2 -12 12 -14 24 -2 11 -20 51 -40 88 -24 44 -36 81 -36 107 0 21 -4 39 -9 39 -5 0 -12 11 -15 25 -8 33 -163 107 -262 126 l-71 13 -7 76 c-3 41 -11 91 -17 110 -11 38 -13 173 -3 258 7 56 2 61 -36 36z"/>
 </g>

</svg>