<!DOCTYPE svg PUBLIC "-//W3C//DTD SVG 20010904//EN" "http://www.w3.org/TR/2001/REC-SVG-20010904/DTD/svg10.dtd">
<svg version="1.0" xmlns="http://www.w3.org/2000/svg" width="1416px" height="680px" viewBox="0 0 14160 6800" preserveAspectRatio="xMidYMid meet">
<g id="layer101" fill="#000000" stroke="none">
 <path d="M4470 6157 c-3 -3 -38 -8 -78 -11 -78 -6 -149 -26 -197 -56 -34 -21 -75 -72 -75 -92 1 -24 36 -56 91 -81 30 -15 94 -62 143 -106 48 -43 113 -93 144 -109 32 -17 165 -67 297 -111 l240 -81 216 0 c138 0 250 -5 310 -14 52 -8 130 -20 174 -27 44 -6 141 -26 215 -45 235 -58 322 -74 402 -74 88 0 346 -50 384 -74 13 -9 34 -16 46 -17 l23 0 -23 -9 c-21 -9 -22 -13 -18 -97 l5 -88 -18 35 c-30 55 -50 67 -121 73 -36 3 -130 15 -210 28 -131 22 -175 24 -455 23 -308 0 -311 0 -391 -27 -257 -84 -311 -118 -400 -251 -36 -53 -88 -128 -117 -166 -95 -128 -118 -162 -161 -239 -23 -42 -76 -134 -118 -206 -41 -71 -146 -269 -233 -440 -87 -170 -161 -314 -165 -320 -11 -16 -51 -116 -55 -137 -5 -23 -68 -191 -96 -255 -11 -23 -19 -46 -19 -50 0 -4 -7 -20 -14 -35 -13 -25 -53 -118 -106 -248 -10 -25 -41 -92 -68 -149 l-49 -104 -43 129 c-24 71 -58 163 -77 204 -19 41 -48 109 -64 150 -17 41 -37 89 -46 105 -9 17 -56 103 -105 192 -48 90 -88 166 -88 170 0 3 -33 74 -74 157 -125 256 -154 320 -160 361 -4 22 -16 55 -28 75 -113 188 -118 207 -80 335 12 40 21 100 21 141 1 63 -2 75 -29 112 -28 40 -30 47 -30 139 0 92 -2 100 -32 151 -56 92 -46 90 -494 97 -253 4 -420 11 -479 20 -264 41 -439 52 -640 40 -84 -5 -116 -11 -137 -26 -15 -10 -31 -19 -35 -19 -13 -1 -49 -34 -61 -56 -40 -75 -53 -166 -28 -199 12 -17 12 -24 -1 -48 -19 -39 -9 -80 29 -112 17 -15 77 -49 132 -77 80 -39 123 -54 204 -68 98 -18 257 -75 292 -106 9 -7 42 -23 75 -35 33 -13 79 -36 103 -52 23 -15 64 -38 90 -50 129 -60 201 -108 231 -156 17 -26 41 -57 52 -67 12 -10 30 -35 40 -54 11 -19 31 -50 44 -69 14 -18 32 -58 40 -87 8 -30 22 -78 30 -107 8 -30 15 -66 15 -81 0 -16 7 -42 15 -59 14 -31 71 -208 121 -377 14 -47 34 -114 45 -149 11 -35 24 -96 29 -135 5 -39 18 -100 29 -136 11 -36 25 -92 31 -125 6 -33 18 -82 25 -110 8 -27 18 -95 24 -150 6 -55 20 -127 31 -160 23 -66 52 -223 70 -385 7 -58 23 -142 36 -188 13 -45 24 -93 24 -106 0 -38 37 -132 91 -234 113 -210 187 -294 306 -350 56 -26 64 -27 218 -27 176 1 291 19 354 57 66 40 149 106 506 404 531 442 588 497 959 914 450 505 497 557 628 676 l111 102 71 11 c39 7 98 25 130 41 32 17 65 30 73 30 8 0 39 11 69 25 51 23 54 27 44 48 -11 21 -10 21 4 3 9 -10 13 -22 11 -26 -3 -4 2 -13 10 -20 12 -10 29 -10 73 -2 138 26 192 28 362 14 74 -7 263 -19 420 -27 202 -11 337 -24 465 -45 99 -16 261 -38 360 -49 179 -21 428 -61 495 -81 48 -14 289 -13 331 2 19 6 61 28 95 49 64 39 128 60 234 78 69 11 309 100 407 150 87 44 184 132 204 186 9 24 31 62 48 84 17 21 31 47 31 58 0 10 24 37 56 63 31 25 77 68 102 95 28 31 36 37 20 15 -56 -78 -58 -75 56 -75 120 -1 301 -21 336 -38 25 -13 25 -15 33 -182 8 -167 9 -171 39 -218 l31 -49 66 6 c36 4 78 9 93 12 22 4 36 -3 71 -35 36 -33 52 -41 83 -41 27 0 43 -6 51 -19 6 -10 24 -22 40 -25 15 -4 49 -21 75 -38 44 -28 48 -34 59 -90 15 -75 37 -92 112 -86 28 3 94 22 146 42 l94 37 52 -35 c49 -32 59 -35 143 -38 49 -2 88 -6 86 -10 -2 -3 2 -8 10 -10 8 -2 42 -44 75 -95 50 -78 68 -96 110 -118 89 -44 200 -28 321 48 36 22 70 40 77 40 7 0 11 3 8 5 -3 3 5 17 18 31 13 14 42 52 64 83 22 32 44 54 48 50 5 -4 6 -2 2 4 -3 5 14 38 38 73 30 44 45 77 50 111 7 48 9 51 88 107 98 68 88 58 166 163 35 47 74 95 86 106 14 14 35 69 59 150 l38 128 -12 96 c-6 52 -22 129 -35 170 -14 41 -31 103 -39 138 -17 74 -31 90 -214 262 l-122 115 -73 11 c-80 12 -117 22 -117 32 0 4 30 26 65 50 59 38 65 45 65 76 0 32 -3 34 -92 76 -62 28 -123 48 -183 58 -83 14 -99 14 -200 -2 -145 -23 -161 -25 -293 -36 -61 -5 -139 -15 -173 -22 -57 -12 -65 -17 -168 -119 -89 -86 -112 -116 -128 -160 l-20 -54 -64 -17 c-95 -25 -264 -24 -320 2 -29 13 -66 20 -109 20 -36 0 -76 6 -90 14 -119 66 -143 77 -152 64 -4 -8 -5 1 -2 19 4 21 2 39 -7 50 -12 14 -12 16 0 8 12 -7 13 1 7 42 -4 32 -1 66 9 98 14 48 13 51 -10 91 -13 23 -33 66 -45 95 -36 98 -246 302 -375 366 -38 19 -117 34 -265 48 -36 4 -92 16 -125 26 -96 31 -182 49 -305 64 -78 10 -140 24 -192 45 -42 16 -118 36 -170 44 -51 8 -113 22 -137 30 -87 32 -143 17 -231 -60 -35 -31 -66 -33 -193 -17 -62 7 -184 15 -272 17 -122 2 -227 13 -445 44 -157 23 -337 46 -400 52 -63 6 -132 15 -152 21 -196 52 -585 101 -913 114 -82 4 -184 10 -225 15 -41 5 -149 14 -240 20 -168 12 -251 28 -305 60 -67 41 -237 103 -340 125 -160 34 -247 44 -461 50 -137 3 -217 11 -285 25 -90 20 -299 38 -309 27z m4680 -626 c0 -5 9 -11 20 -14 15 -4 20 -13 19 -34 -2 -26 -2 -26 -6 -3 -3 17 -15 30 -41 42 -30 13 -33 16 -14 17 12 1 22 -3 22 -8z m-4 -208 c-8 -15 -15 -25 -16 -21 0 12 23 58 27 54 3 -2 -2 -17 -11 -33z m-1443 -250 c-13 -2 -35 -2 -50 0 -16 2 -5 4 22 4 28 0 40 -2 28 -4z m150 -10 c-13 -2 -35 -2 -50 0 -16 2 -5 4 22 4 28 0 40 -2 28 -4z m140 -10 c-13 -2 -33 -2 -45 0 -13 2 -3 4 22 4 25 0 35 -2 23 -4z m-1189 -108 c7 -29 7 -29 -8 -10 -8 11 -15 34 -15 50 0 25 2 27 8 10 4 -11 11 -33 15 -50z m2016 -90 c-13 -14 -27 -25 -32 -25 -9 0 42 49 51 50 3 0 -6 -11 -19 -25z m-1983 -202 c-2 -32 -3 -8 -3 52 0 61 1 87 3 58 2 -29 2 -78 0 -110z m10 -325 c-2 -24 -4 -5 -4 42 0 47 2 66 4 43 2 -24 2 -62 0 -85z m-10 -125 c-2 -16 -4 -5 -4 22 0 28 2 40 4 28 2 -13 2 -35 0 -50z m3832 0 c-18 -21 -37 -42 -41 -47 -5 -6 -8 -7 -8 -3 0 9 70 87 78 87 3 0 -10 -17 -29 -37z m1594 -84 c-5 -5 -6 11 -3 34 4 41 5 41 8 8 2 -18 0 -37 -5 -42z m-5436 -16 c-3 -10 -5 -2 -5 17 0 19 2 27 5 18 2 -10 2 -26 0 -35z m3784 20 c-5 -10 -29 -36 -52 -58 -42 -39 -42 -39 7 17 53 61 60 68 45 41z m1434 -50 c-72 -3 -112 -8 -117 -16 -5 -7 -8 -8 -8 -1 0 21 15 24 124 22 l111 -2 -110 -3z m-5228 -75 c-2 -13 -4 -3 -4 22 0 25 2 35 4 23 2 -13 2 -33 0 -45z m3662 -33 c-23 -30 -44 -55 -46 -55 -3 0 -1 6 4 13 44 59 75 97 79 97 3 0 -14 -25 -37 -55z m1418 -147 c-2 -13 -4 -5 -4 17 -1 22 1 32 4 23 2 -10 2 -28 0 -40z m-5161 -135 c-8 -15 -15 -25 -16 -21 0 12 23 58 27 54 3 -2 -2 -17 -11 -33z m-62 -167 c-3 -15 -8 -25 -11 -23 -2 3 -1 17 3 31 3 15 8 25 11 23 2 -3 1 -17 -3 -31z m-17 -128 c-2 -13 -4 -3 -4 22 0 25 2 35 4 23 2 -13 2 -33 0 -45z m5330 -25 c-3 -10 -5 -2 -5 17 0 19 2 27 5 18 2 -10 2 -26 0 -35z"/>
 </g>
<g id="layer102" fill="#9a00ee" stroke="none">
 <path d="M4470 6157 c-3 -3 -38 -8 -78 -11 -78 -6 -149 -26 -197 -56 -34 -21 -75 -72 -75 -92 1 -24 36 -56 91 -81 30 -15 94 -62 143 -106 48 -43 113 -93 144 -109 32 -17 165 -67 297 -111 l240 -81 216 0 c138 0 250 -5 310 -14 52 -8 130 -20 174 -27 44 -6 141 -26 215 -45 235 -58 322 -74 402 -74 88 0 346 -50 384 -74 13 -9 34 -16 46 -17 l23 0 -22 -9 c-22 -9 -23 -14 -19 -87 5 -84 14 -128 46 -238 23 -75 41 -303 40 -495 -1 -123 -33 -449 -56 -568 -8 -45 -35 -126 -58 -180 -81 -182 -96 -282 -55 -349 12 -18 17 -33 14 -33 -4 0 -1 -7 6 -16 9 -12 23 -14 49 -10 173 30 218 32 390 17 74 -6 263 -18 420 -26 202 -11 337 -24 465 -45 99 -16 261 -38 360 -49 179 -21 428 -61 495 -81 48 -14 289 -13 331 2 19 6 61 28 95 49 64 39 128 60 234 78 69 11 309 100 407 150 87 44 184 132 204 186 9 24 31 62 48 84 17 21 31 47 31 58 0 10 24 37 56 63 31 25 77 68 102 95 28 31 36 37 20 15 -56 -78 -58 -75 56 -75 120 -1 301 -21 336 -38 25 -13 25 -15 33 -182 8 -167 9 -171 39 -218 l31 -49 66 6 c36 4 78 9 93 12 22 4 36 -3 71 -35 36 -33 52 -41 83 -41 27 0 43 -6 51 -19 6 -10 24 -22 40 -25 15 -4 49 -21 75 -38 44 -28 48 -34 59 -90 15 -75 37 -92 112 -86 28 3 94 22 146 42 l94 37 52 -35 c49 -32 59 -35 143 -38 49 -2 88 -6 86 -10 -2 -3 2 -8 10 -10 8 -2 42 -44 75 -95 50 -78 68 -96 110 -118 89 -44 200 -28 321 48 36 22 70 40 77 40 7 0 11 3 8 5 -3 3 5 17 18 31 13 14 42 52 64 83 22 32 44 54 48 50 5 -4 6 -2 2 4 -3 5 14 38 38 73 30 44 45 77 50 111 7 48 9 51 88 107 98 68 88 58 166 163 35 47 74 95 86 106 14 14 35 69 59 150 l38 128 -12 96 c-6 52 -22 129 -35 170 -14 41 -31 103 -39 138 -17 74 -31 90 -214 262 l-122 115 -73 11 c-80 12 -117 22 -117 32 0 4 30 26 65 50 59 38 65 45 65 76 0 32 -3 34 -92 76 -62 28 -123 48 -183 58 -83 14 -99 14 -200 -2 -145 -23 -161 -25 -293 -36 -61 -5 -139 -15 -173 -22 -57 -12 -65 -17 -168 -119 -89 -86 -112 -116 -128 -160 l-20 -54 -64 -17 c-95 -25 -264 -24 -320 2 -29 13 -66 20 -109 20 -36 0 -76 6 -90 14 -119 66 -143 77 -152 64 -4 -8 -5 1 -2 19 4 21 2 39 -7 50 -12 14 -12 16 0 8 12 -7 13 1 7 42 -4 32 -1 66 9 98 14 48 13 51 -10 91 -13 23 -33 66 -45 95 -36 98 -246 302 -375 366 -38 19 -117 34 -265 48 -36 4 -92 16 -125 26 -96 31 -182 49 -305 64 -78 10 -140 24 -192 45 -42 16 -118 36 -170 44 -51 8 -113 22 -137 30 -69 25 -116 21 -172 -16 -50 -32 -58 -45 -38 -65 13 -13 -104 -10 -247 7 -54 7 -165 13 -248 14 -114 2 -221 13 -436 44 -157 23 -337 46 -400 52 -63 6 -132 15 -152 21 -196 52 -585 101 -913 114 -82 4 -184 10 -225 15 -41 5 -149 14 -240 20 -168 12 -251 28 -305 60 -67 41 -237 103 -340 125 -160 34 -247 44 -461 50 -137 3 -217 11 -285 25 -90 20 -299 38 -309 27z m4680 -626 c0 -5 9 -11 20 -14 15 -4 20 -13 19 -34 -2 -26 -2 -26 -6 -3 -3 17 -15 30 -41 42 -30 13 -33 16 -14 17 12 1 22 -3 22 -8z m-4 -208 c-8 -15 -15 -25 -16 -21 0 12 23 58 27 54 3 -2 -2 -17 -11 -33z m-1443 -250 c-13 -2 -35 -2 -50 0 -16 2 -5 4 22 4 28 0 40 -2 28 -4z m150 -10 c-13 -2 -35 -2 -50 0 -16 2 -5 4 22 4 28 0 40 -2 28 -4z m140 -10 c-13 -2 -33 -2 -45 0 -13 2 -3 4 22 4 25 0 35 -2 23 -4z m827 -198 c-13 -14 -27 -25 -32 -25 -9 0 42 49 51 50 3 0 -6 -11 -19 -25z m1849 -652 c-18 -21 -37 -42 -41 -47 -5 -6 -8 -7 -8 -3 0 9 70 87 78 87 3 0 -10 -17 -29 -37z m1594 -84 c-5 -5 -6 11 -3 34 4 41 5 41 8 8 2 -18 0 -37 -5 -42z m-1652 4 c-5 -10 -29 -36 -52 -58 -42 -39 -42 -39 7 17 53 61 60 68 45 41z m1434 -50 c-72 -3 -112 -8 -117 -16 -5 -7 -8 -8 -8 -1 0 21 15 24 124 22 l111 -2 -110 -3z m-1566 -108 c-23 -30 -44 -55 -46 -55 -3 0 -1 6 4 13 44 59 75 97 79 97 3 0 -14 -25 -37 -55z m1418 -147 c-2 -13 -4 -5 -4 17 -1 22 1 32 4 23 2 -10 2 -28 0 -40z m90 -455 c-3 -10 -5 -2 -5 17 0 19 2 27 5 18 2 -10 2 -26 0 -35z"/>
 </g>
<g id="layer103" fill="#d0c200" stroke="none">
 <path d="M4470 6157 c-3 -3 -38 -8 -78 -11 -78 -6 -149 -26 -197 -56 -34 -21 -75 -72 -75 -92 1 -24 36 -56 91 -81 30 -15 94 -62 143 -106 48 -43 113 -93 144 -109 32 -17 165 -67 297 -111 l240 -81 216 0 c138 0 250 -5 310 -14 52 -8 130 -20 174 -27 44 -6 141 -26 215 -45 235 -58 322 -74 402 -74 85 0 345 -50 381 -73 12 -7 51 -19 87 -26 36 -7 106 -26 155 -42 220 -70 514 -120 825 -139 217 -14 310 -26 366 -50 24 -11 91 -33 149 -50 58 -16 145 -45 193 -64 48 -18 110 -36 139 -40 29 -4 69 -13 90 -20 21 -7 44 -11 50 -9 22 8 166 194 254 328 96 148 128 216 136 289 l5 51 -36 13 c-20 7 -34 18 -31 23 4 5 -5 9 -19 9 -13 0 -26 5 -28 10 -2 6 -46 13 -100 15 -54 2 -137 9 -185 15 -48 6 -158 13 -243 14 -118 2 -223 13 -440 44 -157 23 -337 46 -400 52 -63 6 -132 15 -152 21 -196 52 -585 101 -913 114 -82 4 -184 10 -225 15 -41 5 -149 14 -240 20 -168 12 -251 28 -305 60 -67 41 -237 103 -340 125 -160 34 -247 44 -461 50 -137 3 -217 11 -285 25 -90 20 -299 38 -309 27z"/>
 <path d="M12395 4949 c-58 -12 -184 -27 -313 -38 -61 -6 -139 -16 -173 -23 -57 -12 -65 -17 -168 -119 -89 -86 -112 -116 -128 -160 l-20 -54 -64 -17 c-95 -25 -264 -24 -320 2 -29 13 -66 20 -109 20 -36 0 -76 6 -90 14 -86 48 -143 76 -147 73 -2 -3 -20 -49 -39 -103 -81 -230 -104 -280 -154 -340 -28 -32 -50 -62 -50 -67 0 -4 -22 -32 -49 -60 -48 -51 -178 -223 -198 -262 -11 -19 -8 -20 91 -20 120 -1 301 -21 336 -38 25 -13 25 -15 33 -182 8 -167 9 -171 39 -218 l31 -49 66 6 c36 4 78 9 93 12 22 4 36 -3 71 -35 36 -33 52 -41 83 -41 27 0 43 -6 51 -19 6 -10 24 -22 40 -25 15 -4 49 -21 75 -38 44 -28 48 -34 59 -90 15 -75 37 -92 112 -86 28 3 94 22 146 42 l94 37 52 -35 c49 -32 59 -35 143 -38 49 -2 88 -6 86 -10 -2 -3 2 -8 10 -10 8 -2 42 -44 75 -95 50 -78 68 -96 110 -118 89 -44 200 -28 321 48 36 22 70 40 77 40 7 0 11 3 8 5 -3 3 5 17 18 31 13 14 42 52 64 83 22 32 44 54 48 50 5 -4 6 -2 2 4 -3 5 14 38 38 73 30 44 45 77 50 111 7 48 9 51 88 107 98 68 88 58 166 163 35 47 74 95 86 106 14 14 35 69 59 150 l38 128 -12 96 c-6 52 -22 129 -35 170 -14 41 -31 103 -39 138 -17 74 -31 90 -214 262 l-122 115 -73 11 c-80 12 -117 22 -117 32 0 4 30 26 65 50 59 38 65 45 65 76 0 32 -3 34 -92 76 -131 60 -260 81 -363 59z m-132 -830 c-5 -5 -6 11 -3 34 4 41 5 41 8 8 2 -18 0 -37 -5 -42z m-218 -46 c-72 -3 -112 -8 -117 -16 -5 -7 -8 -8 -8 -1 0 21 15 24 124 22 l111 -2 -110 -3z m-148 -255 c-2 -13 -4 -5 -4 17 -1 22 1 32 4 23 2 -10 2 -28 0 -40z m90 -455 c-3 -10 -5 -2 -5 17 0 19 2 27 5 18 2 -10 2 -26 0 -35z"/>
 </g>
<g id="layer104" fill="#b69682" stroke="none">
 <path d="M4480 6157 c-3 -3 -40 -7 -82 -10 -82 -6 -153 -26 -203 -57 -34 -21 -75 -72 -75 -93 0 -19 46 -58 102 -85 25 -13 85 -59 133 -102 48 -43 112 -92 143 -108 32 -17 165 -67 297 -111 l240 -81 216 0 c138 0 250 -5 310 -14 52 -8 130 -20 174 -27 44 -6 141 -26 215 -45 235 -58 322 -74 402 -74 85 0 345 -50 381 -73 12 -7 51 -19 87 -26 36 -7 106 -26 155 -42 220 -70 514 -120 825 -139 217 -14 310 -26 366 -50 24 -11 91 -33 149 -50 58 -16 145 -45 193 -64 48 -18 110 -36 139 -40 29 -4 69 -13 90 -20 21 -7 44 -11 50 -9 22 8 166 194 254 328 96 148 128 216 136 289 l5 51 -36 13 c-20 7 -34 18 -31 23 4 5 -5 9 -19 9 -13 0 -26 5 -28 10 -2 6 -46 13 -100 15 -54 2 -137 9 -185 15 -48 6 -158 13 -243 14 -118 2 -223 13 -440 44 -157 23 -332 46 -390 51 -58 6 -197 29 -310 51 -241 48 -398 66 -685 80 -115 5 -248 14 -295 20 -47 5 -159 14 -250 20 -164 11 -253 28 -298 57 -59 37 -247 106 -347 128 -160 34 -247 44 -461 50 -135 3 -218 11 -285 25 -92 19 -289 37 -299 27z"/>
 <path d="M10834 4573 c-75 -213 -116 -310 -144 -342 -17 -20 -46 -58 -64 -86 -19 -27 -46 -61 -61 -75 -27 -25 -173 -219 -192 -255 -11 -19 -8 -20 91 -20 120 -1 301 -21 336 -38 25 -13 25 -15 33 -182 8 -167 9 -171 39 -218 l31 -49 66 6 c36 4 78 9 93 12 22 4 36 -3 71 -35 36 -33 52 -41 83 -41 27 0 43 -6 51 -19 6 -10 24 -22 40 -25 15 -4 49 -21 75 -38 44 -28 48 -34 59 -90 15 -75 37 -92 112 -86 28 3 94 22 146 42 l94 37 53 -35 c42 -28 64 -36 101 -36 27 -1 66 -4 89 -9 l41 -8 -19 49 c-10 26 -32 98 -49 160 -29 103 -31 121 -25 208 6 89 5 101 -24 184 -68 200 -72 224 -60 341 17 165 2 153 180 157 136 3 153 5 166 22 17 24 18 68 1 123 -16 55 -23 61 -87 78 -53 14 -128 59 -137 82 -10 26 -183 63 -297 63 l-55 0 -12 41 c-11 35 -16 40 -36 34 -18 -4 -23 -1 -23 13 0 18 -2 18 -67 1 -99 -26 -267 -25 -324 1 -29 13 -66 20 -109 20 -36 0 -76 6 -90 14 -54 30 -141 76 -145 76 -1 0 -15 -35 -31 -77z"/>
 </g>

</svg>