<!DOCTYPE svg PUBLIC "-//W3C//DTD SVG 20010904//EN" "http://www.w3.org/TR/2001/REC-SVG-20010904/DTD/svg10.dtd">
<svg version="1.0" xmlns="http://www.w3.org/2000/svg" width="1504px" height="2005px" viewBox="0 0 12000 16000" preserveAspectRatio="xMidYMid meet">
<g id="layer101" fill="#000000" stroke="none">
 <path d="M6380 9991 c-78 -12 -366 -111 -380 -131 -3 -3 -36 -33 -75 -65 -94 -78 -68 -49 -277 -313 -20 -26 -37 -52 -37 -59 -1 -7 -7 -16 -14 -20 -12 -8 -147 -206 -147 -217 0 -3 -11 -22 -25 -43 -14 -21 -30 -45 -35 -53 -5 -8 -21 -32 -35 -53 -14 -21 -25 -44 -25 -52 0 -8 -4 -15 -9 -15 -5 0 -16 -17 -25 -37 -9 -21 -23 -49 -31 -63 -14 -24 -80 -165 -116 -245 -9 -22 -27 -61 -38 -86 -12 -25 -21 -51 -21 -57 0 -5 -9 -27 -19 -49 -10 -21 -38 -83 -62 -138 -39 -90 -139 -278 -145 -272 -1 1 -21 38 -44 82 -60 113 -106 185 -177 275 -35 44 -63 82 -63 86 0 4 -10 17 -22 29 -61 59 -218 248 -218 262 0 5 -12 20 -26 34 -14 13 -35 39 -47 59 -11 19 -24 37 -27 40 -3 3 -20 27 -38 54 -17 27 -40 55 -51 63 -28 19 -77 94 -102 156 -12 28 -28 67 -36 85 -11 25 -13 57 -7 142 6 97 5 113 -14 152 -28 60 -64 91 -107 92 l-35 1 0 51 c0 28 -7 64 -15 80 -20 41 -84 114 -100 114 -7 0 -32 9 -56 20 -55 25 -87 25 -180 0 -41 -11 -93 -20 -116 -20 -23 0 -52 -4 -65 -8 -35 -13 -334 6 -396 25 -42 13 -70 14 -145 7 -50 -4 -119 -7 -151 -6 -72 3 -150 -19 -191 -53 -29 -24 -30 -27 -30 -109 1 -77 3 -86 25 -105 14 -11 31 -20 37 -21 9 0 10 -7 3 -25 -11 -30 4 -62 34 -71 11 -4 40 -19 66 -35 25 -16 71 -32 105 -37 55 -9 115 -30 155 -53 8 -5 69 -36 135 -69 66 -33 129 -66 140 -73 11 -6 49 -30 85 -53 85 -53 105 -64 125 -64 18 0 115 -98 115 -117 0 -17 91 -174 141 -243 52 -72 89 -128 89 -136 0 -5 38 -96 82 -194 11 -25 26 -58 33 -75 37 -83 53 -124 65 -168 7 -26 17 -50 21 -53 5 -3 9 -19 9 -35 0 -16 9 -47 20 -69 11 -22 20 -50 20 -64 0 -13 36 -96 80 -184 44 -88 80 -165 80 -171 0 -6 9 -26 20 -46 11 -20 20 -40 20 -45 0 -5 5 -21 11 -37 31 -76 59 -160 59 -179 0 -21 85 -194 100 -204 4 -3 15 -21 24 -40 16 -35 36 -71 46 -80 3 -3 23 -26 43 -52 24 -29 58 -56 94 -72 30 -15 77 -45 102 -66 26 -22 52 -40 58 -40 6 0 16 -6 22 -14 6 -7 25 -16 42 -20 38 -7 221 30 271 55 21 10 44 19 52 19 8 0 16 3 18 8 2 4 29 24 61 46 31 21 57 42 57 47 0 5 6 9 14 9 7 0 20 8 27 19 20 27 213 181 227 181 7 0 12 4 12 10 0 5 13 16 29 25 16 8 35 20 43 27 14 13 27 21 97 60 20 11 79 64 131 118 52 53 111 105 130 115 18 10 40 23 47 30 7 7 16 15 20 17 5 1 19 19 33 39 14 20 78 92 143 159 64 67 117 124 117 128 0 4 33 36 72 72 86 78 175 167 243 243 28 31 65 65 83 77 20 12 31 25 27 33 -4 6 3 1 14 -13 11 -14 33 -47 47 -75 14 -27 53 -76 85 -108 32 -32 59 -62 59 -68 0 -5 6 -12 14 -15 8 -3 19 -18 25 -32 10 -26 35 -68 76 -128 21 -31 67 -84 103 -119 12 -12 22 -26 22 -30 0 -4 6 -13 13 -19 9 -7 23 -73 36 -167 l23 -155 -26 -86 c-15 -46 -27 -105 -29 -129 -2 -52 -22 -74 -74 -84 -19 -3 -52 -15 -72 -26 -20 -10 -44 -19 -55 -19 -10 0 -46 -9 -80 -19 -33 -11 -92 -29 -131 -40 -38 -11 -99 -30 -134 -41 -36 -11 -79 -20 -95 -20 -17 0 -56 -7 -86 -15 -30 -8 -101 -19 -157 -25 -108 -10 -260 -43 -277 -60 -6 -6 -17 -10 -26 -10 -19 0 -161 -58 -301 -123 -133 -62 -156 -72 -194 -83 -78 -24 -160 -55 -169 -64 -6 -6 -17 -10 -26 -10 -9 0 -35 -9 -58 -20 -22 -11 -49 -20 -59 -20 -10 0 -27 -6 -38 -14 -11 -7 -31 -17 -45 -21 -24 -7 -76 -29 -145 -60 -16 -7 -57 -25 -90 -38 -33 -14 -123 -52 -200 -86 l-140 -61 -122 0 c-117 0 -125 -1 -180 -31 -32 -16 -71 -39 -88 -49 -40 -26 -155 -80 -169 -80 -7 0 -21 -7 -32 -15 -12 -9 -43 -14 -83 -15 -55 0 -71 -5 -125 -37 -54 -33 -95 -54 -191 -98 -98 -45 -134 -60 -170 -71 -124 -38 -185 -80 -188 -129 -2 -38 21 -43 84 -20 111 42 189 67 247 79 l62 13 -32 -28 c-18 -16 -38 -28 -45 -29 -19 0 -63 -60 -63 -85 0 -12 7 -26 16 -29 26 -10 113 -7 229 8 61 9 155 20 210 25 55 5 127 16 160 25 129 32 214 48 305 56 52 5 131 16 175 24 44 9 127 15 185 16 74 0 126 6 175 20 38 11 82 20 97 20 15 0 51 9 80 19 29 11 80 22 113 25 33 2 105 12 159 20 55 9 131 16 171 16 39 0 122 7 184 15 62 8 159 19 215 25 105 10 280 46 353 74 24 9 84 35 135 60 104 49 209 83 295 96 32 5 96 17 143 26 95 18 604 28 873 17 136 -5 147 -7 147 -25 0 -17 -5 -18 -45 -12 -53 7 -95 -1 -95 -20 0 -7 -6 -19 -14 -25 -22 -19 -25 -62 -9 -125 11 -45 12 -68 4 -100 -5 -22 -12 -78 -15 -124 -3 -56 -9 -89 -20 -101 -8 -9 -19 -35 -24 -57 -8 -39 -8 -39 -59 -42 -68 -4 -103 -41 -103 -107 0 -24 4 -46 9 -50 14 -8 68 -90 75 -113 4 -11 13 -26 21 -32 30 -25 17 -57 -46 -112 -63 -56 -75 -74 -109 -176 -27 -79 -40 -151 -46 -272 -5 -94 -5 -95 25 -131 21 -25 49 -43 93 -59 56 -20 124 -54 138 -69 10 -11 147 -101 154 -101 8 0 88 -37 281 -129 77 -37 151 -73 165 -79 14 -7 44 -23 66 -36 63 -35 168 -42 258 -15 161 47 212 64 224 76 7 7 26 20 42 30 17 9 30 21 30 25 0 4 5 8 11 8 5 0 54 35 107 78 54 42 117 87 142 99 146 71 207 95 270 107 37 7 52 22 82 83 18 35 57 93 86 128 28 35 52 66 52 69 0 3 12 22 26 43 25 37 25 39 19 173 -4 74 -12 145 -19 157 -6 12 -25 50 -43 85 -18 35 -46 78 -63 96 l-31 34 -95 -4 c-52 -1 -98 -8 -102 -14 -4 -5 -28 -24 -54 -42 l-48 -31 -11 44 c-6 24 -20 53 -30 64 -10 11 -19 22 -19 25 0 3 -15 26 -32 52 -49 69 -66 96 -84 130 -9 17 -32 40 -52 50 -63 34 -67 36 -85 60 -14 19 -17 49 -19 196 -2 169 0 201 15 225 5 7 14 45 22 85 8 40 25 96 39 123 14 28 26 55 26 62 0 20 94 104 123 110 15 3 30 9 32 14 3 4 -1 41 -10 81 -9 45 -15 126 -15 208 1 156 -7 212 -59 420 -6 25 -25 112 -41 194 -20 100 -35 153 -45 158 -8 5 -15 14 -15 20 0 5 -17 31 -37 57 -34 41 -49 67 -92 161 -6 14 -19 39 -30 55 -28 46 -63 107 -79 140 -9 17 -18 32 -21 35 -3 3 -17 27 -31 55 -14 27 -32 61 -41 75 -9 14 -71 107 -138 208 -66 101 -121 187 -121 192 0 4 -6 13 -14 19 -8 6 -26 51 -41 99 -15 48 -36 112 -46 142 -9 30 -20 67 -23 81 -5 22 -26 63 -71 137 -6 9 -24 37 -40 61 -17 24 -34 52 -40 62 -5 11 -14 19 -20 19 -22 1 -65 49 -101 115 -9 16 -23 35 -30 43 -8 7 -14 18 -14 23 0 5 -6 9 -12 9 -7 0 -24 22 -36 48 -13 26 -37 63 -53 82 -28 33 -31 34 -98 34 -50 0 -75 -4 -88 -16 -17 -15 -20 -15 -38 1 -26 22 -38 41 -82 131 -20 41 -42 79 -50 83 -7 4 -13 13 -13 18 0 43 -176 190 -250 208 -25 7 -63 19 -85 27 -99 39 -208 54 -410 58 -110 3 -225 1 -255 -3z"/>
 </g>
<g id="layer102" fill="#9a00ee" stroke="none">
 <path d="M7600 9483 c-14 -3 -33 -12 -42 -20 -17 -15 -17 -17 0 -29 16 -13 16 -15 0 -24 -10 -6 -26 -30 -36 -53 -22 -50 -98 -129 -237 -247 -55 -47 -152 -137 -215 -200 -64 -63 -174 -170 -246 -237 -72 -67 -147 -146 -165 -175 -30 -47 -34 -60 -33 -119 1 -63 4 -71 41 -116 21 -26 49 -68 62 -93 13 -25 50 -70 81 -101 31 -31 60 -64 63 -73 4 -9 11 -16 16 -16 5 0 14 -12 20 -27 10 -27 34 -68 76 -129 21 -31 67 -84 103 -119 12 -12 22 -26 22 -30 0 -4 6 -13 13 -19 9 -7 23 -73 36 -167 l23 -155 -26 -86 c-15 -46 -27 -105 -29 -129 -2 -52 -22 -74 -74 -84 -19 -3 -52 -15 -72 -26 -20 -10 -44 -19 -55 -19 -10 0 -46 -9 -80 -19 -33 -11 -92 -29 -131 -40 -38 -11 -99 -30 -134 -41 -36 -11 -79 -20 -95 -20 -17 0 -56 -7 -86 -15 -30 -8 -101 -19 -157 -25 -104 -10 -260 -44 -277 -61 -6 -5 -17 -9 -25 -9 -20 0 -162 -58 -302 -123 -133 -62 -156 -72 -194 -83 -78 -24 -160 -55 -169 -64 -6 -6 -17 -10 -26 -10 -9 0 -35 -9 -58 -20 -22 -11 -48 -20 -57 -20 -10 0 -29 -6 -43 -14 -15 -8 -56 -27 -92 -41 -36 -15 -78 -33 -95 -40 -16 -7 -57 -25 -90 -38 -33 -14 -123 -52 -200 -86 l-140 -61 -122 0 c-117 0 -125 -1 -180 -31 -32 -16 -71 -39 -88 -49 -40 -26 -155 -80 -169 -80 -7 0 -21 -7 -32 -15 -12 -9 -43 -15 -84 -15 -58 0 -72 -4 -125 -38 -54 -34 -87 -51 -190 -97 -16 -7 -55 -24 -85 -38 -30 -13 -64 -27 -75 -30 -64 -19 -128 -47 -158 -70 -38 -29 -56 -75 -35 -89 16 -10 76 -1 103 16 24 16 149 54 228 71 l57 12 -32 -28 c-18 -16 -38 -28 -45 -29 -19 0 -63 -60 -63 -85 0 -12 7 -26 16 -29 24 -9 124 -7 185 4 30 5 122 16 204 24 83 8 177 21 210 30 125 32 255 56 302 56 26 0 94 9 151 20 63 12 144 20 210 20 77 0 127 6 177 20 38 11 82 20 97 20 15 0 51 9 80 19 29 11 80 22 113 25 33 3 103 12 155 20 52 9 129 16 171 16 41 0 126 7 188 15 62 8 159 19 215 25 105 10 280 46 353 74 24 9 84 35 135 60 113 53 202 82 288 95 36 6 103 18 150 27 95 18 604 28 873 17 136 -5 147 -7 147 -25 0 -17 -5 -18 -45 -12 -53 7 -95 -1 -95 -20 0 -7 -6 -19 -14 -25 -22 -19 -25 -62 -9 -125 11 -45 12 -68 4 -100 -5 -22 -12 -78 -15 -124 -3 -56 -9 -89 -20 -101 -8 -9 -19 -35 -24 -57 -8 -39 -8 -39 -59 -42 -68 -4 -103 -41 -103 -107 0 -24 4 -46 9 -50 14 -8 68 -90 75 -113 4 -11 13 -26 21 -32 30 -25 17 -57 -46 -114 -68 -62 -75 -72 -108 -170 -28 -83 -40 -152 -48 -273 -5 -92 -5 -92 26 -131 22 -29 47 -45 93 -62 56 -20 124 -54 138 -69 10 -11 147 -101 154 -101 8 0 88 -37 281 -129 77 -37 151 -73 165 -79 14 -7 44 -23 66 -36 63 -35 168 -42 258 -15 161 47 212 64 224 76 7 7 26 20 42 30 17 9 30 21 30 25 0 4 5 8 11 8 5 0 54 35 107 78 54 42 117 87 142 99 150 73 225 102 275 109 30 3 48 22 77 81 18 35 57 93 86 128 28 35 52 66 52 69 0 3 12 22 26 43 25 37 25 39 19 173 -4 74 -12 145 -19 157 -6 12 -25 50 -43 85 -18 35 -46 78 -63 96 l-31 34 -95 -4 c-52 -1 -98 -8 -102 -14 -4 -5 -28 -24 -54 -42 l-48 -31 -11 44 c-6 24 -20 53 -30 64 -10 11 -19 22 -19 25 0 3 -15 26 -32 52 -49 69 -66 96 -84 130 -9 17 -32 40 -52 50 -63 34 -67 36 -85 60 -14 19 -17 49 -19 196 -2 169 0 201 15 225 5 7 14 45 22 85 8 40 25 96 39 123 14 28 26 55 26 62 0 20 94 104 123 110 15 3 30 9 32 14 3 4 -1 41 -10 81 -9 45 -15 126 -15 208 1 156 -7 212 -59 420 -6 25 -25 112 -41 194 -20 100 -35 153 -45 158 -8 5 -15 14 -15 20 0 5 -17 31 -37 57 -34 41 -49 67 -92 161 -6 14 -19 39 -30 55 -28 46 -63 107 -79 140 -9 17 -18 32 -21 35 -3 3 -17 27 -31 55 -14 27 -32 61 -41 75 -9 14 -71 107 -138 208 -66 101 -121 187 -121 192 0 4 -6 13 -14 19 -8 6 -26 51 -41 99 -15 48 -36 112 -46 142 -9 30 -20 67 -23 81 -5 22 -26 63 -71 137 -6 9 -24 37 -40 61 -17 24 -34 52 -40 62 -5 11 -14 19 -20 19 -22 1 -65 49 -101 115 -9 16 -23 35 -30 43 -8 7 -14 18 -14 23 0 5 -6 9 -12 9 -7 0 -24 22 -36 48 -42 84 -71 110 -127 115 -28 3 -61 3 -75 0z"/>
 </g>
<g id="layer103" fill="#d0c200" stroke="none">
 <path d="M7050 7035 c-25 -7 -58 -20 -75 -29 -16 -9 -38 -16 -49 -16 -10 0 -46 -9 -80 -19 -33 -11 -92 -29 -131 -40 -38 -11 -99 -30 -134 -41 -36 -11 -79 -20 -95 -20 -17 0 -56 -7 -86 -15 -30 -8 -101 -19 -157 -25 -104 -10 -260 -44 -278 -61 -5 -5 -16 -9 -25 -9 -19 0 -161 -58 -301 -123 -133 -62 -156 -72 -194 -83 -78 -24 -160 -55 -169 -64 -6 -6 -17 -10 -26 -10 -9 0 -35 -9 -58 -20 -22 -11 -48 -20 -57 -20 -10 0 -29 -6 -43 -14 -15 -8 -56 -27 -92 -41 -36 -15 -78 -33 -95 -40 -16 -7 -57 -25 -90 -38 -33 -14 -123 -52 -200 -86 l-140 -61 -122 0 c-117 0 -125 -1 -180 -31 -32 -16 -71 -39 -88 -49 -40 -26 -155 -80 -169 -80 -7 0 -21 -7 -32 -15 -12 -9 -43 -15 -84 -15 -58 0 -72 -4 -125 -38 -54 -34 -87 -51 -190 -97 -16 -7 -55 -24 -85 -38 -30 -13 -64 -27 -75 -30 -64 -19 -128 -47 -158 -70 -38 -29 -56 -75 -35 -89 16 -10 76 -1 103 16 24 16 149 54 228 71 l57 12 -32 -28 c-18 -16 -38 -28 -45 -29 -19 0 -63 -60 -63 -85 0 -12 7 -26 16 -29 24 -9 124 -7 185 4 30 5 122 16 204 24 83 8 177 21 210 30 125 32 255 56 302 56 26 0 94 9 151 20 63 12 144 20 210 20 77 0 127 6 177 20 38 11 82 20 97 20 15 0 51 9 80 19 29 11 80 22 113 25 33 3 103 12 155 20 52 9 129 16 171 16 41 0 126 7 188 15 62 8 159 19 215 25 105 10 280 46 353 74 24 9 84 35 135 60 113 53 202 82 288 95 36 6 101 17 145 25 44 9 102 15 129 16 l48 0 -5 33 c-3 17 1 70 9 117 7 47 15 100 16 119 3 32 6 36 51 47 26 7 54 17 61 23 10 9 13 70 14 275 1 145 6 276 12 290 11 30 8 31 -60 11z"/>
 <path d="M8130 6371 c-34 -6 -35 -8 -40 -56 -6 -48 -26 -101 -53 -136 -21 -28 -60 -46 -135 -64 -58 -14 -75 -15 -87 -5 -13 10 -15 9 -15 -9 0 -21 -3 -22 -45 -15 -53 7 -95 -1 -95 -20 0 -7 -6 -19 -14 -25 -22 -19 -25 -62 -9 -125 11 -45 12 -68 4 -100 -5 -22 -12 -78 -15 -124 -3 -56 -9 -89 -20 -101 -8 -9 -19 -35 -24 -57 -8 -39 -8 -39 -59 -42 -68 -4 -103 -41 -103 -107 0 -24 4 -46 9 -50 14 -8 68 -90 75 -113 4 -11 13 -26 21 -32 30 -25 17 -57 -46 -114 -68 -62 -75 -72 -108 -170 -28 -83 -40 -152 -48 -273 -5 -92 -5 -92 26 -131 22 -29 47 -45 93 -62 56 -20 124 -54 138 -69 10 -11 147 -101 154 -101 8 0 88 -37 281 -129 77 -37 151 -73 165 -79 14 -7 44 -23 66 -36 63 -35 168 -42 258 -15 161 47 212 64 224 76 7 7 26 20 42 30 17 9 30 21 30 25 0 4 5 8 11 8 5 0 54 35 107 78 54 42 117 87 142 99 150 73 225 102 275 109 30 3 48 22 77 81 18 35 57 93 86 128 28 35 52 66 52 69 0 3 12 22 26 43 25 37 25 39 19 173 -4 74 -12 145 -19 157 -6 12 -25 50 -43 85 -18 35 -46 78 -63 96 l-31 34 -95 -4 c-52 -1 -98 -8 -102 -14 -4 -5 -28 -24 -54 -42 l-48 -31 -11 44 c-6 24 -20 53 -30 64 -10 11 -19 22 -19 25 0 3 -15 26 -32 52 -49 69 -66 96 -84 130 -9 17 -32 40 -52 50 -63 34 -67 36 -85 60 -14 19 -17 49 -19 196 -2 169 0 201 15 225 5 7 14 45 22 85 8 40 25 96 39 123 36 69 34 74 -16 64 -24 -4 -130 -8 -236 -9 -174 0 -199 2 -245 21 -29 11 -62 25 -75 30 -25 10 -127 10 -182 0z"/>
 </g>
<g id="layer104" fill="#b69682" stroke="none">
 <path d="M7050 7035 c-25 -7 -58 -20 -75 -29 -16 -9 -38 -16 -49 -16 -10 0 -46 -9 -80 -19 -33 -11 -92 -29 -131 -40 -38 -11 -99 -30 -134 -41 -36 -11 -79 -20 -95 -20 -17 0 -56 -7 -86 -15 -30 -8 -101 -19 -157 -25 -97 -9 -245 -40 -281 -60 -9 -4 -39 -16 -67 -25 -68 -24 -210 -85 -375 -163 -19 -9 -53 -22 -75 -28 -77 -23 -160 -55 -169 -64 -6 -6 -17 -10 -26 -10 -9 0 -35 -9 -58 -20 -22 -11 -48 -20 -57 -20 -10 0 -29 -6 -43 -14 -15 -8 -56 -27 -92 -41 -36 -15 -78 -33 -95 -40 -16 -7 -57 -25 -90 -38 -33 -14 -123 -52 -200 -86 l-140 -61 -121 0 c-115 0 -123 -1 -180 -31 -32 -16 -72 -39 -89 -49 -41 -26 -155 -80 -169 -80 -7 0 -21 -7 -32 -15 -12 -9 -43 -15 -84 -15 -58 0 -72 -4 -125 -38 -33 -21 -82 -48 -110 -61 -27 -12 -68 -30 -90 -40 -22 -10 -60 -27 -85 -39 -25 -11 -54 -23 -65 -26 -60 -16 -124 -45 -157 -69 -39 -30 -58 -75 -36 -89 16 -10 76 -1 103 16 25 16 149 54 229 71 l59 12 -34 -28 c-19 -16 -39 -29 -46 -29 -19 0 -63 -60 -63 -85 0 -12 7 -26 16 -29 24 -9 124 -7 185 4 30 5 122 16 204 24 83 8 177 21 210 30 125 32 255 56 302 56 26 0 94 9 151 20 63 12 144 20 209 20 103 0 126 4 323 55 36 9 94 20 130 25 36 4 111 15 167 24 57 9 133 16 170 16 163 0 656 71 742 107 52 22 106 46 181 81 87 40 181 70 260 81 36 6 101 17 145 25 44 9 102 15 129 16 l48 0 -5 33 c-3 17 1 70 9 117 7 47 15 100 16 119 3 32 6 36 51 47 26 7 54 17 61 23 10 9 13 70 14 275 1 145 6 276 12 290 11 30 8 31 -60 11z"/>
 <path d="M8130 6371 c-34 -6 -35 -8 -40 -56 -6 -48 -26 -101 -53 -136 -21 -28 -60 -46 -135 -64 -58 -14 -75 -15 -87 -5 -13 10 -15 9 -15 -9 0 -21 -3 -22 -45 -15 -53 7 -95 -1 -95 -20 0 -7 -6 -19 -14 -25 -22 -19 -25 -62 -9 -125 8 -32 12 -68 8 -80 -3 -11 -10 -68 -15 -125 -6 -68 -14 -109 -24 -120 -9 -9 -19 -35 -24 -57 -8 -39 -8 -39 -59 -42 -68 -4 -103 -41 -103 -107 0 -24 4 -46 9 -50 14 -8 68 -90 75 -113 4 -11 13 -26 21 -32 10 -8 16 -33 17 -69 1 -41 2 -46 5 -20 4 40 1 39 118 55 36 5 61 16 90 41 l40 34 8 -99 9 -99 53 -32 c70 -42 119 -50 148 -24 30 27 106 78 177 118 48 27 66 32 99 28 22 -3 48 -14 57 -24 21 -23 91 -26 120 -4 10 8 41 15 67 15 89 0 120 40 131 162 8 93 28 154 92 278 l49 95 1 180 c1 178 3 209 17 232 5 7 14 45 22 85 8 40 25 96 39 123 36 69 34 74 -16 64 -24 -4 -130 -8 -236 -9 -174 0 -199 2 -245 21 -29 11 -62 25 -75 30 -25 10 -127 10 -182 0z"/>
 </g>

</svg>