<!DOCTYPE svg PUBLIC "-//W3C//DTD SVG 20010904//EN" "http://www.w3.org/TR/2001/REC-SVG-20010904/DTD/svg10.dtd">
<svg version="1.0" xmlns="http://www.w3.org/2000/svg" width="1110px" height="846px" viewBox="0 0 11100 8460" preserveAspectRatio="xMidYMid meet">
<g id="layer101" fill="#000000" stroke="none">
 <path d="M4385 8254 c-38 -8 -113 -35 -165 -60 -97 -46 -164 -104 -247 -213 -18 -24 -73 -82 -122 -130 -74 -72 -89 -92 -95 -126 -11 -75 -6 -120 25 -205 58 -156 80 -270 86 -442 3 -87 10 -158 14 -158 12 0 11 -97 0 -137 -6 -21 -4 -55 5 -102 7 -40 18 -132 23 -206 6 -74 17 -162 26 -195 8 -32 15 -63 14 -67 -4 -25 2 -43 13 -37 7 4 8 3 4 -5 -10 -15 13 -83 25 -75 6 3 9 0 8 -7 -1 -8 3 -27 9 -42 7 -16 12 -33 12 -38 0 -5 5 -9 10 -9 6 0 10 -7 10 -16 0 -8 4 -13 8 -10 5 3 15 -7 23 -22 7 -15 18 -33 23 -41 6 -7 11 -20 13 -29 1 -9 7 -18 12 -20 6 -2 11 -12 11 -22 0 -10 5 -22 10 -25 6 -3 10 -16 10 -28 0 -12 7 -31 15 -41 13 -17 12 -22 -4 -45 -11 -14 -40 -42 -66 -61 -26 -19 -53 -47 -61 -62 -8 -16 -21 -28 -28 -28 -8 0 -16 -4 -18 -9 -6 -15 -171 -150 -178 -146 -4 3 -14 -3 -21 -13 -12 -15 -12 -16 1 -7 31 20 -36 -37 -72 -62 -21 -14 -38 -30 -38 -34 0 -5 -7 -9 -15 -9 -8 0 -14 -6 -13 -12 2 -7 -3 -12 -10 -10 -6 1 -11 -1 -10 -5 3 -19 -17 -45 -46 -60 -77 -39 -241 -191 -440 -409 -60 -65 -138 -149 -173 -187 -34 -37 -63 -74 -63 -81 0 -8 -18 -70 -40 -138 -58 -175 -62 -201 -50 -353 15 -198 40 -275 181 -560 89 -180 120 -234 145 -252 31 -22 35 -14 14 27 -11 21 -20 45 -20 52 0 7 17 -21 37 -63 35 -71 44 -81 123 -137 47 -33 106 -68 130 -78 25 -9 57 -26 73 -36 15 -11 62 -38 105 -60 42 -22 91 -50 107 -62 17 -12 59 -40 94 -61 36 -21 83 -57 105 -79 38 -36 172 -130 241 -167 17 -9 30 -21 30 -27 0 -6 6 -17 14 -24 10 -10 12 -10 7 0 -15 27 16 10 56 -30 24 -24 36 -34 29 -23 -8 11 7 -2 32 -28 26 -26 47 -52 47 -57 0 -5 17 -26 37 -47 21 -20 32 -33 24 -29 -9 6 -12 5 -7 -2 4 -6 13 -9 20 -6 13 5 206 -169 206 -185 0 -4 -40 33 -89 81 -49 49 -96 88 -105 88 -39 0 -8 -95 59 -180 19 -25 47 -62 61 -83 15 -20 42 -46 60 -58 19 -11 43 -33 54 -49 12 -16 34 -37 50 -47 17 -10 49 -51 76 -95 25 -43 51 -81 58 -85 7 -5 46 -57 87 -116 l74 -109 -2 -139 c0 -76 2 -139 6 -139 5 0 13 -37 19 -81 13 -92 48 -217 66 -239 7 -8 37 -55 65 -103 62 -104 94 -136 212 -217 75 -52 91 -68 113 -114 14 -30 26 -59 26 -65 0 -10 33 -32 55 -37 6 -2 35 -10 65 -19 130 -37 183 -46 320 -54 107 -6 158 -4 194 5 27 7 53 11 57 8 4 -2 34 21 66 52 32 30 51 52 43 48 -10 -5 -9 -1 4 14 10 12 28 24 40 28 11 3 31 18 44 33 13 14 20 19 16 11 -4 -8 4 -5 17 8 13 13 44 38 69 55 53 39 87 108 75 153 l-7 29 -19 -37 c-11 -21 -22 -38 -24 -38 -8 0 45 101 64 121 12 13 25 64 39 156 24 150 27 218 12 258 -18 46 -20 152 -5 182 19 35 19 117 2 135 -8 7 -39 63 -70 124 -55 107 -88 154 -107 154 -6 0 -10 3 -10 8 0 4 26 8 58 8 74 2 282 55 567 145 135 42 219 59 298 59 40 0 113 5 162 10 76 8 105 6 191 -11 85 -17 112 -18 167 -9 96 15 167 46 223 95 26 24 53 41 59 38 5 -4 7 -2 2 2 -4 5 3 19 15 32 15 16 25 47 34 105 16 100 10 152 -25 198 -14 19 -25 39 -23 43 1 4 -5 10 -13 13 -8 3 -12 10 -9 16 3 5 15 1 27 -9 22 -18 22 -18 4 4 -11 12 -25 19 -32 17 -7 -3 -16 0 -21 7 -5 8 -3 10 7 4 8 -4 4 2 -8 13 -12 12 -24 30 -27 40 -12 38 -297 85 -404 67 -18 -3 -30 -9 -28 -13 3 -5 -4 -8 -14 -9 -12 -1 -36 17 -59 43 -22 25 -65 58 -100 75 -34 17 -61 34 -61 38 0 10 -46 31 -70 31 -10 0 -33 18 -51 41 -24 30 -34 37 -40 27 -5 -7 -9 -8 -9 -3 0 6 5 16 12 23 9 9 9 12 -1 12 -7 0 -9 5 -6 10 3 6 1 10 -4 10 -6 0 -11 5 -11 11 0 21 -27 37 -56 33 -19 -3 -23 -2 -12 3 9 5 -46 8 -123 9 -84 0 -143 4 -147 10 -12 17 -161 41 -271 43 -93 2 -114 6 -188 36 -101 41 -190 61 -308 70 -69 6 -103 14 -146 36 -33 16 -95 35 -149 44 -51 9 -106 21 -121 28 -16 7 -107 90 -203 184 -95 95 -178 173 -184 173 -13 0 -97 98 -97 114 0 6 -4 11 -10 11 -16 1 -89 50 -105 71 -14 18 -14 18 6 1 20 -16 21 -16 37 1 10 10 17 21 17 25 0 4 25 31 56 61 31 30 60 58 64 62 43 46 173 175 241 240 46 44 102 104 124 134 22 29 52 61 66 69 53 32 121 97 140 133 11 21 32 47 49 59 28 21 137 154 172 209 8 14 32 64 53 113 36 84 37 90 31 166 -4 43 -13 102 -21 130 -7 28 -11 51 -9 51 6 0 -46 114 -55 120 -5 3 -45 79 -90 169 -44 90 -91 176 -105 190 -31 33 -126 180 -126 195 0 6 -27 53 -59 104 -32 51 -69 121 -81 155 -36 100 -40 107 -73 107 -29 0 -30 1 -25 45 4 35 1 50 -14 67 -10 12 -21 33 -24 47 -3 14 -14 58 -25 97 -28 104 -26 113 32 172 69 67 140 104 279 142 183 50 269 111 300 213 16 54 17 69 7 115 -7 29 -15 53 -17 52 -3 -1 -23 6 -45 16 -86 36 -265 -4 -470 -105 -90 -45 -167 -75 -215 -86 -41 -9 -114 -25 -161 -36 -48 -11 -93 -17 -100 -14 -23 9 -105 -50 -135 -95 -20 -30 -29 -58 -32 -101 -4 -52 0 -68 33 -136 64 -134 135 -382 135 -470 0 -18 3 -33 8 -33 4 0 8 -25 8 -55 1 -30 11 -97 24 -147 38 -163 42 -182 51 -232 23 -137 96 -283 215 -437 24 -30 44 -60 44 -66 0 -6 -30 -30 -67 -54 -38 -24 -98 -71 -134 -104 -83 -75 -250 -169 -399 -225 -63 -23 -168 -62 -232 -86 -64 -23 -126 -48 -137 -54 -18 -9 -20 -8 -14 7 3 10 13 27 22 38 9 11 34 46 55 78 22 32 50 67 63 77 46 36 92 108 139 215 26 59 62 128 81 154 18 25 43 66 55 91 11 24 27 50 34 57 20 20 29 78 28 169 -2 86 -20 194 -33 194 -11 0 -44 118 -36 130 17 27 -94 261 -137 291 -12 8 -85 134 -94 161 -3 13 -14 34 -24 48 -35 49 -148 276 -173 345 -31 88 -85 205 -102 225 -7 8 -21 44 -31 80 -26 96 -26 363 0 440 21 61 71 142 119 192 17 18 60 69 95 113 36 44 89 105 119 136 30 31 60 65 66 76 7 11 24 38 39 59 39 57 43 85 18 117 -12 15 -28 27 -36 27 -8 0 -34 10 -57 21 -55 29 -221 35 -322 13z m-38 -3991 c-20 -2 -52 -2 -70 0 -17 2 0 4 38 4 39 0 53 -2 32 -4z m91 -10 c-10 -2 -26 -2 -35 0 -10 3 -2 5 17 5 19 0 27 -2 18 -5z m67 -13 c13 -5 14 -9 5 -9 -8 0 -24 4 -35 9 -13 5 -14 9 -5 9 8 0 24 -4 35 -9z m-346 -36 c-13 -14 -37 -35 -54 -46 -17 -11 -8 1 20 26 54 50 72 61 34 20z m431 10 c23 -9 39 -18 37 -20 -2 -2 -25 5 -53 16 -27 10 -43 19 -37 20 7 0 31 -7 53 -16z m96 -40 c63 -27 124 -76 152 -123 16 -27 46 -57 81 -80 61 -39 231 -170 231 -177 0 -3 -47 31 -105 75 -57 44 -123 90 -145 102 -27 15 -50 40 -66 70 -29 52 -63 81 -144 121 -61 30 -63 37 -4 12z m-751 -104 c-44 -21 -91 -41 -105 -44 -20 -4 -19 -3 5 7 16 7 59 26 95 44 36 17 70 31 75 31 6 0 -26 -17 -70 -38z m-240 -90 c-27 -10 -66 -18 -85 -18 -32 0 -31 1 10 8 25 5 56 13 70 18 14 6 32 11 40 11 8 0 -7 -9 -35 -19z m-255 -47 c-45 -8 -157 -133 -220 -245 -17 -32 -34 -58 -37 -58 -9 0 60 115 99 165 80 101 128 145 156 144 l27 -2 -25 -4z m-286 -380 c-4 -10 -11 -72 -14 -138 l-6 -120 -2 106 c-2 93 10 169 25 169 3 0 2 -8 -3 -17z m4169 -854 c-5 -5 -7 7 -4 29 5 34 6 35 9 8 2 -16 0 -32 -5 -37z m-486 -186 c2 -6 15 -8 29 -5 16 3 29 -1 35 -9 6 -10 32 -14 96 -13 48 0 71 -2 51 -4 -43 -4 -48 -19 -18 -47 11 -10 28 -32 39 -50 l19 -32 -77 -17 c-42 -9 -134 -20 -206 -23 l-130 -6 -80 34 c-53 22 -91 45 -113 69 -18 20 -55 47 -82 60 -28 13 -50 27 -50 31 0 10 114 21 193 18 37 -1 69 0 71 2 9 9 220 2 223 -8z m-1979 -613 c14 -19 37 -46 51 -58 23 -21 23 -22 4 -13 -12 6 -35 30 -51 54 -17 23 -57 64 -91 90 -33 27 -61 51 -61 53 0 12 125 -94 148 -126z m162 -125 c0 -3 -18 4 -40 15 -22 11 -40 23 -40 25 0 3 18 -4 40 -15 22 -11 40 -23 40 -25z m120 -55 c19 -11 31 -19 25 -19 -5 0 -26 8 -45 19 -19 11 -30 19 -25 19 6 0 26 -8 45 -19z m345 -87 c-23 -86 -29 -75 -7 15 9 39 19 66 21 60 2 -5 -4 -39 -14 -75z m-233 14 c48 -43 58 -59 62 -92 l5 -40 -11 43 c-9 35 -23 54 -70 93 -33 27 -55 49 -51 49 4 0 34 -24 65 -53z m272 -71 c-3 -15 -8 -25 -11 -23 -2 3 -1 17 3 31 3 15 8 25 11 23 2 -3 1 -17 -3 -31z m-77 -131 l-13 -26 -25 21 c-23 20 -23 20 -1 8 30 -17 41 0 44 67 l2 50 3 -47 c3 -28 -2 -58 -10 -73z m73 12 c0 -18 -7 -42 -16 -53 -15 -18 -15 -18 -5 3 6 12 11 35 11 52 0 17 2 31 5 31 3 0 5 -15 5 -33z m-83 -219 c-2 -13 -4 -5 -4 17 -1 22 1 32 4 23 2 -10 2 -28 0 -40z m721 -665 c-10 -2 -28 -2 -40 0 -13 2 -5 4 17 4 22 1 32 -1 23 -4z m259 -40 c-20 -2 -52 -2 -70 0 -17 2 0 4 38 4 39 0 53 -2 32 -4z"/>
 </g>
<g id="layer102" fill="#ff4466" stroke="none">
 <path d="M4216 4249 c-15 -6 -44 -29 -63 -50 -79 -87 -404 -219 -628 -253 -98 -16 -114 -21 -143 -49 -85 -81 -181 -224 -221 -330 -17 -46 -21 -80 -21 -164 0 -103 1 -110 37 -183 35 -72 43 -81 123 -138 47 -33 106 -68 130 -78 25 -9 57 -26 73 -36 15 -11 62 -38 105 -60 42 -22 91 -50 107 -62 17 -12 59 -40 94 -61 36 -21 83 -57 105 -79 38 -36 172 -130 241 -167 17 -9 30 -21 30 -27 0 -6 6 -17 14 -24 10 -10 12 -10 7 0 -15 27 16 10 56 -30 24 -24 36 -34 29 -23 -8 11 7 -2 32 -28 26 -26 47 -52 47 -57 0 -5 17 -26 37 -47 21 -20 32 -33 24 -29 -9 6 -12 5 -7 -2 4 -6 13 -9 21 -6 9 4 59 -38 132 -109 65 -64 151 -141 190 -172 40 -31 86 -75 102 -98 31 -45 119 -100 258 -161 41 -18 98 -54 128 -79 46 -40 55 -54 61 -92 5 -39 13 -50 54 -80 26 -19 52 -35 58 -35 13 0 22 25 22 63 0 40 42 217 52 217 14 0 30 -85 23 -125 -4 -22 -8 -71 -9 -110 -1 -62 -5 -76 -37 -125 -28 -44 -37 -69 -43 -122 -6 -61 -4 -69 16 -87 40 -38 122 -20 171 39 l28 33 25 -24 c14 -13 32 -37 41 -52 8 -16 29 -45 47 -65 27 -31 35 -52 49 -132 9 -52 19 -119 22 -148 17 -158 73 -208 254 -222 58 -5 133 -16 166 -25 40 -11 87 -16 141 -13 99 4 143 29 181 102 13 27 32 57 42 67 12 13 25 64 39 156 24 150 27 218 12 258 -18 46 -20 152 -5 182 19 35 19 117 2 135 -8 7 -39 63 -70 124 -55 107 -88 154 -107 154 -6 0 -10 3 -10 8 0 4 26 8 58 8 74 2 282 55 567 145 135 42 219 59 298 59 40 0 113 5 162 10 76 8 105 6 191 -11 85 -17 112 -18 167 -9 96 15 167 46 223 95 26 24 53 41 59 38 5 -4 7 -2 2 2 -4 5 3 19 15 32 15 16 25 47 34 105 16 100 10 152 -25 198 -14 19 -25 39 -23 43 1 4 -5 10 -13 13 -8 3 -12 10 -9 16 3 5 15 1 27 -9 22 -18 22 -18 4 4 -11 12 -25 19 -32 17 -7 -3 -16 0 -21 7 -5 8 -3 10 7 4 8 -4 4 2 -8 13 -12 12 -24 30 -27 40 -12 38 -297 85 -404 67 -18 -3 -30 -9 -28 -13 3 -5 -4 -8 -14 -9 -12 -1 -36 17 -59 43 -22 25 -65 58 -100 75 -34 17 -61 34 -61 38 0 10 -46 31 -70 31 -10 0 -33 18 -51 41 -24 30 -34 37 -40 27 -5 -7 -9 -8 -9 -3 0 6 5 16 12 23 9 9 9 12 -1 12 -7 0 -9 5 -6 10 3 6 1 10 -4 10 -6 0 -11 5 -11 11 0 21 -27 37 -56 33 -19 -3 -23 -2 -12 3 9 5 -46 8 -123 9 -84 0 -143 4 -147 10 -12 17 -161 41 -271 43 -93 2 -114 6 -188 36 -101 41 -190 61 -308 70 -69 6 -103 14 -146 36 -33 16 -95 35 -149 44 -51 9 -106 21 -121 28 -16 7 -107 90 -203 185 -95 94 -178 172 -183 172 -6 0 -37 30 -68 66 -32 36 -73 75 -91 87 -17 12 -81 60 -140 106 -60 47 -136 102 -169 122 -43 27 -67 51 -83 83 -38 71 -130 125 -312 183 -87 28 -257 40 -304 22z m3107 -1550 c-5 -5 -7 7 -4 29 5 34 6 35 9 8 2 -16 0 -32 -5 -37z m-486 -186 c2 -6 15 -8 29 -5 16 3 29 -1 35 -9 6 -10 32 -14 96 -13 48 0 71 -2 51 -4 -43 -4 -48 -19 -18 -47 11 -10 28 -32 39 -50 l19 -32 -77 -17 c-42 -9 -134 -20 -206 -23 l-130 -6 -80 34 c-53 22 -91 45 -113 69 -18 20 -55 47 -82 60 -28 13 -50 27 -50 31 0 10 114 21 193 18 37 -1 69 0 71 2 9 9 220 2 223 -8z"/>
 </g>
<g id="layer103" fill="#b69682" stroke="none">
 <path d="M5270 3688 c24 -27 45 -48 47 -48 8 0 0 9 -44 50 l-48 45 45 -47z"/>
 <path d="M7306 2853 c3 -16 10 -41 15 -57 17 -53 10 -82 -36 -151 -90 -133 -134 -165 -230 -165 -51 0 -58 -15 -24 -46 12 -10 27 -31 35 -45 9 -19 24 -28 51 -32 29 -5 59 -25 125 -85 73 -66 115 -93 254 -166 l167 -86 91 0 c86 0 96 2 142 31 27 17 66 47 87 67 37 36 37 36 37 118 0 76 -2 84 -25 102 -13 11 -47 22 -75 26 -27 4 -50 11 -50 17 0 15 -80 98 -101 104 -10 4 -19 14 -19 23 0 24 -50 91 -65 86 -7 -3 -30 16 -53 41 -23 26 -66 59 -101 76 -34 17 -61 34 -61 38 0 10 -46 31 -69 31 -20 0 -94 83 -84 94 4 3 1 6 -6 6 -7 0 -9 -10 -5 -27z"/>
 <path d="M5880 2460 c-94 -20 -115 -37 -125 -98 -12 -71 -14 -78 -53 -130 -28 -36 -49 -83 -71 -155 -17 -56 -49 -138 -70 -182 -53 -107 -63 -153 -44 -207 10 -29 13 -58 8 -88 -4 -25 -8 -76 -9 -115 -1 -62 -5 -76 -37 -125 -28 -44 -37 -69 -43 -122 -6 -61 -4 -69 16 -87 40 -38 122 -20 171 39 l28 33 25 -24 c14 -13 32 -37 41 -52 8 -16 29 -45 47 -65 27 -31 35 -52 49 -132 9 -52 19 -119 22 -148 17 -158 73 -208 254 -222 58 -5 133 -16 166 -25 40 -11 87 -16 141 -13 99 4 143 29 181 102 13 27 32 57 42 67 12 13 25 64 39 156 24 150 27 218 12 258 -18 46 -20 152 -5 182 19 35 19 117 2 135 -8 7 -39 63 -70 124 -54 105 -88 154 -106 154 -5 0 -7 17 -4 38 4 29 -1 51 -20 88 -40 78 -54 87 -160 94 -111 8 -150 23 -200 80 -31 34 -38 47 -33 69 31 133 31 147 -3 219 -17 38 -31 73 -31 78 0 5 -17 28 -38 50 l-37 42 -85 -18z"/>
 </g>

</svg>