<!DOCTYPE svg PUBLIC "-//W3C//DTD SVG 20010904//EN" "http://www.w3.org/TR/2001/REC-SVG-20010904/DTD/svg10.dtd">
<svg version="1.0" xmlns="http://www.w3.org/2000/svg" width="1100px" height="1107px" viewBox="0 0 11000 11070" preserveAspectRatio="xMidYMid meet">
<g id="layer101" fill="#000000" stroke="none">
 <path d="M5280 10774 c-151 -60 -190 -79 -280 -140 -42 -27 -112 -68 -155 -89 -111 -54 -159 -94 -174 -145 -20 -67 -12 -165 20 -241 39 -91 55 -230 39 -330 -6 -41 -16 -101 -21 -134 -23 -146 -38 -349 -44 -600 -8 -308 -1 -359 74 -563 21 -59 46 -134 55 -168 9 -34 27 -81 40 -105 13 -24 27 -66 31 -94 3 -27 15 -85 27 -128 18 -70 20 -96 15 -250 -4 -95 -11 -215 -16 -267 -6 -52 -13 -180 -16 -285 -8 -246 -22 -327 -95 -551 -60 -184 -77 -247 -105 -399 -18 -97 -21 -357 -4 -435 6 -30 14 -72 19 -93 8 -40 32 -73 60 -82 14 -4 17 -15 13 -56 -2 -28 -5 -55 -8 -58 -2 -4 3 -38 12 -77 10 -46 23 -74 36 -83 62 -44 70 -75 38 -139 -10 -20 -31 -73 -46 -117 -15 -44 -50 -124 -76 -178 -74 -147 -79 -180 -79 -584 0 -191 -5 -443 -11 -559 -9 -175 -8 -245 6 -414 9 -112 18 -206 20 -210 2 -3 13 -52 25 -108 11 -56 30 -138 42 -182 20 -77 25 -84 91 -146 46 -44 76 -82 92 -119 18 -40 34 -59 64 -75 36 -21 39 -26 34 -55 -3 -18 0 -42 6 -53 6 -12 18 -90 27 -174 13 -130 22 -173 59 -283 42 -126 44 -136 54 -315 6 -102 11 -217 11 -256 0 -43 6 -87 16 -110 25 -60 114 -190 188 -276 56 -65 73 -78 97 -78 44 0 141 -96 185 -181 30 -61 37 -68 80 -83 26 -9 60 -16 75 -16 14 0 75 -16 135 -36 99 -33 116 -35 189 -31 107 7 116 10 186 54 73 45 185 151 172 164 -4 4 -65 10 -133 12 l-125 3 137 2 137 2 46 48 c50 51 105 141 130 212 9 25 27 96 39 158 26 125 24 161 -17 258 -22 52 -23 62 -12 94 7 19 13 77 14 128 2 88 0 94 -28 136 -34 50 -90 174 -115 256 -38 124 -41 127 -115 144 -36 8 -90 18 -118 22 -29 3 -53 10 -53 14 0 4 -8 10 -19 13 -22 5 -59 107 -67 187 l-6 55 56 1 c46 0 64 6 106 35 27 19 50 37 50 42 0 4 5 7 11 7 12 0 79 52 121 94 16 16 54 80 84 144 45 90 58 130 66 191 11 87 7 171 -12 253 l-13 57 60 93 c89 138 87 131 87 253 1 104 -1 113 -28 160 -16 28 -47 83 -69 124 l-40 73 36 132 c19 72 45 201 57 286 33 232 95 466 207 775 94 259 97 270 81 297 -7 13 -14 37 -15 53 -1 17 -3 37 -4 45 -3 24 50 246 83 350 l30 95 -17 125 c-23 174 -18 162 -92 204 -60 33 -72 36 -144 36 -69 0 -79 -2 -79 -18 0 -10 -7 -28 -17 -41 -32 -47 -73 -142 -73 -171 0 -30 0 -30 60 -30 l60 0 0 -82 c-1 -49 -12 -138 -28 -218 -24 -118 -30 -135 -47 -135 -30 -1 -90 23 -88 33 1 6 -4 16 -12 22 -8 7 -15 21 -15 31 0 11 -8 27 -19 38 -12 12 -16 23 -10 32 5 8 7 30 4 49 -4 20 -1 56 4 81 10 45 1 178 -30 414 -14 109 -71 292 -238 775 -28 80 -62 197 -77 260 -27 115 -75 248 -182 495 -37 88 -61 161 -73 225 -10 52 -31 147 -48 210 -17 63 -40 165 -51 225 -12 61 -34 151 -50 200 -20 65 -31 124 -37 210 -11 163 -9 446 4 469 6 10 53 52 104 92 75 59 110 79 174 100 132 44 207 82 258 132 105 102 114 193 29 285 -35 37 -90 36 -207 -3 -49 -17 -116 -37 -148 -45 -37 -10 -71 -28 -96 -50 -58 -53 -179 -103 -350 -146 -84 -21 -164 -45 -177 -54 -55 -36 -75 -127 -49 -226 13 -51 17 -124 21 -361 l4 -297 -35 -12 c-28 -11 -36 -20 -41 -48 -6 -30 -8 -33 -15 -16 -6 17 -42 163 -53 221 -5 24 -17 74 -57 239 -53 222 -51 474 7 657 22 67 129 174 253 252 166 104 363 241 409 284 62 58 35 124 -67 165 -104 41 -122 45 -351 62 -47 3 -71 -3 -170 -41z m350 -3980 c-37 -8 -88 -9 -84 -2 3 4 26 7 52 7 26 -1 40 -3 32 -5z m150 -14 c10 -6 2 -7 -25 -3 -49 7 -58 13 -19 13 16 0 36 -5 44 -10z m-450 -470 c0 -22 -5 -30 -17 -29 -11 0 -13 3 -5 6 6 2 12 16 12 29 0 13 2 24 5 24 3 0 5 -13 5 -30z m419 -161 c-13 -23 -31 -44 -39 -46 -12 -3 -12 -2 1 6 8 6 24 28 34 51 10 22 20 38 23 36 2 -3 -6 -24 -19 -47z m444 -3246 c3 -5 -25 -7 -61 -5 -116 5 -130 9 -35 10 50 1 94 -1 96 -5z m-753 -539 c0 -3 -13 4 -30 16 -16 12 -30 24 -30 26 0 3 14 -4 30 -16 17 -12 30 -24 30 -26z m80 -66 c22 -30 24 -34 5 -13 -14 17 -39 41 -53 53 -21 19 -22 21 -5 13 11 -6 35 -30 53 -53z m109 -378 c-1 -82 -6 -68 -12 30 -2 43 -1 66 4 55 4 -11 8 -49 8 -85z m4 -171 c-4 -4 -6 13 -3 39 l5 47 3 -39 c2 -21 0 -42 -5 -47z m80 -306 c-13 -2 -33 -2 -45 0 -13 2 -3 4 22 4 25 0 35 -2 23 -4z"/>
 </g>
<g id="layer102" fill="#ff4466" stroke="none">
 <path d="M5511 6765 c-24 -14 -52 -25 -61 -25 -10 0 -26 -12 -36 -27 -22 -34 -84 -319 -84 -385 0 -34 -4 -48 -14 -48 -8 0 -21 -30 -35 -82 -30 -112 -77 -203 -126 -243 -44 -36 -138 -94 -231 -144 -37 -20 -67 -44 -79 -64 -10 -18 -33 -46 -51 -63 -27 -25 -33 -38 -32 -71 0 -23 -2 -45 -5 -50 -12 -19 25 -148 46 -162 62 -44 70 -75 38 -139 -10 -20 -31 -73 -46 -117 -15 -44 -50 -124 -76 -178 -74 -147 -79 -180 -79 -584 0 -191 -5 -443 -11 -559 -9 -175 -8 -245 6 -414 9 -112 18 -206 20 -210 2 -3 13 -52 25 -108 11 -56 30 -138 42 -182 20 -77 25 -84 91 -146 46 -44 76 -82 92 -118 30 -68 83 -104 126 -86 28 12 34 10 194 -65 17 -8 46 -20 65 -28 19 -8 67 -37 105 -65 39 -28 80 -58 91 -66 12 -8 37 -39 57 -68 42 -64 74 -206 88 -387 9 -114 9 -114 -21 -175 -36 -73 -48 -165 -30 -220 l12 -38 97 5 c53 3 108 8 123 12 26 7 27 6 53 -81 15 -49 35 -116 45 -149 11 -33 22 -82 26 -110 4 -28 19 -67 34 -90 15 -22 33 -57 41 -78 7 -21 18 -42 24 -46 29 -24 211 -51 335 -51 l129 0 46 47 c50 52 105 142 130 213 9 25 27 96 39 158 26 125 24 161 -17 258 -22 52 -23 62 -12 94 7 19 13 77 14 128 2 88 0 94 -28 136 -34 50 -90 174 -115 256 -38 124 -41 127 -115 144 -36 8 -90 18 -118 22 -29 3 -53 10 -53 14 0 4 -8 10 -19 13 -22 5 -59 107 -67 187 l-6 55 56 1 c46 0 64 6 106 35 27 19 50 37 50 42 0 4 5 7 11 7 12 0 79 52 121 94 16 16 54 80 84 144 45 90 58 130 66 191 11 87 7 171 -12 253 l-13 57 60 93 c89 138 87 131 87 253 1 104 -1 113 -28 160 -16 28 -47 83 -69 124 l-40 73 36 132 c19 72 45 201 57 286 33 232 95 466 207 775 94 259 97 270 81 297 -7 13 -14 37 -15 53 -1 17 -3 37 -4 45 -3 24 50 246 83 350 l30 95 -17 125 c-23 174 -18 162 -92 204 -60 33 -72 36 -144 36 -69 0 -79 -2 -79 -18 0 -10 -7 -28 -17 -41 -32 -47 -73 -142 -73 -171 0 -30 0 -30 60 -30 l60 0 0 -77 c0 -77 -45 -339 -61 -357 -10 -12 -105 18 -102 32 1 6 -4 16 -12 22 -8 7 -15 20 -15 29 0 43 -44 65 -117 62 -124 -7 -259 6 -298 29 -18 11 -63 20 -115 24 -239 19 -314 31 -364 61 -27 16 -44 31 -37 33 6 2 28 36 48 75 48 96 136 443 127 504 -6 39 -9 43 -66 68 -50 22 -79 28 -162 31 -93 4 -104 2 -145 -21z m682 -3862 c3 -5 -25 -7 -61 -5 -116 5 -130 9 -35 10 50 1 94 -1 96 -5z"/>
 </g>
<g id="layer103" fill="#b69682" stroke="none">
 <path d="M5511 6765 c-24 -14 -52 -25 -62 -25 -9 0 -26 -15 -37 -32 -26 -44 -84 -329 -80 -392 l3 -50 67 -17 c36 -9 119 -44 183 -78 64 -33 121 -61 126 -61 5 0 25 33 45 72 49 97 137 444 128 505 -6 39 -9 43 -66 68 -50 22 -79 28 -162 31 -93 4 -104 2 -145 -21z"/>
 <path d="M6800 6492 c0 -10 -7 -28 -17 -41 -32 -47 -73 -142 -73 -171 0 -30 0 -30 60 -30 l60 0 0 -82 c-1 -50 -12 -138 -29 -222 l-29 -139 32 -29 c31 -29 93 -51 173 -62 l42 -6 11 57 c20 99 50 215 77 297 l26 79 -18 126 c-23 175 -18 163 -92 205 -60 33 -72 36 -144 36 -69 0 -79 -2 -79 -18z"/>
 <path d="M5970 2891 c-14 -5 -54 -26 -90 -48 -36 -22 -96 -56 -135 -76 -38 -21 -135 -82 -215 -135 -116 -79 -150 -107 -169 -141 -28 -50 -29 -47 74 -119 101 -70 138 -129 165 -267 13 -60 26 -161 31 -224 9 -114 9 -114 -21 -175 -36 -73 -48 -165 -30 -220 l12 -38 97 5 c53 3 108 8 122 12 26 7 28 4 47 -57 46 -144 71 -236 78 -283 4 -28 19 -68 34 -90 15 -22 33 -57 41 -78 7 -21 18 -42 24 -46 29 -24 211 -51 335 -51 l129 0 46 48 c50 51 105 141 130 212 9 25 27 96 39 158 26 125 24 161 -17 258 -22 52 -23 62 -12 94 7 19 13 77 14 128 2 88 0 94 -28 136 -34 50 -90 174 -115 256 -38 124 -41 127 -115 144 -36 8 -90 18 -118 22 -29 3 -53 10 -53 14 0 4 -8 10 -19 13 -12 3 -25 25 -40 68 -41 124 -38 179 11 251 31 45 49 110 43 150 -5 27 -16 43 -44 62 -34 24 -45 26 -132 25 -51 0 -105 -4 -119 -8z"/>
 </g>

</svg>