<?xml version="1.0" encoding="UTF-8" standalone="no"?>
<!-- Created with Inkscape (http://www.inkscape.org/) -->

<svg
   xmlns:dc="http://purl.org/dc/elements/1.1/"
   xmlns:cc="http://creativecommons.org/ns#"
   xmlns:rdf="http://www.w3.org/1999/02/22-rdf-syntax-ns#"
   xmlns:svg="http://www.w3.org/2000/svg"
   xmlns="http://www.w3.org/2000/svg"
   xmlns:sodipodi="http://sodipodi.sourceforge.net/DTD/sodipodi-0.dtd"
   xmlns:inkscape="http://www.inkscape.org/namespaces/inkscape"
   width="1248.4694"
   height="1367.8748"
   viewBox="0 0 330.32418 361.91687"
   version="1.1"
   id="svg8"
   inkscape:version="0.92.4 (5da689c313, 2019-01-14)"
   sodipodi:docname="jumping-jacks.svg">
  <defs
     id="defs2" />
  <sodipodi:namedview
     id="base"
     pagecolor="#ffffff"
     bordercolor="#666666"
     borderopacity="1.0"
     inkscape:pageopacity="0.0"
     inkscape:pageshadow="2"
     inkscape:zoom="0.35"
     inkscape:cx="-196.15283"
     inkscape:cy="515.36599"
     inkscape:document-units="px"
     inkscape:current-layer="layer1"
     showgrid="false"
     inkscape:pagecheckerboard="true"
     units="px"
     fit-margin-top="100"
     fit-margin-right="100"
     fit-margin-bottom="100"
     fit-margin-left="100"
     inkscape:window-width="3696"
     inkscape:window-height="2115"
     inkscape:window-x="131"
     inkscape:window-y="2147"
     inkscape:window-maximized="1" />
  <metadata
     id="metadata5">
    <rdf:RDF>
      <cc:Work
         rdf:about="">
        <dc:format>image/svg+xml</dc:format>
        <dc:type
           rdf:resource="http://purl.org/dc/dcmitype/StillImage" />
        <dc:title></dc:title>
      </cc:Work>
    </rdf:RDF>
  </metadata>
  <g
     inkscape:label="Calque 1"
     inkscape:groupmode="layer"
     id="layer1"
     transform="translate(98.535754,76.726301)">
    <g
       id="g47"
       transform="matrix(0.02645833,0,0,0.02645833,-32.58322,-57.680196)">
      <g
         id="layer101"
         style="fill:#000000;stroke:none">
        <path
           id="path10"
           d="m 2611,11949 c -77,-13 -111,-43 -145,-127 -53,-130 -23,-196 155,-350 49,-42 142,-139 205,-215 110,-133 116,-142 130,-207 8,-38 18,-80 23,-92 6,-13 24,-70 42,-128 17,-58 42,-126 56,-152 13,-27 41,-123 64,-215 67,-281 116,-474 142,-558 13,-44 29,-107 35,-139 7,-35 28,-86 51,-125 21,-36 42,-77 46,-91 14,-48 116,-250 127,-250 6,0 9,-3 5,-6 -3,-3 17,-43 44,-89 61,-104 180,-353 220,-460 52,-139 132,-306 198,-415 35,-58 91,-154 124,-215 108,-200 149,-268 261,-442 165,-257 173,-271 195,-332 11,-31 45,-123 76,-206 31,-82 71,-196 90,-252 18,-55 55,-138 80,-184 26,-45 50,-99 52,-119 5,-36 5,-36 -43,-47 -120,-28 -233,-53 -279,-60 -44,-7 -50,-11 -59,-41 -7,-24 -4,-55 12,-125 22,-92 35,-247 48,-563 5,-130 3,-176 -11,-244 -9,-45 -14,-96 -11,-112 3,-16 -1,-97 -9,-181 -8,-84 -15,-222 -15,-307 0,-85 -5,-171 -11,-190 -5,-19 -14,-62 -19,-95 -11,-73 -54,-203 -83,-253 -16,-27 -23,-60 -27,-137 -8,-111 -22,-144 -71,-165 -20,-9 -32,-27 -47,-68 -23,-66 -23,-73 -10,-167 14,-99 12,-147 -11,-260 -24,-118 -59,-418 -65,-560 -2,-55 -8,-134 -12,-177 -7,-76 -7,-76 36,-160 64,-124 195,-320 283,-423 19,-22 47,-60 62,-84 15,-24 116,-135 224,-245 187,-192 276,-290 310,-339 8,-12 34,-44 57,-72 81,-97 132,-202 219,-446 19,-53 49,-134 68,-180 18,-46 39,-106 47,-134 7,-27 24,-83 37,-124 17,-50 28,-117 35,-205 6,-72 12,-133 13,-134 7,-8 47,11 76,36 18,15 44,26 62,26 29,1 33,5 48,56 10,30 18,73 18,94 1,21 17,91 36,155 19,64 45,166 59,226 44,196 87,368 118,465 68,216 162,336 524,665 50,46 145,152 222,250 74,94 151,189 171,211 72,83 101,123 101,140 0,10 6,25 14,33 8,9 26,45 41,80 22,53 26,74 21,120 -3,31 -10,124 -15,206 -5,83 -16,184 -25,225 -8,41 -27,151 -41,244 -15,92 -32,187 -39,211 -14,45 -12,135 3,163 13,25 5,185 -9,213 -7,13 -33,44 -57,68 -23,24 -43,53 -43,63 0,22 -68,207 -82,225 -5,6 -16,40 -24,75 -8,35 -24,78 -35,96 -14,25 -20,57 -23,130 -4,105 -18,193 -46,287 -16,52 -18,90 -14,295 2,129 0,285 -4,345 -5,61 -5,151 0,200 4,50 8,158 9,240 1,122 5,158 21,194 15,37 17,50 7,80 -17,51 -24,58 -82,71 -69,16 -147,50 -148,64 -6,59 39,243 97,399 24,65 44,131 44,147 0,71 161,326 284,450 46,47 106,119 134,161 71,109 109,162 241,337 65,86 133,186 151,222 18,36 62,109 97,163 36,54 115,198 177,320 62,122 150,282 195,356 128,207 231,443 280,641 11,47 23,92 26,100 2,8 14,65 25,125 12,61 34,157 50,215 15,58 31,119 34,135 10,44 66,225 82,263 8,18 14,39 14,46 0,8 11,38 25,68 14,29 25,71 25,94 0,23 6,60 14,82 9,24 12,56 9,76 -5,31 -3,36 20,41 17,5 56,44 112,116 48,59 118,133 155,163 83,68 228,209 259,254 l 23,33 -27,62 c -31,72 -44,88 -104,129 -62,41 -134,55 -196,38 -109,-30 -262,-184 -335,-334 -21,-44 -56,-99 -77,-122 -96,-103 -103,-113 -103,-159 0,-38 -5,-49 -45,-89 -54,-55 -73,-91 -96,-181 -11,-45 -33,-94 -61,-137 -46,-70 -52,-81 -118,-248 -23,-58 -57,-126 -76,-152 -56,-75 -179,-344 -208,-452 -30,-115 -61,-182 -115,-253 -22,-29 -48,-67 -57,-84 -9,-18 -38,-63 -65,-100 -27,-37 -49,-70 -49,-73 0,-9 -125,-181 -190,-261 -32,-38 -88,-92 -126,-119 -38,-27 -86,-71 -108,-98 -21,-27 -90,-92 -154,-146 -64,-53 -169,-149 -232,-213 -63,-64 -135,-131 -160,-149 -25,-17 -63,-48 -85,-69 -22,-20 -60,-51 -85,-68 -25,-17 -54,-41 -65,-53 -11,-12 -42,-33 -70,-47 -27,-14 -65,-36 -83,-50 -55,-41 -195,-83 -279,-83 -67,0 -79,3 -149,43 -98,54 -106,62 -309,302 -42,50 -138,151 -213,225 -156,155 -435,453 -441,472 -2,7 -29,42 -59,78 -61,71 -152,206 -152,224 0,28 -147,215 -255,326 -52,52 -124,200 -178,360 -88,260 -85,255 -255,527 -28,45 -66,119 -85,165 -70,169 -83,194 -119,241 -25,32 -41,67 -49,105 -14,71 -21,85 -75,143 -36,38 -46,57 -55,105 -10,56 -53,126 -153,250 -14,17 -39,60 -55,95 -32,72 -86,139 -140,175 -20,13 -58,40 -86,59 -54,38 -79,41 -184,24 z M 6082,4034 c 55,-28 79,-34 129,-34 59,0 62,-1 100,-42 21,-24 38,-52 39,-63 0,-12 4,-25 10,-31 5,-5 16,-43 24,-84 8,-41 29,-115 46,-165 17,-49 43,-135 56,-190 14,-55 40,-147 59,-205 46,-145 62,-249 46,-302 -17,-56 -73,-180 -171,-381 -63,-130 -93,-179 -132,-219 -54,-56 -154,-200 -195,-282 -14,-28 -44,-76 -67,-106 -23,-30 -52,-71 -64,-91 -24,-40 -73,-83 -168,-146 -50,-34 -66,-52 -95,-109 l -34,-68 -1,-241 c -2,-437 -4,-540 -13,-525 -13,22 -41,167 -41,210 0,22 -7,67 -15,102 -22,96 -55,325 -55,382 0,87 -20,133 -70,166 -61,40 -170,150 -222,223 -24,33 -68,92 -99,131 -31,39 -64,87 -74,106 -10,19 -44,76 -76,125 -32,50 -73,124 -92,165 -19,41 -50,95 -68,120 -36,48 -42,56 -105,146 -42,61 -114,245 -114,293 0,69 52,284 96,396 51,132 74,206 74,246 0,39 147,326 192,375 35,38 42,42 105,47 40,4 87,16 115,30 27,14 48,19 48,13 0,-6 7,-24 15,-40 14,-26 13,-38 -11,-140 -14,-61 -31,-140 -37,-175 -9,-51 -18,-70 -48,-101 -20,-21 -40,-47 -43,-58 -4,-11 -13,-23 -21,-26 -8,-3 -15,-16 -15,-28 0,-13 -9,-39 -20,-58 -83,-144 -92,-208 -49,-355 16,-55 39,-127 51,-160 11,-33 38,-109 59,-168 20,-59 44,-118 52,-130 8,-12 19,-38 26,-57 6,-19 22,-42 34,-51 12,-9 63,-45 112,-80 l 90,-64 105,1 c 128,2 197,19 333,83 108,50 170,104 183,158 4,16 20,57 35,93 15,36 35,94 44,130 9,36 20,81 25,100 6,19 21,49 36,65 74,84 74,85 74,188 0,102 -24,216 -61,289 -15,29 -28,40 -61,50 -82,24 -148,116 -213,295 -20,57 -25,89 -25,166 0,87 2,97 22,111 27,19 55,14 140,-30 z"
           inkscape:connector-curvature="0" />
      </g>
      <g
         id="layer102"
         style="fill:#9a00ee;stroke:none">
        <path
           id="path13"
           d="m 5550,6816 c -112,-7 -184,-16 -200,-25 -23,-13 -116,-41 -200,-61 -51,-11 -185,-83 -226,-119 -19,-17 -34,-40 -34,-49 0,-13 -13,-21 -47,-29 -121,-29 -232,-53 -278,-60 -44,-7 -50,-11 -59,-41 -7,-24 -4,-55 12,-125 22,-92 35,-247 48,-563 5,-130 3,-176 -11,-244 -9,-45 -14,-96 -11,-112 3,-16 -1,-97 -9,-181 -8,-84 -15,-222 -15,-307 0,-85 -5,-171 -11,-190 -5,-19 -14,-62 -19,-95 -11,-73 -54,-203 -83,-253 -16,-27 -23,-60 -27,-137 -8,-111 -22,-144 -71,-165 -20,-9 -32,-27 -47,-68 -23,-66 -23,-73 -10,-167 14,-99 12,-147 -11,-260 -24,-118 -59,-418 -65,-560 -2,-55 -8,-134 -12,-177 -7,-76 -7,-76 36,-160 64,-124 195,-320 283,-423 19,-22 47,-60 62,-84 15,-24 116,-135 224,-245 187,-192 276,-290 310,-339 8,-12 34,-44 57,-72 81,-97 132,-202 219,-446 19,-53 49,-134 68,-180 18,-46 39,-106 47,-134 7,-27 24,-83 37,-124 17,-50 28,-117 35,-205 6,-72 12,-133 13,-134 7,-8 47,11 76,36 18,15 44,26 62,26 29,1 33,5 48,56 10,30 18,73 18,94 1,21 17,91 36,155 19,64 45,166 59,226 44,196 87,368 118,465 68,216 162,336 524,665 50,46 145,152 222,250 74,94 151,189 171,211 72,83 101,123 101,140 0,10 6,25 14,33 8,9 26,45 41,80 22,53 26,74 21,120 -3,31 -10,124 -15,206 -5,83 -16,184 -25,225 -8,41 -27,151 -41,244 -15,92 -32,187 -39,211 -14,45 -12,135 3,163 13,25 5,185 -9,213 -7,13 -33,44 -57,68 -23,24 -43,53 -43,63 0,22 -68,207 -82,225 -5,6 -16,40 -24,75 -8,35 -24,78 -35,96 -14,25 -20,57 -23,130 -4,105 -18,193 -46,287 -16,52 -18,90 -14,295 2,129 0,285 -4,345 -5,61 -5,151 0,200 4,50 8,158 9,240 1,121 5,158 20,194 16,37 17,49 7,82 -6,22 -16,43 -22,48 -15,12 -151,52 -199,58 -42,6 -102,59 -113,101 -3,12 -11,22 -18,22 -6,0 -49,23 -95,50 -46,28 -90,50 -98,50 -8,0 -67,20 -131,44 -143,53 -188,58 -422,42 z m 532,-2782 c 55,-28 79,-34 129,-34 59,0 62,-1 100,-42 21,-24 38,-52 39,-63 0,-12 4,-25 10,-31 5,-5 16,-43 24,-84 8,-41 29,-115 46,-165 17,-49 43,-135 56,-190 14,-55 40,-147 59,-205 46,-145 62,-249 46,-302 -17,-56 -73,-180 -171,-381 -63,-130 -93,-179 -132,-219 -54,-56 -154,-200 -195,-282 -14,-28 -44,-76 -67,-106 -23,-30 -52,-71 -64,-91 -24,-40 -73,-83 -168,-146 -50,-34 -66,-52 -95,-109 l -34,-68 -1,-241 c -2,-437 -4,-540 -13,-525 -13,22 -41,167 -41,210 0,22 -7,67 -15,102 -22,96 -55,325 -55,382 0,87 -20,133 -70,166 -61,40 -170,150 -222,223 -24,33 -68,92 -99,131 -31,39 -64,87 -74,106 -10,19 -44,76 -76,125 -32,50 -73,124 -92,165 -19,41 -50,95 -68,120 -36,48 -42,56 -105,146 -42,61 -114,245 -114,293 0,69 52,284 96,396 51,132 74,206 74,246 0,39 147,326 192,375 35,38 42,42 105,47 40,4 87,16 115,30 27,14 48,19 48,13 0,-6 7,-24 15,-40 14,-26 13,-38 -11,-140 -14,-61 -31,-140 -37,-175 -9,-51 -18,-70 -48,-101 -20,-21 -40,-47 -43,-58 -4,-11 -13,-23 -21,-26 -8,-3 -15,-16 -15,-28 0,-13 -9,-39 -20,-58 -83,-144 -92,-208 -49,-355 16,-55 39,-127 51,-160 11,-33 38,-109 59,-168 20,-59 44,-118 52,-130 8,-12 19,-38 26,-57 6,-19 22,-42 34,-51 12,-9 63,-45 112,-80 l 90,-64 105,1 c 128,2 197,19 333,83 108,50 170,104 183,158 4,16 20,57 35,93 15,36 35,94 44,130 9,36 20,81 25,100 6,19 21,49 36,65 74,84 74,85 74,188 0,102 -24,216 -61,289 -15,29 -28,40 -61,50 -82,24 -148,116 -213,295 -20,57 -25,89 -25,166 0,87 2,97 22,111 27,19 55,14 140,-30 z"
           inkscape:connector-curvature="0" />
      </g>
      <g
         id="layer103"
         style="fill:#d0c200;stroke:none">
        <path
           id="path16"
           d="m 5664,4190 c -98,-6 -142,-14 -284,-50 -20,-6 -52,-27 -73,-50 -22,-22 -43,-40 -48,-40 -14,0 -11,-31 6,-64 14,-26 13,-38 -11,-140 -14,-61 -31,-140 -37,-175 -9,-51 -18,-70 -48,-101 -20,-21 -40,-47 -43,-58 -4,-11 -13,-23 -21,-26 -8,-3 -15,-16 -15,-28 0,-13 -9,-39 -20,-58 -83,-144 -92,-208 -49,-355 16,-55 39,-127 51,-160 11,-33 38,-109 59,-168 20,-59 44,-118 52,-130 8,-12 19,-38 26,-57 6,-19 22,-42 34,-51 12,-9 63,-45 112,-80 l 90,-64 105,1 c 128,2 197,19 333,83 108,50 170,104 183,158 4,16 20,57 35,93 15,36 35,94 44,130 9,36 20,81 25,100 6,19 21,49 36,65 74,84 74,85 74,188 0,102 -24,216 -61,289 -15,29 -28,40 -61,50 -82,24 -148,116 -213,295 -30,85 -36,244 -10,273 12,13 13,24 2,65 -18,75 -38,80 -273,65 z"
           inkscape:connector-curvature="0" />
        <path
           id="path18"
           d="m 6747,4028 c -129,-111 -206,-200 -246,-283 -11,-22 -33,-53 -49,-68 l -30,-29 24,-76 c 13,-43 33,-115 44,-162 12,-47 36,-132 54,-190 47,-144 63,-248 47,-302 -17,-56 -73,-180 -171,-381 -63,-130 -93,-179 -132,-219 -54,-56 -154,-200 -195,-282 -14,-28 -44,-76 -67,-106 -23,-30 -52,-71 -64,-91 -24,-40 -73,-83 -168,-146 -50,-34 -66,-52 -95,-109 l -34,-68 -1,-241 c -2,-437 -4,-540 -13,-525 -13,22 -41,167 -41,210 0,22 -7,67 -15,102 -22,96 -55,325 -55,382 0,87 -20,133 -70,166 -61,40 -170,150 -222,223 -24,33 -68,92 -99,131 -31,39 -64,87 -74,106 -10,19 -44,76 -76,125 -32,50 -73,124 -92,165 -19,41 -50,95 -68,120 -36,48 -42,56 -105,146 -42,61 -114,245 -114,293 0,69 52,284 96,396 92,237 93,255 17,334 -102,104 -205,217 -215,234 -7,13 -23,17 -63,17 -51,0 -55,-2 -102,-52 -26,-28 -57,-61 -69,-72 -14,-15 -21,-36 -22,-68 -1,-26 -10,-92 -21,-145 -24,-116 -59,-417 -65,-558 -2,-55 -8,-134 -12,-177 -7,-76 -7,-76 36,-160 64,-124 195,-320 283,-423 19,-22 47,-60 62,-84 15,-24 116,-135 224,-245 187,-192 276,-290 310,-339 8,-12 34,-44 57,-72 81,-97 132,-202 219,-446 19,-53 49,-134 68,-180 18,-46 39,-106 47,-134 7,-27 24,-83 37,-124 17,-50 28,-117 35,-205 6,-72 12,-133 13,-134 7,-8 47,11 76,36 18,15 44,26 62,26 29,1 33,5 48,56 10,30 18,73 18,94 1,21 17,91 36,155 19,64 45,166 59,226 44,196 87,368 118,465 68,216 162,336 524,665 50,46 145,152 222,250 74,94 151,189 171,211 72,83 101,123 101,140 0,10 6,25 14,33 8,9 26,45 41,80 22,53 26,74 21,120 -3,31 -10,124 -15,206 -5,83 -16,184 -25,225 -8,41 -27,151 -41,244 -15,92 -33,188 -40,213 -8,25 -11,59 -8,74 4,21 2,29 -9,29 -12,0 -31,46 -53,128 -4,12 -11,22 -16,22 -5,0 -9,8 -9,18 0,21 -35,62 -53,62 -7,0 -30,-15 -50,-32 z"
           inkscape:connector-curvature="0" />
      </g>
      <g
         id="layer104"
         style="fill:#b69682;stroke:none">
        <path
           id="path21"
           d="m 5550,6816 c -112,-7 -184,-16 -200,-25 -23,-13 -116,-41 -200,-61 -51,-11 -185,-83 -226,-119 -19,-17 -34,-40 -34,-51 0,-16 7,-20 38,-20 20,0 52,4 71,10 18,5 79,14 134,20 56,7 105,16 108,22 5,7 144,8 450,3 457,-8 469,-9 591,-54 32,-11 67,-21 79,-21 19,0 18,4 -15,40 -20,22 -36,47 -36,55 0,8 -6,15 -12,15 -7,0 -51,23 -97,50 -46,28 -90,50 -98,50 -8,0 -67,20 -131,44 -143,53 -188,58 -422,42 z"
           inkscape:connector-curvature="0" />
        <path
           id="path23"
           d="m 5664,4190 c -98,-6 -142,-14 -284,-50 -20,-6 -52,-27 -73,-50 -22,-22 -43,-40 -48,-40 -14,0 -11,-31 6,-64 14,-26 13,-38 -10,-140 -14,-61 -31,-136 -36,-166 -6,-30 -17,-67 -25,-82 -8,-14 -14,-39 -14,-55 0,-34 -36,-73 -68,-73 -18,0 -22,-8 -28,-50 -4,-27 -10,-50 -13,-50 -19,0 -32,-74 -25,-140 6,-64 9,-70 29,-70 12,0 30,9 40,20 32,36 42,25 49,-57 9,-112 25,-190 52,-254 13,-31 24,-72 24,-92 0,-34 2,-36 58,-57 111,-43 316,-8 401,68 17,15 53,74 80,133 64,134 128,200 219,225 l 59,17 7,66 c 3,36 6,86 6,111 l 1,45 27,-33 c 15,-18 36,-32 49,-32 18,0 23,8 29,47 8,55 -13,126 -40,131 -54,11 -134,131 -191,289 -30,85 -36,244 -10,273 12,13 13,24 2,65 -18,75 -38,80 -273,65 z"
           inkscape:connector-curvature="0" />
        <path
           id="path25"
           d="m 6747,4028 c -129,-111 -206,-200 -246,-283 -11,-22 -33,-53 -49,-68 l -30,-29 24,-76 c 13,-43 33,-115 44,-162 12,-47 36,-132 54,-190 47,-144 63,-248 47,-302 -17,-56 -73,-180 -171,-381 -63,-130 -93,-179 -132,-219 -55,-56 -153,-200 -198,-288 -16,-31 -46,-78 -67,-106 -21,-27 -49,-65 -61,-85 -24,-40 -73,-83 -168,-146 -50,-34 -66,-52 -95,-109 l -34,-68 -1,-241 c -2,-437 -4,-540 -13,-525 -13,22 -41,167 -41,210 0,22 -7,67 -15,102 -22,96 -55,325 -55,382 0,87 -20,133 -70,166 -61,40 -170,150 -222,223 -24,33 -68,92 -99,131 -31,39 -64,87 -74,106 -10,19 -44,76 -76,125 -32,50 -73,124 -92,165 -19,41 -50,95 -68,120 -36,48 -42,56 -105,146 -42,61 -114,245 -114,293 0,69 52,284 96,396 92,237 93,255 17,334 -102,104 -205,217 -215,234 -7,13 -23,17 -63,17 -51,0 -55,-2 -102,-52 -26,-28 -57,-61 -69,-72 -14,-15 -21,-36 -22,-68 -1,-26 -10,-92 -21,-145 -24,-116 -59,-417 -65,-558 -2,-55 -8,-134 -12,-177 -7,-76 -7,-76 36,-160 64,-124 195,-320 283,-423 19,-22 47,-60 62,-85 15,-24 112,-130 216,-235 103,-104 202,-208 219,-230 17,-22 37,-44 43,-50 7,-5 26,-28 42,-50 16,-22 48,-62 71,-90 81,-98 133,-203 219,-446 19,-53 49,-134 68,-180 18,-46 39,-106 47,-134 7,-27 24,-83 37,-124 17,-50 28,-117 35,-205 6,-72 12,-133 13,-134 7,-8 47,11 76,36 18,15 44,26 62,26 29,1 33,5 48,56 10,30 18,73 18,94 1,21 17,91 36,155 19,64 45,166 59,226 44,196 87,368 118,465 68,216 162,336 524,665 50,46 145,152 222,250 74,94 151,189 171,211 71,82 101,123 101,139 0,9 8,29 18,43 43,62 64,132 58,191 -3,31 -10,124 -15,206 -5,83 -16,184 -25,225 -8,41 -27,152 -41,245 -15,94 -33,189 -41,211 -8,24 -11,55 -8,73 5,23 3,31 -8,31 -12,0 -31,46 -53,128 -4,12 -11,22 -16,22 -5,0 -9,8 -9,18 0,21 -35,62 -53,62 -7,0 -30,-15 -50,-32 z"
           inkscape:connector-curvature="0" />
      </g>
    </g>
    <g
       id="g86"
       transform="matrix(0.02645833,0,0,0.02645833,-188.59071,-36.4344)">
      <g
         id="layer101-7"
         style="fill:#000000;stroke:none">
        <path
           id="path49"
           d="m 6879,11107 c -19,-14 -48,-42 -64,-64 -17,-21 -49,-56 -72,-78 l -42,-40 -6,-130 c -7,-160 -21,-272 -42,-348 -15,-54 -15,-60 0,-93 l 17,-35 -44,-19 c -39,-16 -46,-25 -56,-61 -26,-94 -34,-199 -18,-224 3,-5 11,-29 17,-53 12,-42 1,-128 -28,-217 -5,-16 -14,-111 -20,-210 -6,-99 -14,-223 -17,-275 -4,-52 -11,-101 -17,-108 -5,-7 -13,-106 -17,-220 -5,-137 -13,-222 -23,-252 -8,-25 -18,-70 -22,-100 -4,-30 -18,-73 -30,-95 -22,-38 -61,-189 -91,-355 -7,-41 -23,-232 -34,-425 -19,-327 -34,-468 -59,-540 -6,-16 -19,-75 -30,-130 -10,-55 -33,-154 -51,-220 -18,-66 -39,-155 -46,-197 -8,-42 -20,-91 -28,-108 -12,-29 -13,-21 -19,103 -6,130 -14,177 -57,377 -42,196 -120,589 -135,683 -9,54 -22,200 -30,325 -14,231 -24,287 -103,607 -20,80 -24,121 -42,465 -10,188 -23,255 -80,420 -14,42 -20,92 -23,216 -3,96 -9,169 -16,182 -21,39 -41,181 -34,243 6,64 2,78 -63,214 -28,57 -41,107 -69,275 -57,329 -36,281 -198,461 -34,39 -123,48 -220,23 -66,-17 -79,-25 -146,-89 l -74,-71 7,-68 c 7,-60 12,-73 55,-124 78,-94 196,-262 244,-347 l 45,-80 5,-360 c 2,-198 0,-422 -4,-497 -16,-266 -20,-535 -10,-738 6,-113 13,-412 16,-665 5,-374 3,-490 -9,-618 -9,-87 -19,-163 -22,-169 -18,-28 -57,-201 -79,-343 -28,-192 -46,-451 -46,-681 0,-156 23,-540 37,-608 4,-16 6,-59 6,-95 -1,-53 5,-78 29,-130 17,-35 26,-67 21,-70 -28,-18 -41,-80 -43,-196 -1,-37 -2,-38 -11,-15 -6,14 -19,73 -29,132 -10,59 -29,152 -42,205 -14,54 -32,143 -42,198 -9,55 -28,145 -41,200 -33,137 -34,320 -3,391 38,89 51,179 44,304 -6,109 -5,117 17,160 14,25 37,78 53,119 26,69 27,80 22,190 -5,130 -16,166 -51,182 -44,21 -65,-7 -196,-265 l -124,-244 -7,-128 c -16,-292 -21,-438 -46,-1331 -7,-257 7,-487 39,-643 23,-111 29,-262 15,-382 -7,-59 -5,-67 10,-70 10,-2 -9,-4 -42,-5 -33,-1 -80,-8 -105,-16 -43,-12 -45,-15 -54,-61 -10,-58 13,-211 49,-326 13,-41 31,-105 39,-143 24,-104 65,-460 70,-600 7,-204 15,-220 226,-398 76,-65 118,-94 154,-104 27,-8 54,-19 61,-25 29,-24 260,-100 304,-100 38,0 51,-6 81,-34 32,-30 110,-60 95,-36 -3,5 0,7 7,4 7,-2 29,-25 48,-51 39,-52 69,-172 70,-283 0,-61 -2,-66 -28,-81 -21,-12 -35,-34 -53,-84 -14,-40 -34,-76 -50,-90 -28,-22 -69,-93 -69,-117 0,-7 -8,-29 -19,-48 -10,-19 -37,-90 -60,-158 -67,-200 -60,-273 54,-587 20,-55 45,-126 57,-158 21,-59 161,-241 217,-282 15,-11 52,-46 82,-77 35,-36 77,-67 113,-84 51,-23 66,-26 155,-22 l 98,3 73,50 c 40,28 94,64 119,81 71,48 128,108 141,150 15,48 45,101 78,136 23,25 62,142 131,393 15,55 42,130 59,166 54,111 63,221 21,234 -32,11 -69,68 -69,109 0,23 -5,39 -14,42 -17,6 -36,56 -36,92 0,16 -18,43 -54,79 -30,30 -60,69 -66,86 -22,59 -46,105 -61,117 -4,3 -15,33 -24,68 -10,34 -21,65 -25,67 -4,2 -5,35 -3,72 6,86 33,137 93,177 25,16 48,35 52,42 4,6 24,24 45,39 l 38,28 -27,-29 c -42,-45 -37,-58 19,-50 26,3 57,13 69,21 13,8 30,15 37,15 8,0 59,21 113,46 55,26 131,61 169,79 39,18 94,38 124,45 44,10 64,22 105,65 28,28 68,79 90,114 34,55 39,73 47,154 21,232 44,399 58,425 6,12 11,68 10,134 -1,98 3,128 31,228 17,63 38,133 46,155 8,23 14,57 14,77 0,20 7,44 16,52 22,22 50,180 37,209 -10,22 -91,58 -159,72 -29,6 -31,9 -31,48 0,23 6,85 14,137 8,52 18,128 23,168 5,40 11,76 14,80 2,4 7,47 10,96 4,48 10,96 15,105 12,23 33,188 31,247 -1,27 3,132 8,234 6,102 14,268 17,370 4,102 10,200 15,217 5,18 4,185 -1,372 l -9,340 -30,64 c -16,36 -30,72 -30,81 0,41 -76,210 -116,256 -24,28 -45,58 -49,68 -7,24 -46,45 -76,40 -18,-2 -31,-17 -51,-58 -30,-62 -35,-108 -14,-148 8,-15 17,-50 21,-77 5,-28 16,-74 26,-104 11,-30 19,-63 19,-73 0,-10 9,-46 20,-79 14,-40 19,-72 14,-94 -3,-19 -1,-80 5,-137 11,-97 3,-367 -14,-453 -9,-47 -15,-78 -21,-105 -3,-14 -7,-47 -9,-75 -2,-27 -8,-61 -14,-75 -13,-30 -9,72 8,185 9,66 7,561 -4,722 -4,59 -36,210 -49,232 -2,3 -7,29 -10,56 -4,28 -14,73 -22,101 -8,28 -16,64 -18,80 -3,16 -9,42 -15,57 -6,16 -11,65 -11,110 0,54 -7,102 -20,142 -30,94 -50,331 -51,625 -1,215 2,276 15,325 9,33 16,97 16,145 0,47 7,118 15,159 23,110 10,488 -25,736 -17,113 -29,332 -34,603 -4,243 -5,255 -26,277 l -22,23 35,74 c 19,40 42,97 52,125 11,36 28,63 55,85 46,40 102,112 131,170 12,24 31,56 42,72 13,19 21,50 25,97 5,76 11,65 -80,159 -49,51 -116,77 -220,86 -56,5 -67,3 -99,-19 z M 5773,5453 c -62,-2 -164,-2 -225,0 -62,1 -12,3 112,3 124,0 174,-2 113,-3 z m -370,-10 c -13,-2 -33,-2 -45,0 -13,2 -3,4 22,4 25,0 35,-2 23,-4 z m 590,0 c -13,-2 -35,-2 -50,0 -16,2 -5,4 22,4 28,0 40,-2 28,-4 z m -763,-13 c -34,-11 -60,-11 -35,0 11,5 29,8 40,8 16,0 15,-2 -5,-8 z m 858,3 c -10,-2 -28,-2 -40,0 -13,2 -5,4 17,4 22,1 32,-1 23,-4 z m 337,-16 c 11,-2 -2,-5 -30,-6 -47,-1 -48,0 -25,12 14,7 27,10 30,6 3,-4 14,-9 25,-12 z m -152,6 c -24,-2 -62,-2 -85,0 -24,2 -5,4 42,4 47,0 66,-2 43,-4 z m -1165,-27 c -16,-8 -34,-18 -40,-21 -7,-4 -2,3 12,14 14,11 32,21 40,21 8,0 3,-7 -12,-14 z m 1425,7 c -13,-2 -35,-2 -50,0 -16,2 -5,4 22,4 28,0 40,-2 28,-4 z m 568,-48 c -6,-35 -9,-41 -10,-20 -1,30 9,78 15,73 2,-2 -1,-26 -5,-53 z m -276,1 c 103,-22 189,-79 200,-133 6,-27 6,-27 -9,4 -15,33 -75,83 -123,101 -15,6 -57,17 -93,25 -36,8 -58,15 -50,15 8,1 42,-5 75,-12 z m 222,-179 c -8,-13 -17,-35 -20,-48 -2,-13 -4,-6 -3,16 1,25 7,43 16,47 23,10 23,10 7,-15 z M 4967,4998 c -2,-13 -4,-5 -4,17 -1,22 1,32 4,23 2,-10 2,-28 0,-40 z m 10,-95 c -3,-10 -5,-2 -5,17 0,19 2,27 5,18 2,-10 2,-26 0,-35 z m 17,-104 c 4,-8 0,-5 -8,5 -9,11 -16,31 -15,45 1,24 2,24 8,-5 4,-17 11,-37 15,-45 z m 39,-206 c 9,-18 17,-40 16,-50 0,-12 -3,-10 -8,7 -5,14 -15,40 -24,57 -10,18 -16,45 -16,60 1,25 2,25 8,-7 4,-19 15,-49 24,-67 z m 1944,30 c -2,-16 -4,-5 -4,22 0,28 2,40 4,28 2,-13 2,-35 0,-50 z m 10,-90 c -3,-10 -5,-2 -5,17 0,19 2,27 5,18 2,-10 2,-26 0,-35 z m -1950,-95 c -2,-13 -4,-3 -4,22 0,25 2,35 4,23 2,-13 2,-33 0,-45 z m 1970,-30 c -2,-13 -4,-5 -4,17 -1,22 1,32 4,23 2,-10 2,-28 0,-40 z m 281,-175 c -10,-2 -26,-2 -35,0 -10,3 -2,5 17,5 19,0 27,-2 18,-5 z M 6123,2733 c -18,-2 -48,-2 -65,0 -18,2 -4,4 32,4 36,0 50,-2 33,-4 z m -414,-115 c -29,-24 -71,-59 -93,-78 -63,-55 -87,-69 -31,-18 80,72 159,137 169,137 5,1 -15,-18 -45,-41 z m 809,-8 c 45,-27 40,-34 -5,-8 -47,27 -49,28 -37,28 5,0 24,-9 42,-20 z m -997,-174 c -9,-18 -18,-29 -19,-24 -4,8 24,58 32,58 2,0 -4,-15 -13,-34 z m 1119,15 c 0,-10 -6,-21 -14,-24 -11,-4 -11,-1 -2,19 13,29 16,30 16,5 z m -273,-478 c -2,-16 -4,-5 -4,22 0,28 2,40 4,28 2,-13 2,-35 0,-50 z m 93,-277 c 3,-30 2,-52 -2,-50 -4,3 -8,23 -8,45 0,22 -5,50 -11,62 -9,18 -9,20 2,10 7,-7 16,-37 19,-67 z m -920,-56 c 0,-14 -7,-20 -22,-20 -12,0 -33,-10 -47,-22 l -26,-23 24,28 c 14,15 33,27 43,27 10,0 18,7 18,15 0,8 2,15 5,15 3,0 5,-9 5,-20 z m -52,-352 -2,-83 -5,75 c -3,41 -5,78 -3,83 9,21 12,-1 10,-75 z m 39,-320 c -2,-13 -4,-3 -4,22 0,25 2,35 4,23 2,-13 2,-33 0,-45 z m 473,-153 c -24,-25 -46,-45 -49,-45 -3,0 15,20 39,45 24,25 46,45 49,45 3,0 -15,-20 -39,-45 z m -324,-67 29,-33 -32,29 c -31,28 -38,36 -30,36 2,0 16,-15 33,-32 z"
           inkscape:connector-curvature="0" />
      </g>
      <g
         id="layer102-4"
         style="fill:#9a00ee;stroke:none">
        <path
           id="path52"
           d="m 4859,7207 c -13,-12 -78,-129 -143,-259 l -120,-236 -7,-128 c -16,-292 -21,-438 -46,-1331 -7,-257 7,-487 39,-643 23,-111 29,-262 15,-382 -7,-59 -5,-67 10,-70 10,-2 -9,-4 -42,-5 -33,-1 -80,-8 -105,-16 -43,-12 -45,-15 -54,-61 -10,-58 13,-211 49,-326 13,-41 31,-105 39,-143 24,-104 65,-460 70,-600 7,-204 15,-220 226,-398 76,-65 118,-94 154,-104 27,-8 54,-19 61,-25 29,-24 260,-100 304,-100 38,0 51,-6 81,-34 32,-30 110,-60 95,-36 -3,5 0,7 7,4 7,-2 29,-25 48,-51 39,-52 69,-172 70,-283 0,-61 -2,-66 -28,-81 -21,-12 -35,-34 -53,-84 -14,-40 -34,-76 -50,-90 -28,-22 -69,-93 -69,-117 0,-7 -8,-29 -19,-48 -10,-19 -37,-90 -60,-158 -67,-200 -60,-273 54,-587 20,-55 45,-126 57,-158 21,-59 161,-241 217,-282 15,-11 52,-46 82,-77 35,-36 77,-67 113,-84 51,-23 66,-26 155,-22 l 98,3 73,50 c 40,28 94,64 119,81 71,48 128,108 141,150 15,48 45,101 78,136 23,25 62,142 131,393 15,55 42,130 59,166 54,111 63,221 21,234 -32,11 -69,68 -69,109 0,23 -5,39 -14,42 -17,6 -36,56 -36,92 0,16 -18,43 -54,79 -30,30 -60,69 -66,86 -22,59 -46,105 -61,117 -4,3 -15,33 -24,68 -10,34 -21,65 -25,67 -4,2 -5,35 -3,72 6,86 33,137 93,177 25,16 48,35 52,42 4,6 24,24 45,39 l 38,28 -27,-29 c -42,-45 -37,-58 19,-50 26,3 57,13 69,21 13,8 30,15 37,15 8,0 59,21 113,46 55,26 131,61 169,79 39,18 94,38 124,45 44,10 64,22 105,65 28,28 68,79 90,114 34,55 39,73 47,154 21,232 44,399 58,425 6,12 11,68 10,134 -1,98 3,128 31,228 17,63 38,133 46,155 8,23 14,57 14,77 0,20 7,44 16,52 22,22 50,180 37,209 -10,22 -91,58 -159,72 -29,6 -31,9 -31,48 0,23 6,85 14,137 8,52 18,128 23,168 5,40 11,76 14,80 2,4 7,47 10,96 4,48 10,96 15,105 12,23 33,188 31,247 -1,27 3,132 8,234 6,102 14,268 17,370 4,102 10,200 15,217 5,18 4,185 -1,372 l -9,340 -30,64 c -16,36 -30,72 -30,81 0,41 -76,210 -116,256 -24,28 -45,58 -49,68 -7,24 -46,45 -76,40 -18,-2 -31,-17 -51,-58 -30,-62 -35,-108 -14,-148 8,-15 17,-50 21,-77 5,-28 16,-74 26,-104 11,-30 19,-63 19,-73 0,-10 9,-46 20,-79 14,-40 19,-72 14,-94 -3,-19 -1,-80 5,-137 11,-97 3,-367 -14,-453 -9,-48 -15,-78 -21,-105 -3,-14 -7,-45 -9,-70 -2,-25 -15,-85 -30,-135 -15,-49 -29,-99 -32,-110 -3,-11 -11,-40 -19,-65 -7,-25 -20,-81 -28,-126 -7,-44 -24,-100 -37,-125 -13,-24 -27,-57 -30,-74 -4,-19 -6,-7 -5,32 1,74 -17,103 -91,148 -67,41 -318,90 -538,105 -88,6 -252,18 -365,27 -289,23 -718,14 -839,-17 -164,-42 -189,-76 -192,-265 -1,-37 -2,-38 -11,-15 -6,14 -19,73 -29,132 -10,59 -29,152 -42,205 -14,54 -32,143 -42,198 -9,55 -28,145 -41,200 -33,137 -34,320 -3,391 38,89 51,179 44,304 -6,105 -5,118 15,155 56,105 80,187 80,276 0,115 -15,189 -41,212 -28,23 -41,22 -70,-6 z m 108,-2209 c -2,-13 -4,-5 -4,17 -1,22 1,32 4,23 2,-10 2,-28 0,-40 z m 10,-95 c -3,-10 -5,-2 -5,17 0,19 2,27 5,18 2,-10 2,-26 0,-35 z m 17,-104 c 4,-8 0,-5 -8,5 -9,11 -16,31 -15,45 1,24 2,24 8,-5 4,-17 11,-37 15,-45 z m 39,-206 c 9,-18 17,-40 16,-50 0,-12 -3,-10 -8,7 -5,14 -15,40 -24,57 -10,18 -16,45 -16,60 1,25 2,25 8,-7 4,-19 15,-49 24,-67 z m 1944,30 c -2,-16 -4,-5 -4,22 0,28 2,40 4,28 2,-13 2,-35 0,-50 z m 10,-90 c -3,-10 -5,-2 -5,17 0,19 2,27 5,18 2,-10 2,-26 0,-35 z m -1950,-95 c -2,-13 -4,-3 -4,22 0,25 2,35 4,23 2,-13 2,-33 0,-45 z m 1970,-30 c -2,-13 -4,-5 -4,17 -1,22 1,32 4,23 2,-10 2,-28 0,-40 z m 281,-175 c -10,-2 -26,-2 -35,0 -10,3 -2,5 17,5 19,0 27,-2 18,-5 z M 6123,2733 c -18,-2 -48,-2 -65,0 -18,2 -4,4 32,4 36,0 50,-2 33,-4 z m -414,-115 c -29,-24 -71,-59 -93,-78 -63,-55 -87,-69 -31,-18 80,72 159,137 169,137 5,1 -15,-18 -45,-41 z m 809,-8 c 45,-27 40,-34 -5,-8 -47,27 -49,28 -37,28 5,0 24,-9 42,-20 z m -997,-174 c -9,-18 -18,-29 -19,-24 -4,8 24,58 32,58 2,0 -4,-15 -13,-34 z m 1119,15 c 0,-10 -6,-21 -14,-24 -11,-4 -11,-1 -2,19 13,29 16,30 16,5 z m -273,-478 c -2,-16 -4,-5 -4,22 0,28 2,40 4,28 2,-13 2,-35 0,-50 z m 93,-277 c 3,-30 2,-52 -2,-50 -4,3 -8,23 -8,45 0,22 -5,50 -11,62 -9,18 -9,20 2,10 7,-7 16,-37 19,-67 z m -920,-56 c 0,-14 -7,-20 -22,-20 -12,0 -33,-10 -47,-22 l -26,-23 24,28 c 14,15 33,27 43,27 10,0 18,7 18,15 0,8 2,15 5,15 3,0 5,-9 5,-20 z m -52,-352 -2,-83 -5,75 c -3,41 -5,78 -3,83 9,21 12,-1 10,-75 z m 39,-320 c -2,-13 -4,-3 -4,22 0,25 2,35 4,23 2,-13 2,-33 0,-45 z m 473,-153 c -24,-25 -46,-45 -49,-45 -3,0 15,20 39,45 24,25 46,45 49,45 3,0 -15,-20 -39,-45 z m -324,-67 29,-33 -32,29 c -31,28 -38,36 -30,36 2,0 16,-15 33,-32 z"
           inkscape:connector-curvature="0" />
      </g>
      <g
         id="layer103-7"
         style="fill:#d0c201;stroke:none">
        <path
           id="path55"
           d="m 7182,7148 c -20,-26 -52,-111 -52,-140 0,-16 6,-41 14,-56 8,-15 17,-50 21,-77 5,-28 16,-74 26,-104 11,-30 19,-63 19,-73 0,-10 9,-46 20,-79 14,-40 19,-72 14,-94 -3,-19 -1,-80 5,-137 11,-97 3,-367 -14,-453 -9,-48 -15,-78 -21,-105 -3,-14 -7,-45 -9,-70 -2,-25 -15,-85 -30,-135 -15,-49 -29,-99 -32,-110 -3,-11 -11,-40 -19,-65 -7,-25 -20,-82 -28,-127 -8,-45 -26,-104 -40,-130 -17,-31 -29,-75 -35,-123 -5,-41 -18,-111 -31,-155 -19,-69 -21,-95 -16,-195 4,-64 11,-142 17,-175 5,-33 14,-100 19,-148 6,-49 14,-96 19,-105 14,-26 301,-70 332,-52 6,4 12,23 12,41 0,19 6,79 14,134 8,55 18,133 23,173 5,40 11,76 14,80 2,4 7,47 10,96 4,48 10,96 15,105 12,23 33,188 31,247 -1,27 3,132 8,234 6,102 14,268 17,370 4,102 10,200 15,217 5,18 4,185 -1,372 l -9,340 -30,64 c -16,36 -30,72 -30,81 0,42 -76,210 -117,257 -24,28 -43,55 -43,59 0,5 -10,18 -22,30 -24,22 -70,27 -86,8 z"
           inkscape:connector-curvature="0" />
        <path
           id="path57"
           d="m 5940,2706 c -180,-50 -185,-52 -261,-114 -154,-127 -163,-139 -179,-221 -9,-49 -8,-54 16,-79 14,-15 33,-40 44,-57 22,-37 50,-180 50,-261 0,-54 -2,-60 -28,-75 -21,-12 -35,-34 -53,-84 -14,-40 -34,-76 -50,-90 -28,-22 -69,-93 -69,-117 0,-7 -8,-29 -19,-48 -10,-19 -37,-90 -60,-158 -67,-200 -60,-273 54,-587 20,-55 45,-126 57,-158 21,-59 161,-241 217,-282 15,-11 52,-46 82,-77 35,-36 77,-67 113,-84 51,-23 66,-26 155,-22 l 98,3 73,50 c 40,28 94,64 119,81 71,48 128,108 141,150 15,48 45,101 78,136 23,25 62,142 131,393 15,55 42,130 59,166 54,111 63,221 21,234 -32,11 -69,68 -69,109 0,23 -5,39 -14,42 -17,6 -36,56 -36,92 0,16 -18,43 -54,79 -30,30 -60,69 -66,86 -22,59 -46,105 -61,117 -4,3 -15,33 -24,68 -10,34 -21,65 -25,67 -4,2 -5,35 -3,72 6,81 33,137 83,171 19,13 55,41 80,62 25,22 56,48 69,58 24,18 24,21 11,66 -10,38 -22,53 -57,77 -61,43 -163,87 -247,109 -39,10 -88,26 -108,34 -54,23 -166,20 -268,-8 z m 427,-733 c -2,-16 -4,-5 -4,22 0,28 2,40 4,28 2,-13 2,-35 0,-50 z m 93,-277 c 3,-30 2,-52 -2,-50 -4,3 -8,23 -8,45 0,22 -5,50 -11,62 -9,18 -9,20 2,10 7,-7 16,-37 19,-67 z m -920,-56 c 0,-14 -7,-20 -22,-20 -12,0 -33,-10 -47,-22 l -26,-23 24,28 c 14,15 33,27 43,27 10,0 18,7 18,15 0,8 2,15 5,15 3,0 5,-9 5,-20 z m -52,-352 -2,-83 -5,75 c -3,41 -5,78 -3,83 9,21 12,-1 10,-75 z m 39,-320 c -2,-13 -4,-3 -4,22 0,25 2,35 4,23 2,-13 2,-33 0,-45 z m 473,-153 c -24,-25 -46,-45 -49,-45 -3,0 15,20 39,45 24,25 46,45 49,45 3,0 -15,-20 -39,-45 z m -324,-67 29,-33 -32,29 c -31,28 -38,36 -30,36 2,0 16,-15 33,-32 z"
           inkscape:connector-curvature="0" />
      </g>
      <g
         id="layer104-0"
         style="fill:#b69682;stroke:none">
        <path
           id="path60"
           d="m 4859,7207 c -13,-12 -78,-129 -143,-259 l -120,-236 -7,-128 c -16,-292 -21,-436 -46,-1331 -6,-249 8,-493 38,-642 28,-137 33,-213 20,-335 -6,-60 -9,-112 -6,-114 5,-5 45,-1 325,32 l 105,12 -2,29 c -1,17 3,97 8,178 8,140 8,150 -12,188 -16,33 -19,51 -13,95 5,44 2,61 -15,95 -12,23 -21,53 -19,68 1,14 -1,67 -6,117 -7,79 -6,95 9,118 15,23 16,33 7,64 -6,20 -16,69 -22,107 -6,39 -24,126 -40,195 -16,69 -36,168 -46,220 -9,52 -27,140 -40,195 -33,137 -34,320 -3,391 38,89 51,179 44,304 -6,105 -5,118 15,155 56,105 80,187 80,276 0,115 -15,189 -41,212 -28,23 -41,22 -70,-6 z"
           inkscape:connector-curvature="0" />
        <path
           id="path62"
           d="m 7176,7138 c -9,-12 -16,-29 -16,-38 0,-8 -7,-24 -15,-34 -19,-25 -19,-79 -1,-114 8,-15 17,-50 21,-77 5,-28 16,-74 26,-104 11,-30 19,-64 19,-76 0,-13 7,-40 16,-60 19,-46 29,-224 26,-450 -2,-138 -15,-259 -37,-355 -4,-14 -8,-45 -10,-70 -2,-25 -15,-85 -30,-135 -15,-49 -29,-99 -32,-110 -3,-11 -11,-40 -19,-65 -7,-25 -20,-82 -28,-127 -8,-45 -26,-104 -40,-130 -17,-31 -29,-75 -35,-123 -5,-41 -18,-111 -31,-155 -19,-69 -21,-95 -16,-195 4,-64 11,-142 17,-175 5,-33 14,-100 19,-148 6,-49 14,-96 19,-105 14,-26 301,-70 332,-52 6,4 12,23 12,41 0,19 6,79 14,134 8,55 18,133 23,173 5,40 11,76 14,80 2,4 7,47 10,96 4,48 10,96 15,105 12,23 33,188 31,247 -1,27 3,132 8,234 6,102 14,268 17,370 4,102 10,200 15,217 5,18 4,185 -1,372 l -9,340 -30,64 c -16,36 -30,72 -30,81 0,42 -76,210 -117,257 -24,28 -43,55 -43,59 0,5 -10,18 -22,30 -29,27 -73,26 -92,-2 z"
           inkscape:connector-curvature="0" />
        <path
           id="path64"
           d="m 5940,2706 c -180,-50 -185,-52 -261,-114 -154,-127 -163,-139 -179,-221 -9,-49 -8,-54 16,-79 14,-15 33,-40 44,-57 26,-42 50,-184 50,-295 0,-83 -4,-103 -35,-181 -19,-49 -35,-100 -35,-114 0,-20 -5,-25 -23,-25 -85,0 -162,-263 -84,-284 15,-4 27,1 39,17 17,21 18,20 18,-58 0,-44 9,-127 20,-185 11,-58 20,-119 20,-136 0,-19 9,-39 24,-53 14,-13 30,-37 37,-54 21,-53 99,-138 146,-159 53,-23 117,-17 161,16 43,32 147,147 165,182 46,89 123,137 302,188 l 110,31 30,62 c 32,67 46,76 62,40 9,-20 13,-14 32,49 25,83 26,124 7,185 -8,24 -17,55 -20,69 -3,16 -23,35 -53,54 -64,39 -83,64 -83,109 0,24 -16,72 -46,133 -52,106 -49,74 -28,309 7,83 34,139 84,173 19,13 55,41 80,62 25,22 56,48 69,58 24,18 24,21 11,66 -10,38 -22,53 -57,77 -61,43 -163,87 -247,109 -39,10 -88,26 -108,34 -54,23 -166,20 -268,-8 z"
           inkscape:connector-curvature="0" />
      </g>
    </g>
  </g>
</svg>
