<?xml version="1.0" encoding="UTF-8" standalone="no"?>
<!-- Created with Inkscape (http://www.inkscape.org/) -->

<svg
   xmlns:dc="http://purl.org/dc/elements/1.1/"
   xmlns:cc="http://creativecommons.org/ns#"
   xmlns:rdf="http://www.w3.org/1999/02/22-rdf-syntax-ns#"
   xmlns:svg="http://www.w3.org/2000/svg"
   xmlns="http://www.w3.org/2000/svg"
   xmlns:sodipodi="http://sodipodi.sourceforge.net/DTD/sodipodi-0.dtd"
   xmlns:inkscape="http://www.inkscape.org/namespaces/inkscape"
   width="1331.989"
   height="1209.9166"
   viewBox="0 0 352.42209 320.12378"
   version="1.1"
   id="svg8"
   inkscape:version="0.92.4 (5da689c313, 2019-01-14)"
   sodipodi:docname="lunges.svg">
  <defs
     id="defs2" />
  <sodipodi:namedview
     id="base"
     pagecolor="#ffffff"
     bordercolor="#666666"
     borderopacity="1.0"
     inkscape:pageopacity="0.0"
     inkscape:pageshadow="2"
     inkscape:zoom="0.35"
     inkscape:cx="1131.1102"
     inkscape:cy="359.24401"
     inkscape:document-units="px"
     inkscape:current-layer="layer1"
     showgrid="false"
     units="px"
     inkscape:pagecheckerboard="true"
     fit-margin-top="100"
     fit-margin-right="100"
     fit-margin-bottom="100"
     fit-margin-left="100"
     inkscape:window-width="3696"
     inkscape:window-height="2115"
     inkscape:window-x="131"
     inkscape:window-y="2147"
     inkscape:window-maximized="1" />
  <metadata
     id="metadata5">
    <rdf:RDF>
      <cc:Work
         rdf:about="">
        <dc:format>image/svg+xml</dc:format>
        <dc:type
           rdf:resource="http://purl.org/dc/dcmitype/StillImage" />
        <dc:title></dc:title>
      </cc:Work>
    </rdf:RDF>
  </metadata>
  <g
     inkscape:label="Calque 1"
     inkscape:groupmode="layer"
     id="layer1"
     transform="translate(449.70742,76.240472)">
    <g
       id="g39"
       transform="matrix(0.02645833,0,0,0.02645833,-519.74262,-54.141347)">
      <g
         id="layer101"
         style="fill:#000000;stroke:none">
        <path
           id="path10"
           d="m 4420,10263 c -100,-6 -197,-26 -252,-54 -32,-16 -62,-29 -67,-29 -19,0 -116,-75 -201,-156 -47,-44 -113,-102 -147,-127 -113,-86 -127,-163 -63,-342 18,-50 36,-108 41,-130 11,-54 11,-186 -1,-265 -6,-36 -15,-117 -20,-180 -9,-98 -14,-120 -37,-152 l -26,-38 17,-158 c 9,-86 17,-202 17,-257 1,-105 22,-334 40,-422 10,-50 85,-239 145,-368 18,-38 31,-86 35,-130 4,-38 15,-104 24,-145 14,-63 16,-102 9,-245 -4,-93 -8,-228 -9,-300 -1,-148 -9,-219 -36,-355 -10,-52 -17,-104 -15,-114 3,-21 -43,-187 -62,-223 -7,-12 -12,-34 -12,-50 0,-16 -9,-60 -21,-98 -60,-201 -59,-194 -55,-435 3,-124 9,-238 14,-255 5,-16 7,-36 5,-42 -3,-7 2,-34 10,-60 9,-27 19,-68 22,-93 4,-25 13,-56 21,-70 27,-51 32,-99 24,-227 -5,-71 -16,-177 -25,-238 -9,-60 -20,-155 -25,-210 -4,-55 -11,-111 -14,-125 -4,-14 -9,-160 -12,-325 -3,-165 -7,-367 -9,-448 -14,-510 -11,-661 15,-747 11,-36 20,-78 20,-95 0,-58 57,-152 182,-303 68,-81 131,-163 140,-182 13,-28 17,-68 18,-188 l 1,-152 82,-123 c 92,-137 113,-192 122,-327 9,-132 62,-385 97,-465 107,-244 154,-316 314,-481 74,-76 84,-83 159,-107 158,-52 247,-67 347,-61 104,8 135,19 193,74 22,21 52,44 67,51 46,24 168,223 198,324 34,118 56,314 40,370 -6,23 -12,64 -11,91 1,117 -21,216 -76,344 -30,68 -64,136 -77,150 -14,14 -30,45 -36,69 -6,24 -18,55 -27,67 -16,25 -144,94 -173,94 -18,0 -30,51 -30,125 0,36 26,65 57,65 11,0 42,11 69,25 27,14 55,25 63,25 7,0 70,35 140,77 170,104 195,135 223,262 31,139 41,289 39,562 -2,209 -5,268 -19,318 -17,58 -17,69 0,199 9,75 16,164 16,197 -1,34 4,76 10,95 5,19 13,94 16,165 3,72 12,171 20,220 9,50 20,167 26,260 13,219 25,321 49,420 23,96 47,208 55,253 4,23 2,32 -8,32 -45,0 -25,278 41,576 3,12 -3,37 -13,55 -9,19 -31,77 -48,129 l -31,95 -70,40 c -59,34 -79,40 -140,43 l -70,4 -28,-42 c -15,-23 -27,-48 -27,-56 0,-27 52,-93 80,-102 27,-10 28,-14 35,-94 3,-45 6,-94 5,-108 0,-14 0,-104 0,-200 0,-96 -3,-194 -6,-218 -4,-29 -2,-48 7,-59 12,-14 12,-16 -1,-8 -8,5 -29,8 -47,7 l -33,-3 v 65 c 0,51 -4,67 -17,76 -17,11 -17,11 -1,6 25,-8 33,30 32,154 -1,122 -16,261 -39,352 -9,34 -36,161 -60,280 -24,119 -55,245 -69,280 -14,35 -30,86 -37,113 -7,28 -18,62 -25,77 -8,15 -20,53 -28,85 -8,32 -44,130 -80,218 -37,87 -69,177 -72,200 -10,65 -45,187 -65,227 -11,21 -19,53 -19,72 0,19 -18,72 -41,121 -39,86 -69,208 -84,351 -9,84 -15,111 -35,158 -10,22 -26,82 -35,131 -9,50 -23,108 -31,130 -7,22 -29,103 -48,180 -29,122 -35,164 -41,321 -4,100 -4,210 0,245 7,60 11,67 69,127 94,99 120,114 384,219 67,27 139,88 167,142 19,37 30,118 22,153 -8,32 -60,86 -90,93 -34,9 -153,-13 -222,-41 -34,-13 -67,-24 -74,-24 -19,0 -94,-40 -121,-65 -14,-13 -48,-35 -76,-49 -81,-41 -292,-108 -357,-114 -142,-12 -203,-126 -158,-293 24,-86 30,-297 17,-514 -8,-128 -9,-130 -38,-155 l -30,-25 1,-155 c 1,-85 4,-164 7,-175 3,-12 0,-34 -7,-50 l -11,-30 -25,65 c -30,79 -46,140 -79,295 -14,66 -36,158 -49,205 -13,47 -31,128 -40,180 -9,52 -24,111 -33,130 -24,51 -23,369 2,494 30,153 52,183 311,426 55,51 126,113 159,136 64,47 135,136 136,171 1,67 -179,125 -360,116 z m 69,-3867 c -2,-27 -2,-28 -6,-6 -3,14 -10,31 -15,38 -8,9 -7,11 6,6 10,-4 16,-17 15,-38 z m -279,-61 c -14,-8 -29,-14 -35,-14 -5,0 1,6 15,14 14,8 30,14 35,14 6,0 -1,-6 -15,-14 z m 262,-149 c 7,4 8,2 4,-4 -14,-24 -26,-11 -24,26 1,37 1,37 5,4 3,-20 8,-30 15,-26 z m 105,-138 c -2,-29 -3,-8 -3,47 0,55 1,79 3,53 2,-26 2,-71 0,-100 z m -600,80 c -2,-13 -4,-5 -4,17 -1,22 1,32 4,23 2,-10 2,-28 0,-40 z m -20,-160 c -2,-18 -4,-4 -4,32 0,36 2,50 4,33 2,-18 2,-48 0,-65 z m 10,-310 c -2,-13 -4,-3 -4,22 0,25 2,35 4,23 2,-13 2,-33 0,-45 z m 476,-76 c -14,-34 -43,-82 -43,-72 0,3 11,27 24,55 14,27 22,53 20,57 -3,5 -17,8 -32,9 -24,0 -25,1 -7,9 13,5 26,3 37,-7 15,-13 15,-18 1,-51 z m -486,-144 c -2,-35 -3,-7 -3,62 0,69 1,97 3,63 2,-35 2,-91 0,-125 z m 538,-72 c 11,-2 -13,-4 -52,-5 -40,0 -73,2 -73,7 0,6 79,5 125,-2 z m -550,-23 c -3,-16 -16,-39 -28,-51 -21,-23 -97,-68 -97,-57 0,2 15,12 33,21 47,24 75,53 82,85 4,16 9,29 12,29 3,0 2,-12 -2,-27 z m 703,10 c -10,-2 -28,-2 -40,0 -13,2 -5,4 17,4 22,1 32,-1 23,-4 z m 155,-10 c -23,-2 -64,-2 -90,0 -26,2 -7,3 42,3 50,0 71,-1 48,-3 z m 225,0 c -16,-2 -40,-2 -55,0 -16,2 -3,4 27,4 30,0 43,-2 28,-4 z m 310,-10 c -49,-2 -127,-2 -175,0 -49,1 -9,3 87,3 96,0 136,-2 88,-3 z m 255,-20 c -13,-2 -35,-2 -50,0 -16,2 -5,4 22,4 28,0 40,-2 28,-4 z M 5128,2373 c -10,-2 -26,-2 -35,0 -10,3 -2,5 17,5 19,0 27,-2 18,-5 z m -532,-575 c 41,-60 46,-68 41,-68 -3,0 -22,25 -42,55 -21,30 -41,55 -45,55 -3,0 -15,7 -26,15 -17,15 -16,15 12,1 17,-8 44,-34 60,-58 z m 141,-390 c -2,-29 -3,-6 -3,52 0,58 1,81 3,53 2,-29 2,-77 0,-105 z M 4577,993 c -2,-16 -4,-5 -4,22 0,28 2,40 4,28 2,-13 2,-35 0,-50 z m 228,-43 c 17,-11 26,-20 22,-20 -4,0 -19,7 -32,16 -14,9 -32,14 -40,10 -9,-3 -13,-2 -10,4 9,15 27,12 60,-10 z m 113,-149 c 16,-31 33,-67 36,-81 4,-14 -7,4 -24,39 -16,35 -46,87 -65,115 -31,44 -32,46 -6,17 16,-18 43,-59 59,-90 z"
           inkscape:connector-curvature="0" />
      </g>
      <g
         id="layer102"
         style="fill:#ff4466;stroke:none">
        <path
           id="path13"
           d="m 4340,6386 c -161,-60 -167,-64 -268,-136 -100,-72 -92,-55 -108,-220 -5,-48 14,-224 32,-287 5,-16 2,-23 -8,-23 -18,0 -28,-77 -28,-224 0,-160 -20,-205 -111,-251 -25,-13 -51,-31 -59,-39 -7,-10 -20,-14 -31,-11 -23,8 -24,-8 -5,-61 7,-22 16,-61 21,-89 4,-27 13,-61 21,-75 27,-50 32,-99 24,-227 -5,-71 -16,-177 -25,-238 -9,-60 -20,-155 -25,-210 -4,-55 -11,-111 -14,-125 -4,-14 -9,-160 -12,-325 -3,-165 -7,-367 -9,-448 -14,-510 -11,-661 15,-747 11,-36 20,-78 20,-95 0,-58 57,-152 181,-300 67,-81 129,-161 138,-178 13,-27 23,-33 55,-35 21,-2 45,-9 52,-16 7,-7 32,-16 55,-20 34,-5 52,-17 88,-56 46,-50 93,-75 118,-65 8,3 11,10 7,17 -4,7 4,3 17,-8 13,-12 38,-29 55,-37 31,-16 97,-106 150,-206 16,-30 35,-63 42,-75 9,-15 12,-53 9,-136 -5,-137 -25,-192 -92,-256 -49,-47 -65,-90 -65,-175 0,-98 58,-127 138,-68 47,34 65,33 108,-9 62,-61 123,-179 174,-337 19,-59 67,-129 103,-150 52,-31 149,-61 192,-60 96,3 252,29 287,48 58,32 107,144 135,312 23,140 26,194 13,240 -6,23 -12,64 -11,91 1,117 -21,216 -76,344 -30,68 -64,136 -77,150 -14,14 -30,45 -36,69 -6,24 -18,55 -27,67 -16,25 -144,94 -173,94 -18,0 -30,51 -30,125 0,36 26,65 57,65 11,0 42,11 69,25 27,14 55,25 63,25 7,0 70,35 140,77 170,104 195,135 223,262 31,139 41,289 39,562 -2,209 -5,268 -19,318 -17,58 -17,69 0,199 9,75 16,164 16,197 -1,34 4,76 10,95 5,19 13,94 16,165 3,72 12,171 20,220 9,50 20,167 26,260 13,219 25,321 49,420 23,96 47,208 55,253 4,23 2,32 -8,32 -45,0 -25,278 41,576 3,12 -3,37 -13,55 -9,19 -31,77 -48,129 l -31,95 -70,40 c -59,34 -79,40 -140,43 l -70,4 -28,-42 c -15,-23 -27,-48 -27,-56 0,-27 52,-93 80,-102 27,-10 28,-14 35,-94 3,-45 6,-94 5,-108 0,-14 0,-104 0,-200 0,-96 -3,-194 -6,-218 -4,-29 -2,-48 7,-59 12,-14 12,-16 -1,-8 -8,5 -29,8 -47,7 l -33,-3 v 65 c 0,80 -11,89 -120,92 -41,1 -199,8 -350,15 -151,6 -342,13 -425,14 -82,1 -216,5 -298,10 -128,7 -147,10 -143,24 3,9 10,44 17,78 6,34 22,84 34,110 27,54 25,63 -13,64 -17,1 -20,3 -10,6 10,2 27,25 38,51 12,26 38,74 60,107 48,75 68,162 71,310 3,127 -4,136 -73,90 -22,-15 -42,-24 -45,-21 -3,3 0,45 7,93 16,112 18,155 5,159 -5,1 -62,-17 -125,-40 z m 788,-4013 c -10,-2 -26,-2 -35,0 -10,3 -2,5 17,5 19,0 27,-2 18,-5 z"
           inkscape:connector-curvature="0" />
      </g>
      <g
         id="layer103"
         style="fill:#b69682;stroke:none">
        <path
           id="path16"
           d="m 4340,6386 c -161,-60 -167,-64 -268,-136 -100,-72 -92,-55 -108,-220 -6,-55 17,-245 35,-293 9,-22 22,-28 103,-46 118,-27 255,-51 290,-51 23,0 30,8 48,48 12,26 38,74 60,107 48,75 68,162 71,310 3,127 -4,136 -73,90 -22,-15 -42,-24 -45,-21 -3,3 0,45 7,93 16,112 18,155 5,159 -5,1 -62,-17 -125,-40 z"
           inkscape:connector-curvature="0" />
        <path
           id="path18"
           d="m 5697,6000 c -15,-23 -27,-48 -27,-56 0,-27 52,-93 80,-102 27,-10 28,-14 35,-94 3,-45 6,-94 5,-108 0,-14 0,-101 0,-195 0,-93 -3,-193 -6,-221 l -6,-51 70,-47 c 68,-45 72,-46 146,-46 44,0 76,4 76,10 0,6 -6,10 -14,10 -45,0 -25,277 41,576 3,12 -3,37 -13,55 -9,19 -31,77 -48,129 l -31,95 -70,40 c -59,34 -79,40 -140,43 l -70,4 z"
           inkscape:connector-curvature="0" />
        <path
           id="path20"
           d="m 4915,2299 c -150,-77 -207,-112 -271,-168 -22,-20 -54,-43 -70,-52 -17,-9 -52,-46 -78,-83 l -48,-67 23,-26 c 13,-14 40,-33 60,-43 36,-19 99,-103 155,-209 16,-30 35,-63 42,-75 9,-15 12,-53 9,-136 -5,-137 -25,-192 -92,-256 -49,-47 -65,-90 -65,-175 0,-98 58,-127 138,-68 47,34 65,33 108,-9 62,-61 123,-179 174,-337 19,-59 67,-129 103,-150 52,-31 149,-61 192,-60 96,3 252,29 287,48 58,32 107,144 135,312 23,140 26,194 13,240 -6,23 -12,64 -11,91 1,117 -21,216 -76,344 -30,68 -64,136 -77,150 -14,14 -30,45 -36,69 -6,24 -18,55 -27,67 -16,25 -144,94 -173,94 -29,0 -42,147 -15,170 8,7 15,19 15,27 0,9 16,50 35,93 56,125 56,130 -6,190 -62,59 -145,90 -243,90 -57,0 -73,-6 -201,-71 z"
           inkscape:connector-curvature="0" />
      </g>
    </g>
    <g
       id="g70"
       transform="matrix(0.02645833,0,0,0.02645833,-379.05619,-50.863343)">
      <g
         id="layer101-2"
         style="fill:#000000;stroke:none">
        <path
           id="path41"
           d="m 5887,10090 c -27,-5 -58,-15 -71,-23 -12,-8 -38,-20 -57,-25 -106,-32 -230,-85 -275,-119 -17,-13 -34,-23 -37,-23 -3,0 -49,-27 -102,-60 -164,-102 -266,-146 -457,-195 -97,-25 -190,-65 -235,-102 -29,-24 -60,-106 -68,-179 -8,-68 14,-153 50,-194 60,-70 137,-239 214,-474 18,-54 43,-115 56,-135 18,-27 24,-50 24,-91 0,-62 13,-136 34,-195 8,-22 31,-101 52,-175 21,-74 51,-160 66,-191 16,-31 37,-80 49,-108 35,-89 167,-310 253,-423 32,-42 34,-64 7,-73 -11,-4 -31,-22 -44,-42 -48,-70 -214,-163 -351,-197 -158,-38 -237,-64 -655,-216 -41,-15 -103,-41 -137,-59 -34,-17 -69,-31 -78,-31 -8,0 -42,-9 -76,-21 -33,-12 -63,-18 -66,-15 -3,3 -12,49 -20,103 -8,54 -25,141 -39,193 -14,52 -47,201 -73,330 -53,251 -74,335 -126,500 -18,58 -36,121 -40,140 -4,19 -24,67 -45,106 -38,72 -140,331 -140,357 0,7 -17,38 -38,68 -21,30 -53,80 -71,111 -35,63 -107,140 -150,162 -56,29 -144,38 -223,22 -40,-9 -86,-18 -103,-20 -16,-3 -120,-28 -230,-56 -192,-48 -252,-70 -395,-149 -30,-17 -138,-71 -240,-120 -102,-50 -214,-106 -250,-125 -36,-20 -114,-52 -174,-72 -94,-32 -111,-41 -127,-69 -11,-18 -32,-38 -47,-43 -85,-33 -242,-82 -260,-82 -24,0 -57,43 -64,84 -9,46 8,78 61,116 122,87 150,114 150,146 1,21 -8,38 -26,56 -44,40 -179,97 -281,118 -129,26 -171,13 -289,-88 -77,-67 -82,-86 -99,-377 -7,-137 -18,-268 -23,-290 -18,-77 -23,-191 -11,-236 25,-94 95,-147 178,-135 24,3 94,21 155,40 62,20 155,46 207,60 52,14 122,32 155,41 62,17 196,38 344,55 212,25 401,52 454,65 31,8 139,55 240,105 156,77 270,119 324,120 7,0 14,-22 17,-52 11,-101 14,-473 5,-568 -21,-230 -29,-291 -53,-390 -14,-58 -32,-166 -41,-240 -9,-74 -25,-174 -36,-222 -22,-100 -36,-204 -43,-333 -3,-49 -10,-171 -15,-270 -10,-170 -10,-181 8,-195 10,-8 28,-46 39,-85 15,-50 41,-97 87,-162 36,-51 70,-93 75,-93 10,0 57,-70 103,-152 14,-25 38,-66 53,-90 56,-89 90,-181 113,-308 12,-69 28,-156 36,-195 8,-38 22,-173 30,-300 9,-126 24,-282 35,-345 14,-83 21,-178 24,-340 5,-254 20,-350 79,-510 49,-131 56,-164 52,-223 -2,-29 -8,-121 -14,-205 -13,-167 -4,-288 25,-344 9,-18 45,-74 80,-125 62,-91 64,-94 79,-198 9,-59 20,-118 26,-131 5,-14 9,-44 9,-67 0,-24 7,-67 15,-97 9,-30 19,-100 24,-155 12,-144 34,-206 99,-274 29,-31 65,-78 80,-106 32,-61 156,-186 207,-211 44,-20 72,-49 154,-155 57,-74 60,-76 127,-94 38,-10 92,-29 121,-42 28,-13 76,-26 105,-29 64,-5 307,19 316,32 4,5 26,22 50,37 86,56 299,229 255,208 -37,-19 -40,-11 -3,9 19,11 42,19 51,20 9,0 28,15 42,33 26,35 60,133 51,148 -3,5 -2,9 3,9 4,0 9,10 9,23 1,12 4,36 7,52 3,17 8,50 12,75 4,25 18,65 31,89 27,48 26,55 -13,145 -25,57 -25,60 -13,150 17,125 10,207 -24,284 -16,34 -33,62 -38,62 -5,0 -7,4 -4,9 4,5 2,11 -4,13 -6,2 -12,12 -14,24 -2,11 -20,51 -40,88 -24,44 -36,81 -36,107 0,21 -4,39 -9,39 -5,0 -11,10 -13,23 -2,17 -24,32 -93,66 -49,24 -112,49 -140,56 l -50,11 50,23 c 61,29 108,38 250,51 115,10 127,12 345,59 74,16 151,32 171,35 19,3 82,24 140,47 309,120 337,124 799,121 403,-2 563,7 805,48 153,25 528,63 740,74 44,2 121,11 170,19 50,9 121,18 158,22 37,3 79,10 92,15 14,5 25,8 25,5 0,-2 26,5 58,16 138,49 268,69 515,79 131,5 241,11 245,14 6,3 119,11 299,21 23,1 48,7 56,13 8,7 17,9 20,5 11,-10 8,5 -7,41 -12,28 -21,35 -55,41 -22,4 -51,14 -63,24 -39,29 -100,41 -269,51 -90,5 -193,14 -229,20 -152,24 -250,39 -329,49 -46,6 -87,13 -90,17 -3,3 9,18 27,32 88,71 102,89 102,129 0,44 -31,83 -67,83 -23,0 -107,-54 -198,-127 -33,-26 -80,-61 -105,-77 -25,-16 -65,-45 -90,-65 -49,-40 -110,-60 -183,-61 -41,0 -52,4 -75,29 l -27,30 -80,-8 c -60,-6 -171,-1 -435,20 -195,16 -425,31 -510,34 -188,7 -303,15 -297,22 14,14 324,68 512,89 28,3 54,8 58,11 11,6 164,43 202,48 30,4 277,89 299,103 6,4 13,7 16,8 3,0 12,4 20,7 26,11 104,26 111,21 4,-2 10,0 14,6 4,6 10,8 15,5 4,-3 52,9 105,25 84,26 123,31 276,40 178,9 400,37 527,66 37,8 77,17 90,19 18,5 22,12 22,44 0,60 3,59 -240,106 -94,18 -144,32 -195,55 -53,24 -190,49 -240,44 -22,-2 -148,-7 -279,-10 -225,-6 -243,-8 -295,-31 -35,-16 -87,-28 -138,-33 -46,-4 -89,-13 -98,-20 -8,-7 -23,-14 -33,-15 -9,-1 -29,-6 -43,-12 -45,-19 -185,-24 -899,-34 -685,-9 -987,-23 -1060,-49 -42,-14 -350,-27 -350,-14 0,5 4,24 9,41 8,27 5,41 -17,82 -47,86 -133,203 -163,220 -16,9 -33,29 -39,44 -5,16 -18,31 -29,34 -21,5 -54,73 -70,144 -6,25 -19,65 -30,90 -11,24 -21,61 -21,81 0,65 -39,184 -79,245 -31,47 -40,70 -44,123 -7,71 -11,100 -32,204 l -15,69 36,58 c 44,71 51,77 145,126 74,39 216,141 253,181 10,12 48,39 85,61 37,22 91,62 120,88 67,60 223,173 232,168 3,-3 24,11 45,31 22,19 32,33 24,29 -8,-3 23,29 69,72 46,43 177,171 290,284 113,114 238,234 278,269 40,34 90,85 111,114 62,84 153,242 162,282 5,21 5,79 1,130 -9,100 -41,184 -122,312 -22,34 -66,115 -98,180 -32,64 -72,139 -89,166 -18,28 -32,55 -32,62 0,7 -19,36 -42,66 -50,61 -129,179 -151,224 -9,17 -34,54 -57,83 -23,29 -46,67 -52,84 -6,18 -23,50 -38,72 -15,22 -40,65 -55,95 -15,30 -42,75 -59,100 -16,25 -35,65 -42,90 -11,43 -13,45 -50,48 -21,2 -46,10 -55,18 -9,8 -32,60 -53,117 -21,56 -52,134 -70,172 -65,137 -57,182 48,273 126,109 199,155 384,242 118,56 187,124 216,215 10,33 23,66 30,74 6,9 10,48 9,97 -1,68 -6,89 -23,114 -12,16 -27,29 -33,29 -7,-1 -34,-5 -60,-9 z M 3433,6293 c -13,-2 -33,-2 -45,0 -13,2 -3,4 22,4 25,0 35,-2 23,-4 z m 175,-10 c -10,-2 -26,-2 -35,0 -10,3 -2,5 17,5 19,0 27,-2 18,-5 z m 779,-228 c 49,-33 81,-70 70,-82 -3,-2 -8,5 -12,17 -4,12 -34,39 -67,61 -34,21 -57,39 -52,39 5,0 33,-16 61,-35 z m -1667,-18 c 0,-2 -19,-21 -42,-42 l -43,-40 40,43 c 36,39 45,47 45,39 z m -106,-122 c -14,-19 -29,-35 -31,-35 -5,0 7,18 36,53 26,31 23,18 -5,-18 z m 1880,-12 c 9,-18 14,-33 12,-33 -6,0 -36,55 -36,66 0,11 5,3 24,-33 z m 76,-126 c 0,-12 0,-11 -24,28 l -17,30 20,-24 c 12,-13 21,-28 21,-34 z m -2026,-51 c -3,-21 -8,-35 -11,-32 -2,2 -1,20 3,40 3,21 8,35 11,32 2,-2 1,-20 -3,-40 z m 2070,-53 c 9,-18 14,-33 12,-33 -6,0 -36,55 -36,66 0,11 5,3 24,-33 z M 3860,2395 c 30,-30 52,-55 49,-55 -2,0 -29,25 -59,55 -30,30 -52,55 -49,55 2,0 29,-25 59,-55 z m 157,-362 c -3,-10 -5,-2 -5,17 0,19 2,27 5,18 2,-10 2,-26 0,-35 z m 262,-466 c -2,-3 -15,10 -28,27 l -24,31 28,-27 c 16,-15 27,-29 24,-31 z m 48,-289 c -2,-13 -4,-5 -4,17 -1,22 1,32 4,23 2,-10 2,-28 0,-40 z m 571,-375 c -10,-2 -28,-2 -40,0 -13,2 -5,4 17,4 22,1 32,-1 23,-4 z"
           inkscape:connector-curvature="0" />
      </g>
      <g
         id="layer102-4"
         style="fill:#ff4466;stroke:none">
        <path
           id="path44"
           d="m 3159,6282 c -51,-12 -94,-29 -131,-54 -30,-20 -91,-54 -134,-76 -95,-48 -206,-140 -270,-224 -41,-53 -51,-75 -71,-161 l -24,-101 20,-65 c 20,-65 140,-251 161,-251 10,0 57,-70 103,-152 14,-25 38,-66 53,-90 56,-89 90,-181 113,-308 12,-69 28,-156 36,-195 8,-38 22,-173 30,-300 9,-126 24,-282 35,-345 14,-83 21,-178 24,-340 5,-254 20,-350 79,-510 43,-117 46,-128 52,-176 3,-25 13,-46 28,-56 31,-25 34,-28 67,-74 20,-30 49,-52 98,-77 65,-32 202,-153 202,-177 0,-6 19,-23 42,-40 29,-21 53,-30 80,-30 23,0 38,-5 39,-12 0,-7 34,-42 74,-78 69,-62 74,-69 94,-140 12,-41 29,-95 38,-120 9,-25 18,-82 20,-128 l 5,-83 -36,-34 c -19,-18 -45,-51 -56,-72 -25,-48 -50,-161 -43,-196 5,-24 38,-47 69,-47 25,0 97,49 136,93 l 37,41 21,-27 c 12,-15 38,-36 58,-46 21,-10 45,-28 55,-39 25,-28 59,-208 61,-327 2,-94 4,-103 37,-160 33,-57 39,-62 119,-97 98,-42 271,-87 370,-95 59,-5 75,-2 125,21 32,14 63,26 70,26 31,0 107,153 89,181 -3,5 -2,9 3,9 4,0 9,10 9,23 1,12 4,36 7,52 3,17 8,50 12,75 4,25 18,65 31,89 27,48 26,55 -13,145 -25,57 -25,60 -13,150 17,125 10,207 -24,283 -16,35 -33,63 -38,63 -5,0 -7,4 -4,9 4,5 2,11 -4,13 -6,2 -12,12 -14,24 -2,11 -20,51 -40,88 -24,44 -36,81 -36,107 0,21 -4,39 -9,39 -5,0 -11,10 -13,23 -2,17 -24,32 -93,66 -49,24 -112,49 -140,56 l -50,11 50,23 c 61,29 108,38 250,51 115,10 127,12 345,59 74,16 151,32 171,35 19,3 82,24 140,47 309,120 337,124 799,121 403,-2 563,7 805,48 153,25 528,63 740,74 44,2 121,11 170,19 50,9 121,18 158,22 37,3 79,10 92,15 14,5 25,8 25,5 0,-2 26,5 58,16 138,49 268,69 515,79 131,5 241,11 245,14 6,3 119,11 299,21 23,1 48,7 56,13 8,7 17,9 20,5 11,-10 8,5 -7,41 -12,28 -21,35 -55,41 -22,4 -51,14 -63,24 -39,29 -100,41 -269,51 -90,5 -193,14 -229,20 -152,24 -250,39 -329,49 -46,6 -87,13 -90,17 -3,3 9,18 27,32 88,71 102,89 102,129 0,44 -31,83 -67,83 -23,0 -107,-54 -198,-127 -33,-26 -80,-61 -105,-77 -25,-16 -65,-45 -90,-65 -49,-40 -110,-60 -183,-61 -41,0 -52,4 -75,29 l -27,30 -80,-8 c -60,-6 -171,-1 -435,20 -195,16 -425,31 -510,34 -188,7 -303,15 -297,22 14,14 324,68 512,89 28,3 54,8 58,11 11,6 164,43 202,48 40,6 285,93 304,108 8,7 17,11 20,11 3,-1 11,0 16,2 29,10 100,22 106,18 4,-2 10,0 14,6 4,6 10,8 15,5 4,-3 52,9 105,25 84,26 123,31 276,40 178,9 400,37 527,66 37,8 77,17 90,19 18,5 22,12 22,44 0,60 3,59 -240,106 -94,18 -144,32 -195,55 -53,24 -190,49 -240,44 -22,-2 -148,-7 -279,-10 -225,-6 -243,-8 -295,-31 -35,-16 -87,-28 -138,-33 -46,-4 -89,-13 -98,-20 -8,-7 -23,-14 -33,-15 -9,-1 -29,-6 -43,-12 -45,-19 -185,-24 -899,-34 -685,-9 -987,-23 -1060,-49 -42,-14 -350,-27 -350,-14 0,5 4,24 9,41 8,27 5,41 -17,82 -47,86 -133,203 -163,220 -16,9 -33,29 -39,44 -5,16 -18,31 -29,34 -21,5 -54,73 -70,144 -6,25 -19,65 -30,90 -11,24 -21,61 -21,81 0,65 -39,184 -79,245 -31,47 -40,70 -44,123 -7,71 -11,100 -33,204 l -14,69 39,61 c 21,34 53,72 72,84 20,14 33,30 31,40 -2,10 -7,45 -11,78 -5,37 -17,74 -30,93 -12,16 -35,62 -51,100 -16,39 -42,90 -58,113 -16,24 -43,72 -59,108 -34,76 -56,93 -216,168 -187,88 -356,134 -582,156 -244,24 -418,27 -506,8 z"
           inkscape:connector-curvature="0" />
      </g>
      <g
         id="layer103-2"
         style="fill:#b69682;stroke:none">
        <path
           id="path47"
           d="m 8175,4110 c -33,-4 -144,-8 -246,-9 -178,-1 -189,-2 -245,-27 -38,-17 -88,-29 -141,-34 -46,-4 -89,-13 -98,-20 -8,-7 -23,-14 -33,-15 -26,-2 -76,-25 -84,-38 -17,-27 -8,-132 16,-183 13,-28 27,-65 30,-82 4,-16 20,-51 37,-76 16,-26 29,-51 29,-56 0,-10 276,84 297,102 7,6 13,7 13,3 0,-4 6,-3 13,3 12,9 95,29 157,37 16,2 66,15 110,29 66,21 114,28 260,36 179,9 401,37 528,66 37,8 77,17 90,19 18,5 22,12 22,44 0,60 1,59 -240,106 -86,16 -180,43 -196,56 -16,13 -134,38 -200,43 -32,2 -86,0 -119,-4 z"
           inkscape:connector-curvature="0" />
        <path
           id="path49"
           d="m 8584,3581 c -33,-22 -86,-61 -119,-88 -33,-26 -80,-61 -105,-77 -25,-16 -65,-45 -90,-65 -49,-40 -110,-60 -183,-61 -42,0 -53,4 -75,30 -29,33 -45,36 -79,17 -33,-19 -81,-99 -88,-151 -8,-54 22,-128 86,-214 l 40,-53 57,5 c 31,2 98,11 147,20 50,8 121,17 158,21 37,3 79,10 92,15 14,5 25,8 25,5 0,-2 26,5 58,16 138,49 268,69 515,79 131,5 241,11 245,14 6,3 119,11 299,21 23,1 48,7 56,13 8,7 17,9 20,5 11,-10 8,5 -7,41 -12,28 -21,35 -55,41 -22,4 -51,14 -63,24 -39,29 -100,41 -269,51 -90,5 -193,14 -229,20 -152,24 -250,39 -329,49 -46,6 -87,13 -90,17 -3,3 9,18 27,32 88,71 102,89 102,129 0,44 -31,83 -67,83 -11,0 -47,-18 -79,-39 z"
           inkscape:connector-curvature="0" />
        <path
           id="path51"
           d="m 4590,2954 c -14,-10 -47,-38 -75,-64 -45,-42 -57,-48 -119,-58 -50,-8 -88,-22 -140,-53 -122,-73 -237,-129 -264,-129 -72,0 -130,-37 -178,-112 -37,-58 -31,-75 51,-148 69,-62 74,-69 94,-140 12,-41 29,-95 38,-120 9,-25 18,-82 20,-128 l 5,-83 -36,-34 c -19,-18 -45,-51 -56,-72 -25,-48 -50,-161 -43,-196 5,-24 38,-47 69,-47 25,0 97,49 136,93 l 37,41 21,-27 c 12,-15 38,-36 58,-46 21,-10 45,-28 55,-39 25,-28 59,-208 61,-327 2,-94 4,-103 37,-160 33,-57 39,-62 119,-97 98,-42 271,-87 370,-95 59,-5 75,-2 125,21 32,14 63,26 70,26 31,0 107,153 89,181 -3,5 -2,9 3,9 4,0 9,10 9,23 1,12 4,36 7,52 3,17 8,50 12,75 4,25 18,65 31,89 27,48 26,55 -13,145 -25,57 -25,60 -13,150 17,125 10,207 -24,284 -16,34 -33,62 -38,62 -5,0 -7,4 -4,9 4,5 2,11 -4,13 -6,2 -12,12 -14,24 -2,11 -20,51 -40,88 -24,44 -36,81 -36,107 0,21 -4,39 -9,39 -5,0 -12,11 -15,25 -8,33 -163,107 -262,126 l -71,13 -7,76 c -3,41 -11,91 -17,110 -11,38 -13,173 -3,258 7,56 2,61 -36,36 z"
           inkscape:connector-curvature="0" />
      </g>
    </g>
  </g>
</svg>
