<?xml version="1.0" encoding="UTF-8" standalone="no"?>
<!-- Created with Inkscape (http://www.inkscape.org/) -->

<svg
   xmlns:dc="http://purl.org/dc/elements/1.1/"
   xmlns:cc="http://creativecommons.org/ns#"
   xmlns:rdf="http://www.w3.org/1999/02/22-rdf-syntax-ns#"
   xmlns:svg="http://www.w3.org/2000/svg"
   xmlns="http://www.w3.org/2000/svg"
   xmlns:sodipodi="http://sodipodi.sourceforge.net/DTD/sodipodi-0.dtd"
   xmlns:inkscape="http://www.inkscape.org/namespaces/inkscape"
   width="1016.2657"
   height="1293.7759"
   viewBox="0 0 268.88697 342.31154"
   version="1.1"
   id="svg8"
   inkscape:version="0.92.4 (5da689c313, 2019-01-14)"
   sodipodi:docname="women_sport.svg">
  <defs
     id="defs2" />
  <sodipodi:namedview
     id="base"
     pagecolor="#ffffff"
     bordercolor="#666666"
     borderopacity="1.0"
     inkscape:pageopacity="0.0"
     inkscape:pageshadow="2"
     inkscape:zoom="0.35"
     inkscape:cx="-457.58141"
     inkscape:cy="644.0308"
     inkscape:document-units="mm"
     inkscape:current-layer="layer1"
     showgrid="false"
     units="px"
     fit-margin-left="350"
     fit-margin-right="350"
     fit-margin-bottom="100"
     fit-margin-top="100"
     inkscape:window-width="3696"
     inkscape:window-height="2115"
     inkscape:window-x="131"
     inkscape:window-y="2147"
     inkscape:window-maximized="1" />
  <metadata
     id="metadata5">
    <rdf:RDF>
      <cc:Work
         rdf:about="">
        <dc:format>image/svg+xml</dc:format>
        <dc:type
           rdf:resource="http://purl.org/dc/dcmitype/StillImage" />
        <dc:title></dc:title>
      </cc:Work>
    </rdf:RDF>
  </metadata>
  <g
     inkscape:label="Calque 1"
     inkscape:groupmode="layer"
     id="layer1"
     transform="translate(29.36611,23.07839)">
    <g
       id="g47"
       transform="matrix(0.02645833,0,0,0.02645833,-53.275232,-1.6605914)">
      <g
         id="layer101"
         style="fill:#000000;stroke:none">
        <path
           id="path10"
           d="m 6879,11107 c -19,-14 -48,-42 -64,-64 -17,-21 -49,-56 -72,-78 l -42,-40 -6,-130 c -7,-160 -21,-272 -42,-348 -15,-54 -15,-60 0,-93 l 17,-35 -44,-19 c -39,-16 -46,-25 -56,-61 -26,-94 -34,-199 -18,-224 3,-5 11,-29 17,-53 12,-42 1,-128 -28,-217 -5,-16 -14,-111 -20,-210 -6,-99 -14,-223 -17,-275 -4,-52 -11,-101 -17,-108 -5,-7 -13,-106 -17,-220 -5,-137 -13,-222 -23,-252 -8,-25 -18,-70 -22,-100 -4,-30 -18,-73 -30,-95 -22,-38 -61,-189 -91,-355 -7,-41 -23,-232 -34,-425 -19,-327 -34,-468 -59,-540 -6,-16 -19,-75 -30,-130 -10,-55 -33,-154 -51,-220 -18,-66 -39,-155 -46,-197 -8,-42 -20,-91 -28,-108 -12,-29 -13,-21 -19,103 -6,130 -14,177 -57,377 -42,196 -120,589 -135,683 -9,54 -22,200 -30,325 -14,231 -24,287 -103,607 -20,80 -24,121 -42,465 -10,188 -23,255 -80,420 -14,42 -20,92 -23,216 -3,96 -9,169 -16,182 -21,39 -41,181 -34,243 6,64 2,78 -63,214 -28,57 -41,107 -69,275 -57,329 -36,281 -198,461 -34,39 -123,48 -220,23 -66,-17 -79,-25 -146,-89 l -74,-71 7,-68 c 7,-60 12,-73 55,-124 78,-94 196,-262 244,-347 l 45,-80 5,-360 c 2,-198 0,-422 -4,-497 -16,-266 -20,-535 -10,-738 6,-113 13,-412 16,-665 5,-374 3,-490 -9,-618 -9,-87 -19,-163 -22,-169 -18,-28 -57,-201 -79,-343 -28,-192 -46,-451 -46,-681 0,-156 23,-540 37,-608 4,-16 6,-59 6,-95 -1,-53 5,-78 29,-130 17,-35 26,-67 21,-70 -28,-18 -41,-80 -43,-196 -1,-37 -2,-38 -11,-15 -6,14 -19,73 -29,132 -10,59 -29,152 -42,205 -14,54 -32,143 -42,198 -9,55 -28,145 -41,200 -33,137 -34,320 -3,391 38,89 51,179 44,304 -6,109 -5,117 17,160 14,25 37,78 53,119 26,69 27,80 22,190 -5,130 -16,166 -51,182 -44,21 -65,-7 -196,-265 l -124,-244 -7,-128 c -16,-292 -21,-438 -46,-1331 -7,-257 7,-487 39,-643 23,-111 29,-262 15,-382 -7,-59 -5,-67 10,-70 10,-2 -9,-4 -42,-5 -33,-1 -80,-8 -105,-16 -43,-12 -45,-15 -54,-61 -10,-58 13,-211 49,-326 13,-41 31,-105 39,-143 24,-104 65,-460 70,-600 7,-204 15,-220 226,-398 76,-65 118,-94 154,-104 27,-8 54,-19 61,-25 29,-24 260,-100 304,-100 38,0 51,-6 81,-34 32,-30 110,-60 95,-36 -3,5 0,7 7,4 7,-2 29,-25 48,-51 39,-52 69,-172 70,-283 0,-61 -2,-66 -28,-81 -21,-12 -35,-34 -53,-84 -14,-40 -34,-76 -50,-90 -28,-22 -69,-93 -69,-117 0,-7 -8,-29 -19,-48 -10,-19 -37,-90 -60,-158 -67,-200 -60,-273 54,-587 20,-55 45,-126 57,-158 21,-59 161,-241 217,-282 15,-11 52,-46 82,-77 35,-36 77,-67 113,-84 51,-23 66,-26 155,-22 l 98,3 73,50 c 40,28 94,64 119,81 71,48 128,108 141,150 15,48 45,101 78,136 23,25 62,142 131,393 15,55 42,130 59,166 54,111 63,221 21,234 -32,11 -69,68 -69,109 0,23 -5,39 -14,42 -17,6 -36,56 -36,92 0,16 -18,43 -54,79 -30,30 -60,69 -66,86 -22,59 -46,105 -61,117 -4,3 -15,33 -24,68 -10,34 -21,65 -25,67 -4,2 -5,35 -3,72 6,86 33,137 93,177 25,16 48,35 52,42 4,6 24,24 45,39 l 38,28 -27,-29 c -42,-45 -37,-58 19,-50 26,3 57,13 69,21 13,8 30,15 37,15 8,0 59,21 113,46 55,26 131,61 169,79 39,18 94,38 124,45 44,10 64,22 105,65 28,28 68,79 90,114 34,55 39,73 47,154 21,232 44,399 58,425 6,12 11,68 10,134 -1,98 3,128 31,228 17,63 38,133 46,155 8,23 14,57 14,77 0,20 7,44 16,52 22,22 50,180 37,209 -10,22 -91,58 -159,72 -29,6 -31,9 -31,48 0,23 6,85 14,137 8,52 18,128 23,168 5,40 11,76 14,80 2,4 7,47 10,96 4,48 10,96 15,105 12,23 33,188 31,247 -1,27 3,132 8,234 6,102 14,268 17,370 4,102 10,200 15,217 5,18 4,185 -1,372 l -9,340 -30,64 c -16,36 -30,72 -30,81 0,41 -76,210 -116,256 -24,28 -45,58 -49,68 -7,24 -46,45 -76,40 -18,-2 -31,-17 -51,-58 -30,-62 -35,-108 -14,-148 8,-15 17,-50 21,-77 5,-28 16,-74 26,-104 11,-30 19,-63 19,-73 0,-10 9,-46 20,-79 14,-40 19,-72 14,-94 -3,-19 -1,-80 5,-137 11,-97 3,-367 -14,-453 -9,-47 -15,-78 -21,-105 -3,-14 -7,-47 -9,-75 -2,-27 -8,-61 -14,-75 -13,-30 -9,72 8,185 9,66 7,561 -4,722 -4,59 -36,210 -49,232 -2,3 -7,29 -10,56 -4,28 -14,73 -22,101 -8,28 -16,64 -18,80 -3,16 -9,42 -15,57 -6,16 -11,65 -11,110 0,54 -7,102 -20,142 -30,94 -50,331 -51,625 -1,215 2,276 15,325 9,33 16,97 16,145 0,47 7,118 15,159 23,110 10,488 -25,736 -17,113 -29,332 -34,603 -4,243 -5,255 -26,277 l -22,23 35,74 c 19,40 42,97 52,125 11,36 28,63 55,85 46,40 102,112 131,170 12,24 31,56 42,72 13,19 21,50 25,97 5,76 11,65 -80,159 -49,51 -116,77 -220,86 -56,5 -67,3 -99,-19 z M 5773,5453 c -62,-2 -164,-2 -225,0 -62,1 -12,3 112,3 124,0 174,-2 113,-3 z m -370,-10 c -13,-2 -33,-2 -45,0 -13,2 -3,4 22,4 25,0 35,-2 23,-4 z m 590,0 c -13,-2 -35,-2 -50,0 -16,2 -5,4 22,4 28,0 40,-2 28,-4 z m -763,-13 c -34,-11 -60,-11 -35,0 11,5 29,8 40,8 16,0 15,-2 -5,-8 z m 858,3 c -10,-2 -28,-2 -40,0 -13,2 -5,4 17,4 22,1 32,-1 23,-4 z m 337,-16 c 11,-2 -2,-5 -30,-6 -47,-1 -48,0 -25,12 14,7 27,10 30,6 3,-4 14,-9 25,-12 z m -152,6 c -24,-2 -62,-2 -85,0 -24,2 -5,4 42,4 47,0 66,-2 43,-4 z m -1165,-27 c -16,-8 -34,-18 -40,-21 -7,-4 -2,3 12,14 14,11 32,21 40,21 8,0 3,-7 -12,-14 z m 1425,7 c -13,-2 -35,-2 -50,0 -16,2 -5,4 22,4 28,0 40,-2 28,-4 z m 568,-48 c -6,-35 -9,-41 -10,-20 -1,30 9,78 15,73 2,-2 -1,-26 -5,-53 z m -276,1 c 103,-22 189,-79 200,-133 6,-27 6,-27 -9,4 -15,33 -75,83 -123,101 -15,6 -57,17 -93,25 -36,8 -58,15 -50,15 8,1 42,-5 75,-12 z m 222,-179 c -8,-13 -17,-35 -20,-48 -2,-13 -4,-6 -3,16 1,25 7,43 16,47 23,10 23,10 7,-15 z M 4967,4998 c -2,-13 -4,-5 -4,17 -1,22 1,32 4,23 2,-10 2,-28 0,-40 z m 10,-95 c -3,-10 -5,-2 -5,17 0,19 2,27 5,18 2,-10 2,-26 0,-35 z m 17,-104 c 4,-8 0,-5 -8,5 -9,11 -16,31 -15,45 1,24 2,24 8,-5 4,-17 11,-37 15,-45 z m 39,-206 c 9,-18 17,-40 16,-50 0,-12 -3,-10 -8,7 -5,14 -15,40 -24,57 -10,18 -16,45 -16,60 1,25 2,25 8,-7 4,-19 15,-49 24,-67 z m 1944,30 c -2,-16 -4,-5 -4,22 0,28 2,40 4,28 2,-13 2,-35 0,-50 z m 10,-90 c -3,-10 -5,-2 -5,17 0,19 2,27 5,18 2,-10 2,-26 0,-35 z m -1950,-95 c -2,-13 -4,-3 -4,22 0,25 2,35 4,23 2,-13 2,-33 0,-45 z m 1970,-30 c -2,-13 -4,-5 -4,17 -1,22 1,32 4,23 2,-10 2,-28 0,-40 z m 281,-175 c -10,-2 -26,-2 -35,0 -10,3 -2,5 17,5 19,0 27,-2 18,-5 z M 6123,2733 c -18,-2 -48,-2 -65,0 -18,2 -4,4 32,4 36,0 50,-2 33,-4 z m -414,-115 c -29,-24 -71,-59 -93,-78 -63,-55 -87,-69 -31,-18 80,72 159,137 169,137 5,1 -15,-18 -45,-41 z m 809,-8 c 45,-27 40,-34 -5,-8 -47,27 -49,28 -37,28 5,0 24,-9 42,-20 z m -997,-174 c -9,-18 -18,-29 -19,-24 -4,8 24,58 32,58 2,0 -4,-15 -13,-34 z m 1119,15 c 0,-10 -6,-21 -14,-24 -11,-4 -11,-1 -2,19 13,29 16,30 16,5 z m -273,-478 c -2,-16 -4,-5 -4,22 0,28 2,40 4,28 2,-13 2,-35 0,-50 z m 93,-277 c 3,-30 2,-52 -2,-50 -4,3 -8,23 -8,45 0,22 -5,50 -11,62 -9,18 -9,20 2,10 7,-7 16,-37 19,-67 z m -920,-56 c 0,-14 -7,-20 -22,-20 -12,0 -33,-10 -47,-22 l -26,-23 24,28 c 14,15 33,27 43,27 10,0 18,7 18,15 0,8 2,15 5,15 3,0 5,-9 5,-20 z m -52,-352 -2,-83 -5,75 c -3,41 -5,78 -3,83 9,21 12,-1 10,-75 z m 39,-320 c -2,-13 -4,-3 -4,22 0,25 2,35 4,23 2,-13 2,-33 0,-45 z m 473,-153 c -24,-25 -46,-45 -49,-45 -3,0 15,20 39,45 24,25 46,45 49,45 3,0 -15,-20 -39,-45 z m -324,-67 29,-33 -32,29 c -31,28 -38,36 -30,36 2,0 16,-15 33,-32 z"
           inkscape:connector-curvature="0" />
      </g>
      <g
         id="layer102"
         style="fill:#9a00ee;stroke:none">
        <path
           id="path13"
           d="m 4859,7207 c -13,-12 -78,-129 -143,-259 l -120,-236 -7,-128 c -16,-292 -21,-438 -46,-1331 -7,-257 7,-487 39,-643 23,-111 29,-262 15,-382 -7,-59 -5,-67 10,-70 10,-2 -9,-4 -42,-5 -33,-1 -80,-8 -105,-16 -43,-12 -45,-15 -54,-61 -10,-58 13,-211 49,-326 13,-41 31,-105 39,-143 24,-104 65,-460 70,-600 7,-204 15,-220 226,-398 76,-65 118,-94 154,-104 27,-8 54,-19 61,-25 29,-24 260,-100 304,-100 38,0 51,-6 81,-34 32,-30 110,-60 95,-36 -3,5 0,7 7,4 7,-2 29,-25 48,-51 39,-52 69,-172 70,-283 0,-61 -2,-66 -28,-81 -21,-12 -35,-34 -53,-84 -14,-40 -34,-76 -50,-90 -28,-22 -69,-93 -69,-117 0,-7 -8,-29 -19,-48 -10,-19 -37,-90 -60,-158 -67,-200 -60,-273 54,-587 20,-55 45,-126 57,-158 21,-59 161,-241 217,-282 15,-11 52,-46 82,-77 35,-36 77,-67 113,-84 51,-23 66,-26 155,-22 l 98,3 73,50 c 40,28 94,64 119,81 71,48 128,108 141,150 15,48 45,101 78,136 23,25 62,142 131,393 15,55 42,130 59,166 54,111 63,221 21,234 -32,11 -69,68 -69,109 0,23 -5,39 -14,42 -17,6 -36,56 -36,92 0,16 -18,43 -54,79 -30,30 -60,69 -66,86 -22,59 -46,105 -61,117 -4,3 -15,33 -24,68 -10,34 -21,65 -25,67 -4,2 -5,35 -3,72 6,86 33,137 93,177 25,16 48,35 52,42 4,6 24,24 45,39 l 38,28 -27,-29 c -42,-45 -37,-58 19,-50 26,3 57,13 69,21 13,8 30,15 37,15 8,0 59,21 113,46 55,26 131,61 169,79 39,18 94,38 124,45 44,10 64,22 105,65 28,28 68,79 90,114 34,55 39,73 47,154 21,232 44,399 58,425 6,12 11,68 10,134 -1,98 3,128 31,228 17,63 38,133 46,155 8,23 14,57 14,77 0,20 7,44 16,52 22,22 50,180 37,209 -10,22 -91,58 -159,72 -29,6 -31,9 -31,48 0,23 6,85 14,137 8,52 18,128 23,168 5,40 11,76 14,80 2,4 7,47 10,96 4,48 10,96 15,105 12,23 33,188 31,247 -1,27 3,132 8,234 6,102 14,268 17,370 4,102 10,200 15,217 5,18 4,185 -1,372 l -9,340 -30,64 c -16,36 -30,72 -30,81 0,41 -76,210 -116,256 -24,28 -45,58 -49,68 -7,24 -46,45 -76,40 -18,-2 -31,-17 -51,-58 -30,-62 -35,-108 -14,-148 8,-15 17,-50 21,-77 5,-28 16,-74 26,-104 11,-30 19,-63 19,-73 0,-10 9,-46 20,-79 14,-40 19,-72 14,-94 -3,-19 -1,-80 5,-137 11,-97 3,-367 -14,-453 -9,-48 -15,-78 -21,-105 -3,-14 -7,-45 -9,-70 -2,-25 -15,-85 -30,-135 -15,-49 -29,-99 -32,-110 -3,-11 -11,-40 -19,-65 -7,-25 -20,-81 -28,-126 -7,-44 -24,-100 -37,-125 -13,-24 -27,-57 -30,-74 -4,-19 -6,-7 -5,32 1,74 -17,103 -91,148 -67,41 -318,90 -538,105 -88,6 -252,18 -365,27 -289,23 -718,14 -839,-17 -164,-42 -189,-76 -192,-265 -1,-37 -2,-38 -11,-15 -6,14 -19,73 -29,132 -10,59 -29,152 -42,205 -14,54 -32,143 -42,198 -9,55 -28,145 -41,200 -33,137 -34,320 -3,391 38,89 51,179 44,304 -6,105 -5,118 15,155 56,105 80,187 80,276 0,115 -15,189 -41,212 -28,23 -41,22 -70,-6 z m 108,-2209 c -2,-13 -4,-5 -4,17 -1,22 1,32 4,23 2,-10 2,-28 0,-40 z m 10,-95 c -3,-10 -5,-2 -5,17 0,19 2,27 5,18 2,-10 2,-26 0,-35 z m 17,-104 c 4,-8 0,-5 -8,5 -9,11 -16,31 -15,45 1,24 2,24 8,-5 4,-17 11,-37 15,-45 z m 39,-206 c 9,-18 17,-40 16,-50 0,-12 -3,-10 -8,7 -5,14 -15,40 -24,57 -10,18 -16,45 -16,60 1,25 2,25 8,-7 4,-19 15,-49 24,-67 z m 1944,30 c -2,-16 -4,-5 -4,22 0,28 2,40 4,28 2,-13 2,-35 0,-50 z m 10,-90 c -3,-10 -5,-2 -5,17 0,19 2,27 5,18 2,-10 2,-26 0,-35 z m -1950,-95 c -2,-13 -4,-3 -4,22 0,25 2,35 4,23 2,-13 2,-33 0,-45 z m 1970,-30 c -2,-13 -4,-5 -4,17 -1,22 1,32 4,23 2,-10 2,-28 0,-40 z m 281,-175 c -10,-2 -26,-2 -35,0 -10,3 -2,5 17,5 19,0 27,-2 18,-5 z M 6123,2733 c -18,-2 -48,-2 -65,0 -18,2 -4,4 32,4 36,0 50,-2 33,-4 z m -414,-115 c -29,-24 -71,-59 -93,-78 -63,-55 -87,-69 -31,-18 80,72 159,137 169,137 5,1 -15,-18 -45,-41 z m 809,-8 c 45,-27 40,-34 -5,-8 -47,27 -49,28 -37,28 5,0 24,-9 42,-20 z m -997,-174 c -9,-18 -18,-29 -19,-24 -4,8 24,58 32,58 2,0 -4,-15 -13,-34 z m 1119,15 c 0,-10 -6,-21 -14,-24 -11,-4 -11,-1 -2,19 13,29 16,30 16,5 z m -273,-478 c -2,-16 -4,-5 -4,22 0,28 2,40 4,28 2,-13 2,-35 0,-50 z m 93,-277 c 3,-30 2,-52 -2,-50 -4,3 -8,23 -8,45 0,22 -5,50 -11,62 -9,18 -9,20 2,10 7,-7 16,-37 19,-67 z m -920,-56 c 0,-14 -7,-20 -22,-20 -12,0 -33,-10 -47,-22 l -26,-23 24,28 c 14,15 33,27 43,27 10,0 18,7 18,15 0,8 2,15 5,15 3,0 5,-9 5,-20 z m -52,-352 -2,-83 -5,75 c -3,41 -5,78 -3,83 9,21 12,-1 10,-75 z m 39,-320 c -2,-13 -4,-3 -4,22 0,25 2,35 4,23 2,-13 2,-33 0,-45 z m 473,-153 c -24,-25 -46,-45 -49,-45 -3,0 15,20 39,45 24,25 46,45 49,45 3,0 -15,-20 -39,-45 z m -324,-67 29,-33 -32,29 c -31,28 -38,36 -30,36 2,0 16,-15 33,-32 z"
           inkscape:connector-curvature="0" />
      </g>
      <g
         id="layer103"
         style="fill:#d0c201;stroke:none">
        <path
           id="path16"
           d="m 7182,7148 c -20,-26 -52,-111 -52,-140 0,-16 6,-41 14,-56 8,-15 17,-50 21,-77 5,-28 16,-74 26,-104 11,-30 19,-63 19,-73 0,-10 9,-46 20,-79 14,-40 19,-72 14,-94 -3,-19 -1,-80 5,-137 11,-97 3,-367 -14,-453 -9,-48 -15,-78 -21,-105 -3,-14 -7,-45 -9,-70 -2,-25 -15,-85 -30,-135 -15,-49 -29,-99 -32,-110 -3,-11 -11,-40 -19,-65 -7,-25 -20,-82 -28,-127 -8,-45 -26,-104 -40,-130 -17,-31 -29,-75 -35,-123 -5,-41 -18,-111 -31,-155 -19,-69 -21,-95 -16,-195 4,-64 11,-142 17,-175 5,-33 14,-100 19,-148 6,-49 14,-96 19,-105 14,-26 301,-70 332,-52 6,4 12,23 12,41 0,19 6,79 14,134 8,55 18,133 23,173 5,40 11,76 14,80 2,4 7,47 10,96 4,48 10,96 15,105 12,23 33,188 31,247 -1,27 3,132 8,234 6,102 14,268 17,370 4,102 10,200 15,217 5,18 4,185 -1,372 l -9,340 -30,64 c -16,36 -30,72 -30,81 0,42 -76,210 -117,257 -24,28 -43,55 -43,59 0,5 -10,18 -22,30 -24,22 -70,27 -86,8 z"
           inkscape:connector-curvature="0" />
        <path
           id="path18"
           d="m 5940,2706 c -180,-50 -185,-52 -261,-114 -154,-127 -163,-139 -179,-221 -9,-49 -8,-54 16,-79 14,-15 33,-40 44,-57 22,-37 50,-180 50,-261 0,-54 -2,-60 -28,-75 -21,-12 -35,-34 -53,-84 -14,-40 -34,-76 -50,-90 -28,-22 -69,-93 -69,-117 0,-7 -8,-29 -19,-48 -10,-19 -37,-90 -60,-158 -67,-200 -60,-273 54,-587 20,-55 45,-126 57,-158 21,-59 161,-241 217,-282 15,-11 52,-46 82,-77 35,-36 77,-67 113,-84 51,-23 66,-26 155,-22 l 98,3 73,50 c 40,28 94,64 119,81 71,48 128,108 141,150 15,48 45,101 78,136 23,25 62,142 131,393 15,55 42,130 59,166 54,111 63,221 21,234 -32,11 -69,68 -69,109 0,23 -5,39 -14,42 -17,6 -36,56 -36,92 0,16 -18,43 -54,79 -30,30 -60,69 -66,86 -22,59 -46,105 -61,117 -4,3 -15,33 -24,68 -10,34 -21,65 -25,67 -4,2 -5,35 -3,72 6,81 33,137 83,171 19,13 55,41 80,62 25,22 56,48 69,58 24,18 24,21 11,66 -10,38 -22,53 -57,77 -61,43 -163,87 -247,109 -39,10 -88,26 -108,34 -54,23 -166,20 -268,-8 z m 427,-733 c -2,-16 -4,-5 -4,22 0,28 2,40 4,28 2,-13 2,-35 0,-50 z m 93,-277 c 3,-30 2,-52 -2,-50 -4,3 -8,23 -8,45 0,22 -5,50 -11,62 -9,18 -9,20 2,10 7,-7 16,-37 19,-67 z m -920,-56 c 0,-14 -7,-20 -22,-20 -12,0 -33,-10 -47,-22 l -26,-23 24,28 c 14,15 33,27 43,27 10,0 18,7 18,15 0,8 2,15 5,15 3,0 5,-9 5,-20 z m -52,-352 -2,-83 -5,75 c -3,41 -5,78 -3,83 9,21 12,-1 10,-75 z m 39,-320 c -2,-13 -4,-3 -4,22 0,25 2,35 4,23 2,-13 2,-33 0,-45 z m 473,-153 c -24,-25 -46,-45 -49,-45 -3,0 15,20 39,45 24,25 46,45 49,45 3,0 -15,-20 -39,-45 z m -324,-67 29,-33 -32,29 c -31,28 -38,36 -30,36 2,0 16,-15 33,-32 z"
           inkscape:connector-curvature="0" />
      </g>
      <g
         id="layer104"
         style="fill:#b69682;stroke:none">
        <path
           id="path21"
           d="m 4859,7207 c -13,-12 -78,-129 -143,-259 l -120,-236 -7,-128 c -16,-292 -21,-436 -46,-1331 -6,-249 8,-493 38,-642 28,-137 33,-213 20,-335 -6,-60 -9,-112 -6,-114 5,-5 45,-1 325,32 l 105,12 -2,29 c -1,17 3,97 8,178 8,140 8,150 -12,188 -16,33 -19,51 -13,95 5,44 2,61 -15,95 -12,23 -21,53 -19,68 1,14 -1,67 -6,117 -7,79 -6,95 9,118 15,23 16,33 7,64 -6,20 -16,69 -22,107 -6,39 -24,126 -40,195 -16,69 -36,168 -46,220 -9,52 -27,140 -40,195 -33,137 -34,320 -3,391 38,89 51,179 44,304 -6,105 -5,118 15,155 56,105 80,187 80,276 0,115 -15,189 -41,212 -28,23 -41,22 -70,-6 z"
           inkscape:connector-curvature="0" />
        <path
           id="path23"
           d="m 7176,7138 c -9,-12 -16,-29 -16,-38 0,-8 -7,-24 -15,-34 -19,-25 -19,-79 -1,-114 8,-15 17,-50 21,-77 5,-28 16,-74 26,-104 11,-30 19,-64 19,-76 0,-13 7,-40 16,-60 19,-46 29,-224 26,-450 -2,-138 -15,-259 -37,-355 -4,-14 -8,-45 -10,-70 -2,-25 -15,-85 -30,-135 -15,-49 -29,-99 -32,-110 -3,-11 -11,-40 -19,-65 -7,-25 -20,-82 -28,-127 -8,-45 -26,-104 -40,-130 -17,-31 -29,-75 -35,-123 -5,-41 -18,-111 -31,-155 -19,-69 -21,-95 -16,-195 4,-64 11,-142 17,-175 5,-33 14,-100 19,-148 6,-49 14,-96 19,-105 14,-26 301,-70 332,-52 6,4 12,23 12,41 0,19 6,79 14,134 8,55 18,133 23,173 5,40 11,76 14,80 2,4 7,47 10,96 4,48 10,96 15,105 12,23 33,188 31,247 -1,27 3,132 8,234 6,102 14,268 17,370 4,102 10,200 15,217 5,18 4,185 -1,372 l -9,340 -30,64 c -16,36 -30,72 -30,81 0,42 -76,210 -117,257 -24,28 -43,55 -43,59 0,5 -10,18 -22,30 -29,27 -73,26 -92,-2 z"
           inkscape:connector-curvature="0" />
        <path
           id="path25"
           d="m 5940,2706 c -180,-50 -185,-52 -261,-114 -154,-127 -163,-139 -179,-221 -9,-49 -8,-54 16,-79 14,-15 33,-40 44,-57 26,-42 50,-184 50,-295 0,-83 -4,-103 -35,-181 -19,-49 -35,-100 -35,-114 0,-20 -5,-25 -23,-25 -85,0 -162,-263 -84,-284 15,-4 27,1 39,17 17,21 18,20 18,-58 0,-44 9,-127 20,-185 11,-58 20,-119 20,-136 0,-19 9,-39 24,-53 14,-13 30,-37 37,-54 21,-53 99,-138 146,-159 53,-23 117,-17 161,16 43,32 147,147 165,182 46,89 123,137 302,188 l 110,31 30,62 c 32,67 46,76 62,40 9,-20 13,-14 32,49 25,83 26,124 7,185 -8,24 -17,55 -20,69 -3,16 -23,35 -53,54 -64,39 -83,64 -83,109 0,24 -16,72 -46,133 -52,106 -49,74 -28,309 7,83 34,139 84,173 19,13 55,41 80,62 25,22 56,48 69,58 24,18 24,21 11,66 -10,38 -22,53 -57,77 -61,43 -163,87 -247,109 -39,10 -88,26 -108,34 -54,23 -166,20 -268,-8 z"
           inkscape:connector-curvature="0" />
      </g>
    </g>
  </g>
</svg>
