<?xml version="1.0" encoding="UTF-8" standalone="no"?>
<!-- Created with Inkscape (http://www.inkscape.org/) -->

<svg
   xmlns:dc="http://purl.org/dc/elements/1.1/"
   xmlns:cc="http://creativecommons.org/ns#"
   xmlns:rdf="http://www.w3.org/1999/02/22-rdf-syntax-ns#"
   xmlns:svg="http://www.w3.org/2000/svg"
   xmlns="http://www.w3.org/2000/svg"
   xmlns:sodipodi="http://sodipodi.sourceforge.net/DTD/sodipodi-0.dtd"
   xmlns:inkscape="http://www.inkscape.org/namespaces/inkscape"
   width="1255.4128"
   height="1532.8221"
   viewBox="0 0 332.16133 405.55919"
   version="1.1"
   id="svg8"
   inkscape:version="0.92.4 (5da689c313, 2019-01-14)"
   sodipodi:docname="high_knee.svg">
  <defs
     id="defs2" />
  <sodipodi:namedview
     id="base"
     pagecolor="#ffffff"
     bordercolor="#666666"
     borderopacity="1.0"
     inkscape:pageopacity="0.0"
     inkscape:pageshadow="2"
     inkscape:zoom="0.35"
     inkscape:cx="-172.19291"
     inkscape:cy="731.20192"
     inkscape:document-units="px"
     inkscape:current-layer="layer1"
     showgrid="false"
     inkscape:pagecheckerboard="true"
     fit-margin-top="100"
     fit-margin-left="100"
     fit-margin-right="100"
     fit-margin-bottom="100"
     units="px"
     inkscape:window-width="3696"
     inkscape:window-height="2115"
     inkscape:window-x="131"
     inkscape:window-y="2147"
     inkscape:window-maximized="1" />
  <metadata
     id="metadata5">
    <rdf:RDF>
      <cc:Work
         rdf:about="">
        <dc:format>image/svg+xml</dc:format>
        <dc:type
           rdf:resource="http://purl.org/dc/dcmitype/StillImage" />
        <dc:title></dc:title>
      </cc:Work>
    </rdf:RDF>
  </metadata>
  <g
     inkscape:label="Calque 1"
     inkscape:groupmode="layer"
     id="layer1"
     transform="translate(104.87515,63.262008)">
    <g
       id="g39"
       transform="matrix(0.02645833,0,0,0.02645833,-172.63493,-13.176364)">
      <g
         id="layer101"
         style="fill:#000000;stroke:none">
        <path
           id="path10"
           d="m 6460,12415 c -47,-13 -112,-24 -145,-25 -99,-2 -186,-23 -237,-58 -40,-27 -61,-33 -169,-48 -68,-9 -161,-25 -206,-35 -45,-10 -108,-19 -140,-19 -72,-1 -275,-25 -324,-40 -24,-7 -45,-23 -64,-49 -27,-40 -27,-40 -20,-163 6,-100 12,-132 31,-170 18,-36 24,-64 24,-116 0,-38 9,-111 19,-163 22,-105 25,-175 22,-494 -2,-177 -6,-240 -23,-320 -18,-89 -20,-120 -14,-275 16,-391 51,-635 118,-823 105,-295 121,-353 148,-552 18,-125 5,-588 -21,-795 -22,-177 -30,-221 -69,-380 -16,-63 -36,-153 -45,-200 -20,-108 -75,-271 -95,-281 -8,-4 -73,-24 -145,-44 -227,-63 -322,-135 -476,-355 -88,-126 -149,-261 -149,-328 0,-11 -5,-22 -10,-24 -7,-2 -13,-55 -15,-131 -2,-71 -8,-134 -13,-140 -5,-7 -10,-48 -11,-92 -1,-44 -4,-94 -7,-111 -3,-16 2,-68 10,-113 9,-46 16,-111 16,-145 0,-33 4,-88 9,-121 5,-33 12,-99 16,-147 l 7,-87 -39,-25 c -21,-14 -82,-75 -137,-136 -54,-60 -158,-163 -232,-227 -73,-64 -159,-149 -191,-188 -32,-38 -90,-107 -130,-152 -85,-95 -131,-187 -168,-333 l -24,-97 19,-112 c 15,-87 26,-124 49,-160 16,-25 59,-129 94,-231 35,-102 84,-234 109,-295 25,-60 58,-148 73,-195 62,-188 179,-427 272,-558 46,-65 93,-152 93,-173 0,-17 88,-148 152,-227 45,-54 75,-80 119,-102 32,-17 63,-39 69,-50 12,-22 146,-90 179,-90 17,0 21,-6 21,-29 0,-16 4,-31 9,-33 10,-3 66,-130 88,-198 8,-25 39,-144 69,-265 74,-296 147,-532 199,-635 23,-47 79,-145 124,-219 45,-74 84,-146 88,-160 12,-54 46,-103 146,-218 191,-217 177,-206 297,-232 80,-17 127,-22 200,-19 100,4 295,34 320,49 8,5 25,13 37,19 66,28 174,116 242,195 l 73,87 -1,59 c 0,38 6,75 19,105 12,27 20,68 20,102 0,31 11,98 24,148 25,94 26,148 5,212 -6,19 -12,100 -14,180 -2,119 -6,157 -23,202 -38,102 -61,145 -102,190 -58,63 -114,147 -134,200 -18,49 -25,55 -127,110 -124,66 -197,190 -192,325 4,83 18,99 102,110 20,3 66,9 102,13 50,7 86,20 144,53 92,52 116,74 178,166 42,61 50,83 78,208 55,245 56,257 45,415 -8,121 -6,163 8,255 9,61 30,200 47,310 17,110 33,221 36,247 6,51 24,70 77,80 51,10 184,-42 243,-95 21,-18 54,-43 73,-55 19,-11 51,-37 69,-56 20,-20 45,-36 57,-36 21,0 23,-5 27,-92 3,-60 13,-124 30,-178 14,-47 32,-116 41,-155 14,-61 69,-191 87,-205 10,-8 59,-128 59,-145 0,-19 21,-15 37,6 9,12 20,132 13,149 -2,3 -4,14 -6,25 -2,11 -13,58 -24,104 -11,47 -19,90 -18,97 5,19 137,-64 185,-115 22,-25 76,-84 120,-131 43,-47 98,-113 123,-148 48,-66 81,-85 107,-60 29,30 60,140 62,228 2,47 6,87 10,90 4,3 7,34 8,70 1,43 -1,56 -6,40 -6,-20 -8,-14 -13,31 -6,58 -67,259 -94,311 -8,16 -52,54 -97,84 -45,31 -111,76 -147,100 -36,24 -77,54 -91,66 -15,13 -52,41 -83,63 -32,23 -56,47 -56,57 0,10 -4,18 -9,18 -5,0 -31,32 -56,70 -36,54 -58,76 -90,91 -24,11 -46,27 -49,35 -3,7 -38,35 -78,60 -40,26 -104,76 -143,112 -38,35 -88,76 -110,90 -22,14 -62,47 -90,73 -28,27 -68,55 -87,64 -20,8 -58,27 -85,43 -47,27 -148,52 -213,52 -48,0 -138,-29 -159,-51 -18,-20 -19,-19 -26,38 -4,32 -9,114 -10,183 -1,69 -5,134 -9,146 -3,12 1,51 9,88 11,47 16,118 16,234 0,253 -1,241 20,247 10,4 23,3 29,0 5,-3 10,-2 10,3 0,11 77,35 89,27 5,-3 11,-1 13,4 1,5 35,18 73,29 39,11 133,38 210,61 77,22 217,63 310,91 94,27 188,56 210,64 22,8 53,15 69,16 15,0 67,13 115,29 47,15 111,34 141,41 168,39 275,80 375,147 182,120 203,143 232,248 8,33 11,77 7,130 -3,44 -1,112 4,150 10,73 2,166 -23,290 -19,90 -107,427 -150,575 -19,63 -59,250 -90,415 l -56,300 1,210 v 210 l -47,25 c -28,15 -47,31 -46,40 1,8 7,35 12,60 6,25 10,91 11,146 0,61 8,143 20,204 12,56 20,109 19,118 -14,98 80,395 150,474 17,19 65,100 107,179 72,137 155,259 192,284 9,6 45,22 78,34 46,17 76,37 120,81 60,61 134,171 134,200 0,26 -51,67 -99,80 -24,6 -60,25 -80,40 -45,36 -119,54 -191,45 -30,-4 -90,-7 -132,-7 -73,1 -80,-1 -125,-33 -26,-19 -76,-48 -110,-64 -35,-16 -84,-45 -109,-63 -46,-33 -212,-197 -276,-273 -48,-57 -184,-185 -318,-300 -144,-123 -170,-160 -170,-237 0,-115 32,-202 135,-362 l 36,-57 -2,-172 c -2,-194 -17,-329 -47,-432 -12,-38 -26,-122 -33,-185 -6,-63 -16,-124 -22,-135 -6,-11 -14,-112 -18,-225 -5,-113 -13,-248 -18,-300 -5,-52 -8,-176 -6,-275 3,-144 8,-193 24,-245 31,-100 82,-292 79,-296 -4,-4 -582,83 -640,97 -42,10 -47,14 -54,47 -4,20 -8,66 -9,102 -3,88 -14,205 -25,263 -6,26 -10,67 -10,91 0,24 -7,65 -15,92 -8,27 -15,60 -15,74 0,15 -4,30 -9,35 -4,6 -13,42 -20,82 -6,40 -22,107 -35,150 -57,187 -75,278 -81,408 -9,189 -15,271 -25,302 -34,113 -105,295 -139,356 -22,39 -49,97 -61,127 -11,30 -25,64 -29,75 -5,11 -14,61 -21,110 -6,50 -20,120 -31,157 -19,64 -55,232 -84,392 -16,87 -21,107 -40,151 -90,214 -95,228 -120,379 -9,54 -24,117 -32,140 -8,23 -18,79 -23,126 -5,47 -13,121 -19,165 -5,44 -13,165 -16,269 l -7,188 68,64 c 102,96 283,179 500,229 97,22 175,68 245,143 86,92 119,147 119,202 0,49 -26,102 -60,120 -41,22 -141,20 -230,-5 z M 4650,4951 c -15,-47 -8,-106 16,-132 20,-22 35,-195 22,-244 -4,-16 -8,-45 -8,-64 0,-19 -7,-42 -15,-51 -9,-10 -18,-30 -21,-45 -3,-15 -15,-53 -28,-84 -36,-85 -46,-126 -56,-240 -9,-102 -24,-142 -48,-127 -24,15 -127,175 -169,263 -49,105 -57,144 -57,280 0,89 1,92 35,135 20,23 54,70 76,104 23,33 57,74 76,91 20,17 42,45 51,61 9,17 31,39 49,51 18,11 42,30 52,41 28,31 41,10 25,-39 z"
           inkscape:connector-curvature="0" />
      </g>
      <g
         id="layer102"
         style="fill:#ff4466;stroke:none">
        <path
           id="path13"
           d="m 4437,6383 c -3,-5 -5,-44 -6,-88 -1,-44 -4,-94 -7,-111 -3,-16 2,-68 10,-113 9,-46 16,-111 16,-145 0,-33 4,-88 9,-121 5,-33 12,-99 16,-147 l 7,-87 -39,-25 c -21,-14 -82,-75 -137,-136 -54,-60 -158,-163 -232,-227 -73,-64 -159,-149 -191,-188 -32,-38 -90,-107 -130,-152 -85,-95 -131,-187 -168,-333 l -24,-97 19,-112 c 15,-87 26,-124 49,-160 16,-25 59,-129 94,-231 35,-102 84,-234 109,-295 25,-60 58,-148 73,-195 62,-188 179,-427 272,-558 46,-65 93,-152 93,-173 0,-17 88,-148 152,-227 45,-54 75,-80 119,-102 32,-17 63,-39 69,-49 17,-32 128,-82 200,-91 36,-4 100,-15 144,-24 61,-13 87,-14 118,-5 27,7 49,7 67,1 14,-6 49,-16 76,-23 101,-25 167,-70 222,-149 13,-19 34,-49 47,-67 28,-38 38,-111 37,-263 -1,-124 -9,-196 -26,-230 -7,-14 -15,-42 -19,-64 -4,-21 -18,-59 -31,-85 -49,-96 -65,-143 -65,-185 0,-47 24,-116 40,-116 6,0 10,-7 10,-15 0,-20 77,-20 140,-1 25,7 73,17 107,21 l 62,7 50,-158 c 28,-87 51,-176 51,-198 0,-42 21,-158 30,-166 3,-3 10,-13 15,-23 6,-10 39,-29 75,-41 36,-13 83,-31 105,-39 30,-12 79,-16 204,-17 151,0 166,2 200,22 42,25 71,53 71,68 0,5 5,10 11,10 36,0 139,121 139,163 0,8 11,40 25,71 17,39 25,75 25,114 0,31 11,98 24,148 25,94 26,148 5,212 -6,19 -12,100 -14,180 -2,119 -6,157 -23,202 -38,102 -61,145 -102,190 -58,63 -114,147 -134,200 -18,49 -25,55 -127,110 -124,66 -197,190 -192,325 4,83 18,99 102,110 20,3 66,9 102,13 50,7 86,20 144,53 92,52 116,74 178,166 42,61 50,83 78,208 55,245 56,257 45,415 -8,121 -6,163 8,255 9,61 30,200 47,310 17,110 33,221 36,247 6,51 24,70 77,80 51,10 184,-42 243,-95 21,-18 54,-43 73,-55 19,-11 51,-37 69,-56 20,-20 45,-36 57,-36 21,0 23,-5 27,-92 3,-60 13,-124 30,-178 14,-47 32,-116 41,-155 14,-61 69,-191 87,-205 10,-8 59,-128 59,-145 0,-19 21,-15 37,6 9,12 20,132 13,149 -2,3 -4,14 -6,25 -2,11 -13,58 -24,104 -11,47 -19,90 -18,97 5,19 137,-64 185,-115 22,-25 76,-84 120,-131 43,-47 98,-113 123,-148 48,-66 81,-85 107,-60 29,30 60,140 62,228 2,47 6,87 10,90 4,3 7,34 8,70 1,43 -1,56 -6,40 -6,-20 -8,-14 -13,31 -6,58 -67,259 -94,311 -8,16 -52,54 -97,84 -45,31 -111,76 -147,100 -36,24 -77,54 -91,66 -15,13 -52,41 -83,63 -32,23 -56,47 -56,57 0,10 -4,18 -9,18 -5,0 -31,32 -56,70 -36,54 -58,76 -90,91 -24,11 -46,27 -49,35 -3,7 -38,35 -78,60 -40,26 -104,76 -143,112 -38,35 -88,76 -110,90 -22,14 -62,47 -90,73 -28,27 -68,55 -87,64 -20,8 -58,27 -85,43 -47,27 -148,52 -213,52 -48,0 -138,-29 -159,-51 -18,-19 -18,-19 -26,33 -4,29 -8,114 -10,190 -1,75 -6,141 -9,147 -4,6 0,46 10,88 13,59 16,105 12,204 -3,70 -2,149 3,175 11,56 3,94 -20,94 -9,0 -38,-9 -66,-19 -51,-19 -311,-75 -399,-85 -27,-3 -54,-10 -60,-15 -16,-13 -218,-53 -247,-49 -16,2 -25,10 -27,27 -4,24 -19,40 -106,106 -28,21 -56,43 -64,49 -8,6 -39,34 -70,63 -30,28 -83,66 -118,84 -61,31 -67,32 -146,26 -48,-4 -85,-12 -89,-19 -6,-9 -10,-7 -15,7 -13,32 -55,66 -124,98 -36,17 -83,45 -104,63 -21,19 -62,41 -90,50 -52,17 -157,64 -166,75 -24,30 -160,54 -173,32 z m 213,-1432 c -15,-47 -8,-106 16,-132 20,-22 35,-195 22,-244 -4,-16 -8,-45 -8,-64 0,-19 -7,-42 -15,-51 -9,-10 -18,-30 -21,-45 -3,-15 -15,-53 -28,-84 -36,-85 -46,-126 -56,-240 -9,-102 -24,-142 -48,-127 -24,15 -127,175 -169,263 -49,105 -57,144 -57,280 0,89 1,92 35,135 20,23 54,70 76,104 23,33 57,74 76,91 20,17 42,45 51,61 9,17 31,39 49,51 18,11 42,30 52,41 28,31 41,10 25,-39 z"
           inkscape:connector-curvature="0" />
      </g>
      <g
         id="layer103"
         style="fill:#b69581;stroke:none">
        <path
           id="path16"
           d="m 5145,6073 c -16,-3 -32,-8 -35,-12 -3,-4 -37,-26 -76,-49 -39,-22 -76,-48 -84,-56 -7,-9 -36,-29 -64,-46 -60,-34 -106,-81 -106,-109 0,-10 -19,-35 -41,-56 l -41,-37 6,-62 c 9,-74 61,-177 112,-220 19,-15 46,-51 60,-78 20,-39 34,-54 65,-66 21,-8 39,-19 39,-23 0,-16 115,-42 175,-41 59,2 176,23 244,44 39,12 181,104 181,117 0,18 -52,41 -93,41 -23,0 -69,-7 -100,-15 -76,-20 -101,-20 -93,1 3,9 6,21 6,29 0,14 108,69 159,80 54,12 158,61 201,96 39,32 40,34 40,96 0,71 4,66 -104,148 -28,21 -56,43 -64,49 -8,6 -39,34 -69,62 -80,75 -161,114 -232,113 -31,-1 -69,-4 -86,-6 z"
           inkscape:connector-curvature="0" />
        <path
           id="path18"
           d="m 7670,4261 c -70,-25 -113,-56 -150,-108 -19,-26 -38,-51 -44,-55 -5,-4 -10,-64 -10,-140 0,-116 3,-144 26,-218 14,-47 33,-116 42,-155 14,-61 69,-191 87,-205 10,-8 59,-128 59,-145 0,-19 21,-15 37,6 9,12 20,132 13,149 -2,3 -4,14 -6,25 -2,11 -13,58 -24,104 -11,47 -19,90 -18,97 5,19 137,-64 185,-115 22,-25 76,-84 120,-131 43,-47 98,-113 123,-148 48,-66 81,-85 107,-60 29,30 60,140 62,228 2,47 6,87 10,90 4,3 7,34 8,70 1,43 -1,56 -6,40 -6,-20 -8,-14 -13,31 -6,58 -67,259 -94,311 -8,16 -52,54 -97,84 -45,31 -111,76 -147,100 -36,24 -76,53 -90,64 -41,35 -104,81 -120,90 -8,4 -35,0 -60,-9 z"
           inkscape:connector-curvature="0" />
        <path
           id="path20"
           d="m 5905,2621 c -11,-5 -42,-10 -68,-10 -50,-1 -117,-23 -117,-39 0,-6 -16,-13 -35,-16 -48,-9 -137,-50 -198,-91 -28,-19 -55,-35 -59,-35 -12,0 -209,-133 -261,-175 -9,-8 -22,-15 -27,-15 -6,0 -10,-11 -10,-25 0,-19 7,-26 28,-31 150,-34 216,-73 279,-164 13,-19 34,-49 47,-67 28,-38 38,-111 37,-263 -1,-124 -9,-196 -26,-230 -7,-14 -15,-42 -19,-64 -4,-21 -18,-59 -31,-85 -49,-96 -65,-143 -65,-185 0,-47 24,-116 40,-116 6,0 10,-7 10,-15 0,-20 77,-20 140,-1 25,7 73,17 107,21 l 62,7 50,-158 c 28,-87 51,-176 51,-198 0,-42 21,-158 30,-166 3,-3 10,-13 15,-23 6,-10 39,-29 75,-41 36,-13 83,-31 105,-39 30,-12 79,-16 204,-17 151,0 166,2 200,22 42,25 71,53 71,68 0,5 5,10 11,10 36,0 139,121 139,163 0,8 11,40 25,71 17,39 25,75 25,114 0,31 11,98 24,148 25,94 26,148 5,212 -6,19 -12,100 -14,180 -2,119 -6,157 -23,202 -38,102 -61,145 -102,190 -58,63 -114,147 -134,200 -18,49 -25,55 -127,110 -126,67 -199,193 -191,330 5,83 1,113 -19,159 -14,33 -28,51 -43,55 -45,11 -191,16 -211,7 z"
           inkscape:connector-curvature="0" />
      </g>
    </g>
    <g
       id="g76"
       transform="matrix(0.02645833,0,0,0.02645833,-38.4613,-42.474921)">
      <g
         id="layer101-9"
         style="fill:#000000;stroke:none">
        <path
           id="path41"
           d="m 6101,13209 c -86,-8 -182,-46 -228,-89 -11,-9 -24,-19 -30,-21 -37,-14 -131,-103 -288,-273 -44,-48 -99,-100 -122,-116 -39,-28 -42,-33 -48,-92 -5,-48 -1,-94 18,-193 31,-156 42,-335 28,-426 -6,-37 -25,-111 -42,-165 -16,-55 -34,-121 -40,-148 -5,-27 -16,-63 -25,-80 -8,-17 -17,-53 -20,-81 -3,-27 -12,-59 -19,-70 -8,-11 -22,-30 -31,-43 -12,-16 -19,-59 -25,-150 -5,-70 -14,-185 -20,-257 -17,-199 -23,-624 -10,-771 7,-86 22,-174 46,-264 57,-219 62,-242 75,-316 15,-82 3,-194 -31,-292 -11,-31 -28,-102 -39,-157 -10,-55 -35,-163 -55,-240 -20,-77 -63,-248 -96,-380 -33,-132 -68,-253 -78,-270 -9,-16 -25,-52 -36,-80 -10,-27 -43,-97 -73,-155 -79,-150 -182,-369 -182,-388 0,-4 -20,-70 -45,-147 -51,-156 -78,-298 -95,-485 -11,-125 -8,-363 6,-410 4,-14 3,-21 -2,-17 -5,5 -18,-19 -29,-53 -16,-48 -20,-83 -19,-168 1,-59 7,-127 13,-152 16,-70 14,-138 -7,-168 -22,-31 -36,-63 -33,-75 1,-4 -4,-7 -11,-5 -30,7 -106,-53 -159,-124 -87,-116 -95,-128 -164,-230 -36,-54 -71,-98 -76,-98 -6,0 -8,-4 -5,-9 3,-5 -1,-12 -10,-15 -9,-4 -14,-9 -11,-13 8,-7 -20,-48 -33,-48 -6,0 -10,-4 -11,-10 0,-14 -40,-55 -53,-55 -19,-1 -182,-221 -171,-231 1,-2 -28,-49 -65,-104 -138,-202 -184,-331 -170,-483 8,-91 49,-251 82,-315 10,-21 16,-42 13,-47 -3,-6 -2,-10 3,-10 14,0 29,-45 51,-153 21,-102 47,-171 61,-162 16,10 117,-251 113,-292 0,-7 3,-11 7,-8 5,3 22,-30 40,-72 146,-357 390,-799 490,-888 13,-11 53,-56 90,-100 52,-62 83,-89 138,-119 39,-21 69,-42 67,-46 -9,-15 43,-27 125,-29 89,-2 127,-11 47,-11 -26,0 -47,-3 -47,-6 0,-17 24,-45 57,-65 41,-23 103,-84 103,-99 0,-5 28,-42 63,-82 151,-177 144,-165 181,-310 42,-161 114,-397 151,-493 15,-38 36,-103 46,-143 16,-60 32,-90 84,-159 76,-99 81,-107 89,-153 4,-19 21,-84 39,-145 l 32,-110 140,-142 c 97,-98 154,-148 185,-162 52,-23 148,-39 310,-52 172,-14 277,3 372,59 44,26 198,166 198,181 0,3 31,41 70,84 38,42 73,90 77,105 3,15 15,47 26,71 14,31 17,56 13,90 -6,44 -6,208 -2,359 1,40 -1,75 -6,78 -5,3 -6,10 -3,15 4,5 2,9 -4,9 -16,0 -29,89 -31,210 -2,138 -5,166 -20,185 -7,8 -9,15 -4,15 5,0 5,4 -1,8 -5,4 -19,24 -29,44 -11,21 -23,38 -28,38 -5,0 -6,5 -3,10 3,6 1,10 -5,10 -6,0 -8,5 -5,10 3,6 2,10 -4,10 -5,0 -15,16 -21,36 -7,20 -30,52 -51,72 -21,21 -39,41 -39,46 0,11 -97,116 -127,136 -117,81 -183,133 -183,145 0,8 -5,15 -11,15 -6,0 -9,9 -6,20 3,11 1,20 -3,20 -5,0 -9,8 -9,18 0,9 -3,44 -6,77 -6,67 -3,73 40,95 16,9 36,27 43,40 13,23 13,24 9,3 -6,-26 0,-27 58,-12 22,6 74,19 115,29 157,39 211,64 268,127 99,108 118,144 183,359 43,143 64,232 74,314 21,172 24,391 5,415 -32,43 -6,488 35,600 21,56 26,60 59,66 30,5 41,1 64,-20 15,-14 62,-53 106,-86 160,-122 177,-137 182,-150 3,-8 11,-12 17,-10 21,7 57,-52 68,-112 15,-80 50,-182 99,-288 23,-49 49,-108 58,-129 9,-22 45,-96 79,-166 76,-159 112,-189 161,-137 23,24 30,81 12,92 -5,3 -6,13 -3,22 5,12 3,14 -7,8 -10,-6 -12,-4 -7,8 4,10 2,17 -4,17 -6,0 -9,7 -5,15 3,8 1,15 -5,15 -6,0 -7,5 -4,10 3,5 1,10 -5,10 -6,0 -8,4 -5,10 3,5 1,10 -4,10 -6,0 -10,3 -9,8 6,15 -34,102 -44,96 -6,-4 -8,2 -3,16 5,15 4,20 -4,16 -7,-4 -11,1 -11,13 0,24 2,25 55,10 68,-18 222,-190 286,-319 53,-106 99,-131 99,-55 0,20 6,35 15,39 8,3 15,18 15,34 0,16 8,53 17,83 13,41 17,95 17,229 l 1,175 -32,49 c -18,27 -33,57 -33,65 0,9 -7,25 -15,35 -8,10 -12,23 -8,29 3,6 2,7 -4,4 -5,-3 -17,7 -27,23 -22,38 -124,117 -174,134 -22,8 -61,31 -87,51 -26,20 -60,42 -75,50 -25,13 -56,65 -75,123 -4,13 -9,21 -12,18 -3,-3 -19,14 -35,37 -48,67 -267,275 -333,314 -103,63 -288,213 -261,213 14,0 -17,31 -46,46 -40,21 -35,10 8,-16 19,-12 33,-24 31,-27 -3,-2 -26,9 -53,25 -286,170 -326,185 -411,148 -27,-12 -63,-31 -80,-43 -17,-13 -38,-23 -46,-23 -17,0 -28,43 -20,81 3,15 0,30 -6,33 -13,9 -15,135 -2,168 5,13 24,102 41,198 38,204 57,249 136,313 l 54,45 -158,138 c -181,159 -285,254 -277,254 4,0 30,-22 58,-49 29,-26 115,-103 192,-171 77,-67 154,-135 172,-151 37,-33 54,-30 128,20 49,33 143,66 235,81 36,6 106,24 155,40 50,16 146,43 215,60 71,18 196,61 290,100 91,38 244,99 340,135 289,111 450,203 503,286 11,16 24,26 30,22 7,-3 9,-3 5,2 -10,10 22,64 45,76 12,7 16,17 12,30 -4,10 -3,19 2,19 4,0 8,10 9,23 0,12 9,53 20,90 l 18,68 -22,107 c -13,59 -36,168 -53,242 -76,344 -90,422 -102,567 -1,12 -4,19 -6,17 -8,-8 -32,59 -71,201 -22,77 -51,174 -65,215 -14,41 -37,118 -49,170 -13,52 -36,141 -50,198 -15,56 -24,107 -21,112 3,6 2,10 -2,10 -5,0 -9,15 -10,34 -1,19 -5,41 -9,48 -5,7 -9,27 -10,43 -2,108 -2,107 -33,100 -27,-6 -29,-4 -35,38 -4,24 -22,86 -40,138 -23,64 -35,121 -40,179 -3,47 -15,139 -26,205 -11,66 -23,183 -26,260 -3,77 -9,159 -14,183 -4,26 -4,42 2,42 6,0 8,7 5,14 -3,8 3,64 14,123 11,59 26,146 35,193 8,47 31,135 51,195 40,121 85,189 191,287 31,28 48,46 37,39 -11,-7 -2,4 20,24 22,21 31,32 21,24 -16,-12 -16,-8 4,19 23,31 39,45 24,20 -4,-7 -3,-8 5,-4 6,4 9,12 5,17 -3,6 1,18 9,27 20,23 29,219 10,226 -7,3 -13,14 -13,25 0,35 -51,53 -123,45 -85,-9 -175,-56 -297,-156 -165,-135 -194,-157 -201,-153 -3,3 -13,-3 -22,-13 -17,-18 -65,-121 -71,-150 -1,-9 -18,-47 -35,-84 -18,-37 -34,-73 -35,-80 -5,-38 -53,-137 -79,-165 -24,-25 -41,-33 -83,-39 -44,-5 -64,-15 -121,-61 -106,-86 -154,-135 -170,-171 -23,-55 -27,-185 -7,-240 21,-58 112,-206 176,-288 33,-43 51,-78 60,-115 12,-53 17,-771 9,-1159 -4,-183 4,-239 64,-435 18,-60 41,-139 50,-175 8,-36 32,-105 52,-154 20,-50 36,-96 36,-103 0,-7 3,-13 7,-13 4,0 13,-18 20,-41 11,-32 11,-45 2,-60 -7,-10 -12,-32 -12,-49 v -30 h -187 c -170,1 -201,4 -328,31 -77,16 -147,34 -156,38 -8,5 -50,15 -93,21 -76,13 -179,10 -355,-8 -41,-5 -97,-5 -125,-1 -28,4 -131,3 -229,-3 -117,-7 -182,-7 -188,-1 -7,7 -6,32 0,74 14,82 14,251 0,309 -22,94 -40,309 -53,650 -1,41 -5,82 -8,90 -4,8 -13,123 -22,255 -38,569 -65,758 -147,1042 -37,130 -142,674 -174,908 -14,99 -30,213 -36,254 -6,40 -8,103 -4,140 3,36 8,179 10,316 3,177 8,263 18,295 8,25 12,51 10,58 -3,6 1,12 7,12 7,0 10,7 6,17 -4,9 -3,19 2,22 5,3 16,26 25,51 17,47 65,178 90,245 8,21 20,41 26,43 6,2 9,8 5,13 -3,5 2,12 10,15 9,3 16,11 16,18 0,13 87,104 232,243 58,55 111,110 117,122 7,11 46,47 88,78 57,43 85,73 108,113 60,108 65,169 15,208 -45,35 -362,52 -579,31 z M 4933,6663 c -18,-2 -48,-2 -65,0 -18,2 -4,4 32,4 36,0 50,-2 33,-4 z m -140,-10 c -18,-2 -48,-2 -65,0 -18,2 -4,4 32,4 36,0 50,-2 33,-4 z m 570,-40 c -18,-2 -48,-2 -65,0 -18,2 -4,4 32,4 36,0 50,-2 33,-4 z m 164,-10 c -20,-2 -52,-2 -70,0 -17,2 0,4 38,4 39,0 53,-2 32,-4 z m 231,-30 c -10,-2 -26,-2 -35,0 -10,3 -2,5 17,5 19,0 27,-2 18,-5 z m 155,-10 c -23,-2 -64,-2 -90,0 -26,2 -7,3 42,3 50,0 71,-1 48,-3 z m 285,-50 c -10,-2 -28,-2 -40,0 -13,2 -5,4 17,4 22,1 32,-1 23,-4 z m 127,-23 c 13,-5 14,-9 5,-9 -8,0 -24,4 -35,9 -13,5 -14,9 -5,9 8,0 24,-4 35,-9 z m 70,-20 c 13,-5 14,-9 5,-9 -8,0 -24,4 -35,9 -13,5 -14,9 -5,9 8,0 24,-4 35,-9 z m 145,-50 c 22,-11 40,-23 40,-25 0,-5 -79,32 -89,41 -11,10 14,2 49,-16 z M 5113,5513 c -23,-2 -64,-2 -90,0 -26,2 -7,3 42,3 50,0 71,-1 48,-3 z m -329,-58 c 22,-23 77,-142 82,-180 2,-11 8,-47 14,-80 12,-63 10,-110 -14,-340 -10,-93 -23,-165 -40,-213 -29,-82 -54,-199 -87,-410 -17,-103 -29,-148 -42,-163 -10,-11 -29,-38 -41,-59 l -22,-40 -41,43 c -57,60 -98,124 -129,203 -15,38 -47,95 -71,127 -25,32 -60,94 -79,137 -35,79 -35,81 -25,156 6,41 11,106 11,144 0,65 3,75 78,221 42,84 91,168 108,186 17,18 29,33 26,33 -3,0 1,6 9,13 9,6 36,41 62,77 61,86 98,127 133,145 36,19 49,19 68,0 z m 1752,-2807 29,-33 -32,29 c -31,28 -38,36 -30,36 2,0 16,-15 33,-32 z M 5048,2333 c -16,-2 -40,-2 -55,0 -16,2 -3,4 27,4 30,0 43,-2 28,-4 z m 157,-3 c -3,-5 -34,-9 -68,-8 l -62,1 60,7 c 33,4 64,7 68,8 5,1 5,-2 2,-8 z m 425,-157 c 0,-6 -71,37 -90,55 -8,7 9,0 38,-18 28,-17 52,-34 52,-37 z m 147,-460 c -2,-16 -4,-5 -4,22 0,28 2,40 4,28 2,-13 2,-35 0,-50 z m 3,-153 -11,-25 6,25 c 2,14 6,48 7,75 l 2,50 3,-50 c 2,-28 -1,-62 -7,-75 z m -26,-82 c -15,-31 -124,-154 -124,-141 0,4 24,31 54,62 29,31 59,74 67,94 7,21 15,34 17,28 2,-5 -4,-25 -14,-43 z m -134,-205 c -7,-21 -16,-42 -21,-47 -4,-5 -1,14 8,42 9,29 19,50 21,47 2,-2 -1,-21 -8,-42 z m -7,-138 c 3,-36 2,-52 -3,-40 -8,19 -14,113 -6,104 2,-2 6,-31 9,-64 z m 49,-115 c 13,-5 17,-9 9,-9 -20,-1 -51,29 -50,48 0,10 4,8 9,-7 5,-12 20,-27 32,-32 z m 178,43 c -19,-3 -48,-14 -65,-25 l -30,-20 30,26 c 21,18 40,25 65,24 l 35,-1 z m 140,-18 c 7,-9 10,-18 6,-22 -3,-3 -6,-1 -6,6 0,6 -10,16 -22,21 -16,6 -18,9 -7,9 9,1 22,-6 29,-14 z m 17,-107 c -2,-13 -4,-5 -4,17 -1,22 1,32 4,23 2,-10 2,-28 0,-40 z M 7051,769 c -17,-35 -30,-60 -31,-55 0,12 52,127 57,123 2,-2 -10,-33 -26,-68 z m -950,-90 c 16,-20 38,-61 50,-91 15,-39 33,-64 62,-86 22,-18 36,-32 31,-32 -25,1 -85,70 -104,119 -12,30 -32,68 -46,84 -26,30 -64,100 -64,114 1,4 10,-10 22,-32 11,-22 34,-56 49,-76 z m 889,-34 c -18,-26 -59,-66 -91,-90 -55,-40 -153,-86 -182,-84 -7,0 16,10 50,23 98,36 181,99 223,166 13,21 26,37 28,35 2,-2 -10,-25 -28,-50 z M 6320,460 c 20,-6 21,-8 5,-8 -11,0 -31,4 -45,8 -20,6 -21,8 -5,8 11,0 31,-4 45,-8 z m 298,-7 c -15,-2 -42,-2 -60,0 -18,2 -6,4 27,4 33,0 48,-2 33,-4 z"
           inkscape:connector-curvature="0" />
      </g>
      <g
         id="layer102-4"
         style="fill:#ff4466;stroke:none">
        <path
           id="path44"
           d="m 4800,6655 c -233,-18 -212,-11 -235,-78 -16,-46 -20,-80 -19,-165 1,-59 7,-127 13,-152 16,-70 14,-138 -7,-168 -22,-31 -36,-63 -33,-75 1,-4 -4,-7 -11,-5 -30,7 -106,-53 -159,-124 -87,-116 -95,-128 -164,-230 -36,-54 -71,-98 -76,-98 -6,0 -8,-4 -5,-9 3,-5 -1,-12 -10,-15 -9,-4 -14,-9 -11,-13 8,-7 -20,-48 -33,-48 -6,0 -9,-3 -7,-7 3,-9 -44,-58 -57,-58 -19,-1 -182,-221 -171,-231 1,-2 -28,-49 -65,-104 -138,-202 -184,-331 -170,-483 8,-91 49,-251 82,-315 10,-21 16,-42 13,-47 -3,-6 -2,-10 3,-10 14,0 29,-45 51,-153 21,-102 47,-171 61,-162 16,10 117,-251 113,-292 0,-7 3,-11 7,-8 5,3 22,-30 40,-72 146,-357 390,-799 490,-888 13,-11 53,-56 90,-100 52,-62 83,-89 138,-119 39,-21 69,-42 67,-46 -8,-13 40,-27 100,-29 33,-1 116,-6 184,-12 69,-6 142,-8 164,-5 29,5 71,-3 165,-30 314,-89 395,-198 433,-581 17,-170 -1,-235 -92,-328 -65,-68 -91,-146 -79,-243 12,-91 24,-120 57,-133 34,-13 67,-5 108,27 31,23 38,24 114,18 44,-4 85,-12 90,-18 6,-7 15,-51 21,-98 15,-121 42,-194 101,-269 16,-20 38,-61 49,-91 47,-122 159,-155 441,-128 112,11 195,34 263,74 56,33 127,104 148,146 56,115 79,180 84,229 9,106 10,332 2,337 -5,3 -6,10 -3,15 4,5 2,9 -4,9 -16,0 -29,89 -31,210 -2,138 -5,166 -20,185 -7,8 -9,15 -4,15 5,0 5,4 -1,8 -5,4 -19,24 -29,44 -11,21 -23,38 -28,38 -5,0 -6,5 -3,10 3,6 1,10 -5,10 -6,0 -8,5 -5,10 3,6 2,10 -4,10 -5,0 -15,16 -21,36 -7,20 -30,52 -51,72 -21,21 -39,41 -39,46 0,11 -97,116 -127,136 -117,81 -183,133 -183,145 0,8 -5,15 -11,15 -6,0 -9,9 -6,20 3,11 1,20 -3,20 -5,0 -9,8 -9,18 0,9 -3,44 -6,77 -6,67 -3,73 40,95 16,9 36,27 43,40 13,23 13,24 9,3 -6,-26 0,-27 58,-12 22,6 74,19 115,29 157,39 211,64 268,127 99,108 118,144 183,359 43,143 64,232 74,314 21,172 24,391 5,415 -32,43 -6,488 35,600 21,56 26,60 59,66 30,5 41,1 64,-20 15,-14 62,-53 106,-86 160,-122 177,-137 182,-150 3,-8 11,-12 17,-10 21,7 57,-52 68,-112 15,-80 50,-182 99,-288 23,-49 49,-108 58,-129 9,-22 45,-96 79,-166 76,-159 112,-189 161,-137 23,24 30,81 12,92 -5,3 -6,13 -3,22 5,12 3,14 -7,8 -10,-6 -12,-4 -7,8 4,10 2,17 -4,17 -6,0 -9,7 -5,15 3,8 1,15 -5,15 -6,0 -7,5 -4,10 3,6 1,10 -5,10 -6,0 -8,4 -5,10 3,5 1,10 -4,10 -6,0 -10,3 -9,8 6,15 -34,102 -44,96 -6,-4 -8,2 -3,16 5,15 4,20 -4,16 -7,-4 -11,1 -11,13 0,24 2,25 55,10 68,-18 222,-190 286,-319 53,-106 99,-131 99,-55 0,20 6,35 15,39 8,3 15,18 15,34 0,16 8,53 17,83 13,41 17,95 17,229 l 1,175 -32,49 c -18,27 -33,57 -33,65 0,9 -7,25 -15,35 -8,10 -12,23 -8,29 3,6 2,7 -4,4 -5,-3 -17,7 -27,23 -22,38 -124,117 -174,134 -22,8 -61,31 -87,51 -26,20 -60,42 -75,50 -25,13 -56,65 -75,123 -4,13 -9,21 -12,18 -3,-3 -19,14 -35,37 -48,67 -267,275 -333,314 -103,63 -288,213 -261,213 14,0 -17,31 -46,46 -40,21 -35,10 8,-16 19,-12 33,-24 31,-27 -3,-2 -26,9 -53,25 -286,170 -326,185 -411,148 -27,-12 -63,-31 -80,-43 -17,-13 -38,-23 -46,-23 -17,0 -28,43 -20,81 3,15 0,30 -6,33 -13,9 -15,135 -2,168 5,13 24,102 41,198 38,204 58,249 135,313 l 54,45 -152,133 c -83,73 -179,158 -212,190 -34,31 -92,72 -130,91 -81,41 -256,92 -368,107 -44,6 -114,20 -157,31 -43,11 -111,20 -150,20 -39,0 -128,9 -198,19 -70,11 -185,22 -257,26 -71,4 -186,17 -255,30 -178,33 -188,33 -370,20 z m 313,-1142 c -23,-2 -64,-2 -90,0 -26,2 -7,3 42,3 50,0 71,-1 48,-3 z m -329,-58 c 22,-23 77,-142 82,-180 2,-11 8,-47 14,-80 12,-63 10,-110 -14,-340 -10,-93 -23,-165 -40,-213 -29,-82 -54,-199 -87,-410 -17,-103 -29,-148 -42,-163 -10,-11 -29,-38 -41,-59 l -22,-40 -41,43 c -57,60 -98,124 -129,203 -15,38 -47,95 -71,127 -25,32 -60,94 -79,137 -35,79 -35,81 -25,156 6,41 11,106 11,144 0,65 3,75 78,221 42,84 91,168 108,186 17,18 29,33 26,33 -3,0 1,6 9,13 9,6 36,41 62,77 61,86 98,127 133,145 36,19 49,19 68,0 z m 1752,-2807 29,-33 -32,29 c -31,28 -38,36 -30,36 2,0 16,-15 33,-32 z"
           inkscape:connector-curvature="0" />
      </g>
      <g
         id="layer103-0"
         style="fill:#b69682;stroke:none">
        <path
           id="path47"
           d="m 5000,6385 c -41,-12 -100,-35 -130,-50 -58,-29 -176,-121 -247,-192 -24,-23 -43,-37 -43,-31 0,18 -25,-10 -49,-57 l -22,-40 31,35 c 33,36 31,26 -2,-23 -16,-22 -18,-36 -13,-70 11,-64 53,-149 85,-175 17,-13 41,-42 55,-65 37,-64 110,-115 235,-167 96,-40 212,-42 352,-6 126,32 258,92 258,118 0,62 -43,75 -173,53 -53,-9 -115,-15 -139,-13 l -43,3 75,36 c 106,50 259,144 298,183 l 33,33 -15,88 c -9,49 -19,91 -23,95 -5,3 -35,29 -68,56 -92,77 -178,132 -275,175 -48,21 -92,39 -96,38 -5,-1 -43,-11 -84,-24 z"
           inkscape:connector-curvature="0" />
        <path
           id="path49"
           d="m 7370,5097 c 0,-3 19,-17 43,-32 24,-16 36,-21 28,-11 -14,16 -71,51 -71,43 z"
           inkscape:connector-curvature="0" />
        <path
           id="path51"
           d="m 7915,4455 c -66,-34 -123,-91 -134,-135 -5,-19 -11,-61 -14,-93 -5,-50 -3,-61 19,-86 15,-18 29,-53 35,-88 15,-80 50,-182 99,-288 23,-49 49,-108 58,-129 9,-22 45,-96 79,-166 76,-159 112,-189 161,-137 23,24 30,81 12,92 -5,3 -6,13 -3,22 5,12 3,14 -7,8 -10,-6 -12,-4 -7,8 4,10 2,17 -4,17 -6,0 -9,7 -5,15 3,8 1,15 -5,15 -6,0 -7,5 -4,10 3,6 1,10 -5,10 -6,0 -8,5 -5,10 3,6 1,10 -4,10 -6,0 -10,3 -9,8 6,15 -34,102 -44,96 -6,-4 -8,2 -3,16 5,15 4,20 -4,16 -7,-4 -11,1 -11,13 0,24 2,25 55,10 68,-18 222,-190 286,-319 53,-106 99,-131 99,-55 0,20 6,35 15,39 8,3 15,18 15,34 0,16 8,53 17,83 13,41 17,95 17,229 l 1,175 -32,49 c -18,27 -33,57 -33,65 0,9 -7,25 -15,35 -8,10 -12,23 -8,29 3,6 2,7 -4,4 -5,-3 -17,7 -27,23 -22,38 -124,117 -174,134 -22,8 -61,31 -87,51 -26,20 -60,42 -75,50 -26,13 -44,42 -69,108 -8,21 -17,27 -40,27 -15,0 -41,2 -57,5 -19,3 -46,-4 -79,-20 z"
           inkscape:connector-curvature="0" />
        <path
           id="path53"
           d="m 6100,2733 c -207,-21 -398,-79 -590,-180 -128,-67 -171,-96 -251,-169 l -46,-42 131,-37 c 318,-89 399,-197 437,-582 17,-170 -1,-235 -92,-328 -65,-68 -91,-146 -79,-243 12,-91 24,-120 57,-133 34,-13 67,-5 108,27 31,23 38,24 114,18 44,-4 85,-12 90,-18 6,-7 15,-51 21,-98 15,-121 42,-194 101,-269 16,-20 38,-61 49,-91 47,-122 159,-155 441,-128 112,11 195,34 263,74 56,33 127,104 148,146 56,115 79,180 84,229 9,106 10,332 2,337 -5,3 -6,10 -3,15 4,5 2,9 -4,9 -16,0 -29,89 -31,210 -2,138 -5,166 -20,185 -7,8 -9,15 -4,15 5,0 5,4 -1,8 -5,4 -19,24 -29,45 -11,20 -23,37 -28,37 -5,0 -6,5 -3,10 3,6 1,10 -5,10 -6,0 -8,5 -5,10 3,6 2,10 -4,10 -5,0 -15,16 -21,36 -7,20 -30,52 -51,72 -21,21 -39,41 -39,46 0,11 -97,116 -127,136 -117,81 -183,133 -183,145 0,8 -5,15 -11,15 -6,0 -9,9 -6,20 3,10 1,20 -4,22 -11,4 -22,132 -14,158 4,11 13,20 20,20 8,0 26,10 41,23 23,20 26,28 20,60 -24,129 -213,197 -476,170 z"
           inkscape:connector-curvature="0" />
        <path
           id="path55"
           d="m 4750,2365 c 14,-8 30,-14 35,-14 6,0 -1,6 -15,14 -14,8 -29,14 -35,14 -5,0 1,-6 15,-14 z"
           inkscape:connector-curvature="0" />
      </g>
    </g>
  </g>
</svg>
