<?xml version="1.0" encoding="UTF-8" standalone="no"?>
<!-- Created with Inkscape (http://www.inkscape.org/) -->

<svg
   xmlns:dc="http://purl.org/dc/elements/1.1/"
   xmlns:cc="http://creativecommons.org/ns#"
   xmlns:rdf="http://www.w3.org/1999/02/22-rdf-syntax-ns#"
   xmlns:svg="http://www.w3.org/2000/svg"
   xmlns="http://www.w3.org/2000/svg"
   xmlns:sodipodi="http://sodipodi.sourceforge.net/DTD/sodipodi-0.dtd"
   xmlns:inkscape="http://www.inkscape.org/namespaces/inkscape"
   width="1408.0757"
   height="1507.5482"
   viewBox="0 0 372.55335 398.87214"
   version="1.1"
   id="svg8"
   inkscape:version="0.92.4 (5da689c313, 2019-01-14)"
   sodipodi:docname="sit-ups.svg">
  <defs
     id="defs2" />
  <sodipodi:namedview
     id="base"
     pagecolor="#ffffff"
     bordercolor="#666666"
     borderopacity="1.0"
     inkscape:pageopacity="0.0"
     inkscape:pageshadow="2"
     inkscape:zoom="0.49497475"
     inkscape:cx="617.19664"
     inkscape:cy="667.09562"
     inkscape:document-units="px"
     inkscape:current-layer="layer1"
     showgrid="false"
     inkscape:pagecheckerboard="true"
     units="px"
     fit-margin-top="100"
     fit-margin-right="100"
     fit-margin-bottom="100"
     fit-margin-left="100"
     inkscape:window-width="3696"
     inkscape:window-height="2115"
     inkscape:window-x="131"
     inkscape:window-y="2147"
     inkscape:window-maximized="1" />
  <metadata
     id="metadata5">
    <rdf:RDF>
      <cc:Work
         rdf:about="">
        <dc:format>image/svg+xml</dc:format>
        <dc:type
           rdf:resource="http://purl.org/dc/dcmitype/StillImage" />
        <dc:title></dc:title>
      </cc:Work>
    </rdf:RDF>
  </metadata>
  <g
     inkscape:label="Calque 1"
     inkscape:groupmode="layer"
     id="layer1"
     transform="translate(331.41953,172.89876)">
    <g
       id="g44"
       transform="matrix(0.02645833,0,0,0.02645833,-338.06697,36.52263)">
      <g
         id="layer101"
         style="fill:#000000;stroke:none">
        <path
           id="path10"
           d="m 4470,6157 c -3,-3 -38,-8 -78,-11 -78,-6 -149,-26 -197,-56 -34,-21 -75,-72 -75,-92 1,-24 36,-56 91,-81 30,-15 94,-62 143,-106 48,-43 113,-93 144,-109 32,-17 165,-67 297,-111 l 240,-81 h 216 c 138,0 250,-5 310,-14 52,-8 130,-20 174,-27 44,-6 141,-26 215,-45 235,-58 322,-74 402,-74 88,0 346,-50 384,-74 13,-9 34,-16 46,-17 h 23 l -23,-9 c -21,-9 -22,-13 -18,-97 l 5,-88 -18,35 c -30,55 -50,67 -121,73 -36,3 -130,15 -210,28 -131,22 -175,24 -455,23 -308,0 -311,0 -391,-27 -257,-84 -311,-118 -400,-251 -36,-53 -88,-128 -117,-166 -95,-128 -118,-162 -161,-239 -23,-42 -76,-134 -118,-206 -41,-71 -146,-269 -233,-440 -87,-170 -161,-314 -165,-320 -11,-16 -51,-116 -55,-137 -5,-23 -68,-191 -96,-255 -11,-23 -19,-46 -19,-50 0,-4 -7,-20 -14,-35 -13,-25 -53,-118 -106,-248 -10,-25 -41,-92 -68,-149 l -49,-104 -43,129 c -24,71 -58,163 -77,204 -19,41 -48,109 -64,150 -17,41 -37,89 -46,105 -9,17 -56,103 -105,192 -48,90 -88,166 -88,170 0,3 -33,74 -74,157 -125,256 -154,320 -160,361 -4,22 -16,55 -28,75 -113,188 -118,207 -80,335 12,40 21,100 21,141 1,63 -2,75 -29,112 -28,40 -30,47 -30,139 0,92 -2,100 -32,151 -56,92 -46,90 -494,97 -253,4 -420,11 -479,20 -264,41 -439,52 -640,40 -84,-5 -116,-11 -137,-26 -15,-10 -31,-19 -35,-19 -13,-1 -49,-34 -61,-56 -40,-75 -53,-166 -28,-199 12,-17 12,-24 -1,-48 -19,-39 -9,-80 29,-112 17,-15 77,-49 132,-77 80,-39 123,-54 204,-68 98,-18 257,-75 292,-106 9,-7 42,-23 75,-35 33,-13 79,-36 103,-52 23,-15 64,-38 90,-50 129,-60 201,-108 231,-156 17,-26 41,-57 52,-67 12,-10 30,-35 40,-54 11,-19 31,-50 44,-69 14,-18 32,-58 40,-87 8,-30 22,-78 30,-107 8,-30 15,-66 15,-81 0,-16 7,-42 15,-59 14,-31 71,-208 121,-377 14,-47 34,-114 45,-149 11,-35 24,-96 29,-135 5,-39 18,-100 29,-136 11,-36 25,-92 31,-125 6,-33 18,-82 25,-110 8,-27 18,-95 24,-150 6,-55 20,-127 31,-160 23,-66 52,-223 70,-385 7,-58 23,-142 36,-188 13,-45 24,-93 24,-106 0,-38 37,-132 91,-234 113,-210 187,-294 306,-350 56,-26 64,-27 218,-27 176,1 291,19 354,57 66,40 149,106 506,404 531,442 588,497 959,914 450,505 497,557 628,676 l 111,102 71,11 c 39,7 98,25 130,41 32,17 65,30 73,30 8,0 39,11 69,25 51,23 54,27 44,48 -11,21 -10,21 4,3 9,-10 13,-22 11,-26 -3,-4 2,-13 10,-20 12,-10 29,-10 73,-2 138,26 192,28 362,14 74,-7 263,-19 420,-27 202,-11 337,-24 465,-45 99,-16 261,-38 360,-49 179,-21 428,-61 495,-81 48,-14 289,-13 331,2 19,6 61,28 95,49 64,39 128,60 234,78 69,11 309,100 407,150 87,44 184,132 204,186 9,24 31,62 48,84 17,21 31,47 31,58 0,10 24,37 56,63 31,25 77,68 102,95 28,31 36,37 20,15 -56,-78 -58,-75 56,-75 120,-1 301,-21 336,-38 25,-13 25,-15 33,-182 8,-167 9,-171 39,-218 l 31,-49 66,6 c 36,4 78,9 93,12 22,4 36,-3 71,-35 36,-33 52,-41 83,-41 27,0 43,-6 51,-19 6,-10 24,-22 40,-25 15,-4 49,-21 75,-38 44,-28 48,-34 59,-90 15,-75 37,-92 112,-86 28,3 94,22 146,42 l 94,37 52,-35 c 49,-32 59,-35 143,-38 49,-2 88,-6 86,-10 -2,-3 2,-8 10,-10 8,-2 42,-44 75,-95 50,-78 68,-96 110,-118 89,-44 200,-28 321,48 36,22 70,40 77,40 7,0 11,3 8,5 -3,3 5,17 18,31 13,14 42,52 64,83 22,32 44,54 48,50 5,-4 6,-2 2,4 -3,5 14,38 38,73 30,44 45,77 50,111 7,48 9,51 88,107 98,68 88,58 166,163 35,47 74,95 86,106 14,14 35,69 59,150 l 38,128 -12,96 c -6,52 -22,129 -35,170 -14,41 -31,103 -39,138 -17,74 -31,90 -214,262 l -122,115 -73,11 c -80,12 -117,22 -117,32 0,4 30,26 65,50 59,38 65,45 65,76 0,32 -3,34 -92,76 -62,28 -123,48 -183,58 -83,14 -99,14 -200,-2 -145,-23 -161,-25 -293,-36 -61,-5 -139,-15 -173,-22 -57,-12 -65,-17 -168,-119 -89,-86 -112,-116 -128,-160 l -20,-54 -64,-17 c -95,-25 -264,-24 -320,2 -29,13 -66,20 -109,20 -36,0 -76,6 -90,14 -119,66 -143,77 -152,64 -4,-8 -5,1 -2,19 4,21 2,39 -7,50 -12,14 -12,16 0,8 12,-7 13,1 7,42 -4,32 -1,66 9,98 14,48 13,51 -10,91 -13,23 -33,66 -45,95 -36,98 -246,302 -375,366 -38,19 -117,34 -265,48 -36,4 -92,16 -125,26 -96,31 -182,49 -305,64 -78,10 -140,24 -192,45 -42,16 -118,36 -170,44 -51,8 -113,22 -137,30 -87,32 -143,17 -231,-60 -35,-31 -66,-33 -193,-17 -62,7 -184,15 -272,17 -122,2 -227,13 -445,44 -157,23 -337,46 -400,52 -63,6 -132,15 -152,21 -196,52 -585,101 -913,114 -82,4 -184,10 -225,15 -41,5 -149,14 -240,20 -168,12 -251,28 -305,60 -67,41 -237,103 -340,125 -160,34 -247,44 -461,50 -137,3 -217,11 -285,25 -90,20 -299,38 -309,27 z m 4680,-626 c 0,-5 9,-11 20,-14 15,-4 20,-13 19,-34 -2,-26 -2,-26 -6,-3 -3,17 -15,30 -41,42 -30,13 -33,16 -14,17 12,1 22,-3 22,-8 z m -4,-208 c -8,-15 -15,-25 -16,-21 0,12 23,58 27,54 3,-2 -2,-17 -11,-33 z M 7703,5073 c -13,-2 -35,-2 -50,0 -16,2 -5,4 22,4 28,0 40,-2 28,-4 z m 150,-10 c -13,-2 -35,-2 -50,0 -16,2 -5,4 22,4 28,0 40,-2 28,-4 z m 140,-10 c -13,-2 -33,-2 -45,0 -13,2 -3,4 22,4 25,0 35,-2 23,-4 z M 6804,4945 c 7,-29 7,-29 -8,-10 -8,11 -15,34 -15,50 0,25 2,27 8,10 4,-11 11,-33 15,-50 z m 2016,-90 c -13,-14 -27,-25 -32,-25 -9,0 42,49 51,50 3,0 -6,-11 -19,-25 z M 6837,4653 c -2,-32 -3,-8 -3,52 0,61 1,87 3,58 2,-29 2,-78 0,-110 z m 10,-325 c -2,-24 -4,-5 -4,42 0,47 2,66 4,43 2,-24 2,-62 0,-85 z m -10,-125 c -2,-16 -4,-5 -4,22 0,28 2,40 4,28 2,-13 2,-35 0,-50 z m 3832,0 c -18,-21 -37,-42 -41,-47 -5,-6 -8,-7 -8,-3 0,9 70,87 78,87 3,0 -10,-17 -29,-37 z m 1594,-84 c -5,-5 -6,11 -3,34 4,41 5,41 8,8 2,-18 0,-37 -5,-42 z m -5436,-16 c -3,-10 -5,-2 -5,17 0,19 2,27 5,18 2,-10 2,-26 0,-35 z m 3784,20 c -5,-10 -29,-36 -52,-58 -42,-39 -42,-39 7,17 53,61 60,68 45,41 z m 1434,-50 c -72,-3 -112,-8 -117,-16 -5,-7 -8,-8 -8,-1 0,21 15,24 124,22 l 111,-2 z m -5228,-75 c -2,-13 -4,-3 -4,22 0,25 2,35 4,23 2,-13 2,-33 0,-45 z m 3662,-33 c -23,-30 -44,-55 -46,-55 -3,0 -1,6 4,13 44,59 75,97 79,97 3,0 -14,-25 -37,-55 z m 1418,-147 c -2,-13 -4,-5 -4,17 -1,22 1,32 4,23 2,-10 2,-28 0,-40 z M 6736,3683 c -8,-15 -15,-25 -16,-21 0,12 23,58 27,54 3,-2 -2,-17 -11,-33 z m -62,-167 c -3,-15 -8,-25 -11,-23 -2,3 -1,17 3,31 3,15 8,25 11,23 2,-3 1,-17 -3,-31 z m -17,-128 c -2,-13 -4,-3 -4,22 0,25 2,35 4,23 2,-13 2,-33 0,-45 z m 5330,-25 c -3,-10 -5,-2 -5,17 0,19 2,27 5,18 2,-10 2,-26 0,-35 z"
           inkscape:connector-curvature="0" />
      </g>
      <g
         id="layer102"
         style="fill:#9a00ee;stroke:none">
        <path
           id="path13"
           d="m 4470,6157 c -3,-3 -38,-8 -78,-11 -78,-6 -149,-26 -197,-56 -34,-21 -75,-72 -75,-92 1,-24 36,-56 91,-81 30,-15 94,-62 143,-106 48,-43 113,-93 144,-109 32,-17 165,-67 297,-111 l 240,-81 h 216 c 138,0 250,-5 310,-14 52,-8 130,-20 174,-27 44,-6 141,-26 215,-45 235,-58 322,-74 402,-74 88,0 346,-50 384,-74 13,-9 34,-16 46,-17 h 23 l -22,-9 c -22,-9 -23,-14 -19,-87 5,-84 14,-128 46,-238 23,-75 41,-303 40,-495 -1,-123 -33,-449 -56,-568 -8,-45 -35,-126 -58,-180 -81,-182 -96,-282 -55,-349 12,-18 17,-33 14,-33 -4,0 -1,-7 6,-16 9,-12 23,-14 49,-10 173,30 218,32 390,17 74,-6 263,-18 420,-26 202,-11 337,-24 465,-45 99,-16 261,-38 360,-49 179,-21 428,-61 495,-81 48,-14 289,-13 331,2 19,6 61,28 95,49 64,39 128,60 234,78 69,11 309,100 407,150 87,44 184,132 204,186 9,24 31,62 48,84 17,21 31,47 31,58 0,10 24,37 56,63 31,25 77,68 102,95 28,31 36,37 20,15 -56,-78 -58,-75 56,-75 120,-1 301,-21 336,-38 25,-13 25,-15 33,-182 8,-167 9,-171 39,-218 l 31,-49 66,6 c 36,4 78,9 93,12 22,4 36,-3 71,-35 36,-33 52,-41 83,-41 27,0 43,-6 51,-19 6,-10 24,-22 40,-25 15,-4 49,-21 75,-38 44,-28 48,-34 59,-90 15,-75 37,-92 112,-86 28,3 94,22 146,42 l 94,37 52,-35 c 49,-32 59,-35 143,-38 49,-2 88,-6 86,-10 -2,-3 2,-8 10,-10 8,-2 42,-44 75,-95 50,-78 68,-96 110,-118 89,-44 200,-28 321,48 36,22 70,40 77,40 7,0 11,3 8,5 -3,3 5,17 18,31 13,14 42,52 64,83 22,32 44,54 48,50 5,-4 6,-2 2,4 -3,5 14,38 38,73 30,44 45,77 50,111 7,48 9,51 88,107 98,68 88,58 166,163 35,47 74,95 86,106 14,14 35,69 59,150 l 38,128 -12,96 c -6,52 -22,129 -35,170 -14,41 -31,103 -39,138 -17,74 -31,90 -214,262 l -122,115 -73,11 c -80,12 -117,22 -117,32 0,4 30,26 65,50 59,38 65,45 65,76 0,32 -3,34 -92,76 -62,28 -123,48 -183,58 -83,14 -99,14 -200,-2 -145,-23 -161,-25 -293,-36 -61,-5 -139,-15 -173,-22 -57,-12 -65,-17 -168,-119 -89,-86 -112,-116 -128,-160 l -20,-54 -64,-17 c -95,-25 -264,-24 -320,2 -29,13 -66,20 -109,20 -36,0 -76,6 -90,14 -119,66 -143,77 -152,64 -4,-8 -5,1 -2,19 4,21 2,39 -7,50 -12,14 -12,16 0,8 12,-7 13,1 7,42 -4,32 -1,66 9,98 14,48 13,51 -10,91 -13,23 -33,66 -45,95 -36,98 -246,302 -375,366 -38,19 -117,34 -265,48 -36,4 -92,16 -125,26 -96,31 -182,49 -305,64 -78,10 -140,24 -192,45 -42,16 -118,36 -170,44 -51,8 -113,22 -137,30 -69,25 -116,21 -172,-16 -50,-32 -58,-45 -38,-65 13,-13 -104,-10 -247,7 -54,7 -165,13 -248,14 -114,2 -221,13 -436,44 -157,23 -337,46 -400,52 -63,6 -132,15 -152,21 -196,52 -585,101 -913,114 -82,4 -184,10 -225,15 -41,5 -149,14 -240,20 -168,12 -251,28 -305,60 -67,41 -237,103 -340,125 -160,34 -247,44 -461,50 -137,3 -217,11 -285,25 -90,20 -299,38 -309,27 z m 4680,-626 c 0,-5 9,-11 20,-14 15,-4 20,-13 19,-34 -2,-26 -2,-26 -6,-3 -3,17 -15,30 -41,42 -30,13 -33,16 -14,17 12,1 22,-3 22,-8 z m -4,-208 c -8,-15 -15,-25 -16,-21 0,12 23,58 27,54 3,-2 -2,-17 -11,-33 z M 7703,5073 c -13,-2 -35,-2 -50,0 -16,2 -5,4 22,4 28,0 40,-2 28,-4 z m 150,-10 c -13,-2 -35,-2 -50,0 -16,2 -5,4 22,4 28,0 40,-2 28,-4 z m 140,-10 c -13,-2 -33,-2 -45,0 -13,2 -3,4 22,4 25,0 35,-2 23,-4 z m 827,-198 c -13,-14 -27,-25 -32,-25 -9,0 42,49 51,50 3,0 -6,-11 -19,-25 z m 1849,-652 c -18,-21 -37,-42 -41,-47 -5,-6 -8,-7 -8,-3 0,9 70,87 78,87 3,0 -10,-17 -29,-37 z m 1594,-84 c -5,-5 -6,11 -3,34 4,41 5,41 8,8 2,-18 0,-37 -5,-42 z m -1652,4 c -5,-10 -29,-36 -52,-58 -42,-39 -42,-39 7,17 53,61 60,68 45,41 z m 1434,-50 c -72,-3 -112,-8 -117,-16 -5,-7 -8,-8 -8,-1 0,21 15,24 124,22 l 111,-2 z m -1566,-108 c -23,-30 -44,-55 -46,-55 -3,0 -1,6 4,13 44,59 75,97 79,97 3,0 -14,-25 -37,-55 z m 1418,-147 c -2,-13 -4,-5 -4,17 -1,22 1,32 4,23 2,-10 2,-28 0,-40 z m 90,-455 c -3,-10 -5,-2 -5,17 0,19 2,27 5,18 2,-10 2,-26 0,-35 z"
           inkscape:connector-curvature="0" />
      </g>
      <g
         id="layer103"
         style="fill:#d0c200;stroke:none">
        <path
           id="path16"
           d="m 4470,6157 c -3,-3 -38,-8 -78,-11 -78,-6 -149,-26 -197,-56 -34,-21 -75,-72 -75,-92 1,-24 36,-56 91,-81 30,-15 94,-62 143,-106 48,-43 113,-93 144,-109 32,-17 165,-67 297,-111 l 240,-81 h 216 c 138,0 250,-5 310,-14 52,-8 130,-20 174,-27 44,-6 141,-26 215,-45 235,-58 322,-74 402,-74 85,0 345,-50 381,-73 12,-7 51,-19 87,-26 36,-7 106,-26 155,-42 220,-70 514,-120 825,-139 217,-14 310,-26 366,-50 24,-11 91,-33 149,-50 58,-16 145,-45 193,-64 48,-18 110,-36 139,-40 29,-4 69,-13 90,-20 21,-7 44,-11 50,-9 22,8 166,194 254,328 96,148 128,216 136,289 l 5,51 -36,13 c -20,7 -34,18 -31,23 4,5 -5,9 -19,9 -13,0 -26,5 -28,10 -2,6 -46,13 -100,15 -54,2 -137,9 -185,15 -48,6 -158,13 -243,14 -118,2 -223,13 -440,44 -157,23 -337,46 -400,52 -63,6 -132,15 -152,21 -196,52 -585,101 -913,114 -82,4 -184,10 -225,15 -41,5 -149,14 -240,20 -168,12 -251,28 -305,60 -67,41 -237,103 -340,125 -160,34 -247,44 -461,50 -137,3 -217,11 -285,25 -90,20 -299,38 -309,27 z"
           inkscape:connector-curvature="0" />
        <path
           id="path18"
           d="m 12395,4949 c -58,-12 -184,-27 -313,-38 -61,-6 -139,-16 -173,-23 -57,-12 -65,-17 -168,-119 -89,-86 -112,-116 -128,-160 l -20,-54 -64,-17 c -95,-25 -264,-24 -320,2 -29,13 -66,20 -109,20 -36,0 -76,6 -90,14 -86,48 -143,76 -147,73 -2,-3 -20,-49 -39,-103 -81,-230 -104,-280 -154,-340 -28,-32 -50,-62 -50,-67 0,-4 -22,-32 -49,-60 -48,-51 -178,-223 -198,-262 -11,-19 -8,-20 91,-20 120,-1 301,-21 336,-38 25,-13 25,-15 33,-182 8,-167 9,-171 39,-218 l 31,-49 66,6 c 36,4 78,9 93,12 22,4 36,-3 71,-35 36,-33 52,-41 83,-41 27,0 43,-6 51,-19 6,-10 24,-22 40,-25 15,-4 49,-21 75,-38 44,-28 48,-34 59,-90 15,-75 37,-92 112,-86 28,3 94,22 146,42 l 94,37 52,-35 c 49,-32 59,-35 143,-38 49,-2 88,-6 86,-10 -2,-3 2,-8 10,-10 8,-2 42,-44 75,-95 50,-78 68,-96 110,-118 89,-44 200,-28 321,48 36,22 70,40 77,40 7,0 11,3 8,5 -3,3 5,17 18,31 13,14 42,52 64,83 22,32 44,54 48,50 5,-4 6,-2 2,4 -3,5 14,38 38,73 30,44 45,77 50,111 7,48 9,51 88,107 98,68 88,58 166,163 35,47 74,95 86,106 14,14 35,69 59,150 l 38,128 -12,96 c -6,52 -22,129 -35,170 -14,41 -31,103 -39,138 -17,74 -31,90 -214,262 l -122,115 -73,11 c -80,12 -117,22 -117,32 0,4 30,26 65,50 59,38 65,45 65,76 0,32 -3,34 -92,76 -131,60 -260,81 -363,59 z m -132,-830 c -5,-5 -6,11 -3,34 4,41 5,41 8,8 2,-18 0,-37 -5,-42 z m -218,-46 c -72,-3 -112,-8 -117,-16 -5,-7 -8,-8 -8,-1 0,21 15,24 124,22 l 111,-2 z m -148,-255 c -2,-13 -4,-5 -4,17 -1,22 1,32 4,23 2,-10 2,-28 0,-40 z m 90,-455 c -3,-10 -5,-2 -5,17 0,19 2,27 5,18 2,-10 2,-26 0,-35 z"
           inkscape:connector-curvature="0" />
      </g>
      <g
         id="layer104"
         style="fill:#b69682;stroke:none">
        <path
           id="path21"
           d="m 4480,6157 c -3,-3 -40,-7 -82,-10 -82,-6 -153,-26 -203,-57 -34,-21 -75,-72 -75,-93 0,-19 46,-58 102,-85 25,-13 85,-59 133,-102 48,-43 112,-92 143,-108 32,-17 165,-67 297,-111 l 240,-81 h 216 c 138,0 250,-5 310,-14 52,-8 130,-20 174,-27 44,-6 141,-26 215,-45 235,-58 322,-74 402,-74 85,0 345,-50 381,-73 12,-7 51,-19 87,-26 36,-7 106,-26 155,-42 220,-70 514,-120 825,-139 217,-14 310,-26 366,-50 24,-11 91,-33 149,-50 58,-16 145,-45 193,-64 48,-18 110,-36 139,-40 29,-4 69,-13 90,-20 21,-7 44,-11 50,-9 22,8 166,194 254,328 96,148 128,216 136,289 l 5,51 -36,13 c -20,7 -34,18 -31,23 4,5 -5,9 -19,9 -13,0 -26,5 -28,10 -2,6 -46,13 -100,15 -54,2 -137,9 -185,15 -48,6 -158,13 -243,14 -118,2 -223,13 -440,44 -157,23 -332,46 -390,51 -58,6 -197,29 -310,51 -241,48 -398,66 -685,80 -115,5 -248,14 -295,20 -47,5 -159,14 -250,20 -164,11 -253,28 -298,57 -59,37 -247,106 -347,128 -160,34 -247,44 -461,50 -135,3 -218,11 -285,25 -92,19 -289,37 -299,27 z"
           inkscape:connector-curvature="0" />
        <path
           id="path23"
           d="m 10834,4573 c -75,-213 -116,-310 -144,-342 -17,-20 -46,-58 -64,-86 -19,-27 -46,-61 -61,-75 -27,-25 -173,-219 -192,-255 -11,-19 -8,-20 91,-20 120,-1 301,-21 336,-38 25,-13 25,-15 33,-182 8,-167 9,-171 39,-218 l 31,-49 66,6 c 36,4 78,9 93,12 22,4 36,-3 71,-35 36,-33 52,-41 83,-41 27,0 43,-6 51,-19 6,-10 24,-22 40,-25 15,-4 49,-21 75,-38 44,-28 48,-34 59,-90 15,-75 37,-92 112,-86 28,3 94,22 146,42 l 94,37 53,-35 c 42,-28 64,-36 101,-36 27,-1 66,-4 89,-9 l 41,-8 -19,49 c -10,26 -32,98 -49,160 -29,103 -31,121 -25,208 6,89 5,101 -24,184 -68,200 -72,224 -60,341 17,165 2,153 180,157 136,3 153,5 166,22 17,24 18,68 1,123 -16,55 -23,61 -87,78 -53,14 -128,59 -137,82 -10,26 -183,63 -297,63 h -55 l -12,41 c -11,35 -16,40 -36,34 -18,-4 -23,-1 -23,13 0,18 -2,18 -67,1 -99,-26 -267,-25 -324,1 -29,13 -66,20 -109,20 -36,0 -76,6 -90,14 -54,30 -141,76 -145,76 -1,0 -15,-35 -31,-77 z"
           inkscape:connector-curvature="0" />
      </g>
    </g>
    <g
       id="g80"
       transform="matrix(0.0331556,0,0,0.0331556,-341.86326,-278.88121)">
      <g
         id="layer101-0"
         style="fill:#000000;stroke:none">
        <path
           id="path46"
           d="m 6380,9991 c -78,-12 -366,-111 -380,-131 -3,-3 -36,-33 -75,-65 -94,-78 -68,-49 -277,-313 -20,-26 -37,-52 -37,-59 -1,-7 -7,-16 -14,-20 -12,-8 -147,-206 -147,-217 0,-3 -11,-22 -25,-43 -14,-21 -30,-45 -35,-53 -5,-8 -21,-32 -35,-53 -14,-21 -25,-44 -25,-52 0,-8 -4,-15 -9,-15 -5,0 -16,-17 -25,-37 -9,-21 -23,-49 -31,-63 -14,-24 -80,-165 -116,-245 -9,-22 -27,-61 -38,-86 -12,-25 -21,-51 -21,-57 0,-5 -9,-27 -19,-49 -10,-21 -38,-83 -62,-138 -39,-90 -139,-278 -145,-272 -1,1 -21,38 -44,82 -60,113 -106,185 -177,275 -35,44 -63,82 -63,86 0,4 -10,17 -22,29 -61,59 -218,248 -218,262 0,5 -12,20 -26,34 -14,13 -35,39 -47,59 -11,19 -24,37 -27,40 -3,3 -20,27 -38,54 -17,27 -40,55 -51,63 -28,19 -77,94 -102,156 -12,28 -28,67 -36,85 -11,25 -13,57 -7,142 6,97 5,113 -14,152 -28,60 -64,91 -107,92 l -35,1 v 51 c 0,28 -7,64 -15,80 -20,41 -84,114 -100,114 -7,0 -32,9 -56,20 -55,25 -87,25 -180,0 -41,-11 -93,-20 -116,-20 -23,0 -52,-4 -65,-8 -35,-13 -334,6 -396,25 -42,13 -70,14 -145,7 -50,-4 -119,-7 -151,-6 -72,3 -150,-19 -191,-53 -29,-24 -30,-27 -30,-109 1,-77 3,-86 25,-105 14,-11 31,-20 37,-21 9,0 10,-7 3,-25 -11,-30 4,-62 34,-71 11,-4 40,-19 66,-35 25,-16 71,-32 105,-37 55,-9 115,-30 155,-53 8,-5 69,-36 135,-69 66,-33 129,-66 140,-73 11,-6 49,-30 85,-53 85,-53 105,-64 125,-64 18,0 115,-98 115,-117 0,-17 91,-174 141,-243 52,-72 89,-128 89,-136 0,-5 38,-96 82,-194 11,-25 26,-58 33,-75 37,-83 53,-124 65,-168 7,-26 17,-50 21,-53 5,-3 9,-19 9,-35 0,-16 9,-47 20,-69 11,-22 20,-50 20,-64 0,-13 36,-96 80,-184 44,-88 80,-165 80,-171 0,-6 9,-26 20,-46 11,-20 20,-40 20,-45 0,-5 5,-21 11,-37 31,-76 59,-160 59,-179 0,-21 85,-194 100,-204 4,-3 15,-21 24,-40 16,-35 36,-71 46,-80 3,-3 23,-26 43,-52 24,-29 58,-56 94,-72 30,-15 77,-45 102,-66 26,-22 52,-40 58,-40 6,0 16,-6 22,-14 6,-7 25,-16 42,-20 38,-7 221,30 271,55 21,10 44,19 52,19 8,0 16,3 18,8 2,4 29,24 61,46 31,21 57,42 57,47 0,5 6,9 14,9 7,0 20,8 27,19 20,27 213,181 227,181 7,0 12,4 12,10 0,5 13,16 29,25 16,8 35,20 43,27 14,13 27,21 97,60 20,11 79,64 131,118 52,53 111,105 130,115 18,10 40,23 47,30 7,7 16,15 20,17 5,1 19,19 33,39 14,20 78,92 143,159 64,67 117,124 117,128 0,4 33,36 72,72 86,78 175,167 243,243 28,31 65,65 83,77 20,12 31,25 27,33 -4,6 3,1 14,-13 11,-14 33,-47 47,-75 14,-27 53,-76 85,-108 32,-32 59,-62 59,-68 0,-5 6,-12 14,-15 8,-3 19,-18 25,-32 10,-26 35,-68 76,-128 21,-31 67,-84 103,-119 12,-12 22,-26 22,-30 0,-4 6,-13 13,-19 9,-7 23,-73 36,-167 l 23,-155 -26,-86 c -15,-46 -27,-105 -29,-129 -2,-52 -22,-74 -74,-84 -19,-3 -52,-15 -72,-26 -20,-10 -44,-19 -55,-19 -10,0 -46,-9 -80,-19 -33,-11 -92,-29 -131,-40 -38,-11 -99,-30 -134,-41 -36,-11 -79,-20 -95,-20 -17,0 -56,-7 -86,-15 -30,-8 -101,-19 -157,-25 -108,-10 -260,-43 -277,-60 -6,-6 -17,-10 -26,-10 -19,0 -161,-58 -301,-123 -133,-62 -156,-72 -194,-83 -78,-24 -160,-55 -169,-64 -6,-6 -17,-10 -26,-10 -9,0 -35,-9 -58,-20 -22,-11 -49,-20 -59,-20 -10,0 -27,-6 -38,-14 -11,-7 -31,-17 -45,-21 -24,-7 -76,-29 -145,-60 -16,-7 -57,-25 -90,-38 -33,-14 -123,-52 -200,-86 l -140,-61 h -122 c -117,0 -125,-1 -180,-31 -32,-16 -71,-39 -88,-49 -40,-26 -155,-80 -169,-80 -7,0 -21,-7 -32,-15 -12,-9 -43,-14 -83,-15 -55,0 -71,-5 -125,-37 -54,-33 -95,-54 -191,-98 -98,-45 -134,-60 -170,-71 -124,-38 -185,-80 -188,-129 -2,-38 21,-43 84,-20 111,42 189,67 247,79 l 62,13 -32,-28 c -18,-16 -38,-28 -45,-29 -19,0 -63,-60 -63,-85 0,-12 7,-26 16,-29 26,-10 113,-7 229,8 61,9 155,20 210,25 55,5 127,16 160,25 129,32 214,48 305,56 52,5 131,16 175,24 44,9 127,15 185,16 74,0 126,6 175,20 38,11 82,20 97,20 15,0 51,9 80,19 29,11 80,22 113,25 33,2 105,12 159,20 55,9 131,16 171,16 39,0 122,7 184,15 62,8 159,19 215,25 105,10 280,46 353,74 24,9 84,35 135,60 104,49 209,83 295,96 32,5 96,17 143,26 95,18 604,28 873,17 136,-5 147,-7 147,-25 0,-17 -5,-18 -45,-12 -53,7 -95,-1 -95,-20 0,-7 -6,-19 -14,-25 -22,-19 -25,-62 -9,-125 11,-45 12,-68 4,-100 -5,-22 -12,-78 -15,-124 -3,-56 -9,-89 -20,-101 -8,-9 -19,-35 -24,-57 -8,-39 -8,-39 -59,-42 -68,-4 -103,-41 -103,-107 0,-24 4,-46 9,-50 14,-8 68,-90 75,-113 4,-11 13,-26 21,-32 30,-25 17,-57 -46,-112 -63,-56 -75,-74 -109,-176 -27,-79 -40,-151 -46,-272 -5,-94 -5,-95 25,-131 21,-25 49,-43 93,-59 56,-20 124,-54 138,-69 10,-11 147,-101 154,-101 8,0 88,-37 281,-129 77,-37 151,-73 165,-79 14,-7 44,-23 66,-36 63,-35 168,-42 258,-15 161,47 212,64 224,76 7,7 26,20 42,30 17,9 30,21 30,25 0,4 5,8 11,8 5,0 54,35 107,78 54,42 117,87 142,99 146,71 207,95 270,107 37,7 52,22 82,83 18,35 57,93 86,128 28,35 52,66 52,69 0,3 12,22 26,43 25,37 25,39 19,173 -4,74 -12,145 -19,157 -6,12 -25,50 -43,85 -18,35 -46,78 -63,96 l -31,34 -95,-4 c -52,-1 -98,-8 -102,-14 -4,-5 -28,-24 -54,-42 l -48,-31 -11,44 c -6,24 -20,53 -30,64 -10,11 -19,22 -19,25 0,3 -15,26 -32,52 -49,69 -66,96 -84,130 -9,17 -32,40 -52,50 -63,34 -67,36 -85,60 -14,19 -17,49 -19,196 -2,169 0,201 15,225 5,7 14,45 22,85 8,40 25,96 39,123 14,28 26,55 26,62 0,20 94,104 123,110 15,3 30,9 32,14 3,4 -1,41 -10,81 -9,45 -15,126 -15,208 1,156 -7,212 -59,420 -6,25 -25,112 -41,194 -20,100 -35,153 -45,158 -8,5 -15,14 -15,20 0,5 -17,31 -37,57 -34,41 -49,67 -92,161 -6,14 -19,39 -30,55 -28,46 -63,107 -79,140 -9,17 -18,32 -21,35 -3,3 -17,27 -31,55 -14,27 -32,61 -41,75 -9,14 -71,107 -138,208 -66,101 -121,187 -121,192 0,4 -6,13 -14,19 -8,6 -26,51 -41,99 -15,48 -36,112 -46,142 -9,30 -20,67 -23,81 -5,22 -26,63 -71,137 -6,9 -24,37 -40,61 -17,24 -34,52 -40,62 -5,11 -14,19 -20,19 -22,1 -65,49 -101,115 -9,16 -23,35 -30,43 -8,7 -14,18 -14,23 0,5 -6,9 -12,9 -7,0 -24,22 -36,48 -13,26 -37,63 -53,82 -28,33 -31,34 -98,34 -50,0 -75,-4 -88,-16 -17,-15 -20,-15 -38,1 -26,22 -38,41 -82,131 -20,41 -42,79 -50,83 -7,4 -13,13 -13,18 0,43 -176,190 -250,208 -25,7 -63,19 -85,27 -99,39 -208,54 -410,58 -110,3 -225,1 -255,-3 z"
           inkscape:connector-curvature="0" />
      </g>
      <g
         id="layer102-9"
         style="fill:#9a00ee;stroke:none">
        <path
           id="path49"
           d="m 7600,9483 c -14,-3 -33,-12 -42,-20 -17,-15 -17,-17 0,-29 16,-13 16,-15 0,-24 -10,-6 -26,-30 -36,-53 -22,-50 -98,-129 -237,-247 -55,-47 -152,-137 -215,-200 -64,-63 -174,-170 -246,-237 -72,-67 -147,-146 -165,-175 -30,-47 -34,-60 -33,-119 1,-63 4,-71 41,-116 21,-26 49,-68 62,-93 13,-25 50,-70 81,-101 31,-31 60,-64 63,-73 4,-9 11,-16 16,-16 5,0 14,-12 20,-27 10,-27 34,-68 76,-129 21,-31 67,-84 103,-119 12,-12 22,-26 22,-30 0,-4 6,-13 13,-19 9,-7 23,-73 36,-167 l 23,-155 -26,-86 c -15,-46 -27,-105 -29,-129 -2,-52 -22,-74 -74,-84 -19,-3 -52,-15 -72,-26 -20,-10 -44,-19 -55,-19 -10,0 -46,-9 -80,-19 -33,-11 -92,-29 -131,-40 -38,-11 -99,-30 -134,-41 -36,-11 -79,-20 -95,-20 -17,0 -56,-7 -86,-15 -30,-8 -101,-19 -157,-25 -104,-10 -260,-44 -277,-61 -6,-5 -17,-9 -25,-9 -20,0 -162,-58 -302,-123 -133,-62 -156,-72 -194,-83 -78,-24 -160,-55 -169,-64 -6,-6 -17,-10 -26,-10 -9,0 -35,-9 -58,-20 -22,-11 -48,-20 -57,-20 -10,0 -29,-6 -43,-14 -15,-8 -56,-27 -92,-41 -36,-15 -78,-33 -95,-40 -16,-7 -57,-25 -90,-38 -33,-14 -123,-52 -200,-86 l -140,-61 h -122 c -117,0 -125,-1 -180,-31 -32,-16 -71,-39 -88,-49 -40,-26 -155,-80 -169,-80 -7,0 -21,-7 -32,-15 -12,-9 -43,-15 -84,-15 -58,0 -72,-4 -125,-38 -54,-34 -87,-51 -190,-97 -16,-7 -55,-24 -85,-38 -30,-13 -64,-27 -75,-30 -64,-19 -128,-47 -158,-70 -38,-29 -56,-75 -35,-89 16,-10 76,-1 103,16 24,16 149,54 228,71 l 57,12 -32,-28 c -18,-16 -38,-28 -45,-29 -19,0 -63,-60 -63,-85 0,-12 7,-26 16,-29 24,-9 124,-7 185,4 30,5 122,16 204,24 83,8 177,21 210,30 125,32 255,56 302,56 26,0 94,9 151,20 63,12 144,20 210,20 77,0 127,6 177,20 38,11 82,20 97,20 15,0 51,9 80,19 29,11 80,22 113,25 33,3 103,12 155,20 52,9 129,16 171,16 41,0 126,7 188,15 62,8 159,19 215,25 105,10 280,46 353,74 24,9 84,35 135,60 113,53 202,82 288,95 36,6 103,18 150,27 95,18 604,28 873,17 136,-5 147,-7 147,-25 0,-17 -5,-18 -45,-12 -53,7 -95,-1 -95,-20 0,-7 -6,-19 -14,-25 -22,-19 -25,-62 -9,-125 11,-45 12,-68 4,-100 -5,-22 -12,-78 -15,-124 -3,-56 -9,-89 -20,-101 -8,-9 -19,-35 -24,-57 -8,-39 -8,-39 -59,-42 -68,-4 -103,-41 -103,-107 0,-24 4,-46 9,-50 14,-8 68,-90 75,-113 4,-11 13,-26 21,-32 30,-25 17,-57 -46,-114 -68,-62 -75,-72 -108,-170 -28,-83 -40,-152 -48,-273 -5,-92 -5,-92 26,-131 22,-29 47,-45 93,-62 56,-20 124,-54 138,-69 10,-11 147,-101 154,-101 8,0 88,-37 281,-129 77,-37 151,-73 165,-79 14,-7 44,-23 66,-36 63,-35 168,-42 258,-15 161,47 212,64 224,76 7,7 26,20 42,30 17,9 30,21 30,25 0,4 5,8 11,8 5,0 54,35 107,78 54,42 117,87 142,99 150,73 225,102 275,109 30,3 48,22 77,81 18,35 57,93 86,128 28,35 52,66 52,69 0,3 12,22 26,43 25,37 25,39 19,173 -4,74 -12,145 -19,157 -6,12 -25,50 -43,85 -18,35 -46,78 -63,96 l -31,34 -95,-4 c -52,-1 -98,-8 -102,-14 -4,-5 -28,-24 -54,-42 l -48,-31 -11,44 c -6,24 -20,53 -30,64 -10,11 -19,22 -19,25 0,3 -15,26 -32,52 -49,69 -66,96 -84,130 -9,17 -32,40 -52,50 -63,34 -67,36 -85,60 -14,19 -17,49 -19,196 -2,169 0,201 15,225 5,7 14,45 22,85 8,40 25,96 39,123 14,28 26,55 26,62 0,20 94,104 123,110 15,3 30,9 32,14 3,4 -1,41 -10,81 -9,45 -15,126 -15,208 1,156 -7,212 -59,420 -6,25 -25,112 -41,194 -20,100 -35,153 -45,158 -8,5 -15,14 -15,20 0,5 -17,31 -37,57 -34,41 -49,67 -92,161 -6,14 -19,39 -30,55 -28,46 -63,107 -79,140 -9,17 -18,32 -21,35 -3,3 -17,27 -31,55 -14,27 -32,61 -41,75 -9,14 -71,107 -138,208 -66,101 -121,187 -121,192 0,4 -6,13 -14,19 -8,6 -26,51 -41,99 -15,48 -36,112 -46,142 -9,30 -20,67 -23,81 -5,22 -26,63 -71,137 -6,9 -24,37 -40,61 -17,24 -34,52 -40,62 -5,11 -14,19 -20,19 -22,1 -65,49 -101,115 -9,16 -23,35 -30,43 -8,7 -14,18 -14,23 0,5 -6,9 -12,9 -7,0 -24,22 -36,48 -42,84 -71,110 -127,115 -28,3 -61,3 -75,0 z"
           inkscape:connector-curvature="0" />
      </g>
      <g
         id="layer103-3"
         style="fill:#d0c200;stroke:none">
        <path
           id="path52"
           d="m 7050,7035 c -25,-7 -58,-20 -75,-29 -16,-9 -38,-16 -49,-16 -10,0 -46,-9 -80,-19 -33,-11 -92,-29 -131,-40 -38,-11 -99,-30 -134,-41 -36,-11 -79,-20 -95,-20 -17,0 -56,-7 -86,-15 -30,-8 -101,-19 -157,-25 -104,-10 -260,-44 -278,-61 -5,-5 -16,-9 -25,-9 -19,0 -161,-58 -301,-123 -133,-62 -156,-72 -194,-83 -78,-24 -160,-55 -169,-64 -6,-6 -17,-10 -26,-10 -9,0 -35,-9 -58,-20 -22,-11 -48,-20 -57,-20 -10,0 -29,-6 -43,-14 -15,-8 -56,-27 -92,-41 -36,-15 -78,-33 -95,-40 -16,-7 -57,-25 -90,-38 -33,-14 -123,-52 -200,-86 l -140,-61 h -122 c -117,0 -125,-1 -180,-31 -32,-16 -71,-39 -88,-49 -40,-26 -155,-80 -169,-80 -7,0 -21,-7 -32,-15 -12,-9 -43,-15 -84,-15 -58,0 -72,-4 -125,-38 -54,-34 -87,-51 -190,-97 -16,-7 -55,-24 -85,-38 -30,-13 -64,-27 -75,-30 -64,-19 -128,-47 -158,-70 -38,-29 -56,-75 -35,-89 16,-10 76,-1 103,16 24,16 149,54 228,71 l 57,12 -32,-28 c -18,-16 -38,-28 -45,-29 -19,0 -63,-60 -63,-85 0,-12 7,-26 16,-29 24,-9 124,-7 185,4 30,5 122,16 204,24 83,8 177,21 210,30 125,32 255,56 302,56 26,0 94,9 151,20 63,12 144,20 210,20 77,0 127,6 177,20 38,11 82,20 97,20 15,0 51,9 80,19 29,11 80,22 113,25 33,3 103,12 155,20 52,9 129,16 171,16 41,0 126,7 188,15 62,8 159,19 215,25 105,10 280,46 353,74 24,9 84,35 135,60 113,53 202,82 288,95 36,6 101,17 145,25 44,9 102,15 129,16 h 48 l -5,33 c -3,17 1,70 9,117 7,47 15,100 16,119 3,32 6,36 51,47 26,7 54,17 61,23 10,9 13,70 14,275 1,145 6,276 12,290 11,30 8,31 -60,11 z"
           inkscape:connector-curvature="0" />
        <path
           id="path54"
           d="m 8130,6371 c -34,-6 -35,-8 -40,-56 -6,-48 -26,-101 -53,-136 -21,-28 -60,-46 -135,-64 -58,-14 -75,-15 -87,-5 -13,10 -15,9 -15,-9 0,-21 -3,-22 -45,-15 -53,7 -95,-1 -95,-20 0,-7 -6,-19 -14,-25 -22,-19 -25,-62 -9,-125 11,-45 12,-68 4,-100 -5,-22 -12,-78 -15,-124 -3,-56 -9,-89 -20,-101 -8,-9 -19,-35 -24,-57 -8,-39 -8,-39 -59,-42 -68,-4 -103,-41 -103,-107 0,-24 4,-46 9,-50 14,-8 68,-90 75,-113 4,-11 13,-26 21,-32 30,-25 17,-57 -46,-114 -68,-62 -75,-72 -108,-170 -28,-83 -40,-152 -48,-273 -5,-92 -5,-92 26,-131 22,-29 47,-45 93,-62 56,-20 124,-54 138,-69 10,-11 147,-101 154,-101 8,0 88,-37 281,-129 77,-37 151,-73 165,-79 14,-7 44,-23 66,-36 63,-35 168,-42 258,-15 161,47 212,64 224,76 7,7 26,20 42,30 17,9 30,21 30,25 0,4 5,8 11,8 5,0 54,35 107,78 54,42 117,87 142,99 150,73 225,102 275,109 30,3 48,22 77,81 18,35 57,93 86,128 28,35 52,66 52,69 0,3 12,22 26,43 25,37 25,39 19,173 -4,74 -12,145 -19,157 -6,12 -25,50 -43,85 -18,35 -46,78 -63,96 l -31,34 -95,-4 c -52,-1 -98,-8 -102,-14 -4,-5 -28,-24 -54,-42 l -48,-31 -11,44 c -6,24 -20,53 -30,64 -10,11 -19,22 -19,25 0,3 -15,26 -32,52 -49,69 -66,96 -84,130 -9,17 -32,40 -52,50 -63,34 -67,36 -85,60 -14,19 -17,49 -19,196 -2,169 0,201 15,225 5,7 14,45 22,85 8,40 25,96 39,123 36,69 34,74 -16,64 -24,-4 -130,-8 -236,-9 -174,0 -199,2 -245,21 -29,11 -62,25 -75,30 -25,10 -127,10 -182,0 z"
           inkscape:connector-curvature="0" />
      </g>
      <g
         id="layer104-9"
         style="fill:#b69682;stroke:none">
        <path
           id="path57"
           d="m 7050,7035 c -25,-7 -58,-20 -75,-29 -16,-9 -38,-16 -49,-16 -10,0 -46,-9 -80,-19 -33,-11 -92,-29 -131,-40 -38,-11 -99,-30 -134,-41 -36,-11 -79,-20 -95,-20 -17,0 -56,-7 -86,-15 -30,-8 -101,-19 -157,-25 -97,-9 -245,-40 -281,-60 -9,-4 -39,-16 -67,-25 -68,-24 -210,-85 -375,-163 -19,-9 -53,-22 -75,-28 -77,-23 -160,-55 -169,-64 -6,-6 -17,-10 -26,-10 -9,0 -35,-9 -58,-20 -22,-11 -48,-20 -57,-20 -10,0 -29,-6 -43,-14 -15,-8 -56,-27 -92,-41 -36,-15 -78,-33 -95,-40 -16,-7 -57,-25 -90,-38 -33,-14 -123,-52 -200,-86 l -140,-61 h -121 c -115,0 -123,-1 -180,-31 -32,-16 -72,-39 -89,-49 -41,-26 -155,-80 -169,-80 -7,0 -21,-7 -32,-15 -12,-9 -43,-15 -84,-15 -58,0 -72,-4 -125,-38 -33,-21 -82,-48 -110,-61 -27,-12 -68,-30 -90,-40 -22,-10 -60,-27 -85,-39 -25,-11 -54,-23 -65,-26 -60,-16 -124,-45 -157,-69 -39,-30 -58,-75 -36,-89 16,-10 76,-1 103,16 25,16 149,54 229,71 l 59,12 -34,-28 c -19,-16 -39,-29 -46,-29 -19,0 -63,-60 -63,-85 0,-12 7,-26 16,-29 24,-9 124,-7 185,4 30,5 122,16 204,24 83,8 177,21 210,30 125,32 255,56 302,56 26,0 94,9 151,20 63,12 144,20 209,20 103,0 126,4 323,55 36,9 94,20 130,25 36,4 111,15 167,24 57,9 133,16 170,16 163,0 656,71 742,107 52,22 106,46 181,81 87,40 181,70 260,81 36,6 101,17 145,25 44,9 102,15 129,16 h 48 l -5,33 c -3,17 1,70 9,117 7,47 15,100 16,119 3,32 6,36 51,47 26,7 54,17 61,23 10,9 13,70 14,275 1,145 6,276 12,290 11,30 8,31 -60,11 z"
           inkscape:connector-curvature="0" />
        <path
           id="path59"
           d="m 8130,6371 c -34,-6 -35,-8 -40,-56 -6,-48 -26,-101 -53,-136 -21,-28 -60,-46 -135,-64 -58,-14 -75,-15 -87,-5 -13,10 -15,9 -15,-9 0,-21 -3,-22 -45,-15 -53,7 -95,-1 -95,-20 0,-7 -6,-19 -14,-25 -22,-19 -25,-62 -9,-125 8,-32 12,-68 8,-80 -3,-11 -10,-68 -15,-125 -6,-68 -14,-109 -24,-120 -9,-9 -19,-35 -24,-57 -8,-39 -8,-39 -59,-42 -68,-4 -103,-41 -103,-107 0,-24 4,-46 9,-50 14,-8 68,-90 75,-113 4,-11 13,-26 21,-32 10,-8 16,-33 17,-69 1,-41 2,-46 5,-20 4,40 1,39 118,55 36,5 61,16 90,41 l 40,34 8,-99 9,-99 53,-32 c 70,-42 119,-50 148,-24 30,27 106,78 177,118 48,27 66,32 99,28 22,-3 48,-14 57,-24 21,-23 91,-26 120,-4 10,8 41,15 67,15 89,0 120,40 131,162 8,93 28,154 92,278 l 49,95 1,180 c 1,178 3,209 17,232 5,7 14,45 22,85 8,40 25,96 39,123 36,69 34,74 -16,64 -24,-4 -130,-8 -236,-9 -174,0 -199,2 -245,21 -29,11 -62,25 -75,30 -25,10 -127,10 -182,0 z"
           inkscape:connector-curvature="0" />
      </g>
    </g>
  </g>
</svg>
