<?xml version="1.0" encoding="UTF-8" standalone="no"?>
<!-- Created with Inkscape (http://www.inkscape.org/) -->

<svg
   xmlns:dc="http://purl.org/dc/elements/1.1/"
   xmlns:cc="http://creativecommons.org/ns#"
   xmlns:rdf="http://www.w3.org/1999/02/22-rdf-syntax-ns#"
   xmlns:svg="http://www.w3.org/2000/svg"
   xmlns="http://www.w3.org/2000/svg"
   xmlns:sodipodi="http://sodipodi.sourceforge.net/DTD/sodipodi-0.dtd"
   xmlns:inkscape="http://www.inkscape.org/namespaces/inkscape"
   width="1020.8433"
   height="1219.417"
   viewBox="0 0 270.09812 322.63742"
   version="1.1"
   id="svg8"
   inkscape:version="0.92.4 (5da689c313, 2019-01-14)"
   sodipodi:docname="squats.svg">
  <defs
     id="defs2" />
  <sodipodi:namedview
     id="base"
     pagecolor="#ffffff"
     bordercolor="#666666"
     borderopacity="1.0"
     inkscape:pageopacity="0.0"
     inkscape:pageshadow="2"
     inkscape:zoom="0.35"
     inkscape:cx="-711.65159"
     inkscape:cy="632.5657"
     inkscape:document-units="px"
     inkscape:current-layer="layer1"
     showgrid="false"
     inkscape:pagecheckerboard="true"
     units="px"
     fit-margin-left="100"
     fit-margin-top="100"
     fit-margin-bottom="100"
     fit-margin-right="100"
     inkscape:window-width="3696"
     inkscape:window-height="2115"
     inkscape:window-x="131"
     inkscape:window-y="2147"
     inkscape:window-maximized="1" />
  <metadata
     id="metadata5">
    <rdf:RDF>
      <cc:Work
         rdf:about="">
        <dc:format>image/svg+xml</dc:format>
        <dc:type
           rdf:resource="http://purl.org/dc/dcmitype/StillImage" />
        <dc:title></dc:title>
      </cc:Work>
    </rdf:RDF>
  </metadata>
  <g
     inkscape:label="Calque 1"
     inkscape:groupmode="layer"
     id="layer1"
     transform="translate(-37.856625,66.913951)">
    <g
       id="g39"
       transform="matrix(0.02645833,0,0,0.02645833,62.833759,1.0560276)">
      <g
         id="layer101"
         style="fill:#000000;stroke:none">
        <path
           id="path10"
           d="m 4385,8254 c -38,-8 -113,-35 -165,-60 -97,-46 -164,-104 -247,-213 -18,-24 -73,-82 -122,-130 -74,-72 -89,-92 -95,-126 -11,-75 -6,-120 25,-205 58,-156 80,-270 86,-442 3,-87 10,-158 14,-158 12,0 11,-97 0,-137 -6,-21 -4,-55 5,-102 7,-40 18,-132 23,-206 6,-74 17,-162 26,-195 8,-32 15,-63 14,-67 -4,-25 2,-43 13,-37 7,4 8,3 4,-5 -10,-15 13,-83 25,-75 6,3 9,0 8,-7 -1,-8 3,-27 9,-42 7,-16 12,-33 12,-38 0,-5 5,-9 10,-9 6,0 10,-7 10,-16 0,-8 4,-13 8,-10 5,3 15,-7 23,-22 7,-15 18,-33 23,-41 6,-7 11,-20 13,-29 1,-9 7,-18 12,-20 6,-2 11,-12 11,-22 0,-10 5,-22 10,-25 6,-3 10,-16 10,-28 0,-12 7,-31 15,-41 13,-17 12,-22 -4,-45 -11,-14 -40,-42 -66,-61 -26,-19 -53,-47 -61,-62 -8,-16 -21,-28 -28,-28 -8,0 -16,-4 -18,-9 -6,-15 -171,-150 -178,-146 -4,3 -14,-3 -21,-13 -12,-15 -12,-16 1,-7 31,20 -36,-37 -72,-62 -21,-14 -38,-30 -38,-34 0,-5 -7,-9 -15,-9 -8,0 -14,-6 -13,-12 2,-7 -3,-12 -10,-10 -6,1 -11,-1 -10,-5 3,-19 -17,-45 -46,-60 -77,-39 -241,-191 -440,-409 -60,-65 -138,-149 -173,-187 -34,-37 -63,-74 -63,-81 0,-8 -18,-70 -40,-138 -58,-175 -62,-201 -50,-353 15,-198 40,-275 181,-560 89,-180 120,-234 145,-252 31,-22 35,-14 14,27 -11,21 -20,45 -20,52 0,7 17,-21 37,-63 35,-71 44,-81 123,-137 47,-33 106,-68 130,-78 25,-9 57,-26 73,-36 15,-11 62,-38 105,-60 42,-22 91,-50 107,-62 17,-12 59,-40 94,-61 36,-21 83,-57 105,-79 38,-36 172,-130 241,-167 17,-9 30,-21 30,-27 0,-6 6,-17 14,-24 10,-10 12,-10 7,0 -15,27 16,10 56,-30 24,-24 36,-34 29,-23 -8,11 7,-2 32,-28 26,-26 47,-52 47,-57 0,-5 17,-26 37,-47 21,-20 32,-33 24,-29 -9,6 -12,5 -7,-2 4,-6 13,-9 20,-6 13,5 206,-169 206,-185 0,-4 -40,33 -89,81 -49,49 -96,88 -105,88 -39,0 -8,-95 59,-180 19,-25 47,-62 61,-83 15,-20 42,-46 60,-58 19,-11 43,-33 54,-49 12,-16 34,-37 50,-47 17,-10 49,-51 76,-95 25,-43 51,-81 58,-85 7,-5 46,-57 87,-116 l 74,-109 -2,-139 c 0,-76 2,-139 6,-139 5,0 13,-37 19,-81 13,-92 48,-217 66,-239 7,-8 37,-55 65,-103 62,-104 94,-136 212,-217 75,-52 91,-68 113,-114 14,-30 26,-59 26,-65 0,-10 33,-32 55,-37 6,-2 35,-10 65,-19 130,-37 183,-46 320,-54 107,-6 158,-4 194,5 27,7 53,11 57,8 4,-2 34,21 66,52 32,30 51,52 43,48 -10,-5 -9,-1 4,14 10,12 28,24 40,28 11,3 31,18 44,33 13,14 20,19 16,11 -4,-8 4,-5 17,8 13,13 44,38 69,55 53,39 87,108 75,153 l -7,29 -19,-37 c -11,-21 -22,-38 -24,-38 -8,0 45,101 64,121 12,13 25,64 39,156 24,150 27,218 12,258 -18,46 -20,152 -5,182 19,35 19,117 2,135 -8,7 -39,63 -70,124 -55,107 -88,154 -107,154 -6,0 -10,3 -10,8 0,4 26,8 58,8 74,2 282,55 567,145 135,42 219,59 298,59 40,0 113,5 162,10 76,8 105,6 191,-11 85,-17 112,-18 167,-9 96,15 167,46 223,95 26,24 53,41 59,38 5,-4 7,-2 2,2 -4,5 3,19 15,32 15,16 25,47 34,105 16,100 10,152 -25,198 -14,19 -25,39 -23,43 1,4 -5,10 -13,13 -8,3 -12,10 -9,16 3,5 15,1 27,-9 22,-18 22,-18 4,4 -11,12 -25,19 -32,17 -7,-3 -16,0 -21,7 -5,8 -3,10 7,4 8,-4 4,2 -8,13 -12,12 -24,30 -27,40 -12,38 -297,85 -404,67 -18,-3 -30,-9 -28,-13 3,-5 -4,-8 -14,-9 -12,-1 -36,17 -59,43 -22,25 -65,58 -100,75 -34,17 -61,34 -61,38 0,10 -46,31 -70,31 -10,0 -33,18 -51,41 -24,30 -34,37 -40,27 -5,-7 -9,-8 -9,-3 0,6 5,16 12,23 9,9 9,12 -1,12 -7,0 -9,5 -6,10 3,6 1,10 -4,10 -6,0 -11,5 -11,11 0,21 -27,37 -56,33 -19,-3 -23,-2 -12,3 9,5 -46,8 -123,9 -84,0 -143,4 -147,10 -12,17 -161,41 -271,43 -93,2 -114,6 -188,36 -101,41 -190,61 -308,70 -69,6 -103,14 -146,36 -33,16 -95,35 -149,44 -51,9 -106,21 -121,28 -16,7 -107,90 -203,184 -95,95 -178,173 -184,173 -13,0 -97,98 -97,114 0,6 -4,11 -10,11 -16,1 -89,50 -105,71 -14,18 -14,18 6,1 20,-16 21,-16 37,1 10,10 17,21 17,25 0,4 25,31 56,61 31,30 60,58 64,62 43,46 173,175 241,240 46,44 102,104 124,134 22,29 52,61 66,69 53,32 121,97 140,133 11,21 32,47 49,59 28,21 137,154 172,209 8,14 32,64 53,113 36,84 37,90 31,166 -4,43 -13,102 -21,130 -7,28 -11,51 -9,51 6,0 -46,114 -55,120 -5,3 -45,79 -90,169 -44,90 -91,176 -105,190 -31,33 -126,180 -126,195 0,6 -27,53 -59,104 -32,51 -69,121 -81,155 -36,100 -40,107 -73,107 -29,0 -30,1 -25,45 4,35 1,50 -14,67 -10,12 -21,33 -24,47 -3,14 -14,58 -25,97 -28,104 -26,113 32,172 69,67 140,104 279,142 183,50 269,111 300,213 16,54 17,69 7,115 -7,29 -15,53 -17,52 -3,-1 -23,6 -45,16 -86,36 -265,-4 -470,-105 -90,-45 -167,-75 -215,-86 -41,-9 -114,-25 -161,-36 -48,-11 -93,-17 -100,-14 -23,9 -105,-50 -135,-95 -20,-30 -29,-58 -32,-101 -4,-52 0,-68 33,-136 64,-134 135,-382 135,-470 0,-18 3,-33 8,-33 4,0 8,-25 8,-55 1,-30 11,-97 24,-147 38,-163 42,-182 51,-232 23,-137 96,-283 215,-437 24,-30 44,-60 44,-66 0,-6 -30,-30 -67,-54 -38,-24 -98,-71 -134,-104 -83,-75 -250,-169 -399,-225 -63,-23 -168,-62 -232,-86 -64,-23 -126,-48 -137,-54 -18,-9 -20,-8 -14,7 3,10 13,27 22,38 9,11 34,46 55,78 22,32 50,67 63,77 46,36 92,108 139,215 26,59 62,128 81,154 18,25 43,66 55,91 11,24 27,50 34,57 20,20 29,78 28,169 -2,86 -20,194 -33,194 -11,0 -44,118 -36,130 17,27 -94,261 -137,291 -12,8 -85,134 -94,161 -3,13 -14,34 -24,48 -35,49 -148,276 -173,345 -31,88 -85,205 -102,225 -7,8 -21,44 -31,80 -26,96 -26,363 0,440 21,61 71,142 119,192 17,18 60,69 95,113 36,44 89,105 119,136 30,31 60,65 66,76 7,11 24,38 39,59 39,57 43,85 18,117 -12,15 -28,27 -36,27 -8,0 -34,10 -57,21 -55,29 -221,35 -322,13 z m -38,-3991 c -20,-2 -52,-2 -70,0 -17,2 0,4 38,4 39,0 53,-2 32,-4 z m 91,-10 c -10,-2 -26,-2 -35,0 -10,3 -2,5 17,5 19,0 27,-2 18,-5 z m 67,-13 c 13,-5 14,-9 5,-9 -8,0 -24,4 -35,9 -13,5 -14,9 -5,9 8,0 24,-4 35,-9 z m -346,-36 c -13,-14 -37,-35 -54,-46 -17,-11 -8,1 20,26 54,50 72,61 34,20 z m 431,10 c 23,-9 39,-18 37,-20 -2,-2 -25,5 -53,16 -27,10 -43,19 -37,20 7,0 31,-7 53,-16 z m 96,-40 c 63,-27 124,-76 152,-123 16,-27 46,-57 81,-80 61,-39 231,-170 231,-177 0,-3 -47,31 -105,75 -57,44 -123,90 -145,102 -27,15 -50,40 -66,70 -29,52 -63,81 -144,121 -61,30 -63,37 -4,12 z m -751,-104 c -44,-21 -91,-41 -105,-44 -20,-4 -19,-3 5,7 16,7 59,26 95,44 36,17 70,31 75,31 6,0 -26,-17 -70,-38 z m -240,-90 c -27,-10 -66,-18 -85,-18 -32,0 -31,1 10,8 25,5 56,13 70,18 14,6 32,11 40,11 8,0 -7,-9 -35,-19 z m -255,-47 c -45,-8 -157,-133 -220,-245 -17,-32 -34,-58 -37,-58 -9,0 60,115 99,165 80,101 128,145 156,144 l 27,-2 z m -286,-380 c -4,-10 -11,-72 -14,-138 l -6,-120 -2,106 c -2,93 10,169 25,169 3,0 2,-8 -3,-17 z m 4169,-854 c -5,-5 -7,7 -4,29 5,34 6,35 9,8 2,-16 0,-32 -5,-37 z m -486,-186 c 2,-6 15,-8 29,-5 16,3 29,-1 35,-9 6,-10 32,-14 96,-13 48,0 71,-2 51,-4 -43,-4 -48,-19 -18,-47 11,-10 28,-32 39,-50 l 19,-32 -77,-17 c -42,-9 -134,-20 -206,-23 l -130,-6 -80,34 c -53,22 -91,45 -113,69 -18,20 -55,47 -82,60 -28,13 -50,27 -50,31 0,10 114,21 193,18 37,-1 69,0 71,2 9,9 220,2 223,-8 z M 4858,1900 c 14,-19 37,-46 51,-58 23,-21 23,-22 4,-13 -12,6 -35,30 -51,54 -17,23 -57,64 -91,90 -33,27 -61,51 -61,53 0,12 125,-94 148,-126 z m 162,-125 c 0,-3 -18,4 -40,15 -22,11 -40,23 -40,25 0,3 18,-4 40,-15 22,-11 40,-23 40,-25 z m 120,-55 c 19,-11 31,-19 25,-19 -5,0 -26,8 -45,19 -19,11 -30,19 -25,19 6,0 26,-8 45,-19 z m 345,-87 c -23,-86 -29,-75 -7,15 9,39 19,66 21,60 2,-5 -4,-39 -14,-75 z m -233,14 c 48,-43 58,-59 62,-92 l 5,-40 -11,43 c -9,35 -23,54 -70,93 -33,27 -55,49 -51,49 4,0 34,-24 65,-53 z m 272,-71 c -3,-15 -8,-25 -11,-23 -2,3 -1,17 3,31 3,15 8,25 11,23 2,-3 1,-17 -3,-31 z m -77,-131 -13,-26 -25,21 c -23,20 -23,20 -1,8 30,-17 41,0 44,67 l 2,50 3,-47 c 3,-28 -2,-58 -10,-73 z m 73,12 c 0,-18 -7,-42 -16,-53 -15,-18 -15,-18 -5,3 6,12 11,35 11,52 0,17 2,31 5,31 3,0 5,-15 5,-33 z m -83,-219 c -2,-13 -4,-5 -4,17 -1,22 1,32 4,23 2,-10 2,-28 0,-40 z m 721,-665 c -10,-2 -28,-2 -40,0 -13,2 -5,4 17,4 22,1 32,-1 23,-4 z m 259,-40 c -20,-2 -52,-2 -70,0 -17,2 0,4 38,4 39,0 53,-2 32,-4 z"
           inkscape:connector-curvature="0" />
      </g>
      <g
         id="layer102"
         style="fill:#ff4466;stroke:none">
        <path
           id="path13"
           d="m 4216,4249 c -15,-6 -44,-29 -63,-50 -79,-87 -404,-219 -628,-253 -98,-16 -114,-21 -143,-49 -85,-81 -181,-224 -221,-330 -17,-46 -21,-80 -21,-164 0,-103 1,-110 37,-183 35,-72 43,-81 123,-138 47,-33 106,-68 130,-78 25,-9 57,-26 73,-36 15,-11 62,-38 105,-60 42,-22 91,-50 107,-62 17,-12 59,-40 94,-61 36,-21 83,-57 105,-79 38,-36 172,-130 241,-167 17,-9 30,-21 30,-27 0,-6 6,-17 14,-24 10,-10 12,-10 7,0 -15,27 16,10 56,-30 24,-24 36,-34 29,-23 -8,11 7,-2 32,-28 26,-26 47,-52 47,-57 0,-5 17,-26 37,-47 21,-20 32,-33 24,-29 -9,6 -12,5 -7,-2 4,-6 13,-9 21,-6 9,4 59,-38 132,-109 65,-64 151,-141 190,-172 40,-31 86,-75 102,-98 31,-45 119,-100 258,-161 41,-18 98,-54 128,-79 46,-40 55,-54 61,-92 5,-39 13,-50 54,-80 26,-19 52,-35 58,-35 13,0 22,25 22,63 0,40 42,217 52,217 14,0 30,-85 23,-125 -4,-22 -8,-71 -9,-110 -1,-62 -5,-76 -37,-125 -28,-44 -37,-69 -43,-122 -6,-61 -4,-69 16,-87 40,-38 122,-20 171,39 l 28,33 25,-24 c 14,-13 32,-37 41,-52 8,-16 29,-45 47,-65 27,-31 35,-52 49,-132 9,-52 19,-119 22,-148 17,-158 73,-208 254,-222 58,-5 133,-16 166,-25 40,-11 87,-16 141,-13 99,4 143,29 181,102 13,27 32,57 42,67 12,13 25,64 39,156 24,150 27,218 12,258 -18,46 -20,152 -5,182 19,35 19,117 2,135 -8,7 -39,63 -70,124 -55,107 -88,154 -107,154 -6,0 -10,3 -10,8 0,4 26,8 58,8 74,2 282,55 567,145 135,42 219,59 298,59 40,0 113,5 162,10 76,8 105,6 191,-11 85,-17 112,-18 167,-9 96,15 167,46 223,95 26,24 53,41 59,38 5,-4 7,-2 2,2 -4,5 3,19 15,32 15,16 25,47 34,105 16,100 10,152 -25,198 -14,19 -25,39 -23,43 1,4 -5,10 -13,13 -8,3 -12,10 -9,16 3,5 15,1 27,-9 22,-18 22,-18 4,4 -11,12 -25,19 -32,17 -7,-3 -16,0 -21,7 -5,8 -3,10 7,4 8,-4 4,2 -8,13 -12,12 -24,30 -27,40 -12,38 -297,85 -404,67 -18,-3 -30,-9 -28,-13 3,-5 -4,-8 -14,-9 -12,-1 -36,17 -59,43 -22,25 -65,58 -100,75 -34,17 -61,34 -61,38 0,10 -46,31 -70,31 -10,0 -33,18 -51,41 -24,30 -34,37 -40,27 -5,-7 -9,-8 -9,-3 0,6 5,16 12,23 9,9 9,12 -1,12 -7,0 -9,5 -6,10 3,6 1,10 -4,10 -6,0 -11,5 -11,11 0,21 -27,37 -56,33 -19,-3 -23,-2 -12,3 9,5 -46,8 -123,9 -84,0 -143,4 -147,10 -12,17 -161,41 -271,43 -93,2 -114,6 -188,36 -101,41 -190,61 -308,70 -69,6 -103,14 -146,36 -33,16 -95,35 -149,44 -51,9 -106,21 -121,28 -16,7 -107,90 -203,185 -95,94 -178,172 -183,172 -6,0 -37,30 -68,66 -32,36 -73,75 -91,87 -17,12 -81,60 -140,106 -60,47 -136,102 -169,122 -43,27 -67,51 -83,83 -38,71 -130,125 -312,183 -87,28 -257,40 -304,22 z M 7323,2699 c -5,-5 -7,7 -4,29 5,34 6,35 9,8 2,-16 0,-32 -5,-37 z m -486,-186 c 2,-6 15,-8 29,-5 16,3 29,-1 35,-9 6,-10 32,-14 96,-13 48,0 71,-2 51,-4 -43,-4 -48,-19 -18,-47 11,-10 28,-32 39,-50 l 19,-32 -77,-17 c -42,-9 -134,-20 -206,-23 l -130,-6 -80,34 c -53,22 -91,45 -113,69 -18,20 -55,47 -82,60 -28,13 -50,27 -50,31 0,10 114,21 193,18 37,-1 69,0 71,2 9,9 220,2 223,-8 z"
           inkscape:connector-curvature="0" />
      </g>
      <g
         id="layer103"
         style="fill:#b69682;stroke:none">
        <path
           id="path16"
           d="m 5270,3688 c 24,-27 45,-48 47,-48 8,0 0,9 -44,50 l -48,45 z"
           inkscape:connector-curvature="0" />
        <path
           id="path18"
           d="m 7306,2853 c 3,-16 10,-41 15,-57 17,-53 10,-82 -36,-151 -90,-133 -134,-165 -230,-165 -51,0 -58,-15 -24,-46 12,-10 27,-31 35,-45 9,-19 24,-28 51,-32 29,-5 59,-25 125,-85 73,-66 115,-93 254,-166 l 167,-86 h 91 c 86,0 96,2 142,31 27,17 66,47 87,67 37,36 37,36 37,118 0,76 -2,84 -25,102 -13,11 -47,22 -75,26 -27,4 -50,11 -50,17 0,15 -80,98 -101,104 -10,4 -19,14 -19,23 0,24 -50,91 -65,86 -7,-3 -30,16 -53,41 -23,26 -66,59 -101,76 -34,17 -61,34 -61,38 0,10 -46,31 -69,31 -20,0 -94,83 -84,94 4,3 1,6 -6,6 -7,0 -9,-10 -5,-27 z"
           inkscape:connector-curvature="0" />
        <path
           id="path20"
           d="m 5880,2460 c -94,-20 -115,-37 -125,-98 -12,-71 -14,-78 -53,-130 -28,-36 -49,-83 -71,-155 -17,-56 -49,-138 -70,-182 -53,-107 -63,-153 -44,-207 10,-29 13,-58 8,-88 -4,-25 -8,-76 -9,-115 -1,-62 -5,-76 -37,-125 -28,-44 -37,-69 -43,-122 -6,-61 -4,-69 16,-87 40,-38 122,-20 171,39 l 28,33 25,-24 c 14,-13 32,-37 41,-52 8,-16 29,-45 47,-65 27,-31 35,-52 49,-132 9,-52 19,-119 22,-148 17,-158 73,-208 254,-222 58,-5 133,-16 166,-25 40,-11 87,-16 141,-13 99,4 143,29 181,102 13,27 32,57 42,67 12,13 25,64 39,156 24,150 27,218 12,258 -18,46 -20,152 -5,182 19,35 19,117 2,135 -8,7 -39,63 -70,124 -54,105 -88,154 -106,154 -5,0 -7,17 -4,38 4,29 -1,51 -20,88 -40,78 -54,87 -160,94 -111,8 -150,23 -200,80 -31,34 -38,47 -33,69 31,133 31,147 -3,219 -17,38 -31,73 -31,78 0,5 -17,28 -38,50 l -37,42 z"
           inkscape:connector-curvature="0" />
      </g>
    </g>
    <g
       id="g70"
       transform="matrix(0.02645833,0,0,0.02645833,-58.006503,-56.899362)">
      <g
         id="layer101-7"
         style="fill:#000000;stroke:none">
        <path
           id="path41"
           d="m 5280,10774 c -151,-60 -190,-79 -280,-140 -42,-27 -112,-68 -155,-89 -111,-54 -159,-94 -174,-145 -20,-67 -12,-165 20,-241 39,-91 55,-230 39,-330 -6,-41 -16,-101 -21,-134 -23,-146 -38,-349 -44,-600 -8,-308 -1,-359 74,-563 21,-59 46,-134 55,-168 9,-34 27,-81 40,-105 13,-24 27,-66 31,-94 3,-27 15,-85 27,-128 18,-70 20,-96 15,-250 -4,-95 -11,-215 -16,-267 -6,-52 -13,-180 -16,-285 -8,-246 -22,-327 -95,-551 -60,-184 -77,-247 -105,-399 -18,-97 -21,-357 -4,-435 6,-30 14,-72 19,-93 8,-40 32,-73 60,-82 14,-4 17,-15 13,-56 -2,-28 -5,-55 -8,-58 -2,-4 3,-38 12,-77 10,-46 23,-74 36,-83 62,-44 70,-75 38,-139 -10,-20 -31,-73 -46,-117 -15,-44 -50,-124 -76,-178 -74,-147 -79,-180 -79,-584 0,-191 -5,-443 -11,-559 -9,-175 -8,-245 6,-414 9,-112 18,-206 20,-210 2,-3 13,-52 25,-108 11,-56 30,-138 42,-182 20,-77 25,-84 91,-146 46,-44 76,-82 92,-119 18,-40 34,-59 64,-75 36,-21 39,-26 34,-55 -3,-18 0,-42 6,-53 6,-12 18,-90 27,-174 13,-130 22,-173 59,-283 42,-126 44,-136 54,-315 6,-102 11,-217 11,-256 0,-43 6,-87 16,-110 25,-60 114,-190 188,-276 56,-65 73,-78 97,-78 44,0 141,-96 185,-181 30,-61 37,-68 80,-83 26,-9 60,-16 75,-16 14,0 75,-16 135,-36 99,-33 116,-35 189,-31 107,7 116,10 186,54 73,45 185,151 172,164 -4,4 -65,10 -133,12 l -125,3 137,2 137,2 46,48 c 50,51 105,141 130,212 9,25 27,96 39,158 26,125 24,161 -17,258 -22,52 -23,62 -12,94 7,19 13,77 14,128 2,88 0,94 -28,136 -34,50 -90,174 -115,256 -38,124 -41,127 -115,144 -36,8 -90,18 -118,22 -29,3 -53,10 -53,14 0,4 -8,10 -19,13 -22,5 -59,107 -67,187 l -6,55 56,1 c 46,0 64,6 106,35 27,19 50,37 50,42 0,4 5,7 11,7 12,0 79,52 121,94 16,16 54,80 84,144 45,90 58,130 66,191 11,87 7,171 -12,253 l -13,57 60,93 c 89,138 87,131 87,253 1,104 -1,113 -28,160 -16,28 -47,83 -69,124 l -40,73 36,132 c 19,72 45,201 57,286 33,232 95,466 207,775 94,259 97,270 81,297 -7,13 -14,37 -15,53 -1,17 -3,37 -4,45 -3,24 50,246 83,350 l 30,95 -17,125 c -23,174 -18,162 -92,204 -60,33 -72,36 -144,36 -69,0 -79,-2 -79,-18 0,-10 -7,-28 -17,-41 -32,-47 -73,-142 -73,-171 0,-30 0,-30 60,-30 h 60 v -82 c -1,-49 -12,-138 -28,-218 -24,-118 -30,-135 -47,-135 -30,-1 -90,23 -88,33 1,6 -4,16 -12,22 -8,7 -15,21 -15,31 0,11 -8,27 -19,38 -12,12 -16,23 -10,32 5,8 7,30 4,49 -4,20 -1,56 4,81 10,45 1,178 -30,414 -14,109 -71,292 -238,775 -28,80 -62,197 -77,260 -27,115 -75,248 -182,495 -37,88 -61,161 -73,225 -10,52 -31,147 -48,210 -17,63 -40,165 -51,225 -12,61 -34,151 -50,200 -20,65 -31,124 -37,210 -11,163 -9,446 4,469 6,10 53,52 104,92 75,59 110,79 174,100 132,44 207,82 258,132 105,102 114,193 29,285 -35,37 -90,36 -207,-3 -49,-17 -116,-37 -148,-45 -37,-10 -71,-28 -96,-50 -58,-53 -179,-103 -350,-146 -84,-21 -164,-45 -177,-54 -55,-36 -75,-127 -49,-226 13,-51 17,-124 21,-361 l 4,-297 -35,-12 c -28,-11 -36,-20 -41,-48 -6,-30 -8,-33 -15,-16 -6,17 -42,163 -53,221 -5,24 -17,74 -57,239 -53,222 -51,474 7,657 22,67 129,174 253,252 166,104 363,241 409,284 62,58 35,124 -67,165 -104,41 -122,45 -351,62 -47,3 -71,-3 -170,-41 z m 350,-3980 c -37,-8 -88,-9 -84,-2 3,4 26,7 52,7 26,-1 40,-3 32,-5 z m 150,-14 c 10,-6 2,-7 -25,-3 -49,7 -58,13 -19,13 16,0 36,-5 44,-10 z m -450,-470 c 0,-22 -5,-30 -17,-29 -11,0 -13,3 -5,6 6,2 12,16 12,29 0,13 2,24 5,24 3,0 5,-13 5,-30 z m 419,-161 c -13,-23 -31,-44 -39,-46 -12,-3 -12,-2 1,6 8,6 24,28 34,51 10,22 20,38 23,36 2,-3 -6,-24 -19,-47 z m 444,-3246 c 3,-5 -25,-7 -61,-5 -116,5 -130,9 -35,10 50,1 94,-1 96,-5 z m -753,-539 c 0,-3 -13,4 -30,16 -16,12 -30,24 -30,26 0,3 14,-4 30,-16 17,-12 30,-24 30,-26 z m 80,-66 c 22,-30 24,-34 5,-13 -14,17 -39,41 -53,53 -21,19 -22,21 -5,13 11,-6 35,-30 53,-53 z m 109,-378 c -1,-82 -6,-68 -12,30 -2,43 -1,66 4,55 4,-11 8,-49 8,-85 z m 4,-171 c -4,-4 -6,13 -3,39 l 5,47 3,-39 c 2,-21 0,-42 -5,-47 z m 80,-306 c -13,-2 -33,-2 -45,0 -13,2 -3,4 22,4 25,0 35,-2 23,-4 z"
           inkscape:connector-curvature="0" />
      </g>
      <g
         id="layer102-6"
         style="fill:#ff4466;stroke:none">
        <path
           id="path44"
           d="m 5511,6765 c -24,-14 -52,-25 -61,-25 -10,0 -26,-12 -36,-27 -22,-34 -84,-319 -84,-385 0,-34 -4,-48 -14,-48 -8,0 -21,-30 -35,-82 -30,-112 -77,-203 -126,-243 -44,-36 -138,-94 -231,-144 -37,-20 -67,-44 -79,-64 -10,-18 -33,-46 -51,-63 -27,-25 -33,-38 -32,-71 0,-23 -2,-45 -5,-50 -12,-19 25,-148 46,-162 62,-44 70,-75 38,-139 -10,-20 -31,-73 -46,-117 -15,-44 -50,-124 -76,-178 -74,-147 -79,-180 -79,-584 0,-191 -5,-443 -11,-559 -9,-175 -8,-245 6,-414 9,-112 18,-206 20,-210 2,-3 13,-52 25,-108 11,-56 30,-138 42,-182 20,-77 25,-84 91,-146 46,-44 76,-82 92,-118 30,-68 83,-104 126,-86 28,12 34,10 194,-65 17,-8 46,-20 65,-28 19,-8 67,-37 105,-65 39,-28 80,-58 91,-66 12,-8 37,-39 57,-68 42,-64 74,-206 88,-387 9,-114 9,-114 -21,-175 -36,-73 -48,-165 -30,-220 l 12,-38 97,5 c 53,3 108,8 123,12 26,7 27,6 53,-81 15,-49 35,-116 45,-149 11,-33 22,-82 26,-110 4,-28 19,-67 34,-90 15,-22 33,-57 41,-78 7,-21 18,-42 24,-46 29,-24 211,-51 335,-51 h 129 l 46,47 c 50,52 105,142 130,213 9,25 27,96 39,158 26,125 24,161 -17,258 -22,52 -23,62 -12,94 7,19 13,77 14,128 2,88 0,94 -28,136 -34,50 -90,174 -115,256 -38,124 -41,127 -115,144 -36,8 -90,18 -118,22 -29,3 -53,10 -53,14 0,4 -8,10 -19,13 -22,5 -59,107 -67,187 l -6,55 56,1 c 46,0 64,6 106,35 27,19 50,37 50,42 0,4 5,7 11,7 12,0 79,52 121,94 16,16 54,80 84,144 45,90 58,130 66,191 11,87 7,171 -12,253 l -13,57 60,93 c 89,138 87,131 87,253 1,104 -1,113 -28,160 -16,28 -47,83 -69,124 l -40,73 36,132 c 19,72 45,201 57,286 33,232 95,466 207,775 94,259 97,270 81,297 -7,13 -14,37 -15,53 -1,17 -3,37 -4,45 -3,24 50,246 83,350 l 30,95 -17,125 c -23,174 -18,162 -92,204 -60,33 -72,36 -144,36 -69,0 -79,-2 -79,-18 0,-10 -7,-28 -17,-41 -32,-47 -73,-142 -73,-171 0,-30 0,-30 60,-30 h 60 v -77 c 0,-77 -45,-339 -61,-357 -10,-12 -105,18 -102,32 1,6 -4,16 -12,22 -8,7 -15,20 -15,29 0,43 -44,65 -117,62 -124,-7 -259,6 -298,29 -18,11 -63,20 -115,24 -239,19 -314,31 -364,61 -27,16 -44,31 -37,33 6,2 28,36 48,75 48,96 136,443 127,504 -6,39 -9,43 -66,68 -50,22 -79,28 -162,31 -93,4 -104,2 -145,-21 z m 682,-3862 c 3,-5 -25,-7 -61,-5 -116,5 -130,9 -35,10 50,1 94,-1 96,-5 z"
           inkscape:connector-curvature="0" />
      </g>
      <g
         id="layer103-3"
         style="fill:#b69682;stroke:none">
        <path
           id="path47"
           d="m 5511,6765 c -24,-14 -52,-25 -62,-25 -9,0 -26,-15 -37,-32 -26,-44 -84,-329 -80,-392 l 3,-50 67,-17 c 36,-9 119,-44 183,-78 64,-33 121,-61 126,-61 5,0 25,33 45,72 49,97 137,444 128,505 -6,39 -9,43 -66,68 -50,22 -79,28 -162,31 -93,4 -104,2 -145,-21 z"
           inkscape:connector-curvature="0" />
        <path
           id="path49"
           d="m 6800,6492 c 0,-10 -7,-28 -17,-41 -32,-47 -73,-142 -73,-171 0,-30 0,-30 60,-30 h 60 v -82 c -1,-50 -12,-138 -29,-222 l -29,-139 32,-29 c 31,-29 93,-51 173,-62 l 42,-6 11,57 c 20,99 50,215 77,297 l 26,79 -18,126 c -23,175 -18,163 -92,205 -60,33 -72,36 -144,36 -69,0 -79,-2 -79,-18 z"
           inkscape:connector-curvature="0" />
        <path
           id="path51"
           d="m 5970,2891 c -14,-5 -54,-26 -90,-48 -36,-22 -96,-56 -135,-76 -38,-21 -135,-82 -215,-135 -116,-79 -150,-107 -169,-141 -28,-50 -29,-47 74,-119 101,-70 138,-129 165,-267 13,-60 26,-161 31,-224 9,-114 9,-114 -21,-175 -36,-73 -48,-165 -30,-220 l 12,-38 97,5 c 53,3 108,8 122,12 26,7 28,4 47,-57 46,-144 71,-236 78,-283 4,-28 19,-68 34,-90 15,-22 33,-57 41,-78 7,-21 18,-42 24,-46 29,-24 211,-51 335,-51 h 129 l 46,48 c 50,51 105,141 130,212 9,25 27,96 39,158 26,125 24,161 -17,258 -22,52 -23,62 -12,94 7,19 13,77 14,128 2,88 0,94 -28,136 -34,50 -90,174 -115,256 -38,124 -41,127 -115,144 -36,8 -90,18 -118,22 -29,3 -53,10 -53,14 0,4 -8,10 -19,13 -12,3 -25,25 -40,68 -41,124 -38,179 11,251 31,45 49,110 43,150 -5,27 -16,43 -44,62 -34,24 -45,26 -132,25 -51,0 -105,-4 -119,-8 z"
           inkscape:connector-curvature="0" />
      </g>
    </g>
  </g>
</svg>
