<?xml version="1.0" encoding="UTF-8" standalone="no"?>
<!-- Created with Inkscape (http://www.inkscape.org/) -->

<svg
   xmlns:dc="http://purl.org/dc/elements/1.1/"
   xmlns:cc="http://creativecommons.org/ns#"
   xmlns:rdf="http://www.w3.org/1999/02/22-rdf-syntax-ns#"
   xmlns:svg="http://www.w3.org/2000/svg"
   xmlns="http://www.w3.org/2000/svg"
   xmlns:sodipodi="http://sodipodi.sourceforge.net/DTD/sodipodi-0.dtd"
   xmlns:inkscape="http://www.inkscape.org/namespaces/inkscape"
   width="961.28741"
   height="721.05542"
   viewBox="0 0 254.34054 190.77925"
   version="1.1"
   id="svg8"
   inkscape:version="0.92.4 (5da689c313, 2019-01-14)"
   sodipodi:docname="women_sport.svg">
  <defs
     id="defs2" />
  <sodipodi:namedview
     id="base"
     pagecolor="#ffffff"
     bordercolor="#666666"
     borderopacity="1.0"
     inkscape:pageopacity="0.0"
     inkscape:pageshadow="2"
     inkscape:zoom="0.98994949"
     inkscape:cx="616.24621"
     inkscape:cy="99.122402"
     inkscape:document-units="px"
     inkscape:current-layer="layer1"
     showgrid="false"
     fit-margin-top="0"
     fit-margin-left="0"
     fit-margin-right="0"
     fit-margin-bottom="0"
     units="px"
     inkscape:window-width="3696"
     inkscape:window-height="2115"
     inkscape:window-x="131"
     inkscape:window-y="-13"
     inkscape:window-maximized="1"
     inkscape:pagecheckerboard="true" />
  <metadata
     id="metadata5">
    <rdf:RDF>
      <cc:Work
         rdf:about="">
        <dc:format>image/svg+xml</dc:format>
        <dc:type
           rdf:resource="http://purl.org/dc/dcmitype/StillImage" />
        <dc:title></dc:title>
      </cc:Work>
    </rdf:RDF>
  </metadata>
  <g
     inkscape:label="Calque 1"
     inkscape:groupmode="layer"
     id="layer1"
     transform="translate(-77.352634,-57.017573)">
    <path
       inkscape:connector-curvature="0"
       id="path182"
       style="fill:#eea987;fill-opacity:1;fill-rule:nonzero;stroke:none;stroke-width:0.03527778"
       d="m 209.0404,247.67352 c 2.57598,-0.0483 9.87813,-0.4258 13.93437,0.001 4.05553,0.42863 5.63033,-0.19226 5.34494,-3.10338 -0.0148,-0.1577 -0.0335,-0.31715 -0.0554,-0.48084 -0.36477,-2.84621 -1.50284,-6.42373 -1.58115,-7.61436 -0.0825,-1.258 -5.21653,-0.5595 -5.21653,-0.5595 0,0 -2.69099,3.97757 -4.17124,4.78966 -1.47849,0.81069 -5.95736,2.46416 -7.67504,3.22757 -0.12558,0.0568 -0.26211,0.10795 -0.40498,0.15663 h -0.002 c -1.81505,0.61489 -4.88421,0.70132 -5.32765,1.67323 -0.47696,1.05021 2.57739,1.95685 5.15443,1.90958" />
    <path
       inkscape:connector-curvature="0"
       id="path184"
       style="fill:#eea886;fill-opacity:1;fill-rule:nonzero;stroke:none;stroke-width:0.03527778"
       d="m 191.10237,157.75647 c 0,0 5.48146,-0.82832 5.54284,4.57341 0.0222,1.95756 -2.09479,3.50096 -2.1911,5.61939 -0.13194,2.90195 -1.05834,11.3531 -0.88265,12.25127 0.17568,0.89853 -0.5775,2.21121 -1.50178,1.45944 -0.92463,-0.75141 -1.20121,-3.20005 -1.77165,-4.20758 -0.57044,-1.00753 -3.91724,-16.24577 -3.94617,-19.33363 -0.0293,-3.08786 4.75051,-0.3623 4.75051,-0.3623" />
    <path
       inkscape:connector-curvature="0"
       id="path186"
       style="fill:#285173;fill-opacity:1;fill-rule:nonzero;stroke:none;stroke-width:0.03527778"
       d="m 230.21836,154.5469 c -4.19559,8.94608 -14.46707,6.31577 -18.18217,3.3849 -4.45594,-3.5179 -15.75822,-13.28596 -18.35008,-18.80623 0,0 -1.86725,15.49788 -2.01013,18.58821 l -6.42584,1.0922 c 0,0 -0.4244,-12.68518 -3.27167,-21.61222 -2.84797,-8.92775 -3.44134,-21.65526 -2.02741,-23.70455 1.41393,-2.04964 5.62751,-4.05059 7.96149,-2.92841 2.33362,1.12254 11.72456,6.56343 17.5775,14.57396 5.85222,8.00946 11.07404,14.49599 11.07404,14.49599 l 12.38497,-1.01494 c 0,0 5.46594,6.9857 1.2693,15.93109" />
    <path
       inkscape:connector-curvature="0"
       id="path188"
       style="fill:#285173;fill-opacity:1;fill-rule:nonzero;stroke:none;stroke-width:0.03527778"
       d="m 231.17509,142.32456 c 0,0 4.03613,8.47019 -2.11843,19.32304 0,0 -0.49671,6.81426 -0.56762,9.36978 -0.0709,2.55552 -1.49084,12.13838 -0.49707,16.75201 0.99378,4.61398 4.04601,11.49949 3.1235,18.17193 -0.92287,6.67209 -5.39503,25.97926 -4.33,30.87723 l -7.2009,-0.31997 c 0,0 -1.1751,-40.28228 -1.81398,-41.70186 -0.63888,-1.41958 -3.12349,-4.47181 -2.98132,-10.78935 0.14216,-6.3172 -8.73125,-30.52304 -8.87272,-37.69219 -0.14217,-7.16915 25.25854,-3.99062 25.25854,-3.99062" />
    <path
       inkscape:connector-curvature="0"
       id="path190"
       style="fill:#eea886;fill-opacity:1;fill-rule:nonzero;stroke:none;stroke-width:0.03527778"
       d="m 219.37679,58.368387 c -3.17571,-0.3429 -10.33392,0.84032 -11.92318,9.21632 0,0 0.12029,2.29023 0.56656,4.11092 0.44591,1.82033 -1.46855,6.99704 -1.0661,7.28168 0.40259,0.28474 2.11067,0.71896 2.11067,0.71896 0,0 1.51659,5.86917 3.54083,5.93973 2.02459,0.0702 9.77124,-1.05622 13.80067,-8.00665 4.02943,-6.95078 5.79402,-17.87631 -7.02945,-19.26096"
       sodipodi:nodetypes="cccscccc" />
    <path
       inkscape:connector-curvature="0"
       id="path192"
       style="fill:#0e2d3d;fill-opacity:1;fill-rule:nonzero;stroke:none;stroke-width:0.03527778"
       d="m 207.45361,67.584707 c 0,0 4.96111,3.83117 10.04993,4.84681 5.08917,1.01565 8.05356,6.50699 8.05356,6.50699 0,0 8.39329,-9.3412 2.56505,-17.64242 -5.82754,-8.30121 -21.20194,-3.61526 -20.66854,6.28862" />
    <path
       inkscape:connector-curvature="0"
       id="path194"
       style="fill:#eea886;fill-opacity:1;fill-rule:nonzero;stroke:none;stroke-width:0.03527778"
       d="m 223.38928,86.582147 c 0,0 -6.12775,4.8768 -8.45996,7.09541 -2.33186,2.21827 -10.02383,10.308523 -10.88919,12.869343 -0.86572,2.56046 1.32679,6.55919 2.88748,8.51817 1.4351,1.80199 -0.20037,5.54073 -0.18026,7.75123 0.0205,2.21086 -1.42417,18.42064 -0.45685,25.64518 0.31009,2.31458 18.10385,3.11221 25.61343,-3.71157 0,0 -0.52247,-2.40665 -4.30777,-12.31089 -1.16875,-3.05682 1.6062,-21.12221 3.20745,-24.75865 1.60126,-3.63608 0.65935,-20.532023 -7.41433,-21.098223" />
    <path
       inkscape:connector-curvature="0"
       id="path196"
       style="fill:#eea886;fill-opacity:1;fill-rule:nonzero;stroke:none;stroke-width:0.03527778"
       d="m 223.95196,86.629767 c -0.26246,-2.66206 0.56092,-6.40221 0.56092,-6.40221 0,0 -9.95468,3.58422 -8.40352,4.92866 0.40393,0.3503 0.64946,0.97754 0.79163,1.71379 0.40534,2.09197 -0.0222,5.06695 -0.0222,5.06695 l -3.50449,3.50379 c -3.13866,3.59974 10.70539,-7.51734 10.57769,-8.81098" />
    <path
       inkscape:connector-curvature="0"
       id="path198"
       style="fill:#eea886;fill-opacity:1;fill-rule:nonzero;stroke:none;stroke-width:0.03527778"
       d="m 223.95196,86.629767 c 8e-4,0.006 8e-4,0.0134 8e-4,0.0201 -0.0113,1.385 -13.70083,12.37297 -10.5784,8.79051 l 3.5045,-3.50308 c 0,0 0.0691,-0.47872 0.12453,-1.18639 0.0843,-1.05798 0.14076,-2.62819 -0.10231,-3.88055 -0.14146,-0.73696 -0.3877,-1.36384 -0.79128,-1.71415 -1.55081,-1.34444 8.40317,-4.92831 8.40317,-4.92831 0,0 -0.76623,3.47804 -0.58526,6.114 0.007,0.0967 0.0148,0.19261 0.0243,0.28786" />
    <path
       inkscape:connector-curvature="0"
       id="path200"
       style="fill:#eea886;fill-opacity:1;fill-rule:nonzero;stroke:none;stroke-width:0.03527778"
       d="m 219.6509,72.322157 c 0.0868,-0.99201 1.28058,-2.41688 2.82786,-0.96308 1.54693,1.45379 -0.9218,6.04731 -2.22849,5.50509 -1.30634,-0.54186 -0.68933,-3.51719 -0.59937,-4.54201" />
    <path
       inkscape:connector-curvature="0"
       id="path202"
       style="fill:#a77860;fill-opacity:1;fill-rule:nonzero;stroke:none;stroke-width:0.03527778"
       d="m 216.10936,85.156217 c 0.40393,0.3503 0.69356,1.20332 0.83538,1.93992 3.90489,-1.89971 5.97923,-5.3019 6.04484,-5.39997 -2.24437,2.31987 -6.88022,3.46005 -6.88022,3.46005" />
    <path
       inkscape:connector-curvature="0"
       id="path204"
       style="fill:#0e2d3d;fill-opacity:1;fill-rule:nonzero;stroke:none;stroke-width:0.03527778"
       d="m 218.35867,72.649187 c 0,0 1.82669,13.15155 -2.49308,15.29044 0,0 8.9154,-1.59314 13.3096,-6.26745 0,0 6.20748,-20.50662 -7.19808,-24.03757 -13.25104,-3.49038 -3.61844,15.01458 -3.61844,15.01458" />
    <path
       inkscape:connector-curvature="0"
       id="path206"
       style="fill:#eea886;fill-opacity:1;fill-rule:nonzero;stroke:none;stroke-width:0.03527778"
       d="m 179.38803,118.38471 c 0,0 -1.70604,-0.0356 -2.22885,-0.1076 -0.52282,-0.072 -0.1704,1.03611 0.43744,1.24178 0.60748,0.20567 1.79141,-1.13418 1.79141,-1.13418" />
    <path
       inkscape:connector-curvature="0"
       id="path208"
       style="fill:#eea886;fill-opacity:1;fill-rule:nonzero;stroke:none;stroke-width:0.03527778"
       d="m 178.44576,126.5374 c 0,0 0.74612,0.17568 1.10948,0.0935 0,0 0.65017,-0.20038 1.12113,-0.31468 0.14923,-0.0356 0.28046,-0.0639 0.36689,-0.073 0.3616,-0.0384 1.16664,-0.0148 2.00907,-0.35172 0.84137,-0.33514 3.69429,-1.82245 3.69429,-1.82245 l -0.83644,-2.6557 -0.63112,-2.10468 c 0,0 -4.84681,-1.25518 -5.66737,-1.03293 -0.0804,0.0222 -0.1584,0.0469 -0.23001,0.0759 -0.67663,0.25576 -1.07245,0.72989 -1.41217,0.90417 -0.12453,0.0649 -1.31763,0.79269 -1.37725,1.2065 -0.0836,0.57326 0.0914,1.00471 0.38806,1.26859 0,0 -0.11395,1.13065 0.30903,1.76777 0,0 -0.13864,1.03963 0.61313,1.68204 0,0 -0.0222,1.07033 0.54328,1.35678" />
    <path
       inkscape:connector-curvature="0"
       id="path210"
       style="fill:#eddad3;fill-opacity:1;fill-rule:nonzero;stroke:none;stroke-width:0.03527778"
       d="m 230.80361,107.68037 c -0.74365,1.68875 -1.7399,6.48759 -2.47614,11.45011 -0.001,7.9e-4 -0.001,0.002 -0.001,0.002 -11.59405,0.45614 -21.35294,1.76953 -21.35294,1.76953 0.38453,-2.06269 1.02623,-4.49015 -0.0459,-5.836 -1.56104,-1.95968 -3.7532,-5.95841 -2.88784,-8.51923 0.86607,-2.56011 8.55804,-10.650713 10.88919,-12.869333 0.50554,-0.48084 1.18957,-1.08656 1.94981,-1.7399 0,0 0.0692,-0.47872 0.12453,-1.18639 0.001,0 0.001,0 0.001,0 l 5.7538,-3.66431 0.004,-0.002 0.77012,-0.49036 0.39546,-0.25188 c 0.007,0.0967 0.0148,0.19262 0.0243,0.28787 8e-4,0.006 8e-4,0.0134 8e-4,0.0201 7.55332,1.29363 8.41445,17.480843 6.85094,21.030493" />
    <path
       inkscape:connector-curvature="0"
       id="path212"
       style="fill:#285173;fill-opacity:1;fill-rule:nonzero;stroke:none;stroke-width:0.03527778"
       d="m 227.99197,187.76939 c 0.99413,4.61398 4.04636,11.49949 3.12385,18.17193 -0.92286,6.67209 -5.39538,25.97926 -4.33105,30.87688 l -7.2002,-0.31962 c 0,0 -1.1751,-40.28228 -1.81363,-41.70221 -0.63923,-1.41923 -3.12349,-4.47146 -2.98167,-10.78865 0.13017,-5.80108 -7.33884,-26.68058 -8.67199,-35.60833 -0.002,-0.006 -0.002,-0.0134 -0.003,-0.0194 -0.34184,-2.43593 -0.40357,-8.25147 -0.19826,-8.37 0,0 13.55443,0.0741 23.6033,-2.42782 0.76976,2.11384 1.29681,3.64913 1.6563,4.74416 0.001,0.002 0.001,0.005 0.002,0.006 0.13687,0.29315 3.92359,8.65505 -2.12161,19.31527 0,0 -0.49636,6.81391 -0.56797,9.36943 -0.0702,2.55517 -1.49014,12.13802 -0.49636,16.75201" />
    <path
       inkscape:connector-curvature="0"
       id="path214"
       style="fill:#eea886;fill-opacity:1;fill-rule:nonzero;stroke:none;stroke-width:0.03527778"
       d="m 228.79948,92.597357 c 0,0 -3.02013,-2.73544 -6.54473,-0.50871 -3.5239,2.22709 -4.26649,5.30719 -5.39962,6.69078 -1.13241,1.383603 -7.66515,11.636383 -8.27546,11.826183 -0.60995,0.1905 -5.36046,1.55257 -10.91634,3.78601 -5.45042,2.19039 -12.38427,4.91701 -12.38427,4.91701 l -0.41486,2.56399 1.88242,2.1964 c 0,0 21.67959,-5.1308 26.80051,-8.20703 4.99745,-3.00178 12.17049,-11.38943 12.17049,-11.38943 0,0 7.5124,-7.512403 3.08186,-11.875203" />
    <path
       inkscape:connector-curvature="0"
       id="path216"
       style="fill:#20415c;fill-opacity:1;fill-rule:nonzero;stroke:none;stroke-width:0.03527778"
       d="m 193.68611,139.12557 c 0,0 0.31679,-7.19561 -0.52952,-9.43504 0.26846,0.6798 2.42676,6.32248 3.00461,13.17201 -1.08903,-1.35748 -1.95333,-2.62537 -2.47509,-3.73697" />
  </g>
</svg>
